<svg width="4318" height="2803" viewBox="0 0 4318 2803" fill="none" xmlns="http://www.w3.org/2000/svg">
<path d="M3883.41 2709.05C4086.38 2452.11 4207.53 2127.57 4207.53 1774.72C4207.53 941.59 3532.15 266.21 2699.02 266.21C1865.89 266.21 1190.51 941.6 1190.51 1774.72C1190.51 2127.57 1311.67 2452.11 1514.63 2709.05H3883.41Z" fill="#ECF3FE"/>
<path d="M3375.08 1468.56C3164.57 1458.65 3001.37 1279.33 3011.28 1068.82C3021.19 858.31 3200.51 695.11 3411.02 705.02C3481.77 708.35 3549.95 731.11 3608.19 770.85L3558.61 843.53C3513.82 812.98 3461.35 795.47 3406.88 792.91C3244.83 785.28 3106.78 910.92 3099.15 1072.97C3091.52 1235.02 3217.16 1373.07 3379.21 1380.7C3541.26 1388.33 3679.31 1262.69 3686.94 1100.64C3688.4 1069.59 3685.03 1038.81 3676.93 1009.16L3761.8 985.97C3772.34 1024.54 3776.72 1064.51 3774.83 1104.78C3764.92 1315.27 3585.59 1478.47 3375.08 1468.56Z" fill="#C4D7F2"/>
<path d="M3392.29 1201.58L3252.19 1047.65L3317.26 988.44L3398.14 1077.3L3818.3 693.05L3877.52 758.11L3392.29 1201.58Z" fill="#C4D7F2"/>
<path d="M1149.99 1665.28C1609.84 1665.28 1982.63 1292.49 1982.63 832.64C1982.63 372.786 1609.84 0 1149.99 0C690.135 0 317.35 372.786 317.35 832.64C317.35 1292.49 690.135 1665.28 1149.99 1665.28Z" fill="#ECF3FE"/>
<path d="M535.36 2664.8L647.53 2645.69C647.52 2643.55 647.49 2641.27 647.47 2638.87C647.47 2637.47 647.46 2636.02 647.44 2634.51V2634.48C647.36 2628.61 647.28 2622.04 647.15 2614.85C646.96 2603.1 646.68 2589.64 646.33 2574.65C646.22 2570.69 646.12 2566.61 646 2562.42C645.88 2558.22 645.77 2553.91 645.64 2549.51C645.54 2545.61 645.4 2541.65 645.27 2537.58C645.24 2537.08 645.22 2536.61 645.23 2536.1C645.17 2533.82 645.07 2531.53 645 2529.19C644.9 2526.36 644.8 2523.49 644.72 2520.57C644.55 2516.26 644.4 2511.9 644.23 2507.44C644.11 2504.14 643.99 2500.77 643.82 2497.39C643.77 2495.71 643.69 2494 643.63 2492.29C643.58 2491.14 643.54 2490.02 643.49 2488.87C643.31 2484.83 643.15 2480.76 642.97 2476.61C642.59 2467.77 642.2 2458.69 641.74 2449.39C641.2 2438.23 640.64 2426.75 640 2414.98C638.04 2378.77 635.6 2339.85 632.55 2298.96C632.13 2293.33 631.7 2287.68 631.26 2281.96C630.91 2277.48 630.56 2272.97 630.18 2268.46C629.61 2261.13 628.98 2253.76 628.37 2246.33C627.82 2239.98 627.27 2233.6 626.71 2227.17C625.87 2217.87 625.02 2208.52 624.12 2199.08C623.39 2191.49 622.65 2183.86 621.91 2176.18C620.95 2166.55 619.98 2156.86 618.92 2147.12C618.47 2142.74 617.99 2138.34 617.51 2133.94C616.58 2125.16 615.61 2116.33 614.57 2107.46C613.66 2099.48 612.7 2091.45 611.74 2083.39C611.08 2077.77 610.39 2072.16 609.67 2066.52C608.58 2057.86 607.49 2049.2 606.36 2040.48C605.77 2035.98 605.19 2031.51 604.56 2026.98C603.94 2022.48 603.32 2017.99 602.71 2013.49C602.09 2008.96 601.47 2004.47 600.82 1999.95C599.55 1990.91 598.22 1981.9 596.88 1972.83C590 1926.86 582.21 1880.81 573.35 1835.44L573.34 1835.38C572.38 1830.47 571.43 1825.55 570.41 1820.65C569.74 1817.08 569.02 1813.52 568.27 1810L568.25 1809.88C566.99 1803.74 565.72 1797.66 564.42 1791.59C563.19 1785.77 561.93 1779.96 560.65 1774.18C559.18 1767.45 557.65 1760.74 556.12 1754.05C490.62 1468.97 378.12 1231.64 185.16 1247.3C183.26 1247.45 181.35 1247.62 179.44 1247.86C170.57 1248.78 161.5 1250.26 152.29 1252.28C131.23 1256.91 112.64 1263.67 96.3699 1272.41C93.8899 1273.69 91.4499 1275.06 89.0799 1276.47C-233.93 1469.01 416.58 2484.84 535.36 2664.8Z" fill="#C4D7F2"/>
<path d="M109.88 1467.62L115.11 1494.28C122.11 1529.81 130.87 1564.98 139.99 1600.03C142.14 1608.81 144.74 1617.48 147.18 1626.21L154.57 1652.35C156.92 1661.09 159.78 1669.69 162.47 1678.32L170.65 1704.21C175.92 1721.54 182.14 1738.53 187.91 1755.68L196.74 1781.34L206.16 1806.81C218.32 1840.9 232.32 1874.28 245.74 1907.89L267.06 1957.75C270.64 1966.05 274.12 1974.42 277.78 1982.67L289.02 2007.35C296.59 2023.75 304.09 2040.23 311.81 2056.58L335.58 2105.28L347.48 2129.64L359.87 2153.74C368.16 2169.81 376.34 2185.93 384.74 2201.93C393.11 2217.93 401.99 2233.66 410.61 2249.53C419.33 2265.35 427.86 2281.26 436.75 2297C454.76 2328.28 472.5 2359.75 491.18 2390.62C515.89 2431.98 541.22 2472.96 567.23 2513.54C581.1 2535.19 595.17 2556.75 609.41 2578.16C615.94 2588.06 622.54 2597.92 629.21 2607.74V2607.77C629.8 2608.65 630.39 2609.5 630.99 2610.38C636.43 2618.45 641.92 2626.45 647.45 2634.47V2634.5C649.71 2637.85 652.01 2641.2 654.32 2644.52L664.07 2642.86C658.41 2633.52 652.78 2624.18 647.15 2614.84C639.87 2602.75 632.64 2590.65 625.41 2578.56C624.83 2577.62 624.26 2576.68 623.71 2575.7C615.35 2561.66 607.02 2547.64 598.72 2533.59C586.07 2512.12 573.49 2490.6 561.03 2469C543.87 2439.36 526.91 2409.56 510.18 2379.67C501.17 2364.1 492.9 2348.15 484.28 2332.37L458.35 2285.1C449.81 2269.31 441.62 2253.31 433.22 2237.43C424.95 2221.47 416.41 2205.68 408.36 2189.62C400.42 2173.52 392.21 2157.55 384.13 2141.5L371.96 2117.48L360.32 2093.22L337 2044.68C329.42 2028.4 322.11 2012.01 314.64 1995.71L303.35 1971.27C299.64 1963.11 296.16 1954.83 292.53 1946.63L271.08 1897.26L250.69 1847.48C247.26 1839.19 243.88 1830.89 240.76 1822.48L231.03 1797.42L221.24 1772.37L212.04 1747.1C206.02 1730.22 199.54 1713.49 194.02 1696.44L185.43 1670.95C182.59 1662.47 179.69 1653.97 177.07 1645.42L168.96 1619.79C166.28 1611.22 163.44 1602.71 161.05 1594.09L153.59 1568.26C151.11 1559.66 148.55 1551.07 146.39 1542.38L139.58 1516.38C138.48 1512.03 137.24 1507.72 136.17 1503.36L133.05 1490.29L126.75 1464.14C124.78 1455.39 123 1446.64 121.12 1437.88C117.16 1420.39 114.26 1402.68 110.88 1385.09C104.74 1349.77 99.8998 1314.2 96.8598 1278.44L96.3699 1272.41C93.8899 1273.69 91.4499 1275.06 89.0799 1276.47C89.0699 1277.27 89.0798 1278.04 89.0998 1278.84C89.8398 1315.05 93.0798 1351.13 97.2798 1387.11C99.8298 1405.02 102.09 1423.01 105.31 1440.84C106.83 1449.77 108.24 1458.73 109.88 1467.62Z" fill="#ECF3FE"/>
<path d="M179.42 1247.87L181.72 1251.25C184.3 1254.91 186.41 1258.91 188.78 1262.72L202.55 1285.85C203.68 1287.77 204.89 1289.67 205.97 1291.62L209.09 1297.59L215.42 1309.48L228.05 1333.24C232.44 1341.04 236.01 1349.31 239.92 1357.4L251.37 1381.75C255.16 1389.86 259.19 1397.87 262.88 1406.06L273.42 1430.83L294.51 1480.35C307.35 1513.9 320.52 1547.28 333.22 1580.83L350.87 1631.76L368.75 1682.54C371.88 1690.97 374.42 1699.59 377.18 1708.15L385.33 1733.84L401.62 1785.18L409.82 1810.86L413.96 1823.66L417.74 1836.61L432.85 1888.36L447.99 1940.11L455.55 1965.99C456.79 1970.29 458.11 1974.58 459.27 1978.92L462.71 1991.96L490.85 2096.12L504.92 2148.17C509.46 2165.57 513.46 2183.11 517.94 2200.55L540.74 2291.31V2291.34L544.24 2305.23L557.29 2357.6L569.6 2410.16C577.85 2445.18 585.88 2480.27 594.31 2515.29L598.71 2533.6L606.92 2567.83C607.77 2571.28 608.6 2574.73 609.4 2578.18C610.63 2583.49 611.78 2588.82 612.92 2594.15L618.72 2620.53C620.9 2630.19 623.05 2639.83 625.23 2649.49L637.29 2647.44C635.6 2637.54 633.92 2627.68 632.27 2617.78L630.98 2610.4L627.63 2591.11C626.92 2586.93 626.18 2582.75 625.41 2578.57C624.58 2573.87 623.69 2569.18 622.75 2564.54L617.46 2537.66L617.41 2537.34L612.35 2511.45C605.43 2476.05 598.13 2440.72 591.04 2405.36L580.34 2352.32C576.51 2334.72 572.27 2317.18 568.24 2299.58L543.83 2194.13C539.77 2176.57 535.67 2158.98 531.27 2141.5L530.07 2136.9L530.06 2136.84L517.48 2089.14L489.84 1984.42L486.31 1971.37C485.12 1967 483.77 1962.72 482.49 1958.36L474.72 1932.43L459.22 1880.51L443.7 1828.62L439.83 1815.65L435.59 1802.78L426.97 1777.09L409.61 1725.75L400.96 1700.06C398.02 1691.54 395.31 1682.91 392.03 1674.48L372.99 1623.72L353.7 1573.04C346.9 1556.3 339.7 1539.68 332.74 1523.03C325.66 1506.37 318.77 1489.67 311.44 1473.13L288.09 1424.12L276.41 1399.66C272.33 1391.57 268 1383.61 263.74 1375.64L250.88 1351.74C246.5 1343.82 242.48 1335.72 237.64 1328.05L223.61 1304.79L216.59 1293.19L213.05 1287.41C211.81 1285.51 210.48 1283.66 209.22 1281.8L193.83 1259.43C191.21 1255.75 188.86 1251.88 186.01 1248.35L185.21 1247.33C183.24 1247.46 181.34 1247.64 179.42 1247.87Z" fill="#ECF3FE"/>
<path opacity="0.2" d="M589.82 2655.52L647.52 2645.69C647.51 2643.55 647.48 2641.27 647.46 2638.87C647.46 2637.47 647.42 2636.03 647.43 2634.51V2634.48C647.35 2628.61 647.27 2622.04 647.14 2614.85C646.95 2603.1 646.67 2589.64 646.32 2574.65C646.21 2570.69 646.11 2566.61 645.99 2562.42C645.87 2558.22 645.76 2553.91 645.63 2549.51C645.5 2545.61 645.39 2541.63 645.26 2537.58C645.23 2537.08 645.21 2536.61 645.22 2536.1C645.13 2533.83 645.06 2531.53 644.99 2529.19C644.89 2526.36 644.79 2523.49 644.71 2520.57C644.54 2516.26 644.39 2511.9 644.22 2507.44C644.1 2504.14 643.98 2500.77 643.81 2497.39C643.76 2495.71 643.68 2494 643.62 2492.29C643.57 2491.14 643.53 2490.02 643.48 2488.87C643.3 2484.83 643.14 2480.76 642.96 2476.61C642.58 2467.77 642.19 2458.69 641.73 2449.39C641.19 2438.2 640.6 2426.75 639.99 2414.98C638.03 2378.77 635.59 2339.85 632.54 2298.96C632.12 2293.33 631.69 2287.68 631.25 2281.96C630.9 2277.48 630.55 2272.97 630.17 2268.46C629.6 2261.13 628.97 2253.76 628.36 2246.33C627.81 2239.98 627.26 2233.57 626.7 2227.17C625.86 2217.87 625.01 2208.52 624.11 2199.08C623.38 2191.49 622.64 2183.86 621.9 2176.18C620.94 2166.55 619.97 2156.86 618.91 2147.12C618.46 2142.74 617.98 2138.34 617.5 2133.94C616.57 2125.16 615.6 2116.33 614.56 2107.46C613.64 2099.45 612.72 2091.45 611.73 2083.39C611.07 2077.77 610.38 2072.16 609.66 2066.52C608.57 2057.86 607.48 2049.2 606.35 2040.48C605.76 2035.98 605.18 2031.51 604.55 2026.98C603.93 2022.48 603.31 2017.99 602.7 2013.49C602.08 2008.96 601.46 2004.47 600.81 1999.95C599.54 1990.91 598.21 1981.9 596.87 1972.83C590.01 1926.86 582.23 1880.8 573.34 1835.44L573.33 1835.38C572.37 1830.47 571.42 1825.55 570.4 1820.65C569.73 1817.08 569.01 1813.52 568.26 1810L568.24 1809.88C566.98 1803.74 565.71 1797.66 564.41 1791.59C563.18 1785.77 561.92 1779.96 560.64 1774.18C559.17 1767.45 557.64 1760.74 556.11 1754.05C528.41 1857.36 523.81 1996.69 530.02 2136.83L530.03 2136.89C532.3 2188.87 536.09 2240.92 540.73 2291.31V2291.34C546.55 2354.38 553.72 2414.79 561 2469.01C563.06 2484.39 565.15 2499.27 567.19 2513.55C575.69 2572.61 583.9 2621.83 589.82 2655.52Z" fill="#003889"/>
<path d="M629.18 2607.76V2607.79C632.35 2625.89 634.87 2639.45 636.41 2647.59L724.83 2632.52C795.15 2459.84 1076.35 1726.62 849.05 1568.53C845.58 1566.12 842.02 1563.85 838.33 1561.72C822.62 1552.64 804.72 1546.04 784.48 1542.22C779.88 1541.34 775.37 1540.66 770.95 1540.19C769.16 1539.96 767.41 1539.78 765.67 1539.67C643.21 1529.55 590.24 1660.2 573.31 1835.39L573.32 1835.45C551.16 2065.15 590.94 2371.39 617.38 2537.34L617.43 2537.66C619.62 2551.36 621.69 2564.07 623.68 2575.72C625.65 2587.55 627.51 2598.28 629.18 2607.76Z" fill="#C4D7F2"/>
<path d="M679.31 2640.27L688.05 2638.78C717.02 2565.77 743.16 2491.61 766.55 2416.53C798.36 2314.89 824.93 2211.39 843.98 2106.32C846.28 2093.16 848.8 2080.06 850.89 2066.88L856.97 2027.28L858.46 2017.35L859.71 2007.43L862.2 1987.53L864.66 1967.64C865.49 1961.03 866.02 1954.35 866.67 1947.7C872.07 1894.53 875.15 1841.01 874.54 1787.47C874.4 1774.11 873.9 1760.71 873.61 1747.34C872.94 1733.98 872.32 1720.6 871.26 1707.25L869.4 1687.26L868.44 1677.27L867.22 1667.3L864.71 1647.36L861.63 1627.52C858.11 1607.73 854.12 1587.98 849.08 1568.53C845.61 1566.12 842.05 1563.85 838.36 1561.72C842.71 1584.11 845.85 1606.7 848.1 1629.35L850.03 1649.03L851.37 1668.72L852.01 1678.59L852.39 1688.47L853.11 1708.21L853.61 1747.73C853.36 1760.89 853.29 1774.06 852.89 1787.25C852.28 1800.42 851.82 1813.56 851.07 1826.72L848.47 1866.17L844.88 1905.55C844.37 1912.11 843.52 1918.67 842.8 1925.2L840.51 1944.86C839.73 1951.41 839.09 1957.96 838.21 1964.49L835.52 1984.1L832.84 2003.71L831.48 2013.5L829.88 2023.27L823.69 2062.38C821.6 2075.38 819 2088.35 816.71 2101.36C812.36 2127.39 806.69 2153.21 801.58 2179.14C800.37 2185.61 798.94 2192.06 797.49 2198.51L793.19 2217.89C790.28 2230.77 787.55 2243.7 784.58 2256.58L775.3 2295.15C772.18 2308 769.3 2320.9 765.84 2333.69L755.94 2372.13L751.09 2391.39L745.86 2410.54C726.4 2482.58 705.36 2554.24 683.69 2625.83C682.21 2630.63 680.78 2635.45 679.31 2640.27Z" fill="#ECF3FE"/>
<path d="M673.28 2641.3L684.01 2639.47C683.89 2634.92 683.79 2630.36 683.67 2625.81C683.48 2616.85 683.26 2607.89 683.04 2598.93L682.64 2519.05C682.62 2492.42 681.91 2465.83 681.93 2439.25L682.58 2399.33L683 2359.45C683.4 2332.87 683.02 2306.28 684.32 2279.72L686.81 2200.06L687.33 2180.14L688.42 2160.24L690.64 2120.47C692.73 2067.39 697.73 2014.53 701.56 1961.56L709.74 1882.36C710.87 1869.13 712.91 1856.02 714.53 1842.86L719.52 1803.36C720.42 1796.76 721.04 1790.16 722.15 1783.61L725.27 1763.96C727.37 1750.87 729.47 1737.74 731.42 1724.62C732.32 1718.03 733.55 1711.52 734.75 1704.99L738.36 1685.4L741.97 1665.82L743.77 1656.01L745.86 1646.3L754.09 1607.28L763.4 1568.53C765.89 1559.08 768.37 1549.6 770.98 1540.16C769.19 1539.93 767.44 1539.75 765.7 1539.64C764.72 1542.24 763.77 1544.84 762.81 1547.41C760.56 1553.73 758 1559.93 756 1566.32C751.78 1579 747.59 1591.71 743.6 1604.5L732.52 1643.11L729.8 1652.78L727.42 1662.51L722.67 1682.02L717.92 1701.53C716.33 1708.04 714.71 1714.55 713.42 1721.12C710.63 1734.21 708 1747.34 705.37 1760.46L701.39 1780.17C700.01 1786.73 699.1 1793.36 697.93 1799.94L691.26 1839.55C689.11 1852.74 686.77 1865.97 685.23 1879.23L675.09 1958.92L667.81 2038.86C666.58 2052.19 665.38 2065.52 664.8 2078.89L662.57 2118.93L659.45 2179.04L659.01 2199.09L657.66 2279.3C656.96 2306.02 657.71 2332.76 658.2 2359.48L658.97 2399.54L659.98 2439.62C662.42 2492.97 665.75 2546.31 669.25 2599.57C670.57 2613.5 671.93 2627.4 673.28 2641.3Z" fill="#ECF3FE"/>
<path d="M3298.94 2618C3298.94 2618 3980.54 1673.02 4289.11 1644.92C4289.11 1644.92 4408.19 1752.51 3885.64 2148.51C3363.09 2544.51 3298.94 2618 3298.94 2618Z" fill="#C4D7F2"/>
<path d="M3278.95 2583.37C3278.95 2583.37 4072.54 2125.92 4302.82 2205.36C4302.82 2205.36 4353.46 2320.92 3851.06 2436.15C3348.66 2551.38 3278.95 2583.37 3278.95 2583.37Z" fill="white"/>
<path d="M3138.61 2499.64C3161.43 2458.3 3249.09 2361.26 3413.02 2331.17C3439.84 2326.25 3499.4 2315.31 3520.98 2329.86C3563.87 2358.77 3372.42 2471.55 3397.27 2486.58C3423.69 2502.55 3649.14 2383.7 3687.42 2403C3705.4 2412.07 3531.94 2485.8 3536.72 2585.84C3537.8 2608.44 3547.61 2627.24 3556.96 2640.69H3088.7C3088.71 2640.69 3082.37 2601.51 3138.61 2499.64Z" fill="#29BEAC"/>
<path d="M2173.05 2802.97C3357.66 2802.97 4317.98 2760.84 4317.98 2708.87C4317.98 2656.9 3357.66 2614.77 2173.05 2614.77C988.438 2614.77 28.1199 2656.9 28.1199 2708.87C28.1199 2760.84 988.438 2802.97 2173.05 2802.97Z" fill="#D7E4F9"/>
<path d="M3134.24 2501.16H767.77V904.07C767.77 863.49 800.66 830.6 841.24 830.6H3060.76C3101.34 830.6 3134.23 863.49 3134.23 904.07V2501.16H3134.24Z" fill="#7C38E9"/>
<path d="M3010.86 2377.78L3010.86 953.985L891.165 953.985L891.165 2377.78L3010.86 2377.78Z" fill="#7C39EB"/>
<path d="M3010.85 2391.42H891.16C883.62 2391.42 877.51 2385.31 877.51 2377.77V953.99C877.51 946.45 883.62 940.34 891.16 940.34H3010.85C3018.39 940.34 3024.5 946.45 3024.5 953.99V2377.78C3024.5 2385.31 3018.39 2391.42 3010.85 2391.42ZM904.81 2364.12H2997.2V967.64H904.81V2364.12Z" fill="white"/>
<path d="M3370.94 2501.17V2538.28C3370.94 2547.78 3370 2557.06 3368.18 2566.04C3355.32 2630.37 3298.52 2678.84 3230.41 2678.84H671.61C603.5 2678.84 546.69 2630.37 533.84 2566.04C532.01 2557.06 531.08 2547.78 531.08 2538.28V2501.17H3370.94Z" fill="white"/>
<path d="M3368.17 2566.05C3355.31 2630.38 3298.51 2678.85 3230.4 2678.85H671.61C603.5 2678.85 546.69 2630.38 533.84 2566.05H3368.17Z" fill="#4C1A9C"/>
<path opacity="0.18" d="M2583.75 736.44L1360.52 746.46C1335.12 746.67 1314.69 767.43 1314.9 792.83L1325.33 2066.62C1325.54 2092.02 1346.3 2112.45 1371.7 2112.24L2594.93 2102.22C2620.33 2102.01 2640.76 2081.25 2640.55 2055.85L2630.12 782.06C2629.91 756.65 2609.15 736.23 2583.75 736.44Z" fill="#003889"/>
<path d="M2637.03 2084.54L1415.11 2027.03C1389.73 2025.84 1370.13 2004.3 1371.33 1978.92L1431.22 706.5C1432.41 681.12 1453.95 661.52 1479.33 662.72L2701.25 720.23C2726.63 721.42 2746.23 742.96 2745.03 768.34L2685.14 2040.76C2683.95 2066.13 2662.41 2085.73 2637.03 2084.54Z" fill="white"/>
<path d="M1628.1 1203.07C1578.81 1200.75 1540.6 1158.76 1542.92 1109.47C1545.24 1060.18 1587.23 1021.97 1636.52 1024.29C1653.09 1025.07 1669.05 1030.4 1682.69 1039.7L1671.08 1056.72C1660.59 1049.57 1648.31 1045.47 1635.55 1044.87C1597.61 1043.08 1565.28 1072.5 1563.5 1110.44C1561.71 1148.38 1591.13 1180.71 1629.07 1182.49C1667.01 1184.28 1699.34 1154.86 1701.12 1116.92C1701.46 1109.65 1700.67 1102.44 1698.78 1095.5L1718.65 1090.07C1721.12 1099.1 1722.14 1108.46 1721.7 1117.89C1719.38 1167.17 1677.39 1205.39 1628.1 1203.07Z" fill="#29BEAC"/>
<path d="M1632.13 1140.55L1599.33 1104.51L1614.56 1090.65L1633.5 1111.45L1731.88 1021.48L1745.74 1036.72L1632.13 1140.55Z" fill="#29BEAC"/>
<path d="M2177.34 1108.39L1821.98 1091.66C1811.01 1091.14 1802.53 1081.83 1803.04 1070.85C1803.56 1059.88 1812.87 1051.4 1823.85 1051.91L2179.21 1068.64C2190.18 1069.16 2198.66 1078.47 2198.15 1089.45C2197.63 1100.43 2188.31 1108.9 2177.34 1108.39Z" fill="#E4ECF9"/>
<path d="M2572.78 1228.71L1817.21 1193.15C1806.24 1192.63 1797.76 1183.32 1798.27 1172.34C1798.79 1161.37 1808.1 1152.89 1819.08 1153.4L2574.65 1188.96C2585.62 1189.48 2594.1 1198.79 2593.59 1209.77C2593.07 1220.75 2583.75 1229.23 2572.78 1228.71Z" fill="#E4ECF9"/>
<path d="M1616.66 1446.07C1567.37 1443.75 1529.16 1401.76 1531.48 1352.47C1533.8 1303.18 1575.79 1264.97 1625.08 1267.29C1641.65 1268.07 1657.61 1273.4 1671.25 1282.7L1659.64 1299.72C1649.15 1292.57 1636.87 1288.47 1624.11 1287.87C1586.17 1286.08 1553.84 1315.5 1552.06 1353.44C1550.27 1391.38 1579.69 1423.71 1617.63 1425.49C1655.57 1427.28 1687.9 1397.86 1689.68 1359.92C1690.02 1352.65 1689.23 1345.44 1687.34 1338.5L1707.21 1333.07C1709.68 1342.1 1710.7 1351.46 1710.26 1360.89C1707.94 1410.18 1665.95 1448.39 1616.66 1446.07Z" fill="#29BEAC"/>
<path d="M2165.9 1351.4L1810.54 1334.67C1799.57 1334.15 1791.09 1324.84 1791.6 1313.86C1792.12 1302.89 1801.43 1294.41 1812.41 1294.92L2167.77 1311.65C2178.74 1312.17 2187.22 1321.48 2186.71 1332.46C2186.19 1343.44 2176.88 1351.91 2165.9 1351.4Z" fill="#E4ECF9"/>
<path d="M2561.34 1471.72L1805.77 1436.16C1794.8 1435.64 1786.32 1426.33 1786.83 1415.35C1787.35 1404.38 1796.66 1395.9 1807.64 1396.41L2563.21 1431.97C2574.18 1432.49 2582.66 1441.8 2582.15 1452.78C2581.63 1463.76 2572.31 1472.24 2561.34 1471.72Z" fill="#E4ECF9"/>
<path d="M1605.22 1689.08C1555.93 1686.76 1517.72 1644.77 1520.04 1595.48C1522.36 1546.19 1564.35 1507.98 1613.64 1510.3C1630.21 1511.08 1646.17 1516.41 1659.81 1525.71L1648.2 1542.73C1637.71 1535.58 1625.43 1531.48 1612.67 1530.88C1574.73 1529.09 1542.4 1558.51 1540.62 1596.45C1538.83 1634.39 1568.25 1666.72 1606.19 1668.5C1644.13 1670.29 1676.46 1640.87 1678.24 1602.93C1678.58 1595.66 1677.79 1588.45 1675.9 1581.51L1695.77 1576.08C1698.24 1585.11 1699.26 1594.47 1698.82 1603.9C1696.5 1653.19 1654.51 1691.4 1605.22 1689.08Z" fill="#29BEAC"/>
<path d="M1609.25 1626.57L1576.45 1590.53L1591.69 1576.66L1610.62 1597.47L1709 1507.5L1722.87 1522.73L1609.25 1626.57Z" fill="#29BEAC"/>
<path d="M2154.46 1594.41L1799.1 1577.68C1788.13 1577.16 1779.65 1567.85 1780.16 1556.87C1780.68 1545.9 1789.99 1537.42 1800.97 1537.93L2156.33 1554.66C2167.3 1555.18 2175.78 1564.49 2175.27 1575.47C2174.75 1586.44 2165.44 1594.92 2154.46 1594.41Z" fill="#E4ECF9"/>
<path d="M2549.9 1714.73L1794.33 1679.17C1783.36 1678.65 1774.88 1669.34 1775.39 1658.36C1775.91 1647.39 1785.22 1638.91 1796.2 1639.42L2551.77 1674.98C2562.74 1675.5 2571.22 1684.81 2570.71 1695.79C2570.19 1706.77 2560.88 1715.25 2549.9 1714.73Z" fill="#E4ECF9"/>
<path d="M1593.79 1932.09C1544.5 1929.77 1506.29 1887.78 1508.61 1838.49C1510.93 1789.2 1552.92 1750.99 1602.21 1753.31C1618.78 1754.09 1634.74 1759.42 1648.38 1768.72L1636.77 1785.74C1626.28 1778.59 1614 1774.49 1601.24 1773.89C1563.3 1772.1 1530.97 1801.52 1529.19 1839.46C1527.4 1877.4 1556.82 1909.73 1594.76 1911.51C1632.7 1913.3 1665.03 1883.88 1666.81 1845.94C1667.15 1838.67 1666.36 1831.46 1664.47 1824.52L1684.34 1819.09C1686.81 1828.12 1687.83 1837.48 1687.39 1846.91C1685.06 1896.2 1643.08 1934.41 1593.79 1932.09Z" fill="#29BEAC"/>
<path d="M1597.81 1869.58L1565.01 1833.54L1580.25 1819.67L1599.18 1840.48L1697.56 1750.51L1711.43 1765.74L1597.81 1869.58Z" fill="#29BEAC"/>
<path d="M2143.03 1837.41L1787.67 1820.68C1776.7 1820.16 1768.22 1810.85 1768.73 1799.87C1769.25 1788.9 1778.56 1780.42 1789.54 1780.93L2144.9 1797.66C2155.87 1798.18 2164.35 1807.49 2163.84 1818.47C2163.32 1829.45 2154 1837.93 2143.03 1837.41Z" fill="#E4ECF9"/>
<path d="M2538.46 1957.74L1782.89 1922.18C1771.92 1921.66 1763.44 1912.35 1763.95 1901.37C1764.47 1890.4 1773.78 1881.92 1784.76 1882.43L2540.33 1917.99C2551.3 1918.51 2559.78 1927.82 2559.27 1938.8C2558.75 1949.78 2549.44 1958.26 2538.46 1957.74Z" fill="#E4ECF9"/>
<path opacity="0.18" d="M2652.38 805.32L2647.69 704.45C2647.09 691.6 2636.2 681.68 2623.35 682.27L1370.99 740.44C1358.15 741.04 1348.22 751.93 1348.81 764.78L1353.5 865.65C1354.1 878.5 1364.99 888.42 1377.84 887.83L2630.2 829.66C2643.05 829.07 2652.98 818.17 2652.38 805.32Z" fill="#003889"/>
<path d="M2597.21 778.19L1348.41 889.09C1335.6 890.23 1324.3 880.77 1323.16 867.96L1314.23 767.37C1313.09 754.56 1322.55 743.26 1335.36 742.12L2584.16 631.22C2596.97 630.08 2608.27 639.54 2609.41 652.35L2618.34 752.94C2619.48 765.74 2610.02 777.05 2597.21 778.19Z" fill="#F4B545"/>
<path d="M2558.15 726.864C2567.79 715.343 2566.27 698.188 2554.75 688.547C2543.23 678.906 2526.07 680.429 2516.43 691.95C2506.79 703.47 2508.31 720.625 2519.84 730.267C2531.36 739.908 2548.51 738.384 2558.15 726.864Z" fill="white"/>
<path d="M2474.57 720.181C2476.12 705.238 2465.26 691.869 2450.32 690.32C2435.37 688.772 2422.01 699.629 2420.46 714.572C2418.91 729.514 2429.77 742.883 2444.71 744.432C2459.65 745.981 2473.02 735.123 2474.57 720.181Z" fill="white"/>
<path d="M2377.39 744.022C2387.66 733.056 2387.09 715.843 2376.13 705.577C2365.16 695.311 2347.95 695.879 2337.68 706.845C2327.42 717.811 2327.98 735.023 2338.95 745.289C2349.92 755.556 2367.13 754.988 2377.39 744.022Z" fill="white"/>
<path opacity="0.18" d="M3239 2198.28L3171.38 1217.84C3170.03 1198.29 3153.09 1183.53 3133.54 1184.88L2192 1249.82C2172.45 1251.17 2157.69 1268.11 2159.04 1287.66L2226.67 2268.1C2228.02 2287.65 2244.96 2302.41 2264.51 2301.06L3206.04 2236.12C3225.59 2234.77 3240.35 2217.83 3239 2198.28Z" fill="#003889"/>
<path d="M3282.47 2121.07L2347.88 2252.34C2328.47 2255.07 2310.53 2241.54 2307.8 2222.13L2171.1 1248.91C2168.37 1229.5 2181.9 1211.56 2201.31 1208.83L3135.9 1077.56C3155.31 1074.83 3173.25 1088.36 3175.98 1107.77L3312.68 2080.99C3315.4 2100.4 3301.88 2118.34 3282.47 2121.07Z" fill="white"/>
<path d="M2400.32 1498.45C2351.63 1506.43 2305.52 1473.3 2297.54 1424.61C2289.56 1375.91 2322.69 1329.81 2371.39 1321.83C2387.76 1319.15 2404.48 1321.04 2419.75 1327.3L2411.93 1346.36C2400.19 1341.55 2387.32 1340.09 2374.72 1342.16C2337.23 1348.3 2311.73 1383.8 2317.87 1421.28C2324.01 1458.76 2359.51 1484.27 2396.99 1478.12C2434.47 1471.98 2459.98 1436.48 2453.83 1399C2452.65 1391.82 2450.38 1384.93 2447.09 1378.54L2465.4 1369.09C2469.69 1377.41 2472.63 1386.36 2474.16 1395.67C2482.14 1444.36 2449.02 1490.47 2400.32 1498.45Z" fill="#29BEAC"/>
<path d="M2391.26 1436.46L2351.69 1408.03L2363.7 1391.3L2386.55 1407.71L2464.08 1299.25L2480.8 1311.28L2391.26 1436.46Z" fill="#29BEAC"/>
<path d="M2428.32 1810.45C2379.63 1818.43 2333.52 1785.3 2325.54 1736.61C2317.56 1687.91 2350.69 1641.81 2399.39 1633.83C2415.76 1631.14 2432.48 1633.04 2447.75 1639.3L2439.93 1658.36C2428.19 1653.55 2415.32 1652.09 2402.72 1654.16C2365.23 1660.3 2339.73 1695.8 2345.87 1733.28C2352.01 1770.76 2387.51 1796.27 2424.99 1790.12C2462.47 1783.98 2487.98 1748.48 2481.83 1711C2480.65 1703.82 2478.38 1696.93 2475.09 1690.54L2493.4 1681.09C2497.69 1689.41 2500.63 1698.36 2502.16 1707.67C2510.14 1756.36 2477.02 1802.47 2428.32 1810.45Z" fill="#29BEAC"/>
<path d="M2419.26 1748.46L2379.69 1720.03L2391.7 1703.3L2414.55 1719.71L2492.08 1611.25L2508.8 1623.28L2419.26 1748.46Z" fill="#29BEAC"/>
<path d="M2477.32 2121.45C2428.63 2129.43 2382.52 2096.3 2374.54 2047.61C2366.56 1998.91 2399.69 1952.81 2448.39 1944.83C2464.76 1942.14 2481.48 1944.04 2496.75 1950.3L2488.93 1969.36C2477.19 1964.55 2464.32 1963.09 2451.72 1965.16C2414.23 1971.3 2388.73 2006.8 2394.87 2044.28C2401.01 2081.76 2436.51 2107.27 2473.99 2101.12C2511.47 2094.98 2536.98 2059.48 2530.83 2022C2529.65 2014.82 2527.38 2007.93 2524.09 2001.54L2542.4 1992.09C2546.69 2000.41 2549.63 2009.36 2551.16 2018.67C2559.14 2067.36 2526.02 2113.47 2477.32 2121.45Z" fill="#29BEAC"/>
<path d="M2468.26 2059.46L2428.69 2031.03L2440.7 2014.3L2463.55 2030.71L2541.08 1922.25L2557.8 1934.28L2468.26 2059.46Z" fill="#29BEAC"/>
<path d="M2779.76 1298.38L2535.31 1332.72C2525.96 1334.03 2517.31 1327.52 2516 1318.17C2514.69 1308.82 2521.2 1300.17 2530.55 1298.86L2775 1264.52C2784.35 1263.21 2793 1269.72 2794.31 1279.07C2795.63 1288.42 2789.11 1297.06 2779.76 1298.38Z" fill="#29BEAC"/>
<path d="M3096.53 1319.92L2544.41 1397.47C2535.06 1398.78 2526.41 1392.27 2525.1 1382.92C2523.79 1373.57 2530.3 1364.92 2539.65 1363.61L3091.77 1286.06C3101.12 1284.75 3109.77 1291.26 3111.08 1300.61C3112.39 1309.96 3105.88 1318.6 3096.53 1319.92Z" fill="#E4ECF9"/>
<path d="M3105.62 1384.67L2553.5 1462.22C2544.15 1463.53 2535.5 1457.02 2534.19 1447.67C2532.88 1438.32 2539.39 1429.67 2548.74 1428.36L3100.86 1350.81C3110.21 1349.5 3118.86 1356.01 3120.17 1365.36C3121.49 1374.71 3114.97 1383.36 3105.62 1384.67Z" fill="#E4ECF9"/>
<path d="M2823.63 1610.67L2579.17 1645C2569.82 1646.31 2561.17 1639.8 2559.86 1630.45C2558.55 1621.1 2565.06 1612.45 2574.41 1611.14L2818.86 1576.8C2828.21 1575.49 2836.86 1582 2838.17 1591.35C2839.49 1600.71 2832.98 1609.35 2823.63 1610.67Z" fill="#29BEAC"/>
<path d="M3140.39 1632.21L2588.27 1709.76C2578.92 1711.07 2570.27 1704.56 2568.96 1695.21C2567.65 1685.86 2574.16 1677.21 2583.51 1675.9L3135.63 1598.35C3144.98 1597.04 3153.63 1603.55 3154.94 1612.9C3156.26 1622.25 3149.74 1630.89 3140.39 1632.21Z" fill="#E4ECF9"/>
<path d="M3149.49 1696.96L2597.37 1774.51C2588.02 1775.82 2579.37 1769.31 2578.06 1759.96C2576.75 1750.61 2583.26 1741.96 2592.61 1740.65L3144.73 1663.1C3154.08 1661.79 3162.73 1668.3 3164.04 1677.65C3165.35 1687 3158.84 1695.65 3149.49 1696.96Z" fill="#E4ECF9"/>
<path d="M2867.87 1925.67L2623.42 1960C2614.07 1961.31 2605.42 1954.8 2604.11 1945.45C2602.8 1936.1 2609.31 1927.45 2618.66 1926.14L2863.11 1891.8C2872.46 1890.49 2881.11 1897 2882.42 1906.35C2883.74 1915.71 2877.22 1924.35 2867.87 1925.67Z" fill="#29BEAC"/>
<path d="M3184.64 1947.21L2632.52 2024.76C2623.17 2026.07 2614.52 2019.56 2613.21 2010.21C2611.9 2000.86 2618.41 1992.21 2627.76 1990.9L3179.88 1913.35C3189.23 1912.04 3197.88 1918.55 3199.19 1927.9C3200.5 1937.25 3193.99 1945.89 3184.64 1947.21Z" fill="#E4ECF9"/>
<path d="M3193.73 2011.96L2641.61 2089.51C2632.26 2090.82 2623.61 2084.31 2622.3 2074.96C2620.99 2065.61 2627.5 2056.96 2636.85 2055.65L3188.97 1978.1C3198.32 1976.79 3206.97 1983.3 3208.28 1992.65C3209.6 2002 3203.08 2010.65 3193.73 2011.96Z" fill="#E4ECF9"/>
<path opacity="0.18" d="M1464.92 1125.99C1462.53 1122.86 1448.73 1121.53 1434.06 1119.85C1431.94 1119.62 1429.85 1119.37 1427.73 1119.12C1408.83 1116.76 1395.85 1104.44 1379.35 1094.36C1374.22 1091.23 1368.46 1084.92 1363.05 1077.85C1359.43 1073.11 1355.97 1068.03 1352.94 1063.35L1363.23 1060.3C1363.23 1060.3 1243.47 791.42 1225.62 753.26C1218.53 738.08 1199.46 731.6 1179.06 729.27L1179.55 721.91L1246.69 616.69L1235.22 610.02L1168.99 713.82L1087.91 715.2L1087.92 715.08C1111.83 714.79 1147.9 714.3 1152.3 713.86C1158.95 713.2 1141.99 695.08 1134.53 691.36C1128.78 688.49 1101.47 692.69 1089.26 694.76L1089.71 688L1008.32 664.96C999.78 614.25 1013.73 606.38 1023.72 586.35C1034.49 564.74 1021.07 537.07 1009.9 493.81C1008.71 489.19 1007.09 484.91 1005.19 480.92L1015.42 463L1019.17 457.17C1027.82 461.58 1037.64 462.28 1048.07 457.32C1082.67 440.89 1094.66 388.57 1098.51 363.24C1102.32 364.14 1105.93 364.48 1108.72 362.59C1118.02 356.27 1102.18 331.76 1102.18 331.76C1052.53 266.44 941.06 360.48 919.41 385.63C897.75 410.78 872.41 394.78 836.25 426.98C808.73 451.48 850.2 498.53 891.73 495.72C869.82 534.98 865.12 578.81 862.27 606.14C857.74 649.64 809.27 749.9 844.29 736.68C845.34 736.28 846.49 735.91 847.69 735.55C846.67 742.88 845.73 752.9 845.99 763.92C846.92 800.11 860.9 846.94 927.97 843.22C1036.28 837.26 1111.66 845.89 1111.66 845.89L1073.79 1106.16L1086.84 1109.73C1085.88 1118 1084.86 1126.38 1083.94 1132.85C1083.74 1134.35 1083.52 1135.74 1083.33 1137.01C1081.75 1147.3 1074.05 1156.87 1067.76 1164.01C1067.76 1164.01 1067.76 1164.01 1067.75 1164C1066.31 1165.64 1064.88 1167.31 1063.51 1169.03C1061.63 1171.38 1059.88 1173.84 1058.51 1176.52C1051.76 1189.72 1068.85 1199.14 1089.73 1207.29C1090.78 1207.7 1091.74 1208.09 1092.65 1208.48C1092.87 1208.57 1093.11 1208.67 1093.33 1208.76C1093.36 1208.77 1093.39 1208.79 1093.42 1208.8C1109.71 1215.82 1104.1 1218.79 1129.39 1232.95C1156.42 1248.09 1171.47 1243.76 1175.24 1240.4C1175.66 1240.03 1175.85 1239.54 1175.83 1238.95C1175.76 1234.87 1165.8 1225.88 1155.38 1216.1C1153.87 1214.7 1152.39 1213.29 1150.89 1211.87C1137.57 1199.09 1134.52 1181.01 1127.47 1162.87C1125.27 1157.23 1124.41 1148.48 1124.24 1139.24C1124.13 1132.77 1124.37 1126.09 1124.72 1120.09L1136.19 1123.23C1136.19 1123.23 1168.03 983.91 1187.08 886.23L1223.98 949.03L1300.34 1078.95L1313.04 1075.18C1317.11 1082.45 1321.23 1089.95 1324.26 1095.75C1324.95 1097.03 1325.54 1098.23 1326.11 1099.32C1330.61 1108.21 1329.37 1120 1327.97 1129.11H1327.96C1327.64 1131.25 1327.34 1133.41 1327.13 1135.58C1326.85 1138.42 1326.74 1141.27 1327.08 1144.08C1328.74 1158.15 1349 1155.78 1371.85 1150.26C1372.9 1150.01 1373.87 1149.79 1374.8 1149.58C1394.24 1145.33 1390.33 1151.1 1421.04 1147.68C1453.22 1144.1 1463.86 1132.2 1465.22 1127.45C1465.38 1126.92 1465.26 1126.44 1464.92 1125.99Z" fill="#003889"/>
<path d="M1465.26 1127.44C1464.31 1132.18 1454.67 1144.09 1422.78 1147.67C1390.89 1151.25 1396.2 1144.74 1373.8 1150.25C1351.42 1155.77 1331.35 1158.14 1328.52 1144.07C1327.51 1139.12 1327.83 1134.06 1328.17 1129.11C1328.81 1120 1329.07 1108.2 1323.83 1099.31C1323.18 1098.22 1322.48 1097.01 1321.69 1095.74C1311.75 1079.33 1291.94 1049.35 1291.94 1049.35L1335.65 1045.8C1335.65 1045.8 1346.73 1063.39 1358.97 1077.84C1364.97 1084.92 1371.25 1091.22 1376.65 1094.35C1393.99 1104.43 1407.99 1116.74 1427.09 1119.11C1429.23 1119.36 1431.34 1119.61 1433.48 1119.84C1450.38 1121.77 1466.13 1123.24 1465.26 1127.44Z" fill="#FDC8AA"/>
<path d="M1373.81 1150.25C1396.21 1144.74 1390.89 1151.26 1422.78 1147.68C1454.66 1144.1 1464.31 1132.2 1465.27 1127.45C1466.13 1123.24 1450.38 1121.78 1433.47 1119.86L1433.31 1120.19C1433.31 1120.19 1414.21 1133.78 1387.66 1134.46C1366.03 1135.02 1343.1 1128.85 1328.16 1129.12C1327.83 1134.07 1327.51 1139.13 1328.52 1144.08C1331.35 1158.13 1351.4 1155.76 1373.81 1150.25Z" fill="#233862"/>
<path d="M1358.96 1077.85C1354.23 1082.41 1341.35 1093.02 1321.68 1095.74C1311.74 1079.33 1291.93 1049.35 1291.93 1049.35L1335.64 1045.8C1335.64 1045.8 1346.72 1063.39 1358.96 1077.85Z" fill="#FBB188"/>
<path d="M1357.68 1060.29L1296.36 1078.94L1209.18 949.02L1153.45 865.94L1114.56 808L1055.21 807.92L1081.34 731.77C1081.34 731.77 1173.52 715.09 1194.52 753.25C1215.55 791.41 1357.68 1060.29 1357.68 1060.29Z" fill="#15315E"/>
<path d="M1209.19 949.02L1153.46 865.94L1173.24 794.9C1176.6 805.43 1194.71 884.79 1209.19 949.02Z" fill="#072542"/>
<path d="M1184.68 1240.38C1181.21 1243.75 1166.52 1248.08 1138.23 1232.94C1109.94 1217.8 1118.01 1215.45 1096.42 1207.28C1074.86 1199.13 1056.98 1189.7 1062.63 1176.51C1064.61 1171.87 1067.74 1167.88 1070.83 1163.99C1076.52 1156.85 1083.43 1147.28 1084.16 1136.99C1084.24 1135.72 1084.35 1134.33 1084.42 1132.83C1085.54 1113.68 1086.23 1077.75 1086.23 1077.75L1124.24 1099.62C1124.24 1099.62 1123.39 1120.39 1125.27 1139.24C1126.2 1148.47 1127.8 1157.23 1130.46 1162.87C1139.03 1181.01 1143.57 1199.09 1157.96 1211.87C1159.58 1213.29 1161.18 1214.7 1162.81 1216.1C1175.65 1227.28 1187.79 1237.42 1184.68 1240.38Z" fill="#FDC8AA"/>
<path d="M1096.43 1207.29C1118 1215.46 1109.93 1217.81 1138.22 1232.95C1166.51 1248.09 1181.2 1243.76 1184.69 1240.4C1187.79 1237.42 1175.64 1227.28 1162.81 1216.11L1162.5 1216.29C1162.5 1216.29 1139.06 1216.64 1116.81 1202.14C1098.68 1190.33 1083.29 1172.25 1070.84 1163.99C1067.76 1167.88 1064.63 1171.86 1062.65 1176.52C1057 1189.71 1074.86 1199.12 1096.43 1207.29Z" fill="#233862"/>
<path d="M1125.27 1139.24C1118.79 1140.31 1102.16 1141.75 1084.42 1132.83C1085.54 1113.68 1086.23 1077.75 1086.23 1077.75L1124.24 1099.62C1124.24 1099.63 1123.39 1120.4 1125.27 1139.24Z" fill="#FBB188"/>
<path d="M1135.89 1123.23L1072.05 1106.15L1088.26 845.88C1088.26 845.88 1012.17 837.25 904.35 843.21C837.59 846.93 819.72 800.1 815.78 763.91C813.41 741.63 816.26 723.39 816.26 723.39C816.26 723.39 899.4 728.86 976.76 729.19C1004.56 729.3 1031.66 728.76 1053.84 727.05C1137.73 720.57 1167.1 768.67 1173.24 794.9C1179.63 822.22 1135.89 1123.23 1135.89 1123.23Z" fill="#1F3A6F"/>
<path d="M976.76 729.19L976.83 733.52C881.84 731.76 832.92 753.9 815.78 763.9C813.41 741.62 816.26 723.38 816.26 723.38C816.26 723.38 899.4 728.86 976.76 729.19Z" fill="#15315E"/>
<path d="M1047.45 695.79C1047.45 695.79 1090.51 687.63 1098.28 691.35C1106.05 695.07 1124.52 713.19 1117.92 713.85C1111.33 714.51 1032.38 715.31 1032.38 715.31L1032.09 698.26L1047.45 695.79Z" fill="#FDC8AA"/>
<path d="M969.42 446.45L960.16 462.99L946.55 490.88L897.58 446.37L915.43 419.9L933.41 393.22L969.42 446.45Z" fill="#FDC8AA"/>
<path d="M969.42 446.45L960.16 462.99C925.29 447.65 917.04 431.22 915.43 419.9L933.42 393.22L969.42 446.45Z" fill="#EFA37D"/>
<path d="M1035.46 349.22C1035.46 349.22 1036.77 435.35 992.34 457.32C943.79 481.32 898.48 372.85 939.43 351.08C980.37 329.31 1035.46 349.22 1035.46 349.22Z" fill="#FDC8AA"/>
<path d="M978.72 586.34C969.74 607.95 954.95 615.37 973.38 677.79L974.26 729.51C974.26 729.51 932.49 727.55 890.31 728.3C858.46 728.88 826.37 730.97 811.81 736.67C777.9 749.89 818.02 649.63 818.93 606.13C819.84 562.63 821.95 477.31 894.3 435.21C894.3 435.21 942.44 450.5 957.2 493.8C971.97 537.07 987.69 564.73 978.72 586.34Z" fill="#F4B545"/>
<path d="M973.43 680.93L974.26 729.52C974.26 729.52 932.49 727.56 890.31 728.31C883.92 723.63 879.6 717.86 878.16 710.85C868.05 661.83 875.04 562.66 875.04 562.66L943.81 571.95L952.1 672.84L973.43 680.93Z" fill="#E59D29"/>
<path d="M1145.72 713.689L1036.79 715.541L1037.1 733.729L1146.03 731.877L1145.72 713.689Z" fill="#072542"/>
<path d="M1204.17 616.709L1192.15 610.037L1131.1 720.054L1143.12 726.726L1204.17 616.709Z" fill="#072542"/>
<path d="M944.69 566.02L961.31 662.59L1053.17 687.99L1053.84 727.05C1053.84 727.05 904.89 751.6 890.77 705.2C876.65 658.8 875.42 562.66 875.42 562.66L944.69 566.02Z" fill="#F4B545"/>
<path d="M1036 331.76C1036 331.76 1053.88 356.27 1045.11 362.59C1036.34 368.91 1016.26 350.34 1013.29 369C1010.32 387.66 1002.42 410.59 990.87 400.39C979.31 390.2 988.57 369.74 966.25 375.34C943.93 380.94 962.61 409.11 954.39 414.23C946.16 419.35 915.78 421.87 874.59 476.09C833.4 530.31 744.53 459.17 778.01 426.98C811.49 394.79 838.16 410.78 857.73 385.63C877.3 360.48 980.91 266.43 1036 331.76Z" fill="#1F3A6F"/>
<path opacity="0.18" d="M1296.38 2355.62C1288.27 2354.96 1273.67 2357.55 1257.35 2361.46C1261.2 2352.18 1262.72 2339.47 1262.97 2325.5C1263.47 2295.68 1258.17 2260.2 1257.33 2240.64C1255.87 2206.78 1247.59 2187.98 1239.32 2172.45C1238.8 2171.48 1238.17 2170.57 1237.45 2169.72C1245.66 2169.37 1251.33 2167.97 1253.13 2165.01C1263 2148.81 1234.02 2137.74 1241.88 2035.45C1249.74 1933.16 1147.7 1946.94 1147.7 1946.94C1094.7 1958.51 1051.4 2045.82 1036.91 2089.25C1029.94 2110.13 1034.78 2127.77 1044.96 2139.82C1046.69 2141.88 1048.57 2143.77 1050.57 2145.49C1058.54 2152.3 1068.45 2156.37 1078.3 2157.02C1070.62 2159.68 1065.64 2159.47 1065.64 2159.47C1039.19 2157.28 1023.77 2170.75 1014.03 2176.73C1004.29 2182.73 985.8 2214.62 981.6 2239.62C977.4 2264.64 966 2285.84 950 2321.48C934.02 2357.12 953.53 2362.72 953.53 2362.72C953.53 2362.72 954.23 2363.28 955.56 2364.17C930.85 2358.15 891.41 2351.56 879.62 2367.1C862.05 2390.26 864.62 2414.68 883.7 2431.03C894.59 2440.36 904.27 2455.64 946 2467.08C952.32 2472.23 960.57 2477.01 970.39 2481.27C967.53 2497.27 965.08 2516.42 965.43 2517.52C965.79 2518.67 971.31 2519.25 976.61 2518.62C979.83 2518.24 982.99 2517.41 984.87 2515.99C989.87 2512.21 1015.28 2510.53 1015.28 2510.53C1015.28 2510.53 1016.41 2510.02 1018.17 2509.03C1019.56 2508.25 1021.35 2507.15 1023.26 2505.8C1032.98 2504.3 1043.59 2502.66 1053.23 2501.16C1056.43 2507.8 1059.15 2511.94 1059.15 2511.94C1072.79 2508.48 1086.3 2505 1099.56 2501.5C1108.83 2501.21 1117.84 2500.58 1126.53 2499.65C1127.75 2500.41 1129.09 2501.09 1130.49 2501.71C1131.51 2502.15 1132.55 2502.56 1133.59 2502.95C1135.8 2503.78 1137.98 2504.52 1139.85 2505.26C1147.26 2508.23 1154.63 2515.44 1154.85 2515.99C1154.98 2516.3 1160.02 2517.91 1165.79 2518.55C1170.3 2519.05 1175.25 2518.97 1178.59 2517.22C1178.86 2517.08 1179.15 2516.86 1179.44 2516.61C1179.53 2516.53 1179.62 2516.44 1179.71 2516.35C1179.92 2516.15 1180.13 2515.93 1180.35 2515.68C1180.45 2515.56 1180.56 2515.43 1180.66 2515.3C1180.88 2515.02 1181.11 2514.72 1181.33 2514.4C1181.43 2514.27 1181.52 2514.14 1181.62 2514C1181.94 2513.52 1182.27 2513.02 1182.6 2512.46C1182.61 2512.44 1182.62 2512.42 1182.63 2512.4C1182.95 2511.86 1183.28 2511.28 1183.61 2510.67C1183.72 2510.46 1183.84 2510.25 1183.95 2510.03C1184.19 2509.58 1184.42 2509.13 1184.66 2508.65C1184.79 2508.4 1184.91 2508.15 1185.04 2507.89C1185.28 2507.4 1185.52 2506.89 1185.77 2506.38C1185.88 2506.14 1186 2505.9 1186.11 2505.66C1186.46 2504.9 1186.81 2504.13 1187.16 2503.33C1187.19 2503.26 1187.22 2503.18 1187.25 2503.11C1187.57 2502.37 1187.9 2501.61 1188.22 2500.83C1188.34 2500.55 1188.46 2500.26 1188.58 2499.97C1188.83 2499.38 1189.07 2498.78 1189.31 2498.18C1189.43 2497.88 1189.55 2497.59 1189.67 2497.29C1189.93 2496.63 1190.2 2495.96 1190.46 2495.29C1190.55 2495.07 1190.63 2494.85 1190.72 2494.63C1191.45 2492.73 1192.17 2490.8 1192.87 2488.89C1192.88 2488.88 1192.88 2488.86 1192.89 2488.85C1193.59 2486.93 1194.26 2485.02 1194.9 2483.16C1205.67 2478.41 1214.27 2472.9 1220.13 2466.82C1259.42 2454.11 1289.8 2442.15 1305.14 2431.95C1338.05 2410.09 1322.55 2357.76 1296.38 2355.62ZM1206.54 2253.15V2253.02C1206.55 2252.97 1206.55 2252.95 1206.55 2252.94V2252.96C1206.67 2253.87 1208.58 2267.69 1210.72 2283.61L1196.93 2282.89C1205.78 2268.11 1206.49 2255.07 1206.54 2253.15ZM1031 2258.77C1031 2258.78 1031 2258.78 1031 2258.77C1031.7 2264.3 1032.19 2269.45 1032.56 2274.32L1022.01 2273.77C1027.21 2264.64 1030.99 2258.75 1030.99 2258.75C1030.99 2258.75 1030.99 2258.76 1031 2258.77Z" fill="#003889"/>
<path d="M1211.65 2165.41C1203.69 2181.61 1074.7 2151.19 1045.92 2156.82C1033.33 2159.28 1018.59 2155.05 1006.78 2145.88C1004.58 2144.16 1002.47 2142.27 1000.5 2140.21C988.9 2128.17 981.98 2110.53 986.49 2089.64C995.86 2046.21 1028.87 1958.9 1080.51 1947.33C1080.51 1947.33 1180.93 1933.54 1185.12 2035.84C1189.32 2138.14 1219.61 2149.2 1211.65 2165.41Z" fill="#1F3A6F"/>
<path d="M1020.96 2081.44C1020.61 2082.72 1011.67 2114.62 1006.78 2145.88C1004.58 2144.16 1002.47 2142.27 1000.5 2140.21C1004.19 2123.38 1011.23 2096.27 1020.96 2081.44Z" fill="#15315E"/>
<path d="M1048.17 2117.25C1048.17 2117.25 1040.77 2165.73 1042.66 2176.51C1044.54 2187.29 1035.29 2172.57 1035.29 2172.57C1035.29 2172.57 1037.97 2153.91 1048.17 2117.25Z" fill="#15315E"/>
<path d="M1162.82 2092.23C1162.82 2092.23 1167.25 2157.15 1156.63 2186.57C1146.02 2215.99 1175.02 2194.64 1175.02 2194.64L1162.82 2092.23Z" fill="#15315E"/>
<path d="M1133.71 2167.4C1134.93 2166.75 1149.37 2128.53 1149.87 2113.32C1150.36 2098.11 1149.82 2160.1 1141.97 2174.23C1134.1 2188.37 1133.71 2167.4 1133.71 2167.4Z" fill="#15315E"/>
<path d="M1049.59 2049.87C1049.23 2051.04 1042.08 2101.95 1074.13 2119.81C1106.17 2137.67 1149.86 2119.16 1150.45 2073.5C1151.03 2027.82 1049.59 2049.87 1049.59 2049.87Z" fill="#15315E"/>
<path d="M1220.88 2451.5C1222.12 2420.5 1156.38 2392.69 1074.04 2389.39C991.698 2386.09 923.941 2408.56 922.7 2439.57C921.459 2470.57 987.202 2498.38 1069.54 2501.68C1151.88 2504.98 1219.64 2482.51 1220.88 2451.5Z" fill="#072542"/>
<path d="M1109.77 2445.03C1109.77 2445.03 1139.27 2379.69 1164.11 2381.38C1188.95 2383.06 1238.24 2386.21 1236.14 2396.29C1234.04 2406.37 1167.32 2441.69 1160.9 2443.33C1154.48 2444.97 1109.77 2445.03 1109.77 2445.03Z" fill="#072542"/>
<path d="M965.22 2411.52C965.78 2407.1 966.51 2352.35 1034.06 2360.1C1101.61 2367.85 1191.08 2374.13 1186.95 2397.72C1182.82 2421.31 1125.33 2465.51 1094.31 2463.01C1063.27 2460.52 963.59 2424.29 965.22 2411.52Z" fill="#072542"/>
<path d="M1003.76 2371.48C998.25 2373.52 992.91 2374.79 987.79 2375.47C957.63 2379.51 935.35 2363.13 935.35 2363.13C935.35 2363.13 935.16 2360.31 935.54 2356.29C936.4 2346.86 940.3 2330.85 956.88 2329.49C980.52 2327.54 1003.76 2371.48 1003.76 2371.48Z" fill="#FDC8AA"/>
<path d="M1210.39 2386.11C1210.39 2386.11 1197.97 2394.45 1169.48 2396.39C1168.62 2396.44 1167.75 2396.49 1166.86 2396.54C1136.51 2398.14 1180.72 2346.62 1180.72 2346.62C1180.72 2346.62 1213.73 2339.43 1217.23 2348.51C1217.96 2350.4 1218.4 2352.89 1218.58 2355.7C1219.25 2366.39 1216.15 2381.69 1210.39 2386.11Z" fill="#FDC8AA"/>
<path d="M1231.57 2373.85C1231.57 2373.85 1219.52 2384.37 1210.39 2386.12C1210.39 2386.12 1211.88 2383.27 1213.1 2379.13C1215.85 2369.8 1217.23 2353.93 1197.13 2349.29C1195.5 2348.91 1193.72 2348.6 1191.79 2348.38C1191.79 2348.38 1197.57 2344.2 1194.84 2331.3C1192.14 2318.6 1175.95 2255.32 1175.45 2253.35L1175.44 2253.3C1175.44 2253.3 1175.45 2253.34 1175.45 2253.41L1175.47 2253.54C1175.69 2255.98 1177.03 2276.49 1161.55 2295.68C1161.55 2295.68 1174.94 2385.66 1155.61 2386.96C1137.45 2388.18 1083.08 2393.75 1009.97 2379.2C1005.31 2378.27 1000.55 2377.26 995.73 2376.16C995.73 2376.16 998.41 2358.41 1002.96 2344.38C1007.51 2330.36 1012.64 2308.51 1000.6 2259.17C1000.59 2259.16 1000.59 2259.15 1000.59 2259.15C1000.59 2259.15 976.32 2305.42 972.85 2340.35C972.85 2340.35 948.54 2330.52 935.38 2363.14C935.38 2363.14 915.21 2357.54 926.99 2321.9C938.78 2286.25 947.69 2265.05 948.94 2240.04C950.19 2215.04 964.92 2183.15 973.96 2177.15C982.99 2171.16 996.83 2157.69 1023.54 2159.89C1050.26 2162.07 1151.98 2158.05 1151.98 2158.05C1151.98 2158.05 1188.63 2157.35 1198.75 2172.88C1208.85 2188.41 1219.35 2207.21 1224.8 2241.07C1227.94 2260.63 1237.43 2296.11 1240.44 2325.93C1242.6 2347.71 1241.33 2366.51 1231.57 2373.85Z" fill="#F4B545"/>
<path d="M1158.11 2158.17C1158.11 2158.17 1150.86 2204.07 1102.35 2207.44C1053.86 2210.81 1027.39 2181.45 1023.51 2159.87C1023.51 2159.87 1053.52 2161.12 1074.86 2118.38C1076.22 2115.66 1077.55 2112.75 1078.83 2109.66C1100.21 2058.02 1116.5 2108.97 1116.5 2108.97C1116.5 2108.97 1118.59 2120.54 1126.14 2132.75C1132.54 2143.11 1141.77 2153.58 1158.11 2158.17Z" fill="#FDC8AA"/>
<path d="M1126.14 2132.73C1101.25 2132.09 1084.96 2125.11 1074.86 2118.37C1076.22 2115.65 1077.55 2112.74 1078.83 2109.65C1100.21 2058.01 1116.5 2108.96 1116.5 2108.96C1116.5 2108.96 1118.59 2120.53 1126.14 2132.73Z" fill="#FBB188"/>
<path d="M1157.56 2057.68C1156.27 2082.6 1141.53 2103.33 1121.48 2111.86C1114.76 2114.74 1107.43 2116.24 1099.8 2116.04C1099.33 2116.04 1098.84 2116.01 1098.35 2115.99C1067.41 2114.39 1043.74 2085.68 1045.49 2051.87C1047.24 2018.06 1073.75 1991.96 1104.69 1993.56C1120 1994.35 1133.51 2001.78 1143.07 2013.17C1152.84 2024.8 1158.45 2040.59 1157.56 2057.68Z" fill="#FDC8AA"/>
<path d="M1157.56 2057.68C1156.27 2082.6 1141.53 2103.33 1121.48 2111.86C1152.2 2096.7 1148.36 2044.14 1143.08 2013.18C1152.84 2024.8 1158.45 2040.59 1157.56 2057.68Z" fill="#FBB188"/>
<path d="M1043.34 2017.28C1043.34 2017.28 1121.33 2054.47 1162.7 2034.89C1204.07 2015.31 1122.42 1957.14 1088.02 1979.56C1053.63 2001.99 1043.34 2017.28 1043.34 2017.28Z" fill="#1F3A6F"/>
<path d="M1118.28 2490.83C1118.1 2496.58 1123.06 2499.78 1128.7 2502.12C1129.77 2502.56 1130.86 2502.97 1131.95 2503.36C1134.26 2504.19 1136.52 2504.93 1138.48 2505.67C1146.24 2508.64 1154.46 2515.85 1154.74 2516.4C1154.9 2516.7 1160.14 2518.32 1165.98 2518.96C1170.55 2519.46 1175.49 2519.38 1178.62 2517.63C1183.08 2515.13 1188.37 2495.39 1191.58 2480.58C1193.51 2471.74 1194.7 2464.66 1194.54 2464.06C1194.54 2464.06 1189.79 2463.51 1182.84 2462.8C1179.53 2462.46 1175.73 2462.09 1171.7 2461.74C1163.15 2460.96 1153.58 2460.26 1145.69 2460.01C1138.73 2459.79 1133.08 2459.94 1130.53 2460.74C1127.74 2461.63 1125.57 2463.75 1123.87 2466.53C1119.71 2473.39 1118.48 2484.32 1118.28 2490.83Z" fill="#ECF3FE"/>
<path d="M1202.04 2332.78C1200.57 2339.99 1198.85 2345.33 1197.13 2349.28C1195.5 2348.9 1193.72 2348.59 1191.79 2348.37C1191.79 2348.37 1197.57 2344.19 1194.84 2331.29C1192.14 2318.59 1175.95 2255.31 1175.45 2253.34L1175.44 2253.29C1175.43 2253.3 1207.35 2306.54 1202.04 2332.78Z" fill="#E59D29"/>
<path d="M1009.95 2379.19C1005.29 2378.26 1000.53 2377.25 995.71 2376.15C995.71 2376.15 998.39 2358.4 1002.94 2344.37C1007.49 2330.35 1012.62 2308.5 1000.58 2259.16C1001.39 2260.37 1034.94 2311.17 1009.95 2379.19Z" fill="#E59D29"/>
<path d="M958.94 2370.35C958.94 2370.35 876.79 2344.34 861.95 2367.51C847.11 2390.67 852.56 2415.09 873.56 2431.44C894.57 2447.79 913.96 2482.41 1104.65 2482.58L1113.84 2450.98C1113.84 2450.98 1019.31 2422.94 977.16 2399.39L978.24 2378.49C978.25 2378.49 974.54 2374.7 958.94 2370.35Z" fill="#1B345E"/>
<path d="M1058.03 2466.28L989.07 2472.3C989.07 2472.3 989.43 2511.09 990.12 2511.13C990.81 2511.17 1082.06 2496.71 1082.06 2496.71L1058.03 2466.28Z" fill="#FDC8AA"/>
<path d="M1165.97 2518.96C1170.54 2519.46 1175.48 2519.38 1178.61 2517.63C1185.74 2513.64 1194.95 2465.66 1194.53 2464.06C1194.53 2464.06 1189.78 2463.51 1182.83 2462.8C1179.34 2481.36 1170.38 2506.96 1165.97 2518.96Z" fill="#9FB8D6"/>
<path d="M965.5 2517.92C966 2519.07 971.58 2519.65 976.81 2519.02C979.99 2518.64 983.04 2517.81 984.76 2516.39C989.31 2512.61 1014.53 2510.93 1014.53 2510.93C1014.53 2510.93 1015.6 2510.42 1017.24 2509.43C1022.97 2505.99 1035.57 2496.75 1032.56 2483.55C1028.69 2466.58 1007.67 2465.64 1006.63 2465.59C1006.63 2465.59 993.49 2461.49 990.65 2458.97C989.89 2458.29 988.24 2457.8 986.18 2457.5C984.01 2457.2 981.38 2457.11 978.82 2457.27C974.71 2457.52 970.78 2458.43 969.23 2460.08C965.77 2463.78 964.7 2516.09 965.5 2517.92Z" fill="#ECF3FE"/>
<path opacity="0.5" d="M1118.28 2490.83C1118.1 2496.58 1123.06 2499.78 1128.7 2502.12C1129.77 2502.56 1130.86 2502.97 1131.95 2503.36L1191.57 2480.59C1193.5 2471.75 1194.69 2464.67 1194.53 2464.07C1194.53 2464.07 1189.78 2463.52 1182.83 2462.81C1179.52 2462.47 1175.72 2462.1 1171.69 2461.75C1163.14 2460.97 1153.57 2460.27 1145.68 2460.02C1138.72 2459.8 1133.07 2459.95 1130.52 2460.75C1127.73 2461.64 1125.56 2463.76 1123.86 2466.54C1119.71 2473.39 1118.48 2484.32 1118.28 2490.83Z" fill="#587189"/>
<path d="M1159.5 2386.28C1161.12 2385.57 1250.95 2353.87 1277.37 2356.01C1303.79 2358.15 1325.46 2410.47 1295.12 2432.36C1264.78 2454.25 1166.2 2484.23 1058.56 2512.34C1058.56 2512.34 1040.78 2489.51 1036.91 2464.59C1036.91 2464.59 1141.54 2426.2 1162.32 2414.52L1159.5 2386.28Z" fill="#1F3A6F"/>
<path d="M965.5 2517.92C966 2519.07 971.58 2519.65 976.81 2519.02C979.99 2518.64 983.04 2517.81 984.76 2516.39C989.31 2512.61 1014.53 2510.93 1014.53 2510.93C1014.53 2510.93 1015.6 2510.42 1017.24 2509.43C978.87 2506.21 983.35 2470.27 986.19 2457.51C984.02 2457.21 981.39 2457.12 978.83 2457.28C974.72 2457.53 970.79 2458.44 969.24 2460.09C965.77 2463.78 964.7 2516.09 965.5 2517.92Z" fill="#D7E3F4"/>
<path d="M965.5 2517.92C966 2519.07 971.58 2519.65 976.81 2519.02C976 2513.35 975.05 2505.4 974.49 2496.6C973.63 2482.81 977.31 2464.22 978.82 2457.29C974.71 2457.54 970.78 2458.45 969.23 2460.1C965.77 2463.78 964.7 2516.09 965.5 2517.92Z" fill="#9FB8D6"/>
<path d="M1200.04 2299.11L1194.58 2404.52C1194.18 2412.33 1187.45 2418.39 1179.64 2417.99L977.73 2407.53C973.87 2407.33 970.45 2405.6 968.01 2402.94C965.52 2400.22 964.06 2396.54 964.26 2392.59L969.72 2287.18C970.12 2279.37 976.85 2273.31 984.66 2273.71L1186.57 2284.17C1190.31 2284.36 1193.66 2286.01 1196.06 2288.54C1198.71 2291.27 1200.25 2295.04 1200.04 2299.11Z" fill="#869FB7"/>
<path d="M995.949 2303.23C999.399 2300.12 999.674 2294.8 996.564 2291.35C993.454 2287.9 988.136 2287.62 984.686 2290.73C981.236 2293.84 980.96 2299.16 984.07 2302.61C987.18 2306.06 992.498 2306.34 995.949 2303.23Z" fill="#495A70"/>
<path d="M1200.04 2299.11L1194.58 2404.52C1194.18 2412.33 1187.45 2418.39 1179.64 2417.99L977.73 2407.53C973.87 2407.33 970.45 2405.6 968.01 2402.94C1121.68 2396.05 1176.51 2332.88 1196.07 2288.54C1198.71 2291.27 1200.25 2295.04 1200.04 2299.11Z" fill="#728DA3"/>
<path opacity="0.18" d="M4007.39 1818.47C3950.81 1779.66 3845.98 1749.5 3845.98 1749.5L3758.55 1737.88C3758.55 1737.88 3754.3 1715.7 3751.68 1698.88C3751.29 1696.37 3750.94 1694.09 3750.63 1692.08C3758.2 1683.07 3764.27 1671.33 3767.97 1657.98C3773.68 1656.2 3783.85 1650.86 3787.46 1635.08C3791.72 1616.42 3777.56 1621.12 3772.7 1623.22C3776.68 1616.6 3775.92 1598.15 3774.5 1594.84C3772.95 1591.24 3792.02 1571.31 3781.56 1562.83C3771.1 1554.35 3714.22 1552.87 3686.72 1575.97C3664.25 1594.85 3668.77 1613.12 3671.17 1619.17C3671.4 1619.74 3671.87 1620.11 3672.42 1620.26C3672.16 1621.38 3671.92 1622.53 3671.7 1623.69C3668.62 1622.12 3652.46 1614.79 3654.33 1635.08C3655.79 1650.95 3665.33 1656.25 3670.78 1658.01C3672.78 1672.18 3677.69 1684.56 3684.67 1693.75L3677.08 1716.41L3668.76 1738.5L3664.62 1738.53L3528.25 1731.72L3375.33 1644.86L3372.28 1648.51L3348.46 1633.13C3348.46 1633.13 3354.96 1572.36 3315.57 1563.91C3276.18 1555.46 3323.23 1610.41 3314.27 1612.33C3305.3 1614.25 3300.9 1594.27 3289.87 1603.88C3280.27 1612.24 3334.67 1663.36 3348.96 1676.49L3345.21 1680.99L3488.96 1789.67L3591.6 1827.37C3597.6 1829.57 3601.54 1835.13 3601.72 1841.63L3607.86 2059.58C3609.84 2059.99 3612.24 2060.42 3614.98 2060.85L3615.49 2070.85L3629.65 2349.73L3712.98 2494.83L3713.45 2608.97H3720.59C3719.76 2615.43 3717.96 2627.48 3716.82 2634.96C3712.87 2638.32 3710.38 2643.17 3710.13 2648.35C3709.82 2654.9 3709.22 2663.71 3708.1 2672.51C3705.89 2689.93 3708.86 2736.55 3750.75 2730.92C3792.63 2725.28 3780.21 2697.11 3773.25 2686.35C3766.31 2675.61 3783.73 2644.45 3768.32 2632.11L3766.07 2608.97H3772.88L3773.89 2600.92L3777.19 2606.55L3786.54 2599.22C3790.29 2606.05 3795.1 2614.71 3799.25 2621.76C3796.05 2623.66 3793.7 2624.84 3793.04 2624.97C3793.04 2624.97 3787.76 2631.53 3804.41 2642.8C3821.06 2654.07 3815.69 2687.89 3812.22 2701.21C3808.75 2714.53 3817.6 2735.03 3848.78 2713.51C3875.76 2694.89 3870.29 2600.67 3868.33 2575.65C3868.04 2571.9 3865.1 2569.11 3861.33 2568.94C3857.53 2568.77 3852.2 2568.8 3845.78 2569.54C3837.15 2570.53 3834.48 2574.28 3832.45 2580.63L3825.4 2568.73L3828.03 2566.67L3788.78 2481.19L3838.16 2083.71L3841.96 2053.19C3843.32 2052.14 3844.49 2051.03 3845.42 2049.85C3845.54 2049.89 3845.65 2049.94 3845.77 2049.99C3856.23 2053.46 3875.26 2052.63 3882.62 2045.99C3894.12 2035.6 3907.47 2001.11 3907.47 2001.11L3907.87 2000.62L3919.18 1986.69C3911.46 1981.4 3897.42 1972.15 3890.18 1967.38C3889.08 1969.13 3888.04 1970.82 3887.04 1972.45C3881.51 1981.43 3877.58 1988.19 3875.96 1990.25C3872.87 1994.15 3853.79 2001.92 3844.08 2008.59C3840.94 1950 3851.22 1853.59 3851.22 1853.59L3933.76 1871.72L3885.57 1964.33C3885.57 1964.33 3922.56 1988.63 3924.52 1990.46C3924.72 1990.65 3982.66 1913.14 4014.48 1870.55C4027.33 1853.26 4024.05 1829.89 4007.39 1818.47ZM3860.62 2016.42C3865.24 2022.96 3855.41 2026.32 3846.69 2033.29C3845.84 2028.73 3845.17 2023.51 3844.68 2017.77C3849.93 2016.1 3856.51 2010.62 3860.62 2016.42Z" fill="#003889"/>
<path d="M3776.91 2587.76C3777.98 2589.26 3806.64 2637.07 3808.1 2634.46C3809.56 2631.85 3839.22 2596.67 3839.22 2596.67L3809.63 2551.88L3776.91 2587.76Z" fill="white"/>
<path d="M3718.81 2604.58C3719.19 2606.12 3716.12 2641.47 3716.12 2641.47H3769.53L3762.7 2600.18L3718.81 2604.58Z" fill="white"/>
<path d="M3823.22 2566.64L3775.11 2606.53L3771.42 2600.9L3770.96 2608.96H3711.54L3703.3 2494.81L3610.1 2349.72L3576.96 2070.83L3574.71 2051.96L3689.78 2053.65L3802.75 2043.32L3800.48 2083.68L3778.16 2481.17L3823.22 2566.64Z" fill="#1F3A6F"/>
<path d="M3697.2 2163.04C3697.2 2166.11 3697.2 2342.54 3697.2 2342.54L3711.8 2372.77L3697.2 2163.04Z" fill="#072542"/>
<path d="M3802.75 2043.32L3800.48 2083.68C3741.92 2109.53 3607.67 2078.48 3576.96 2070.83L3574.72 2051.95L3689.78 2053.64L3802.75 2043.32Z" fill="#072542"/>
<path d="M3697.36 1737.88L3785.58 1749.5C3785.58 1749.5 3892.46 1779.66 3951.69 1818.47C3969.13 1829.9 3974 1853.27 3962.29 1870.52C3933.37 1913.12 3880.71 1990.62 3880.5 1990.43C3878.42 1988.6 3839.77 1964.3 3839.77 1964.3L3881.65 1871.69L3797.88 1853.56C3797.88 1853.56 3792.5 1993.11 3807.1 2038.46C3821.7 2083.8 3610.07 2068.01 3568.57 2059.56L3547.59 1841.61C3546.96 1835.11 3542.64 1829.56 3536.5 1827.35L3431.29 1789.65L3280.15 1680.97L3307.82 1644.85L3466.65 1731.71L3603.48 1738.52L3697.36 1737.88Z" fill="#F4B545"/>
<path d="M3792.21 2624.95C3794.77 2624.44 3822.21 2607.94 3825.8 2593.6C3829.39 2579.25 3827.85 2571.06 3841.17 2569.52C3847.55 2568.78 3852.87 2568.75 3856.68 2568.92C3860.47 2569.09 3863.59 2571.88 3864.14 2575.63C3867.81 2600.65 3879.69 2694.87 3853.98 2713.49C3824.26 2735.01 3814.02 2714.51 3816.58 2701.19C3819.14 2687.87 3822.22 2654.05 3804.8 2642.78C3787.38 2631.51 3792.21 2624.95 3792.21 2624.95Z" fill="#15315E"/>
<path d="M3710.9 2648.34C3710.76 2641.39 3714.69 2635.03 3720.98 2632.08C3732.44 2626.7 3757.27 2624.05 3767.9 2632.02C3784.3 2644.32 3768.92 2675.57 3776.61 2686.33C3784.3 2697.09 3798.64 2725.27 3757.14 2730.9C3715.64 2736.54 3709.49 2689.91 3710.52 2672.49C3711.04 2663.7 3711.03 2654.89 3710.9 2648.34Z" fill="#15315E"/>
<path d="M3308.83 1650.87L3280.14 1633.12C3280.14 1633.12 3282.5 1572.35 3242.54 1563.9C3202.58 1555.45 3253.37 1610.4 3244.53 1612.32C3235.69 1614.24 3229.93 1594.26 3219.55 1603.87C3209.17 1613.48 3287.18 1679.57 3287.18 1679.57L3308.83 1650.87Z" fill="#FDC8AA"/>
<path d="M3874.9 1986.67L3864.54 2000.6L3864.17 2001.09C3864.17 2001.09 3853.17 2035.58 3842.38 2045.97C3835.46 2052.61 3816.5 2053.44 3805.8 2049.97C3799.81 2048.03 3796.42 2044.71 3799.28 2040.29C3801.03 2037.55 3803.28 2035.28 3805.61 2033.31C3813.85 2026.33 3823.47 2022.98 3818.4 2016.43C3813.88 2010.62 3807.67 2016.12 3802.54 2017.78C3800.27 2018.52 3798.18 2018.49 3796.55 2016.37C3794.92 2014.28 3797.2 2011.54 3801.28 2008.59C3810.53 2001.92 3829.1 1994.14 3831.93 1990.24C3833.41 1988.18 3836.88 1981.42 3841.8 1972.44C3842.69 1970.81 3843.61 1969.12 3844.6 1967.37C3852.15 1972.12 3866.81 1981.38 3874.9 1986.67Z" fill="#FDC8AA"/>
<path d="M3697.36 1737.88C3697.36 1737.88 3691.59 1787.85 3649.94 1787.23C3608.29 1786.61 3607.6 1738.49 3607.6 1738.49L3614.42 1716.4L3622.94 1684.49H3684.7C3684.7 1684.79 3686.03 1690.83 3687.83 1698.88C3691.6 1715.7 3697.36 1737.88 3697.36 1737.88Z" fill="#FDC8AA"/>
<path d="M3687.83 1698.88C3678.17 1713.21 3651.66 1743.74 3614.42 1716.4L3622.94 1684.49H3684.7C3684.7 1684.79 3686.03 1690.83 3687.83 1698.88Z" fill="#EFA37D"/>
<path d="M3703.56 1636.1C3703.56 1677.3 3680.81 1710.71 3652.74 1710.71C3624.67 1710.71 3601.92 1677.31 3601.92 1636.1C3601.92 1594.9 3624.67 1574.07 3652.74 1574.07C3680.8 1574.07 3703.56 1594.9 3703.56 1636.1Z" fill="#FDC8AA"/>
<path d="M3702.15 1623.95C3702.15 1623.95 3722.85 1612.66 3719.26 1635.07C3715.67 1657.49 3697.36 1658.86 3697.36 1658.86L3702.15 1623.95Z" fill="#FDC8AA"/>
<path d="M3705.18 1634.14C3705.18 1634.14 3709.22 1629.18 3712.08 1631.4C3714.94 1633.62 3710.71 1646.03 3708.63 1647.31C3706.55 1648.59 3712.62 1635.67 3709.89 1634.82C3707.15 1633.96 3705.18 1634.14 3705.18 1634.14Z" fill="#EFA37D"/>
<path d="M3603.24 1623.95C3603.24 1623.95 3582.54 1612.66 3586.13 1635.07C3589.72 1657.49 3608.03 1658.86 3608.03 1658.86L3603.24 1623.95Z" fill="#FDC8AA"/>
<path d="M3600.21 1634.14C3600.21 1634.14 3596.17 1629.18 3593.31 1631.4C3590.45 1633.62 3594.68 1646.03 3596.76 1647.31C3598.84 1648.59 3592.77 1635.67 3595.5 1634.82C3598.24 1633.96 3600.21 1634.14 3600.21 1634.14Z" fill="#EFA37D"/>
<path d="M3604.81 1619.98C3603.79 1620.68 3602.41 1620.29 3601.89 1619.17C3599.07 1613.12 3593.31 1594.85 3614.49 1575.97C3640.41 1552.87 3697.4 1554.35 3708.43 1562.83C3719.46 1571.31 3701.76 1591.23 3703.55 1594.84C3705.34 1598.45 3707.59 1620.06 3702.62 1624.73C3702.62 1624.73 3664.54 1627.27 3647.85 1613.5C3633.71 1601.8 3611.28 1615.54 3604.81 1619.98Z" fill="#1F3A6F"/>
<path d="M3703.3 2494.81L3771.42 2600.9L3770.96 2608.96L3706.61 2540.57L3703.3 2494.81Z" fill="#072542"/>
<path d="M3874.9 1986.67L3864.54 2000.6C3858.11 1992.55 3846.77 1978.4 3841.79 1972.44C3842.68 1970.81 3843.6 1969.12 3844.59 1967.37C3852.15 1972.12 3866.81 1981.38 3874.9 1986.67Z" fill="#EFA37D"/>
<path d="M2094.12 188.02C2131.4 188.02 2161.62 157.799 2161.62 120.52C2161.62 83.2408 2131.4 53.02 2094.12 53.02C2056.84 53.02 2026.62 83.2408 2026.62 120.52C2026.62 157.799 2056.84 188.02 2094.12 188.02Z" fill="#F4B545"/>
<path d="M614.93 1139.04C618.724 1115.66 602.849 1093.63 579.472 1089.84C556.096 1086.05 534.07 1101.92 530.276 1125.3C526.482 1148.67 542.357 1170.7 565.734 1174.49C589.11 1178.29 611.136 1162.41 614.93 1139.04Z" fill="#C4D7F2"/>
</svg>
