<svg width="4395" height="3172" viewBox="0 0 4395 3172" fill="none" xmlns="http://www.w3.org/2000/svg">
<path d="M3675.54 2258.66H603.611C593.588 2258.66 583.976 2254.68 576.889 2247.6C569.801 2240.51 565.82 2230.9 565.82 2220.87V738.819H3713.15V2220.87C3713.15 2230.87 3709.2 2240.45 3702.15 2247.53C3695.1 2254.62 3685.53 2258.62 3675.54 2258.66Z" fill="#D4CFF6"/>
<path d="M3713.33 739.228H565.996V695.996C565.996 668.069 577.09 641.285 596.838 621.537C616.586 601.79 643.37 590.695 671.297 590.695H3608.2C3636.13 590.695 3662.92 601.79 3682.66 621.537C3702.41 641.285 3713.5 668.069 3713.5 695.996L3713.33 739.228Z" fill="#7C38E9"/>
<path d="M763.143 693.013C777.295 693.013 788.767 681.541 788.767 667.389C788.767 653.238 777.295 641.766 763.143 641.766C748.992 641.766 737.52 653.238 737.52 667.389C737.52 681.541 748.992 693.013 763.143 693.013Z" fill="white"/>
<path d="M877.395 693.013C891.546 693.013 903.018 681.541 903.018 667.389C903.018 653.238 891.546 641.766 877.395 641.766C863.243 641.766 851.771 653.238 851.771 667.389C851.771 681.541 863.243 693.013 877.395 693.013Z" fill="white"/>
<path d="M1017.21 667.389C1017.21 672.457 1015.71 677.411 1012.89 681.625C1010.08 685.839 1006.08 689.123 1001.39 691.062C996.712 693.002 991.56 693.509 986.589 692.52C981.619 691.532 977.053 689.091 973.47 685.508C969.886 681.924 967.446 677.359 966.457 672.388C965.469 667.418 965.976 662.266 967.915 657.584C969.855 652.902 973.139 648.9 977.353 646.084C981.566 643.269 986.52 641.766 991.588 641.766C998.384 641.766 1004.9 644.466 1009.71 649.271C1014.51 654.076 1017.21 660.594 1017.21 667.389Z" fill="white"/>
<path d="M3229.82 859.974C3225.99 855.328 3221.08 851.678 3215.53 849.335C3209.98 846.992 3203.94 846.026 3197.94 846.519L2994.59 863.718C2987.72 864.252 2981.14 866.683 2975.57 870.74C2970 874.797 2965.66 880.321 2963.05 886.696C2960.44 893.07 2959.64 900.046 2960.76 906.845C2961.88 913.644 2964.86 919.999 2969.38 925.202L3012.43 975.805L2704.6 1206.01L2590.23 1081.05C2582.83 1072.96 2572.7 1067.89 2561.78 1066.81C2550.87 1065.73 2539.94 1068.72 2531.09 1075.2L1881.73 1547.12L1706.99 1423.63C1699.04 1418.02 1689.46 1415.17 1679.74 1415.51C1670.01 1415.85 1660.66 1419.36 1653.11 1425.5L1155.86 1830.56C1151.31 1834.26 1147.54 1838.82 1144.76 1843.98C1141.98 1849.14 1140.24 1854.8 1139.65 1860.63C1139.05 1866.46 1139.61 1872.35 1141.3 1877.97C1142.98 1883.59 1145.75 1888.81 1149.45 1893.36C1153.15 1897.9 1157.72 1901.67 1162.88 1904.45C1168.04 1907.24 1173.69 1908.97 1179.53 1909.57C1185.36 1910.16 1191.25 1909.6 1196.86 1907.92C1202.48 1906.24 1207.71 1903.47 1212.25 1899.76L1683.24 1516.06L1856.46 1638.21C1864.08 1643.57 1873.19 1646.41 1882.5 1646.34C1891.82 1646.27 1900.88 1643.28 1908.41 1637.8L2551.33 1170.55L2665.99 1295.92C2673.44 1304.13 2683.67 1309.27 2694.7 1310.36C2705.73 1311.44 2716.77 1308.38 2725.66 1301.77L3070.35 1043.9L3117.73 1099.65C3121.23 1103.77 3125.58 1107.07 3130.48 1109.33C3135.38 1111.6 3140.71 1112.76 3146.11 1112.76C3148.74 1112.74 3151.37 1112.47 3153.95 1111.94C3160.52 1110.5 3166.58 1107.32 3171.49 1102.73C3176.4 1098.14 3179.98 1092.3 3181.85 1085.84L3236.84 894.08C3238.55 888.255 3238.81 882.098 3237.58 876.152C3236.36 870.205 3233.69 864.65 3229.82 859.974Z" fill="#7C38E9"/>
<path d="M1663.64 1766.32H1494.4V2055.14H1663.64V1766.32Z" fill="#7C38E9"/>
<path d="M1911.98 1848.17H1742.74V2055.08H1911.98V1848.17Z" fill="#7C38E9"/>
<path d="M2160.31 1688.17H1991.07V2055.14H2160.31V1688.17Z" fill="#7C38E9"/>
<path d="M2408.65 1626.39H2239.41V2055.14H2408.65V1626.39Z" fill="#7C38E9"/>
<path d="M2656.98 1462.59H2487.74V2055.14H2656.98V1462.59Z" fill="#7C38E9"/>
<path d="M2905.32 1629.61H2736.08V2055.14H2905.32V1629.61Z" fill="#7C38E9"/>
<path d="M1077.82 908.706V2053.97H3308.15" stroke="white" stroke-width="12" stroke-miterlimit="10"/>
<path d="M4016.33 947.779C4079.46 947.779 4130.64 896.6 4130.64 833.468C4130.64 770.337 4079.46 719.158 4016.33 719.158C3953.19 719.158 3902.01 770.337 3902.01 833.468C3902.01 896.6 3953.19 947.779 4016.33 947.779Z" stroke="#29BEAC" stroke-width="12" stroke-miterlimit="10"/>
<path d="M3968 839.319L4007.78 868.452L4059.03 796.087" stroke="#29BEAC" stroke-width="12" stroke-linecap="round" stroke-linejoin="round"/>
<path d="M1342.18 984.932C1356.59 984.932 1368.27 973.25 1368.27 958.84C1368.27 944.43 1356.59 932.749 1342.18 932.749C1327.77 932.749 1316.09 944.43 1316.09 958.84C1316.09 973.25 1327.77 984.932 1342.18 984.932Z" fill="white"/>
<path d="M1417.82 984.932C1432.23 984.932 1443.91 973.25 1443.91 958.84C1443.91 944.43 1432.23 932.749 1417.82 932.749C1403.41 932.749 1391.73 944.43 1391.73 958.84C1391.73 973.25 1403.41 984.932 1417.82 984.932Z" fill="white"/>
<path d="M1493.41 984.932C1507.82 984.932 1519.5 973.25 1519.5 958.84C1519.5 944.43 1507.82 932.749 1493.41 932.749C1479 932.749 1467.32 944.43 1467.32 958.84C1467.32 973.25 1479 984.932 1493.41 984.932Z" fill="white"/>
<path d="M1569.05 941.524C1572.52 941.524 1575.91 942.553 1578.8 944.482C1581.68 946.41 1583.93 949.151 1585.26 952.358C1586.59 955.565 1586.94 959.094 1586.26 962.498C1585.58 965.903 1583.91 969.03 1581.46 971.484C1579 973.939 1575.88 975.61 1572.47 976.287C1569.07 976.964 1565.54 976.617 1562.33 975.289C1559.12 973.96 1556.38 971.711 1554.46 968.825C1552.53 965.939 1551.5 962.545 1551.5 959.074C1551.5 954.42 1553.35 949.956 1556.64 946.665C1559.93 943.373 1564.39 941.524 1569.05 941.524ZM1569.05 932.749C1563.89 932.749 1558.84 934.279 1554.55 937.146C1550.26 940.013 1546.92 944.088 1544.94 948.856C1542.97 953.623 1542.45 958.869 1543.46 963.931C1544.46 968.992 1546.95 973.641 1550.6 977.29C1554.25 980.939 1558.9 983.424 1563.96 984.43C1569.02 985.437 1574.26 984.92 1579.03 982.946C1583.8 980.971 1587.87 977.627 1590.74 973.336C1593.61 969.045 1595.14 964.001 1595.14 958.84C1595.15 955.412 1594.48 952.016 1593.17 948.847C1591.86 945.678 1589.94 942.798 1587.51 940.374C1585.09 937.949 1582.21 936.028 1579.04 934.719C1575.87 933.411 1572.48 932.741 1569.05 932.749Z" fill="white"/>
<path d="M638.079 1843.71C637.825 1870.78 629.552 1897.16 614.306 1919.52C599.06 1941.89 577.526 1959.23 552.426 1969.35C527.326 1979.48 499.788 1981.94 473.292 1976.41C446.796 1970.89 422.533 1957.63 403.569 1938.32C384.606 1919.01 371.794 1894.51 366.753 1867.92C361.712 1841.33 364.668 1813.84 375.249 1788.93C385.829 1764.01 403.558 1742.8 426.194 1727.96C448.83 1713.13 475.357 1705.33 502.421 1705.57C520.404 1705.72 538.181 1709.41 554.735 1716.44C571.29 1723.46 586.296 1733.68 598.896 1746.51C611.496 1759.34 621.443 1774.53 628.166 1791.21C634.889 1807.89 638.258 1825.73 638.079 1843.71Z" fill="#29BEAC"/>
<path d="M450.117 1835.35L489.759 1874.54L552.463 1802.94" stroke="white" stroke-width="12" stroke-linecap="round" stroke-linejoin="round"/>
<path d="M283.73 1100.7H756.356C767.341 1100.7 776.247 1091.8 776.247 1080.81V949.364C776.247 938.378 767.341 929.473 756.356 929.473H283.73C272.745 929.473 263.84 938.378 263.84 949.364V1080.81C263.84 1091.8 272.745 1100.7 283.73 1100.7Z" fill="#29BEAC"/>
<path d="M364.227 996.046H699.845" stroke="white" stroke-width="12" stroke-miterlimit="10"/>
<path d="M364.227 1034.25H462.976" stroke="white" stroke-width="12" stroke-miterlimit="10"/>
<path d="M715.29 1077.95V1155.4L616.599 1077.95H715.29Z" fill="#29BEAC"/>
<path d="M2323.76 461H1792.7C1771.57 461 1754.44 478.129 1754.44 499.259V944.098C1754.44 965.228 1771.57 982.358 1792.7 982.358H2323.76C2344.89 982.358 2362.02 965.228 2362.02 944.098V499.259C2362.02 478.129 2344.89 461 2323.76 461Z" fill="#29BEAC"/>
<path d="M1945.91 587.595H1884.02V649.489H1945.91V587.595Z" stroke="white" stroke-width="12" stroke-linecap="round" stroke-linejoin="round"/>
<path d="M1990.66 618.542H2110.59" stroke="white" stroke-width="12" stroke-linecap="round" stroke-linejoin="round"/>
<path d="M1945.91 690.732H1884.02V752.626H1945.91V690.732Z" stroke="white" stroke-width="12" stroke-linecap="round" stroke-linejoin="round"/>
<path d="M1990.66 721.679H2232.5" stroke="white" stroke-width="12" stroke-linecap="round" stroke-linejoin="round"/>
<path d="M1945.91 793.927H1884.02V855.82H1945.91V793.927Z" stroke="white" stroke-width="12" stroke-linecap="round" stroke-linejoin="round"/>
<path d="M1990.66 824.874H2232.5" stroke="white" stroke-width="12" stroke-linecap="round" stroke-linejoin="round"/>
<path d="M3847.12 1878.92C3958.5 1833.92 4012.31 1707.15 3967.31 1595.77C3922.31 1484.39 3795.54 1430.58 3684.16 1475.58C3572.78 1520.58 3518.97 1647.35 3563.97 1758.73C3608.97 1870.11 3735.74 1923.92 3847.12 1878.92Z" fill="#29BEAC"/>
<path d="M3715.03 1672.82H3672.98V1744.89H3715.03V1672.82Z" fill="white"/>
<path d="M3779.41 1582.39H3737.36V1744.82H3779.41V1582.39Z" fill="white"/>
<path d="M3843.78 1616.07H3801.73V1744.82H3843.78V1616.07Z" fill="white"/>
<path d="M3629.69 1744.82H3901.46" stroke="white" stroke-width="12" stroke-linecap="round" stroke-linejoin="round"/>
<path d="M1059.62 2838.76L1070.86 2599.26H1163.99L1139.07 2834.19L1059.62 2838.76Z" fill="#E9A79A"/>
<path d="M1054.59 2802.37C1066.36 2808.21 1079.34 2811.21 1092.48 2811.12C1105.61 2811.03 1118.55 2807.85 1130.23 2801.84C1130.23 2801.84 1141.93 2766.04 1174.34 2786.81C1174.34 2786.81 1211.9 2828.81 1267.65 2840.1C1344.93 2855.78 1348.38 2891.76 1348.38 2891.76H1020.78C1020.78 2891.76 1032.48 2842.91 1037.45 2812.02C1037.74 2810.15 1038.45 2808.37 1039.53 2806.81C1040.61 2805.26 1042.03 2803.97 1043.68 2803.04C1045.33 2802.11 1047.17 2801.56 1049.06 2801.45C1050.95 2801.33 1052.84 2801.65 1054.59 2802.37Z" fill="#233862"/>
<path d="M1348.44 2891.76H1020.78V2927.56H1348.44V2891.76Z" fill="#D4CFF6"/>
<path d="M1236.88 2830.33C1236.88 2830.33 1224.48 2830.33 1214.71 2847.18" stroke="#D4CFF6" stroke-width="0.79" stroke-linecap="round" stroke-linejoin="round"/>
<path d="M1221.09 2821.91C1221.09 2821.91 1208.68 2821.91 1198.97 2838.76" stroke="#D4CFF6" stroke-width="0.79" stroke-linecap="round" stroke-linejoin="round"/>
<path d="M1205 2811.91C1205 2811.91 1192.6 2811.91 1182.88 2828.75" stroke="#D4CFF6" stroke-width="0.79" stroke-linecap="round" stroke-linejoin="round"/>
<path d="M799.531 2838.76L831.472 2599.26H924.664L878.916 2834.19L799.531 2838.76Z" fill="#E9A79A"/>
<path d="M796.371 2802.37C808.14 2808.21 821.116 2811.21 834.254 2811.12C847.393 2811.03 860.326 2807.85 872.012 2801.84C872.012 2801.84 883.712 2766.04 916.122 2786.81C916.122 2786.81 953.621 2828.81 1009.37 2840.1C1086.71 2855.78 1090.16 2891.76 1090.16 2891.76H762.558C762.558 2891.76 774.258 2842.91 779.289 2812.02C779.582 2810.16 780.293 2808.39 781.368 2806.83C782.443 2805.28 783.854 2804 785.497 2803.07C787.14 2802.14 788.971 2801.6 790.854 2801.47C792.737 2801.35 794.623 2801.66 796.371 2802.37Z" fill="#233862"/>
<path d="M1090.22 2891.76H762.558V2927.56H1090.22V2891.76Z" fill="#D4CFF6"/>
<path d="M978.659 2830.33C978.659 2830.33 966.199 2830.33 956.488 2847.18" stroke="#D4CFF6" stroke-width="0.79" stroke-linecap="round" stroke-linejoin="round"/>
<path d="M962.864 2821.91C962.864 2821.91 950.461 2821.91 940.692 2838.76" stroke="#D4CFF6" stroke-width="0.79" stroke-linecap="round" stroke-linejoin="round"/>
<path d="M946.777 2811.91C946.777 2811.91 934.375 2811.91 924.605 2828.75" stroke="#D4CFF6" stroke-width="0.79" stroke-linecap="round" stroke-linejoin="round"/>
<path d="M1215.35 1629.9C1215.35 1629.9 1225.71 1661.67 1230.04 1809.44C1230.91 1839.8 1230.04 1881.98 1228.11 1912.28L1184.58 2755.22L1025.4 2754.63L1066.35 1896.61L933.731 2754.17L778.938 2750.42L920.977 1672.14L1073.08 1658.16L1215.35 1629.9Z" fill="#1F3A6F"/>
<path d="M1066.59 1896.61L1152.41 1881.92" stroke="black" stroke-width="0.5" stroke-linecap="round" stroke-linejoin="round"/>
<path d="M1161.3 1326.17C1161.3 1326.17 1288.48 1433.22 1410.04 1487.98C1424.67 1494.59 1459.65 1486.22 1471.06 1474.93C1475.08 1470.92 1478.17 1466.07 1480.12 1460.74C1482.06 1455.4 1482.81 1449.7 1482.3 1444.04C1481.8 1438.38 1480.06 1432.9 1477.21 1427.99C1474.36 1423.08 1470.46 1418.85 1465.79 1415.61L1242.73 1243.45L1161.3 1326.17Z" fill="#E9A79A"/>
<path d="M1156.09 1193.78C1156.09 1193.78 1244.84 1193.78 1340.49 1310.08L1260.28 1426.32L1109.06 1354.42L1156.09 1193.78Z" fill="#F4953E"/>
<path d="M1476.03 1468.79L1627.61 1216.71L1576.77 1183.83L1384.71 1419.71C1369.44 1433.34 1388.34 1469.79 1406.24 1485.64C1416.01 1494.47 1456.02 1500.09 1476.03 1468.79Z" fill="#E9A79A"/>
<path d="M1576.77 1183.83L1581.39 1144.17C1581.87 1140.7 1583.33 1137.44 1585.62 1134.78C1587.9 1132.13 1590.9 1130.19 1594.26 1129.19L1636.38 1116.79C1639.36 1115.92 1642.55 1116.07 1645.43 1117.24C1648.31 1118.41 1650.71 1120.52 1652.24 1123.23C1653.12 1124.81 1653.68 1126.55 1653.89 1128.36C1654.09 1130.16 1653.94 1131.98 1653.43 1133.73C1652.92 1135.47 1652.08 1137.09 1650.94 1138.5C1649.8 1139.91 1648.39 1141.09 1646.79 1141.95L1626.61 1152.89C1626.61 1152.89 1654.46 1175.23 1627.37 1205.01L1576.77 1183.83Z" fill="#E9A79A"/>
<path d="M1594.26 1129.19L1649.54 1054.43C1650.42 1053.25 1651.54 1052.26 1652.82 1051.53C1654.1 1050.8 1655.52 1050.35 1656.99 1050.21C1658.45 1050.07 1659.93 1050.23 1661.33 1050.7C1662.73 1051.16 1664.02 1051.92 1665.11 1052.91C1666.83 1054.46 1668 1056.55 1668.41 1058.84C1668.82 1061.12 1668.46 1063.48 1667.39 1065.55L1632.29 1132.76L1594.26 1129.19Z" fill="#E9A79A"/>
<path d="M1638.55 1111.12L1659.66 1104.04C1661.86 1103.47 1664.15 1103.42 1666.37 1103.9C1668.58 1104.38 1670.65 1105.37 1672.42 1106.79L1677.27 1110.71C1679.95 1112.86 1681.77 1115.89 1682.44 1119.26C1683.1 1122.63 1682.56 1126.13 1680.9 1129.14L1653.76 1177.05L1619.24 1151.37L1638.55 1111.12Z" fill="#E9A79A"/>
<path d="M1676.98 1118.26H1684.88C1688.63 1118.27 1692.23 1119.76 1694.88 1122.41L1701.38 1128.79C1702.73 1130.14 1703.81 1131.74 1704.54 1133.51C1705.27 1135.27 1705.65 1137.17 1705.65 1139.08C1705.63 1142.19 1704.61 1145.21 1702.72 1147.68L1668.03 1193.55L1638.19 1170.91L1676.98 1118.26Z" fill="#E9A79A"/>
<path d="M1689.56 1136.45H1697.4C1701.17 1136.47 1704.78 1137.96 1707.46 1140.6L1713.95 1146.98C1715.31 1148.33 1716.38 1149.93 1717.12 1151.7C1717.85 1153.47 1718.23 1155.36 1718.22 1157.27C1718.19 1160.38 1717.16 1163.39 1715.3 1165.87L1703.07 1182.02C1697.1 1189.92 1688.24 1195.12 1678.44 1196.49C1668.63 1197.86 1658.68 1195.29 1650.77 1189.33L1689.56 1136.45Z" fill="#E9A79A"/>
<path d="M1686.46 1191.44L1670.25 1208.99C1662.85 1217.1 1652.53 1221.94 1641.56 1222.45C1630.59 1222.95 1619.87 1219.08 1611.75 1211.68L1576.65 1183.66L1603.91 1144.52H1638.19L1668.03 1165.35L1686.46 1191.44Z" fill="#E9A79A"/>
<path d="M1597.13 1128.73L1642.99 1113.69C1646.16 1112.74 1649.57 1113.08 1652.48 1114.64C1655.4 1116.19 1657.58 1118.84 1658.55 1122C1659.29 1124.42 1659.28 1127.01 1658.51 1129.42C1657.75 1131.83 1656.28 1133.95 1654.28 1135.51L1626.61 1153.06C1626.61 1153.06 1651.47 1165.35 1631 1193.54" stroke="black" stroke-width="0.51" stroke-linecap="round" stroke-linejoin="round"/>
<path d="M1048.16 1181.26C1008.15 1184.5 968.848 1193.63 931.508 1208.35C922.382 1212.03 913.373 1216.01 905.124 1220.05C879.208 1233.62 897.812 1262.87 901.029 1292.76L910.682 1708.12C910.682 1708.12 1089.34 1785.86 1231.62 1704.26L1244.54 1306.45C1247.41 1264.8 1230.39 1209.4 1191.13 1199.75C1150.42 1189.82 1108.99 1183.11 1067.23 1179.68L1048.16 1181.26Z" fill="#F4953E"/>
<path d="M1140.88 1189.16C1116.73 1183.41 1092.05 1180.24 1067.23 1179.68C1042.23 1179.36 1017.32 1182.69 993.285 1189.57L1109.17 1254.79C1137.43 1214.49 1140.88 1189.16 1140.88 1189.16Z" fill="#E9A79A"/>
<path d="M1240.8 1417.13L1243.2 1326.81" stroke="#171717" stroke-width="0.68" stroke-linecap="round" stroke-linejoin="round"/>
<path d="M723.304 1410.52L876.693 1644.76L835.392 1691.62L666.091 1519.57L723.304 1410.52Z" fill="#E9A79A"/>
<path d="M1017.56 1655.47L951.983 1620.83L958.418 1605.92C959.556 1603.27 959.828 1600.34 959.198 1597.54C958.568 1594.73 957.066 1592.2 954.908 1590.3C952.706 1588.4 949.911 1587.33 947.005 1587.28C944.099 1587.23 941.266 1588.19 938.996 1590L874.645 1642.65L835.333 1691.56C870.784 1723.09 893.834 1722.68 907.289 1716.6C908.868 1717.13 910.389 1717.71 911.969 1718.18L966.491 1734.38C968.937 1735.48 971.715 1735.56 974.223 1734.62C976.731 1733.68 978.766 1731.78 979.888 1729.35C981.702 1725.67 982.345 1719.76 971.815 1714.26L982.345 1719.76C983.622 1720.33 985 1720.64 986.399 1720.67C987.797 1720.7 989.188 1720.45 990.489 1719.94C991.791 1719.43 992.977 1718.66 993.98 1717.69C994.982 1716.71 995.78 1715.55 996.327 1714.26C998.667 1709.46 995.8 1703.14 989.658 1698.93L997.672 1702.21C999.08 1702.83 1000.6 1703.15 1002.14 1703.14C1003.68 1703.13 1005.2 1702.8 1006.61 1702.17C1008.01 1701.53 1009.26 1700.61 1010.28 1699.46C1011.3 1698.3 1012.07 1696.95 1012.53 1695.48C1013.38 1692.78 1013.26 1689.87 1012.2 1687.26C1011.13 1684.64 1009.18 1682.48 1006.68 1681.15L994.981 1675.3L1008.79 1678.75C1010.33 1679.33 1011.97 1679.57 1013.61 1679.47C1015.25 1679.37 1016.86 1678.92 1018.31 1678.16C1019.77 1677.4 1021.05 1676.34 1022.07 1675.05C1023.09 1673.76 1023.83 1672.27 1024.23 1670.68C1025.07 1667.76 1024.86 1664.64 1023.65 1661.87C1022.43 1659.09 1020.28 1656.82 1017.56 1655.47Z" fill="#E9A79A"/>
<path d="M998.432 1676.82L959.646 1657.86" stroke="#171717" stroke-width="0.44" stroke-linecap="round" stroke-linejoin="round"/>
<path d="M988.02 1698.29L950.638 1682.14" stroke="#171717" stroke-width="0.44" stroke-linecap="round" stroke-linejoin="round"/>
<path d="M975.325 1715.72L943.617 1702.73" stroke="#171717" stroke-width="0.44" stroke-linecap="round" stroke-linejoin="round"/>
<path d="M938.528 1346L743.487 1520.45C734.867 1529.62 723.249 1535.4 710.735 1536.74C698.222 1538.08 685.642 1534.89 675.275 1527.76C668.872 1523.12 663.501 1517.21 659.501 1510.39C655.501 1503.57 652.958 1496 652.035 1488.15C651.111 1480.29 651.826 1472.34 654.135 1464.78C656.443 1457.22 660.295 1450.22 665.447 1444.22L848.846 1258.36C859.143 1246.24 873.82 1238.68 889.67 1237.35C905.52 1236.01 921.256 1241 933.438 1251.23C940.163 1257.01 945.649 1264.09 949.564 1272.05C953.478 1280 955.742 1288.67 956.217 1297.53C956.693 1306.38 955.371 1315.24 952.331 1323.57C949.29 1331.9 944.595 1339.53 938.528 1346Z" fill="#E9A79A"/>
<path d="M942.682 1204.08C942.682 1204.08 864.35 1219.93 767.18 1340.62L860.079 1445.21L977.08 1358.11L942.682 1204.08Z" fill="#F4953E"/>
<path d="M903.837 1412.63L967.135 1365.65" stroke="#171717" stroke-width="0.68" stroke-linecap="round" stroke-linejoin="round"/>
<path d="M1192.83 931.053C1186.98 989.085 1136.96 1054.78 1074.13 1054.66C1011.3 1054.55 972.691 1004.65 956.077 948.603C930.103 862.315 1007.91 819.258 1094.31 834.819C1133.04 842.015 1199.09 867.989 1192.83 931.053Z" fill="black"/>
<path d="M1042.6 1033.25L1025.87 1205.3L1114.85 1205.83L1110.11 1051.56L1042.6 1033.25Z" fill="#E9A79A"/>
<path d="M1113.27 1154L1055.12 1084.79L1110.29 1062.44L1113.27 1154Z" fill="black"/>
<path d="M1056.58 867.228C1075.88 861.819 1096.19 861.057 1115.84 865.005C1142.29 870.855 1176.22 887.352 1180.19 935.791C1187.1 1016.46 1177.15 1081.46 1137.25 1099.59C1106.66 1113.57 1084.6 1108.07 1049.21 1087.48C1036.16 1079.82 1023.7 1047.41 1019.96 1031.97L1004.93 988.792C1004.93 988.792 964.443 892.208 1056.58 867.228Z" fill="#E9A79A"/>
<path d="M1021.36 1012.31C1021.36 1012.31 1060.5 889.81 1003.35 886.417L971.815 947.433L988.371 998.504L1021.36 1012.31Z" fill="black"/>
<path d="M1031.25 1038.46C1028.91 1027.28 1024.49 1016.64 1018.21 1007.1C1009.37 993.882 996.736 981.713 980.824 991.483C953.738 1008.1 987.025 1051.5 1016.74 1052.09C1025.46 1052.09 1032.71 1045.42 1031.25 1038.46Z" fill="#E9A79A"/>
<path d="M1015.75 889.634C1015.75 889.634 1212.84 926.782 1209.68 853.773C1206.81 785.269 1105.78 810.249 1078.23 836.223L1001.12 876.003L1015.75 889.634Z" fill="black"/>
<path d="M1136.73 1006.05L1144.04 1022.96L1134.62 1030.33" stroke="black" stroke-width="0.39" stroke-linecap="round" stroke-linejoin="round"/>
<path d="M1147.14 941.699C1146.67 943.168 1146.54 944.722 1146.74 946.25C1146.95 947.778 1147.49 949.241 1148.33 950.534C1149.17 951.827 1150.28 952.917 1151.6 953.727C1152.91 954.536 1154.38 955.043 1155.92 955.213C1162.81 956.025 1169.56 957.776 1175.98 960.42C1176.7 960.791 1177.48 961.012 1178.28 961.067C1179.08 961.123 1179.89 961.013 1180.64 960.744C1181.4 960.475 1182.09 960.053 1182.68 959.504C1183.27 958.955 1183.74 958.291 1184.06 957.553C1184.73 956.294 1185.09 954.887 1185.09 953.458C1185.09 952.029 1184.73 950.622 1184.06 949.363C1182.05 945.54 1179.22 942.208 1175.77 939.609C1172.32 937.01 1168.34 935.206 1164.11 934.328C1149.95 931.403 1147.14 941.699 1147.14 941.699Z" fill="black"/>
<path d="M1108.18 940.764C1108.18 940.764 1112.1 952.113 1095.19 954.219C1083.05 956.219 1071.12 959.353 1059.57 963.579C1057.65 964.306 1055.55 964.415 1053.57 963.89C1051.59 963.366 1049.82 962.234 1048.51 960.654C1047.61 959.461 1047.15 957.99 1047.21 956.496C1047.28 955.001 1047.86 953.575 1048.86 952.464C1058.67 942.606 1071.2 935.887 1084.84 933.159C1104.61 930.467 1108.18 940.764 1108.18 940.764Z" fill="black"/>
<path d="M1111.22 995.403C1111.22 995.403 1103.27 964.339 1062.37 986.803C1062.37 987.037 1078.93 1019.33 1111.22 995.403Z" fill="white"/>
<mask id="mask0_37_2847" style="mask-type:luminance" maskUnits="userSpaceOnUse" x="1062" y="978" width="50" height="27">
<path d="M1111.22 995.403C1111.22 995.403 1103.27 964.339 1062.37 986.803C1062.37 987.037 1078.93 1019.33 1111.22 995.403Z" fill="white"/>
</mask>
<g mask="url(#mask0_37_2847)">
<path d="M1103.21 991.308C1103.44 994.079 1102.85 996.858 1101.52 999.298C1100.18 1001.74 1098.16 1003.73 1095.7 1005.03C1093.24 1006.32 1090.45 1006.86 1087.68 1006.59C1084.91 1006.31 1082.29 1005.22 1080.14 1003.46C1077.98 1001.7 1076.4 999.342 1075.57 996.685C1074.75 994.028 1074.73 991.188 1075.51 988.519C1076.29 985.85 1077.85 983.47 1079.97 981.677C1082.1 979.884 1084.71 978.758 1087.47 978.437C1091.26 978.062 1095.05 979.206 1098 981.618C1100.95 984.031 1102.82 987.516 1103.21 991.308Z" fill="black"/>
</g>
<path d="M1061.85 986.336C1065.76 983.485 1070.1 981.291 1074.72 979.842C1079.37 978.365 1084.23 977.615 1089.11 977.619C1094.12 977.688 1099.02 979.081 1103.32 981.656C1105.54 983.027 1107.46 984.825 1108.98 986.943C1110.49 989.062 1111.57 991.46 1112.16 993.999C1112.26 994.48 1112.17 994.983 1111.91 995.399C1111.65 995.815 1111.23 996.111 1110.75 996.222C1110.52 996.282 1110.27 996.293 1110.04 996.254C1109.8 996.215 1109.57 996.126 1109.36 995.994C1109.16 995.863 1108.99 995.69 1108.85 995.488C1108.72 995.285 1108.63 995.057 1108.59 994.818C1107.63 990.655 1105.15 987.003 1101.63 984.581C1097.84 982.167 1093.48 980.795 1088.99 980.603C1084.4 980.415 1079.82 980.989 1075.42 982.299C1070.97 983.532 1066.75 985.51 1062.96 988.149C1062.76 988.289 1062.52 988.346 1062.29 988.307C1062.05 988.269 1061.84 988.138 1061.7 987.945C1061.56 987.751 1061.5 987.509 1061.54 987.273C1061.58 987.037 1061.71 986.826 1061.91 986.687L1061.85 986.336Z" fill="black"/>
<path d="M1144.92 995.403C1144.92 995.403 1157.2 964.632 1179.55 985.985C1179.55 986.043 1170.72 1016.23 1144.92 995.403Z" fill="white"/>
<mask id="mask1_37_2847" style="mask-type:luminance" maskUnits="userSpaceOnUse" x="1144" y="978" width="36" height="25">
<path d="M1144.92 995.404C1144.92 995.404 1157.2 964.633 1179.55 985.985C1179.55 986.044 1170.72 1016.23 1144.92 995.404Z" fill="white"/>
</mask>
<g mask="url(#mask1_37_2847)">
<path d="M1152.88 989.553C1153.05 991.591 1153.79 993.54 1155.01 995.179C1156.23 996.818 1157.89 998.081 1159.8 998.825C1161.7 999.569 1163.78 999.764 1165.79 999.387C1167.8 999.011 1169.66 998.078 1171.17 996.696C1172.68 995.313 1173.77 993.535 1174.32 991.565C1174.86 989.594 1174.85 987.509 1174.27 985.547C1173.69 983.585 1172.58 981.824 1171.05 980.464C1169.52 979.103 1167.64 978.199 1165.63 977.853C1162.39 977.726 1159.23 978.884 1156.84 981.076C1154.45 983.267 1153.03 986.314 1152.88 989.553Z" fill="black"/>
</g>
<path d="M1178.91 986.452C1177.32 983.922 1175.05 981.893 1172.36 980.602C1169.74 979.459 1166.83 979.192 1164.05 979.841C1160.23 980.46 1156.68 982.213 1153.87 984.872C1151.01 987.487 1148.78 990.704 1147.32 994.291C1147.15 994.669 1146.84 994.969 1146.47 995.131C1146.09 995.294 1145.66 995.307 1145.27 995.169C1145.07 995.098 1144.89 994.988 1144.74 994.844C1144.59 994.701 1144.47 994.528 1144.38 994.336C1144.3 994.144 1144.26 993.937 1144.26 993.728C1144.26 993.519 1144.31 993.312 1144.39 993.121C1146.16 989.154 1148.78 985.62 1152.06 982.766C1155.37 979.93 1159.43 978.12 1163.76 977.56C1167.04 976.927 1170.44 977.357 1173.47 978.788C1176.36 980.245 1178.78 982.472 1180.49 985.223C1180.55 985.289 1180.6 985.366 1180.64 985.451C1180.68 985.537 1180.69 985.628 1180.69 985.721C1180.69 985.813 1180.68 985.905 1180.64 985.99C1180.6 986.075 1180.55 986.153 1180.49 986.218C1180.52 986.427 1180.46 986.641 1180.34 986.811C1180.21 986.981 1180.02 987.094 1179.81 987.125C1179.6 987.156 1179.39 987.102 1179.22 986.976C1179.05 986.85 1178.94 986.661 1178.91 986.452Z" fill="black"/>
<path d="M1101.04 1041.79C1101.04 1041.79 1114.91 1056.19 1139.3 1047.64" stroke="black" stroke-width="0.39" stroke-linecap="round" stroke-linejoin="round"/>
<path d="M3357.82 2776.34H2743.1V2854.38H3357.82V2776.34Z" fill="#E2C64A"/>
<path d="M2923.63 2776.34H2806.69V2854.38H2923.63V2776.34Z" fill="#D9AD44"/>
<path d="M3284.7 2776.34H3198.93V2854.38H3284.7V2776.34Z" fill="#E9D47C"/>
<path d="M3357.82 2620.26H2743.1V2698.3H3357.82V2620.26Z" fill="#E2C64A"/>
<path d="M2923.63 2620.26H2806.69V2698.3H2923.63V2620.26Z" fill="#D9AD44"/>
<path d="M3284.7 2620.26H3198.93V2698.3H3284.7V2620.26Z" fill="#E9D47C"/>
<path d="M3357.82 2386.2H2743.1V2464.24H3357.82V2386.2Z" fill="#E2C64A"/>
<path d="M2923.63 2386.2H2806.69V2464.24H2923.63V2386.2Z" fill="#D9AD44"/>
<path d="M3284.7 2386.2H3198.93V2464.24H3284.7V2386.2Z" fill="#E9D47C"/>
<path d="M3431.01 2854.38H2816.28V2932.42H3431.01V2854.38Z" fill="#E2C64A"/>
<path d="M2996.81 2854.38H2879.87V2932.42H2996.81V2854.38Z" fill="#D9AD44"/>
<path d="M3357.88 2854.38H3272.12V2932.42H3357.88V2854.38Z" fill="#E9D47C"/>
<path d="M3431.01 2542.22H2816.28V2620.26H3431.01V2542.22Z" fill="#E2C64A"/>
<path d="M2996.81 2542.22H2879.87V2620.26H2996.81V2542.22Z" fill="#D9AD44"/>
<path d="M3357.88 2542.22H3272.12V2620.26H3357.88V2542.22Z" fill="#E9D47C"/>
<path d="M3431.01 2464.24H2816.28V2542.28H3431.01V2464.24Z" fill="#E2C64A"/>
<path d="M2996.81 2464.24H2879.87V2542.28H2996.81V2464.24Z" fill="#D9AD44"/>
<path d="M3357.88 2464.24H3272.12V2542.28H3357.88V2464.24Z" fill="#E9D47C"/>
<path d="M3431.01 2698.3H2816.28V2776.34H3431.01V2698.3Z" fill="#E2C64A"/>
<path d="M2996.81 2698.3H2879.87V2776.34H2996.81V2698.3Z" fill="#D9AD44"/>
<path d="M3357.88 2698.3H3272.12V2776.34H3357.88V2698.3Z" fill="#E9D47C"/>
<path d="M3357.88 2854.38H2816.28" stroke="#D19734" stroke-width="0.84" stroke-miterlimit="10"/>
<path d="M3357.88 2776.34H2816.28" stroke="#D19734" stroke-width="0.84" stroke-miterlimit="10"/>
<path d="M3357.88 2698.3H2816.28" stroke="#D19734" stroke-width="0.84" stroke-miterlimit="10"/>
<path d="M3357.88 2620.26H2816.28" stroke="#D19734" stroke-width="0.84" stroke-miterlimit="10"/>
<path d="M3431.06 2542.22H2816.28" stroke="#D19734" stroke-width="0.84" stroke-miterlimit="10"/>
<path d="M3431.06 2464.24H2816.28" stroke="#D19734" stroke-width="0.84" stroke-miterlimit="10"/>
<path d="M3685.32 2928.93C3827.72 2907.36 3925.67 2774.43 3904.09 2632.03C3882.51 2489.62 3749.58 2391.68 3607.18 2413.25C3464.78 2434.83 3366.83 2567.76 3388.41 2710.16C3409.99 2852.56 3542.91 2950.51 3685.32 2928.93Z" fill="#D19734"/>
<path d="M3862.7 2687.83C3877.93 2544.8 3774.33 2416.5 3631.3 2401.27C3488.27 2386.03 3359.97 2489.63 3344.74 2632.66C3329.5 2775.69 3433.1 2903.99 3576.13 2919.23C3719.16 2934.46 3847.46 2830.86 3862.7 2687.83Z" fill="#E2C64A"/>
<path d="M3675.24 2856.15C3783.64 2816.63 3839.47 2696.72 3799.96 2588.33C3760.44 2479.93 3640.53 2424.09 3532.13 2463.61C3423.74 2503.13 3367.9 2623.03 3407.42 2731.43C3446.93 2839.83 3566.84 2895.67 3675.24 2856.15Z" fill="#DAB03C"/>
<path d="M3413.92 2620.9C3423.86 2584.35 3443.55 2551.18 3470.89 2524.96C3498.23 2498.74 3532.18 2480.44 3569.11 2472.03C3606.05 2463.61 3644.57 2465.4 3680.57 2477.2C3716.57 2489 3748.68 2510.36 3773.47 2539C3757.5 2516.7 3737.29 2497.77 3714 2483.28C3690.71 2468.79 3664.8 2459.03 3637.73 2454.56C3610.67 2450.08 3583 2450.98 3556.28 2457.21C3529.57 2463.43 3504.35 2474.85 3482.05 2490.83C3459.75 2506.8 3440.81 2527 3426.33 2550.29C3411.84 2573.58 3402.08 2599.5 3397.6 2626.56C3393.13 2653.62 3394.03 2681.3 3400.25 2708.01C3406.48 2734.72 3417.9 2759.95 3433.87 2782.25C3406.84 2733.08 3399.7 2675.41 3413.92 2621.14V2620.9Z" fill="#D19734"/>
<path d="M3553.51 2796.52L3561.34 2767.56C3529.05 2757.21 3515.71 2741.65 3526.24 2702.28C3528.45 2693.8 3531.35 2685.53 3534.9 2677.53L3575.85 2688.7C3574.32 2692.38 3573.03 2696.15 3571.99 2699.99C3567.37 2717.13 3566.14 2727.08 3582.58 2731.58C3599.02 2736.09 3602.41 2730.59 3608.32 2708.65C3611.25 2697.89 3612.24 2694.2 3607.74 2687.36C3598.55 2672.56 3570.24 2656.47 3558.54 2642.14C3548.01 2629.73 3548.42 2616.28 3557.78 2581.76C3568.54 2541.98 3584.04 2531.86 3622.48 2540.23L3628.68 2517.24L3652.08 2523.61L3645.88 2546.61C3680.39 2557.55 3689.29 2573.11 3679.75 2608.38C3677.73 2615.98 3675.19 2623.43 3672.14 2630.67L3631.19 2619.61C3632.68 2615.49 3633.95 2611.29 3635 2607.04C3639.21 2591.48 3639.09 2583.05 3623.3 2578.84C3609.9 2575.21 3604.99 2578.84 3599.9 2597.21C3594.81 2615.58 3595.27 2618.74 3606.39 2627.69C3618.44 2637.75 3630.67 2645.24 3641.08 2654.25C3655.53 2666.94 3665.71 2673.67 3655.35 2711.93C3640.73 2765.81 3625.69 2781.66 3584.04 2773.53L3576.91 2803.07L3553.51 2796.52Z" fill="#D19734"/>
<path d="M2656.52 2870.35L2595.97 2902.93C2592.71 2904.79 2590.13 2907.65 2588.62 2911.08C2587.1 2914.51 2586.72 2918.34 2587.54 2922C2589.01 2927.85 2594.15 2932.71 2607.55 2933.12C2637.27 2934 2809.26 2913.58 2809.26 2913.58L2812.13 2932.48L2877.65 2931.31C2877.65 2931.31 2867.23 2844.02 2848.75 2832.32L2656.52 2870.35Z" fill="#233862"/>
<path d="M2769.6 2817.29L2656.52 2870.35C2656.52 2870.35 2698.52 2900.48 2744.68 2881.05C2790.83 2861.63 2848.75 2832.32 2848.75 2832.32L2840.56 2809.57L2769.6 2817.29Z" fill="#C67B5B"/>
<path d="M2848.75 2832.27L2772.64 2555.85L2666.17 2560.24L2766.91 2848.7L2848.75 2832.27Z" fill="#C67B5B"/>
<path d="M2545.19 2331.97L2690.97 2773.12L2872.62 2735.62L2723.15 2260.77L2545.19 2331.97Z" fill="#122C5F"/>
<path d="M3215.37 2096.74C3215.37 2096.74 3377.54 2328.22 3174.77 2392.81L2628.26 2389.94C2610.17 2389.85 2592.53 2384.25 2577.69 2373.9C2562.85 2363.54 2551.52 2348.92 2545.19 2331.97C2540.64 2319.79 2538.81 2306.76 2539.83 2293.8C2540.84 2280.84 2544.67 2268.26 2551.06 2256.94C2557.45 2245.61 2566.23 2235.82 2576.8 2228.25C2587.36 2220.68 2599.46 2215.5 2612.23 2213.09L3098.9 2147.51L3083.57 2096.03L3215.37 2096.74Z" fill="#122C5F"/>
<path d="M3277.32 2097.09C3277.32 2097.09 3405.03 2279.37 3292.01 2365.55C3267.51 2383.79 3237.66 2393.41 3207.12 2392.92L2690.21 2390.29C2672.11 2390.19 2654.46 2384.59 2639.61 2374.22C2624.76 2363.86 2613.42 2349.22 2607.08 2332.26C2587.72 2280.43 2620.19 2214.91 2674.59 2204.67L3044.55 2154.83L3068.24 2095.98L3277.32 2097.09Z" fill="#1F3A6F"/>
<path d="M2319.14 2868.59L2258.59 2901.18C2255.34 2903.04 2252.76 2905.9 2251.24 2909.33C2249.73 2912.76 2249.35 2916.59 2250.17 2920.25C2251.69 2926.1 2256.78 2930.96 2270.18 2931.36C2299.95 2932.24 2463.81 2911.83 2463.81 2911.83V2928.73L2525.36 2929.43C2525.36 2929.43 2530.04 2842.15 2511.55 2830.51L2319.14 2868.59Z" fill="#233862"/>
<path d="M2431.99 2815.53L2319.14 2868.59C2319.14 2868.59 2361.15 2898.78 2407.3 2879.36C2453.46 2859.93 2511.38 2830.51 2511.38 2830.51L2503.19 2807.81L2431.99 2815.53Z" fill="#C67B5B"/>
<path d="M2511.14 2830.51L2644.93 2555.21L2523.37 2559.53L2424.68 2841.51L2511.14 2830.51Z" fill="#C67B5B"/>
<path d="M2609.13 2261.71L2415.73 2758.03L2588.83 2820.56L2783.17 2345.6L2609.13 2261.71Z" fill="#1F3A6F"/>
<path d="M2986.99 1762.29L2976.1 2096.44C2976.02 2103.66 2977.42 2110.81 2980.21 2117.46C2983.01 2124.1 2987.14 2130.11 2992.35 2135.09C2997.56 2140.08 3003.74 2143.94 3010.51 2146.44C3017.27 2148.94 3024.48 2150.02 3031.68 2149.62C3044.63 2148.8 3056.83 2143.22 3065.92 2133.95C3075.01 2124.69 3080.36 2112.39 3080.94 2099.43L3100.13 1767.2L2986.99 1762.29Z" fill="#C67B5B"/>
<path d="M2964.58 1887.48C2964.58 1887.48 2948.61 1709.11 3041.33 1703.26C3146.64 1696.42 3113.23 1914.21 3113.87 1898.71L2964.58 1887.48Z" fill="#F4953E"/>
<path d="M2777.14 2128.44L3017.4 2058.07L3031.68 2149.62L2793.35 2172.49L2777.14 2128.44Z" fill="#C67B5B"/>
<path d="M3156.75 1672.72L3276.5 1691.97C3276.5 1691.97 3299.32 1688.64 3318.04 1754.22C3334.01 1810.08 3275.16 2094.57 3275.16 2094.57H3066.25L3010.97 1914.8C3005.91 1900.55 3002.82 1885.67 3001.79 1870.57C2998.99 1838.65 3003.99 1806.53 3016.35 1776.97L3028.05 1705.25L3099.72 1678.57L3156.75 1672.72Z" fill="#F4953E"/>
<path d="M3200.22 1679.86L3156.75 1672.9L3094.98 1680.56L3067.95 1690.62C3067.95 1690.62 3042.44 1729.53 3084.68 1734.38C3135.93 1740.29 3175.94 1720.81 3200.22 1679.86Z" fill="#C67B5B"/>
<path d="M3222.92 1755.39L3255.5 2088.08C3256.2 2095.28 3258.38 2102.25 3261.9 2108.57C3265.41 2114.89 3270.19 2120.42 3275.94 2124.81C3281.69 2129.2 3288.28 2132.36 3295.3 2134.1C3302.32 2135.83 3309.62 2136.09 3316.75 2134.88C3329.53 2132.59 3341.01 2125.66 3348.99 2115.43C3356.96 2105.19 3360.88 2092.37 3359.99 2079.42L3335.88 1747.66L3222.92 1755.39Z" fill="#C67B5B"/>
<path d="M3220.05 1881.8C3220.05 1881.8 3185.95 1697.88 3264.45 1691.91C3369.75 1683.96 3370.81 1891.52 3369.75 1876.07L3220.05 1881.8Z" fill="#F4953E"/>
<path d="M3061.52 2142.54L3292.24 2045.25L3316.81 2134.64L3082.63 2184.49L3061.52 2142.54Z" fill="#C67B5B"/>
<path d="M3061.46 2142.54C3061.46 2142.54 3020.51 2086.73 2942.93 2162.84L2968.85 2184.49H3082.58L3097.03 2145.94L3061.46 2142.54Z" fill="#C67B5B"/>
<path d="M3025.71 2182.32H3238.13C3241.26 2182.32 3244.35 2182.94 3247.24 2184.13C3250.13 2185.33 3252.75 2187.08 3254.96 2189.3C3257.18 2191.51 3258.93 2194.13 3260.13 2197.02C3261.32 2199.91 3261.94 2203.01 3261.94 2206.13H3025.71V2182.32Z" fill="black"/>
<path d="M3045.19 2206.37H2682.49L2602.58 1954.81C2601.67 1951.45 2601.55 1947.93 2602.22 1944.51C2602.9 1941.1 2604.35 1937.88 2606.46 1935.11C2608.58 1932.35 2611.3 1930.11 2614.42 1928.56C2617.54 1927.02 2620.98 1926.21 2624.46 1926.21H2940.07C2945.04 1926.21 2949.88 1927.85 2953.83 1930.87C2957.79 1933.9 2960.64 1938.14 2961.95 1942.94L3045.19 2206.37Z" fill="black"/>
<path d="M3025.71 2206.37H2649.79L2569.76 1954.81C2568.85 1951.45 2568.73 1947.93 2569.41 1944.51C2570.08 1941.1 2571.53 1937.88 2573.65 1935.11C2575.76 1932.35 2578.48 1930.11 2581.6 1928.56C2584.72 1927.02 2588.16 1926.21 2591.64 1926.21H2920.59C2925.57 1926.2 2930.41 1927.84 2934.36 1930.86C2938.32 1933.89 2941.17 1938.13 2942.47 1942.94L3025.71 2206.37Z" fill="#2F313A"/>
<path d="M2808.73 2065.03C2808.73 2070.25 2807.19 2075.35 2804.29 2079.69C2801.39 2084.03 2797.27 2087.41 2792.45 2089.4C2787.63 2091.4 2782.32 2091.92 2777.2 2090.91C2772.09 2089.89 2767.38 2087.37 2763.69 2083.68C2760 2079.99 2757.49 2075.29 2756.47 2070.18C2755.46 2065.06 2755.98 2059.75 2757.98 2054.93C2759.97 2050.11 2763.35 2045.99 2767.69 2043.09C2772.03 2040.19 2777.13 2038.64 2782.35 2038.64C2789.35 2038.64 2796.06 2041.42 2801.01 2046.37C2805.95 2051.32 2808.73 2058.03 2808.73 2065.03Z" fill="#D1E3FD"/>
<path d="M3282.82 1588.31C3304.46 1556.23 3296 1512.69 3263.93 1491.05C3231.85 1469.41 3188.31 1477.87 3166.67 1509.94C3145.03 1542.02 3153.49 1585.56 3185.56 1607.2C3217.64 1628.84 3261.18 1620.38 3282.82 1588.31Z" fill="black"/>
<path d="M3179.1 1375.07C3179.1 1375.07 3198.76 1362.08 3223.09 1391.1C3247.43 1420.12 3249.89 1485.17 3206.95 1500.91L3179.1 1375.07Z" fill="black"/>
<path d="M3179.1 1375.07C3179.1 1375.07 3149.38 1304.87 3059.53 1325.58C2969.67 1346.29 2914.97 1434.51 2996.46 1481.54L3179.1 1375.07Z" fill="black"/>
<path d="M2996.76 1464.99C3001.2 1523.49 3049.41 1567.83 3112.47 1563.09C3175.53 1558.35 3223.62 1506.87 3219 1448.14C3214.38 1389.4 3159.74 1345.65 3096.5 1350.38C3033.26 1355.12 2992.31 1406.25 2996.76 1464.99Z" fill="black"/>
<path d="M3127.27 1533.78L3174.48 1681.97L3122.18 1725.14L3092.46 1704.43L3075.85 1559.7L3127.27 1533.78Z" fill="#C67B5B"/>
<path d="M3088.19 1667.28L3131.13 1583.8L3077.31 1570.64L3088.19 1667.28Z" fill="black"/>
<path d="M3116.33 1373.02C3096.49 1369.03 3075.98 1369.77 3056.48 1375.19C3030.28 1382.79 2997.4 1402.16 2996.75 1451.24C2995.76 1533.14 3010.15 1592.99 3051.63 1608.37C3083.51 1620.07 3105.51 1612.99 3139.38 1589.71C3152.02 1580.99 3162.78 1552.15 3164.94 1536.36L3176.64 1491.78C3176.64 1491.78 3210.93 1391.39 3116.33 1373.02Z" fill="#C67B5B"/>
<path d="M3164.18 1516.64C3164.18 1516.64 3103.93 1410 3160.91 1374.66C3160.91 1374.66 3186.71 1370.74 3200.98 1420.7C3223.8 1500.73 3164.18 1516.64 3164.18 1516.64Z" fill="black"/>
<path d="M3154.06 1538.87C3155.57 1527.44 3159.24 1516.4 3164.89 1506.35C3172.78 1492.37 3184.6 1479.14 3201.33 1487.8C3229.82 1502.54 3199.52 1548.76 3169.68 1551.51C3160.91 1552.33 3153.13 1545.95 3154.06 1538.87Z" fill="#C67B5B"/>
<path d="M3157.11 1554.32C3157.32 1556.75 3158.26 1559.06 3159.79 1560.96C3161.33 1562.86 3163.39 1564.27 3165.72 1565C3168.05 1565.72 3170.54 1565.74 3172.89 1565.06C3175.23 1564.37 3177.32 1563 3178.88 1561.12C3180.44 1559.25 3181.42 1556.95 3181.67 1554.52C3181.93 1552.09 3181.47 1549.64 3180.33 1547.48C3179.2 1545.32 3177.45 1543.54 3175.3 1542.37C3173.16 1541.2 3170.71 1540.7 3168.28 1540.92C3165.03 1541.23 3162.03 1542.82 3159.94 1545.32C3157.85 1547.83 3156.83 1551.06 3157.11 1554.32Z" fill="white"/>
<path d="M3179.1 1392.62C3179.1 1392.62 3057.36 1494.47 2982.54 1436.67C2982.54 1436.67 2954.46 1369.98 3067.95 1348.57C3181.44 1327.16 3179.1 1392.62 3179.1 1392.62Z" fill="black"/>
<path d="M3047.77 1533.78L3040.63 1550.4L3049.82 1557.65" stroke="black" stroke-width="0.38" stroke-linecap="round" stroke-linejoin="round"/>
<path d="M3032.85 1474.17C3033.28 1475.44 3033.42 1476.78 3033.26 1478.1C3033.1 1479.43 3032.64 1480.7 3031.92 1481.82C3031.2 1482.95 3030.24 1483.89 3029.1 1484.6C3027.97 1485.3 3026.69 1485.73 3025.36 1485.87C3019.49 1486.56 3013.74 1488.05 3008.28 1490.32C3007.04 1490.88 3005.64 1490.94 3004.36 1490.48C3003.08 1490.02 3002.03 1489.08 3001.44 1487.86C3000.85 1486.8 3000.54 1485.6 3000.54 1484.38C3000.54 1483.16 3000.85 1481.97 3001.44 1480.9C3003.17 1477.66 3005.58 1474.84 3008.51 1472.63C3011.44 1470.42 3014.81 1468.87 3018.4 1468.09C3030.22 1465.46 3032.85 1474.17 3032.85 1474.17Z" fill="black"/>
<path d="M3078.77 1472.53C3078.77 1472.53 3075.44 1482.13 3089.89 1483.94C3100.21 1485.63 3110.33 1488.31 3120.13 1491.96C3121.77 1492.55 3123.55 1492.62 3125.24 1492.17C3126.92 1491.72 3128.43 1490.77 3129.55 1489.44C3130.35 1488.46 3130.79 1487.23 3130.79 1485.96C3130.79 1484.69 3130.35 1483.46 3129.55 1482.48C3121.23 1474.06 3110.57 1468.33 3098.96 1466.04C3081.58 1463.76 3078.77 1472.53 3078.77 1472.53Z" fill="black"/>
<path d="M3072.75 1520.39C3072.75 1520.39 3080.53 1489.91 3120.66 1511.96C3120.6 1511.96 3104.57 1543.67 3072.75 1520.39Z" fill="white"/>
<mask id="mask2_37_2847" style="mask-type:luminance" maskUnits="userSpaceOnUse" x="3072" y="1503" width="49" height="26">
<path d="M3072.75 1520.39C3072.75 1520.39 3080.53 1489.91 3120.66 1511.96C3120.6 1511.96 3104.57 1543.67 3072.75 1520.39Z" fill="white"/>
</mask>
<g mask="url(#mask2_37_2847)">
<path d="M3080.59 1516.06C3080.34 1518.79 3080.9 1521.53 3082.21 1523.94C3083.51 1526.35 3085.5 1528.32 3087.92 1529.61C3090.33 1530.89 3093.08 1531.44 3095.81 1531.17C3098.53 1530.91 3101.12 1529.84 3103.25 1528.11C3105.37 1526.38 3106.94 1524.06 3107.75 1521.45C3108.56 1518.83 3108.59 1516.03 3107.82 1513.4C3107.05 1510.77 3105.52 1508.43 3103.42 1506.66C3101.32 1504.9 3098.75 1503.79 3096.03 1503.48C3092.32 1503.11 3088.6 1504.22 3085.71 1506.58C3082.81 1508.93 3080.97 1512.35 3080.59 1516.06Z" fill="black"/>
</g>
<path d="M3120.13 1512.67C3116.42 1510.04 3112.28 1508.06 3107.91 1506.82C3103.59 1505.58 3099.11 1505.03 3094.63 1505.18C3090.22 1505.38 3085.95 1506.73 3082.23 1509.1C3078.75 1511.45 3076.32 1515.05 3075.44 1519.16C3075.34 1519.62 3075.07 1520.03 3074.68 1520.3C3074.29 1520.56 3073.81 1520.67 3073.34 1520.58C3072.87 1520.5 3072.46 1520.23 3072.18 1519.85C3071.91 1519.46 3071.8 1518.98 3071.87 1518.52C3072.45 1516.01 3073.52 1513.65 3075.02 1511.56C3076.51 1509.48 3078.41 1507.7 3080.59 1506.35C3084.81 1503.86 3089.61 1502.51 3094.51 1502.43C3099.29 1502.4 3104.05 1503.13 3108.61 1504.59C3113.15 1506 3117.42 1508.16 3121.25 1510.97C3121.43 1511.11 3121.55 1511.32 3121.59 1511.55C3121.62 1511.78 3121.56 1512.01 3121.42 1512.2C3121.28 1512.38 3121.07 1512.51 3120.84 1512.54C3120.61 1512.57 3120.38 1512.51 3120.19 1512.37L3120.13 1512.67Z" fill="black"/>
<path d="M3039.69 1520.21C3039.69 1520.21 3027.99 1490.08 3005.76 1510.97C3005.76 1510.97 3014.42 1540.57 3039.69 1520.21Z" fill="white"/>
<mask id="mask3_37_2847" style="mask-type:luminance" maskUnits="userSpaceOnUse" x="3005" y="1503" width="35" height="25">
<path d="M3039.69 1520.21C3039.69 1520.21 3027.99 1490.08 3005.76 1510.97C3005.76 1510.97 3014.42 1540.57 3039.69 1520.21Z" fill="white"/>
</mask>
<g mask="url(#mask3_37_2847)">
<path d="M3031.91 1514.3C3032.55 1515.8 3032.83 1517.42 3032.75 1519.05C3032.67 1520.67 3032.22 1522.26 3031.43 1523.68C3030.65 1525.11 3029.55 1526.34 3028.23 1527.28C3026.9 1528.22 3025.38 1528.85 3023.77 1529.12C3022.17 1529.38 3020.53 1529.29 3018.97 1528.83C3017.4 1528.37 3015.97 1527.56 3014.76 1526.47C3013.56 1525.38 3012.62 1524.02 3012.01 1522.51C3011.41 1521 3011.15 1519.38 3011.26 1517.75C3010.63 1516.26 3010.34 1514.63 3010.42 1513.01C3010.51 1511.39 3010.96 1509.8 3011.74 1508.38C3012.52 1506.95 3013.62 1505.72 3014.95 1504.78C3016.27 1503.84 3017.8 1503.21 3019.4 1502.94C3021 1502.67 3022.65 1502.77 3024.21 1503.23C3025.77 1503.69 3027.21 1504.5 3028.41 1505.59C3029.61 1506.68 3030.56 1508.03 3031.16 1509.54C3031.77 1511.05 3032.03 1512.68 3031.91 1514.3Z" fill="black"/>
</g>
<path d="M3005.12 1510.56C3006.82 1507.86 3009.23 1505.68 3012.08 1504.24C3015.04 1502.85 3018.36 1502.44 3021.56 1503.07C3025.89 1503.57 3029.97 1505.36 3033.26 1508.22C3036.49 1511 3039.07 1514.45 3040.81 1518.34C3040.89 1518.53 3040.94 1518.73 3040.94 1518.94C3040.95 1519.14 3040.91 1519.35 3040.84 1519.54C3040.76 1519.73 3040.64 1519.91 3040.5 1520.05C3040.35 1520.2 3040.18 1520.31 3039.99 1520.39C3039.8 1520.47 3039.6 1520.52 3039.4 1520.52C3039.2 1520.53 3039 1520.49 3038.81 1520.41C3038.63 1520.34 3038.46 1520.22 3038.32 1520.08C3038.18 1519.93 3038.07 1519.76 3038 1519.57C3036.54 1516.04 3034.35 1512.87 3031.56 1510.27C3028.78 1507.69 3025.3 1505.98 3021.56 1505.35C3018.84 1504.73 3015.99 1504.99 3013.43 1506.11C3010.81 1507.3 3008.56 1509.18 3006.93 1511.55C3006.87 1511.62 3006.79 1511.67 3006.71 1511.71C3006.62 1511.74 3006.53 1511.76 3006.44 1511.76C3006.34 1511.76 3006.25 1511.74 3006.17 1511.71C3006.08 1511.67 3006.01 1511.62 3005.94 1511.55C3005.81 1511.57 3005.68 1511.55 3005.56 1511.51C3005.44 1511.46 3005.34 1511.38 3005.26 1511.28C3005.17 1511.18 3005.12 1511.07 3005.09 1510.94C3005.07 1510.81 3005.08 1510.68 3005.12 1510.56Z" fill="black"/>
<path d="M3084.56 1564.91C3084.56 1564.91 3075.61 1578.65 3051.63 1570.35" stroke="black" stroke-width="0.38" stroke-linecap="round" stroke-linejoin="round"/>
<path d="M406.406 2932.3H3964.65" stroke="#D4CFF6" stroke-width="2" stroke-linecap="round" stroke-linejoin="round"/>
</svg>
