<svg width="3339" height="2800" viewBox="0 0 3339 2800" fill="none" xmlns="http://www.w3.org/2000/svg">
<path d="M1791.06 2777.82H1660.31C1646.88 2777.82 1636 2766.94 1636 2753.51V2473.8C1636 2460.37 1646.88 2449.49 1660.31 2449.49H1791.06C1804.49 2449.49 1815.37 2460.37 1815.37 2473.8V2753.51C1815.37 2766.94 1804.49 2777.82 1791.06 2777.82Z" fill="#C4D7F2"/>
<path d="M1856.36 2776.79H1725.61C1712.18 2776.79 1701.3 2765.91 1701.3 2752.48V2473.31C1701.3 2459.88 1712.18 2449 1725.61 2449H1856.36C1869.79 2449 1880.67 2459.88 1880.67 2473.31V2752.48C1880.67 2765.91 1869.79 2776.79 1856.36 2776.79Z" fill="#FFF59C"/>
<path d="M1667.25 2720.34C1662.52 2719.21 1659.47 2714.54 1659.47 2709.71V2687.96C1659.47 2683.09 1662.52 2678.46 1667.25 2677.33C1673.99 2675.71 1680.09 2680.83 1680.09 2687.32V2710.4C1680.09 2716.85 1673.99 2722.02 1667.25 2720.34Z" fill="#6D72A0"/>
<path d="M1783.73 2707.35H1697.56C1688.85 2707.35 1681.76 2700.26 1681.76 2691.55V2547.12C1681.76 2538.41 1688.85 2531.33 1697.56 2531.33H1783.73C1792.44 2531.33 1799.52 2538.41 1799.52 2547.12V2691.55C1799.57 2700.26 1792.49 2707.35 1783.73 2707.35ZM1697.61 2536.25C1691.61 2536.25 1686.73 2541.12 1686.73 2547.12V2691.55C1686.73 2697.56 1691.61 2702.43 1697.61 2702.43H1783.78C1789.78 2702.43 1794.65 2697.56 1794.65 2691.55V2547.12C1794.65 2541.12 1789.78 2536.25 1783.78 2536.25H1697.61Z" fill="white"/>
<path d="M2236.96 2782.4C2394.08 2782.4 2815.17 2741.16 2875.13 2402.9C2993.9 1733.2 3058.6 1671.41 2954 1103.69C2888.31 747.15 2704.76 557.082 2357.3 491.955C2245.54 470.978 1913.52 409.323 1612.69 548.932C1476.62 612.076 1342.82 716.535 1204.49 776.63C1048.72 844.238 866.876 832.474 706.502 889.381C485.537 967.832 324.029 1170.94 275.13 1391.83C198.097 1739.58 277.398 2098.88 337.565 2415.52C366.337 2567.1 559.239 2782.33 716.07 2782.33L2236.96 2782.4Z" fill="#F4F7FB"/>
<path d="M956.028 1510.32C949.083 1510.18 941.004 1511.18 936.398 1506.14C929.665 1498.56 937.248 1484.25 929.453 1477.73C926.263 1475.1 921.586 1474.89 918.255 1472.41C908.901 1465.54 917.972 1450.37 913.791 1439.67C912.373 1436.13 909.61 1433.29 908.405 1429.68C904.932 1419.05 917.051 1409.76 919.46 1398.85C921.374 1390.2 917.192 1380.5 921.586 1372.77C926.547 1363.91 939.941 1362.78 945.752 1354.42C949.083 1349.6 949.366 1343.08 953.193 1338.68C960.989 1329.82 976.792 1335.42 987.068 1329.26C993.233 1325.57 997.486 1317.49 1004.78 1317.71C1010.31 1317.85 1014.35 1322.88 1019.67 1324.23C1027.89 1326.42 1036.6 1319.55 1044.68 1322.1C1051.7 1324.3 1055.46 1332.94 1062.75 1334.22C1067.22 1335 1072.04 1332.66 1076.36 1334.08C1078.91 1334.86 1080.83 1336.84 1082.6 1338.82C1097.48 1355.9 1102.44 1380.78 1095.21 1402.11C1085.72 1389.28 1067.22 1385.1 1051.56 1388.86C1035.83 1392.61 1022.57 1402.89 1011.38 1414.3C1003.79 1422.02 996.848 1430.53 992.879 1440.45C988.911 1450.37 988.273 1461.99 993.234 1471.56C996.919 1478.72 1003.3 1484.1 1007.76 1490.84C1012.16 1497.57 1014.28 1507.06 1008.97 1513.16C1006.34 1516.21 1002.3 1517.91 1000.04 1521.17C998.761 1523.01 996.919 1532.79 997.202 1534.85C982.32 1528.68 973.603 1510.75 956.028 1510.32Z" fill="#000543"/>
<path d="M521.821 592.659V1261.44C521.821 1285.25 541.097 1304.53 564.909 1304.53H1130.43C1146.66 1302.19 1159.28 1285.39 1159.28 1265.05V585.855L521.821 592.659Z" fill="#D4CFF6"/>
<path d="M1127.74 543.405H571.074C543.861 543.405 521.821 565.445 521.821 592.658V623.911L1160.55 621.36V580.965C1160.62 560.201 1145.88 543.405 1127.74 543.405Z" fill="#7C38E9"/>
<path d="M971.194 585.855C971.194 597.69 961.698 607.257 950.004 607.257C938.311 607.257 928.815 597.69 928.815 585.855C928.815 574.02 938.311 564.453 950.004 564.453C961.768 564.453 971.194 574.02 971.194 585.855Z" fill="#D3D8E5"/>
<path d="M1119.66 585.855C1119.66 597.69 1110.17 607.257 1098.47 607.257C1086.78 607.257 1077.28 597.69 1077.28 585.855C1077.28 574.02 1086.78 564.453 1098.47 564.453C1110.17 564.453 1119.66 574.02 1119.66 585.855Z" fill="#F4B545"/>
<path d="M1047.02 585.855C1047.02 597.69 1037.53 607.257 1025.83 607.257C1014.14 607.257 1004.64 597.69 1004.64 585.855C1004.64 574.02 1014.14 564.453 1025.83 564.453C1037.53 564.453 1047.02 574.02 1047.02 585.855Z" fill="white"/>
<path d="M1185.07 1132.88C1188.19 1134.3 1189.18 1138.48 1187.27 1142.17L1169.98 1175.76C1168.06 1179.51 1163.95 1181.36 1160.84 1180.01C1157.72 1178.59 1156.73 1174.41 1158.64 1170.73L1175.93 1137.14C1177.84 1133.45 1181.95 1131.54 1185.07 1132.88Z" fill="#FF9985"/>
<path d="M1205.77 1209.7C1210.3 1205.45 1214.55 1200.7 1216.11 1195.96C1217.32 1192.27 1216.82 1188.94 1216.11 1185.75C1214.34 1177.6 1211.22 1170.02 1206.97 1163.21C1203.07 1156.91 1196.55 1150.88 1185.92 1152.94C1175.65 1154.92 1166.15 1162.01 1159.7 1170.16C1147.37 1185.61 1143.12 1191.21 1140.57 1206.66C1137.38 1226 1145.53 1237.06 1170.33 1227.21C1183.02 1222.11 1195.92 1218.92 1205.77 1209.7Z" fill="#FF9985"/>
<path d="M1187.98 1164.35L1236.45 1145.78C1239.71 1144.51 1241.84 1140.82 1241.13 1137.49C1240.42 1134.16 1237.16 1132.53 1233.83 1133.81L1185.36 1152.37C1182.1 1153.65 1179.97 1157.33 1180.68 1160.66C1181.39 1163.92 1184.65 1165.62 1187.98 1164.35Z" fill="#FF9985"/>
<path d="M1196.34 1178.74L1244.81 1160.17C1248.07 1158.89 1250.2 1155.21 1249.49 1151.88C1248.78 1148.55 1245.52 1146.92 1242.19 1148.19L1193.72 1166.76C1190.46 1168.03 1188.33 1171.72 1189.04 1175.05C1189.75 1178.31 1193.08 1180.01 1196.34 1178.74Z" fill="#FF9985"/>
<path d="M1193.72 1197.87L1242.19 1179.3C1245.45 1178.03 1247.58 1174.34 1246.87 1171.01C1246.16 1167.68 1242.9 1166.05 1239.57 1167.32L1191.1 1185.89C1187.84 1187.17 1185.71 1190.85 1186.42 1194.18C1187.2 1197.44 1190.46 1199.14 1193.72 1197.87Z" fill="#FF9985"/>
<path d="M1184.51 1218L1232.98 1199.43C1236.24 1198.15 1238.36 1194.47 1237.66 1191.14C1236.95 1187.81 1233.69 1186.18 1230.36 1187.45L1181.88 1206.02C1178.62 1207.29 1176.5 1210.98 1177.21 1214.31C1177.91 1217.57 1181.25 1219.2 1184.51 1218Z" fill="#FF9985"/>
<path d="M1112.15 1304.31C1146.87 1267.67 1179.47 1229.12 1204.35 1198.01L1171.54 1170.58C1121.08 1214.1 1070.55 1253.85 1008.12 1303.04C1007.41 1303.46 1006.63 1303.89 1005.92 1304.31H1112.15Z" fill="#FF9985"/>
<path d="M999.47 1304.31L994.438 1210.84L900.255 1225.51L914.074 1304.31H999.47Z" fill="#FF9985"/>
<path d="M998.336 1304.31C1006.13 1301.55 1011.3 1293.9 1010.74 1285.46C1006.41 1217.92 997.911 1163.29 988.839 1118.21C971.335 1031.68 854.474 1038.49 855.112 1113.82C855.892 1206.52 859.506 1226.57 874.601 1304.38H998.336V1304.31Z" fill="#FFC660"/>
<path d="M631.241 1190.29C628.052 1221.11 625.501 1259.17 623.941 1304.31H988.414C988.91 1298.43 989.407 1292.34 989.903 1285.75C994.367 1224.73 996.706 1134.51 986.501 1107.3C969.209 1060.81 960.918 1047.98 943.343 1031.68C937.035 1025.8 930.232 1021.2 922.791 1017.37C917.547 1014.68 911.877 1012.41 905.783 1010.35C893.593 1006.24 874.034 1000.93 857.38 997.314C829.529 991.29 762.63 994.479 707.92 1015.1C665.541 1031.05 619.335 1043.02 592.901 1082.43C588.011 1089.65 634.288 1161.16 631.241 1190.29Z" fill="#F4B545"/>
<path d="M917.405 795.553C909.113 793.002 900.893 791.443 892.743 790.734C821.237 784.498 757.244 842.468 747.96 851.326C747.535 851.751 747.18 852.106 746.755 852.46C743.424 856.429 740.306 861.106 741.936 865.287C744.062 870.815 750.511 873.508 753.204 878.823C757.173 886.618 751.929 898.17 758.661 903.698C761.496 905.965 765.606 906.32 768.016 909.013C769.646 910.784 770.142 913.194 770.496 915.603L776.024 884.351C771.063 880.099 768.37 872.516 769.787 864.649C771.63 854.019 780.063 846.862 788.851 847.925L800.615 852.885C840.372 853.665 835.694 810.719 871.908 810.79C895.436 810.861 908.688 817.451 915.137 822.129C918.326 831.412 919.46 841.405 918.184 851.681L905.074 849.2C903.019 848.775 901.034 850.192 900.68 852.248C900.326 854.303 901.743 856.358 903.798 856.712L917.05 859.263L917.972 859.405C920.027 859.83 922.011 858.413 922.366 856.358C922.72 854.374 921.373 852.389 919.389 851.893C923.145 849.555 923.996 846.862 925.342 843.247C927.397 837.649 929.169 832.05 930.657 826.452C934.697 802.286 917.405 795.553 917.405 795.553Z" fill="#000543"/>
<path d="M776.094 884.35L770.567 915.603L755.897 995.684C752.283 1015.31 776.236 1036.72 795.937 1040.47C815.993 1044.3 824.213 1028.5 827.686 1008.44L836.615 956.706C838.033 957.061 839.521 957.486 840.938 957.769C875.309 964.502 902.381 942.391 908.688 906.957L917.121 859.263L903.869 856.712C901.814 856.287 900.396 854.302 900.751 852.247C901.105 850.192 903.089 848.775 905.144 849.2L918.255 851.68C919.531 841.405 918.397 831.412 915.208 822.128C908.759 817.451 895.506 810.861 871.978 810.79C835.765 810.719 840.442 853.665 800.685 852.885L788.921 847.924C780.134 846.79 771.771 854.019 769.858 864.649C768.44 872.586 771.133 880.098 776.094 884.35ZM847.812 864.224C845.403 863.728 843.986 860.397 844.623 856.641C845.261 852.956 847.742 850.334 850.151 850.759C852.561 851.184 853.978 854.586 853.34 858.271C852.702 862.027 850.222 864.649 847.812 864.224ZM903.444 859.901C905.853 860.326 907.27 863.728 906.633 867.413C905.995 871.098 903.515 873.72 901.105 873.295C898.695 872.87 897.278 869.468 897.916 865.783C898.554 862.098 901.034 859.476 903.444 859.901ZM864.821 887.256L865.104 886.547C866.167 888.673 868.222 890.303 870.915 890.091L878.64 889.453C881.829 889.169 884.168 886.972 885.089 884.209L885.443 885.555C886.506 890.091 883.388 894.484 878.782 894.91L871.057 895.547C866.451 895.902 863.12 891.437 864.821 887.256ZM849.23 838.499L863.403 841.192C865.459 841.617 866.876 843.601 866.521 845.657C866.167 847.712 864.183 849.129 862.128 848.704L847.954 846.011C845.899 845.586 844.482 843.601 844.836 841.546C845.19 839.491 847.175 838.074 849.23 838.499Z" fill="#FF9985"/>
<path d="M866.522 845.727C866.876 843.672 865.459 841.617 863.403 841.263L849.23 838.57C847.175 838.144 845.19 839.562 844.836 841.617C844.482 843.672 845.899 845.727 847.954 846.082L862.128 848.775C864.183 849.129 866.167 847.782 866.522 845.727Z" fill="#000543"/>
<path d="M897.916 865.783C897.278 869.468 898.695 872.87 901.105 873.295C903.514 873.72 905.995 871.098 906.633 867.413C907.27 863.728 905.853 860.326 903.444 859.901C901.034 859.476 898.554 862.098 897.916 865.783Z" fill="#000543"/>
<path d="M850.151 850.83C847.742 850.405 845.261 853.027 844.623 856.712C843.986 860.397 845.403 863.799 847.812 864.224C850.222 864.649 852.702 862.027 853.34 858.342C853.978 854.657 852.561 851.255 850.151 850.83Z" fill="#000543"/>
<path d="M885.018 884.138C884.097 886.902 881.759 889.098 878.569 889.382L870.845 890.02C868.152 890.232 866.097 888.673 865.034 886.476L864.75 887.185C863.12 891.295 866.451 895.831 870.845 895.477L878.569 894.839C883.176 894.484 886.365 890.02 885.231 885.484L885.018 884.138Z" fill="#FA694F"/>
<path d="M747.96 851.326C747.18 852.035 746.755 852.46 746.755 852.46C747.18 852.106 747.535 851.751 747.96 851.326Z" fill="#FFEB9A"/>
<path d="M756.11 995.542L806.497 1041.96L776.52 1074.42C776.52 1074.42 734.141 1032.11 756.11 995.542Z" fill="#FFC660"/>
<path d="M829.316 994.549L805.221 1042.88L832.434 1067.9C832.434 1067.9 872.191 1021.97 829.316 994.549Z" fill="#FFC660"/>
<path d="M693.676 1304.31L699.416 1226.5L604.099 1229.19L607.642 1304.31H693.676Z" fill="#FF9985"/>
<path d="M706.29 1304.31C706.361 1303.75 706.503 1303.18 706.574 1302.54C710.613 1235 709.479 1172.99 712.314 1127.07C716.85 1053.3 588.721 1037.78 580.217 1112.62C569.728 1204.74 570.791 1225.01 575.681 1304.31H706.29Z" fill="#FFC660"/>
<path d="M706.856 1217.29C706.29 1243.93 705.51 1272.63 703.738 1302.33C703.667 1302.97 703.526 1303.6 703.455 1304.31H709.195C709.266 1303.75 709.408 1303.25 709.408 1302.75C711.179 1272.92 711.959 1244 712.526 1217.36H706.856V1217.29Z" fill="#FFC660"/>
<path d="M921.586 1227.14C924.137 1229.41 923.854 1233.73 920.878 1236.7L894.231 1263.49C891.255 1266.47 886.79 1267.04 884.239 1264.77C881.688 1262.5 881.971 1258.18 884.948 1255.2L911.594 1228.41C914.499 1225.37 919.035 1224.8 921.586 1227.14Z" fill="#FF9985"/>
<path d="M922.295 1304.31C926.263 1302.12 929.807 1299.56 932.004 1296.59C934.271 1293.47 934.838 1290.14 935.122 1286.88C935.901 1278.59 935.263 1270.44 933.208 1262.64C931.366 1255.48 927.043 1247.69 916.271 1246.48C905.853 1245.28 894.727 1249.18 886.01 1254.99C869.569 1265.97 863.829 1270.01 856.671 1283.97C852.49 1292.12 851.285 1299.28 853.836 1304.38H922.295V1304.31Z" fill="#FF9985"/>
<path d="M914.783 1257.96L966.587 1254.92C970.131 1254.7 973.249 1251.8 973.532 1248.47C973.816 1245.14 971.194 1242.52 967.721 1242.73L915.917 1245.78C912.373 1245.99 909.255 1248.89 908.972 1252.22C908.617 1255.56 911.24 1258.18 914.783 1257.96Z" fill="#FF9985"/>
<path d="M918.397 1274.19L970.202 1271.15C973.745 1270.93 976.863 1268.03 977.147 1264.7C977.43 1261.37 974.808 1258.74 971.335 1258.96L919.531 1262C915.988 1262.22 912.87 1265.12 912.586 1268.45C912.232 1271.78 914.854 1274.41 918.397 1274.19Z" fill="#FF9985"/>
<path d="M910.106 1291.63L961.91 1288.58C965.453 1288.37 968.572 1285.46 968.855 1282.13C969.139 1278.8 966.516 1276.18 963.044 1276.39L911.24 1279.44C907.696 1279.65 904.578 1282.56 904.295 1285.89C903.94 1289.22 906.562 1291.84 910.106 1291.63Z" fill="#FF9985"/>
<path d="M949.579 1304.31C951.918 1303.25 953.689 1300.98 953.902 1298.5C954.185 1295.17 951.563 1292.55 948.091 1292.76L896.286 1295.81C892.743 1296.02 889.625 1298.93 889.341 1302.26C889.27 1302.97 889.412 1303.67 889.554 1304.31H949.579Z" fill="#FF9985"/>
<path d="M905.712 1304.31C910.035 1300.98 914.287 1297.65 918.397 1294.39L895.294 1254.35C861.915 1271.64 828.678 1287.59 792.819 1304.31H905.712Z" fill="#FF9985"/>
<path d="M734.212 835.593C736.692 827.372 742.361 818.372 737.684 811.073C736.479 809.23 734.779 807.813 733.503 806.041C729.322 800.23 730.952 792.009 735.346 786.411C739.739 780.812 746.33 777.269 752.708 773.938C759.086 770.536 765.677 767.064 770.071 761.465C774.89 755.371 776.661 747.292 781.906 741.48C787.433 735.386 796.008 732.693 804.371 731.559C812.733 730.496 821.237 730.709 829.529 729.291C839.592 727.59 850.01 723.409 859.577 726.953C866.947 729.716 871.837 736.378 878.073 741.055C883.814 745.307 890.759 747.929 896.711 751.827C907.909 759.126 915.208 770.607 922.224 781.733C925.696 787.261 929.24 793.001 930.303 799.379C931.578 807.317 928.744 815.537 930.445 823.404C928.956 816.884 923.145 811.852 916.696 809.372C910.247 806.891 903.16 806.608 896.215 806.537C855.963 806.324 814.859 815.041 781.764 836.798C772.764 842.68 764.118 849.908 760.008 859.546C758.094 864.011 757.031 869.184 753.063 872.161C738.676 883.074 731.873 843.317 734.212 835.593Z" fill="#000543"/>
<path d="M850.506 907.453C850.151 912.768 854.049 917.516 859.435 918.083C864.75 918.65 869.498 914.823 870.278 909.508L850.506 907.453Z" fill="white"/>
<path d="M1360.33 873.862L1407.1 883.712C1408.52 883.996 1409.37 885.484 1409.09 886.972C1408.8 888.461 1407.38 889.453 1405.97 889.169L1359.19 879.319L1360.33 873.862Z" fill="#C4D7F2"/>
<path d="M1526.58 908.871L1434.39 889.453C1432.97 889.169 1431.62 890.091 1431.27 891.579C1430.98 893.067 1431.83 894.485 1433.25 894.839L1525.45 914.257L1526.58 908.871Z" fill="#C4D7F2"/>
<path d="M1356.01 894.342L1498.95 924.461C1500.36 924.745 1501.21 926.233 1500.93 927.721C1500.65 929.209 1499.23 930.201 1497.81 929.918L1354.87 899.799L1356.01 894.342Z" fill="#C4D7F2"/>
<path d="M1368.9 833.325L1415.68 843.176C1417.09 843.459 1417.94 844.948 1417.66 846.436C1417.38 847.924 1415.96 848.916 1414.54 848.633L1367.77 838.782L1368.9 833.325Z" fill="#C4D7F2"/>
<path d="M1535.09 868.405L1442.89 848.987C1441.47 848.704 1440.13 849.625 1439.77 851.113C1439.49 852.601 1440.34 854.019 1441.76 854.373L1533.95 873.791L1535.09 868.405Z" fill="#C4D7F2"/>
<path d="M1364.58 853.877L1507.52 883.996C1508.94 884.28 1509.79 885.768 1509.5 887.256C1509.22 888.744 1507.8 889.737 1506.39 889.382L1363.45 859.263L1364.58 853.877Z" fill="#C4D7F2"/>
<path d="M1288.68 850.829C1285.35 866.633 1295.48 882.082 1311.22 885.413C1327.02 888.744 1342.47 878.609 1345.8 862.877C1349.13 847.073 1339 831.624 1323.26 828.293C1307.46 824.963 1292.01 835.097 1288.68 850.829Z" fill="#C4D7F2"/>
<path d="M1331.84 1009.01L1378.61 1018.86C1380.03 1019.14 1380.88 1020.63 1380.6 1022.12C1380.31 1023.61 1378.9 1024.6 1377.48 1024.31L1330.71 1014.46L1331.84 1009.01Z" fill="#C4D7F2"/>
<path d="M1498.1 1044.02L1405.9 1024.6C1404.48 1024.31 1403.13 1025.24 1402.78 1026.79C1402.49 1028.28 1403.35 1029.7 1404.76 1030.05L1496.96 1049.47L1498.1 1044.02Z" fill="#C4D7F2"/>
<path d="M1327.52 1029.56L1470.46 1059.68C1471.87 1059.96 1472.72 1061.45 1472.44 1062.94C1472.16 1064.43 1470.74 1065.42 1469.32 1065.13L1326.38 1035.01L1327.52 1029.56Z" fill="#C4D7F2"/>
<path d="M1340.41 968.542L1387.19 978.392C1388.6 978.676 1389.46 980.164 1389.17 981.652C1388.89 983.14 1387.47 984.132 1386.05 983.849L1339.28 973.998L1340.41 968.542Z" fill="#C4D7F2"/>
<path d="M1506.6 1003.55L1414.4 984.132C1412.98 983.849 1411.64 984.77 1411.28 986.329C1411 987.817 1411.85 989.235 1413.27 989.589L1505.47 1009.01L1506.6 1003.55Z" fill="#C4D7F2"/>
<path d="M1336.09 989.022L1479.03 1019.14C1480.45 1019.42 1481.3 1020.91 1481.02 1022.4C1480.73 1023.89 1479.32 1024.88 1477.9 1024.6L1334.96 994.479L1336.09 989.022Z" fill="#C4D7F2"/>
<path d="M1260.19 986.046C1256.86 1001.85 1267 1017.3 1282.73 1020.63C1298.53 1023.96 1313.98 1013.83 1317.31 998.093C1320.64 982.29 1310.51 966.841 1294.78 963.51C1278.97 960.179 1263.52 970.242 1260.19 986.046Z" fill="#C4D7F2"/>
<path d="M1303.35 1144.22L1350.12 1154.07C1351.54 1154.36 1352.39 1155.84 1352.11 1157.33C1351.82 1158.82 1350.41 1159.81 1348.99 1159.53L1302.22 1149.68L1303.35 1144.22Z" fill="#C4D7F2"/>
<path d="M1469.61 1179.23L1377.41 1159.81C1375.99 1159.53 1374.64 1160.45 1374.29 1162.01C1374.01 1163.5 1374.86 1164.92 1376.27 1165.27L1468.47 1184.69L1469.61 1179.23Z" fill="#C4D7F2"/>
<path d="M1299.03 1164.7L1441.97 1194.82C1443.39 1195.11 1444.24 1196.59 1443.95 1198.08C1443.67 1199.57 1442.25 1200.56 1440.83 1200.28L1297.89 1170.16L1299.03 1164.7Z" fill="#C4D7F2"/>
<path d="M1311.93 1103.69L1358.7 1113.54C1360.12 1113.82 1360.97 1115.31 1360.68 1116.8C1360.4 1118.28 1358.98 1119.28 1357.56 1118.99L1310.79 1109.14L1311.93 1103.69Z" fill="#C4D7F2"/>
<path d="M1478.11 1138.77L1385.91 1119.35C1384.49 1119.06 1383.15 1119.99 1382.79 1121.47C1382.51 1122.96 1383.36 1124.38 1384.78 1124.73L1476.98 1144.15L1478.11 1138.77Z" fill="#C4D7F2"/>
<path d="M1307.6 1124.24L1450.54 1154.36C1451.96 1154.64 1452.81 1156.13 1452.53 1157.62C1452.24 1159.1 1450.83 1160.1 1449.41 1159.81L1306.47 1129.69L1307.6 1124.24Z" fill="#C4D7F2"/>
<path d="M1231.7 1121.19C1228.37 1136.99 1238.51 1152.44 1254.24 1155.77C1270.04 1159.1 1285.49 1148.97 1288.82 1133.24C1292.15 1117.43 1282.02 1101.98 1266.29 1098.65C1250.55 1095.32 1235.03 1105.46 1231.7 1121.19Z" fill="#C4D7F2"/>
<path d="M1470.67 1255.27L1210.16 1200.35C1188.26 1195.74 1174.23 1174.2 1178.84 1152.3L1254.03 795.695C1258.63 773.796 1280.18 759.765 1302.08 764.371L1562.59 819.293C1584.48 823.9 1598.52 845.444 1593.91 867.342L1518.72 1223.95C1514.11 1245.85 1492.5 1259.95 1470.67 1255.27ZM1300.59 771.387C1282.52 767.56 1264.73 779.182 1260.9 797.254L1185.78 1153.79C1181.95 1171.86 1193.58 1189.65 1211.65 1193.48L1472.16 1248.4C1490.23 1252.22 1508.02 1240.6 1511.84 1222.53L1587.03 865.924C1590.86 847.853 1579.24 830.065 1561.17 826.239L1300.59 771.387Z" fill="#C4D7F2"/>
<path d="M2078 454.516V1235.6C2078 1261.77 2100.25 1283 2127.68 1283H2909.41C2928.33 1280.36 2943 1261.77 2943 1239.11V451L2078 454.516Z" fill="#D4CFF6"/>
<path d="M2906.1 396H2129.39C2100.97 396 2077.86 419.032 2077.86 447.521V490.112L2944.29 486.64V439.655C2944.29 415.56 2927.22 396 2906.1 396Z" fill="#7C38E9"/>
<path d="M2723.97 445.324C2723.97 459.072 2712.91 470.198 2699.3 470.198C2685.7 470.198 2674.64 459.072 2674.64 445.324C2674.64 431.575 2685.7 420.449 2699.3 420.449C2712.98 420.449 2723.97 431.575 2723.97 445.324Z" fill="#969ECC"/>
<path d="M2872.01 470.198C2885.63 470.198 2896.67 459.062 2896.67 445.324C2896.67 431.586 2885.63 420.449 2872.01 420.449C2858.39 420.449 2847.35 431.586 2847.35 445.324C2847.35 459.062 2858.39 470.198 2872.01 470.198Z" fill="#F4B545"/>
<path d="M2812.13 445.324C2812.13 459.072 2801.07 470.198 2787.46 470.198C2773.86 470.198 2762.8 459.072 2762.8 445.324C2762.8 431.575 2773.86 420.449 2787.46 420.449C2801.07 420.449 2812.13 431.575 2812.13 445.324Z" fill="white"/>
<path d="M2413.71 1283.12L2454.1 1080.72C2453.82 1079.8 2453.89 1078.74 2454.6 1077.61C2455.45 1076.33 2456.09 1074.84 2456.79 1073.5L2465.72 1049.97C2470.61 1027.43 2466.79 1002.91 2451.13 985.195C2436.6 968.682 2407.54 959.966 2385.43 971.021C2365.23 981.084 2372.39 956.777 2366.3 975.131C2365.8 976.62 2333.98 1071.44 2295.07 1271.43C2294.3 1275.47 2293.73 1279.3 2294.37 1283.05H2413.71V1283.12Z" fill="#FFC660"/>
<path d="M2475.65 540.286C2414.2 555.098 2381.04 594.642 2387.77 656.368C2394.5 718.094 2459.35 770.181 2520.79 755.37C2582.23 740.559 2620.85 683.156 2614.12 621.501C2607.39 559.775 2537.09 525.475 2475.65 540.286Z" fill="#000543"/>
<path d="M2409.03 1110.63L2417.18 1155.14C2419.73 1165.91 2421.15 1185.11 2420.37 1193.48C2419.8 1223.81 2416.47 1253.64 2411.44 1283.12H2714.89C2715.11 1279.15 2715.39 1275.11 2715.82 1271C2720.85 1220.26 2753.94 1125.73 2753.94 1125.73L2761.46 967.336C2761.6 965.352 2742.6 909.366 2742.6 909.366C2742.6 909.366 2706.75 883.358 2704.26 881.657C2689.31 870.389 2672.23 860.751 2653.81 853.664C2648.07 851.467 2642.33 849.129 2636.3 847.074C2620.29 841.688 2603.35 839.774 2586.48 840.554L2527.73 843.247C2487.83 854.373 2424.34 877.121 2370.05 967.549C2365.09 975.84 2364.03 985.974 2367.29 995.116L2409.03 1110.63Z" fill="#FFC660"/>
<path d="M2413.71 1195.32C2413.21 1222.81 2410.38 1251.73 2405.06 1283.19H2414.06C2419.23 1252.01 2422.07 1223.1 2422.57 1195.81C2423.35 1187.66 2422.07 1168.03 2419.23 1156.34L2397.55 1031.26C2397.12 1028.85 2394.79 1027.22 2392.45 1027.64C2390.04 1028.07 2388.41 1030.41 2388.83 1032.82L2410.59 1158.18C2413.14 1169.03 2414.42 1187.52 2413.71 1195.32Z" fill="#C9782D"/>
<path d="M2625.67 1283.12C2625.46 1263.78 2620.92 843.459 2620.71 843.459L2564.37 825.742C2564.16 825.742 2500.09 852.53 2500.17 852.672L2480.25 1283.05H2625.67V1283.12Z" fill="#F4B545"/>
<path d="M2632.76 1117.79C2634.25 1117.72 2635.59 1116.73 2635.81 1115.45L2669.82 943.17C2670.82 937.997 2667.91 932.753 2662.52 930.272L2651.82 925.241C2651.26 924.957 2651.11 924.532 2651.11 924.32C2651.11 924.107 2651.11 923.682 2651.61 923.327L2670.74 908.445C2674.71 905.398 2675.21 900.224 2671.88 896.823L2628.15 847.641C2627.09 846.436 2625.03 846.223 2623.55 847.145C2622.06 848.066 2621.77 849.838 2622.84 851.042L2666.63 900.295C2667.84 901.571 2667.7 903.343 2666.35 904.406L2647.22 919.288C2645.3 920.776 2644.31 922.902 2644.59 925.099C2644.88 927.225 2646.37 929.139 2648.56 930.202L2659.26 935.233C2662.31 936.651 2663.94 939.556 2663.37 942.462L2629.36 1114.74C2629.07 1116.23 2630.28 1117.65 2632.05 1117.86C2632.26 1117.86 2632.55 1117.86 2632.76 1117.79Z" fill="#C9782D"/>
<path d="M2480.46 1115.59C2480.61 1115.59 2480.82 1115.59 2480.96 1115.59C2482.94 1115.38 2484.36 1113.89 2484.08 1112.33L2455.66 941.895C2455.16 938.919 2456.58 935.871 2458.99 934.454L2467.99 929.139C2469.91 928.005 2471.18 926.162 2471.39 924.107C2471.68 921.981 2470.83 919.926 2469.2 918.438L2453.11 904.264C2451.98 903.272 2451.83 901.288 2452.83 900.012L2495.91 861.744C2497.26 860.539 2497.12 858.696 2495.63 857.633C2494.14 856.57 2491.8 856.641 2490.46 857.846L2447.01 896.469C2443.9 900.366 2444.32 905.185 2447.65 908.162L2463.74 922.335C2464.02 922.548 2464.16 923.044 2464.09 923.469C2464.02 923.965 2463.81 924.249 2463.6 924.391L2454.53 929.706C2449.85 932.47 2447.44 937.572 2448.29 942.675L2476.71 1113.11C2477.13 1114.53 2478.69 1115.59 2480.46 1115.59Z" fill="#C9782D"/>
<path d="M2582.51 710.157C2573.66 706.472 2565.36 701.298 2558.35 694.708C2545.8 682.944 2537.23 667.353 2524.97 655.305C2510.09 640.636 2473.94 617.462 2422.28 625.115C2417.25 625.895 2409.74 627.242 2406.9 621.643C2406.05 619.942 2406.05 617.178 2406.41 614.131C2407.12 608.178 2409.24 600.879 2409.74 597.264C2409.95 595.847 2410.16 594.359 2411.01 593.225C2411.79 592.233 2413 591.666 2414.2 591.17C2424.27 586.634 2434.33 582.099 2444.39 577.492C2458.21 571.256 2472.17 564.949 2486.77 560.909C2498.96 557.578 2512.36 555.949 2523.91 561.051C2542.62 569.413 2550.13 591.737 2562.81 608.036C2565.72 611.792 2568.98 615.194 2572.45 618.454L2577.77 611.084C2580.39 616.399 2582.66 622.352 2584.64 628.871C2590.17 633.265 2595.77 637.517 2601.22 641.911L2591.59 692.865C2591.3 703.353 2590.45 714.48 2588.96 726.74C2587.33 740.205 2583.79 751.827 2578.4 761.182C2578.33 761.252 2578.4 761.607 2578.33 761.536C2578.12 761.394 2569.4 721.85 2569.4 721.85C2575.36 720.22 2579.89 715.897 2582.51 710.157Z" fill="#000543"/>
<path d="M2395.78 673.306L2409.6 735.953C2419.02 778.758 2461.76 806.042 2504.56 796.545C2507.96 795.766 2511.22 794.774 2514.41 793.64L2535.03 886.973C2536.8 895.052 2554.45 903.768 2560.62 902.422L2594.7 889.17C2600.94 887.823 2604.55 880.098 2602.78 872.02L2569.62 721.992C2575.36 720.292 2579.89 715.969 2582.51 710.299C2573.66 706.614 2565.36 701.441 2558.35 694.85C2545.8 683.086 2537.23 667.495 2524.97 655.448C2510.09 640.778 2473.94 617.604 2422.28 625.258C2417.25 626.037 2409.74 627.384 2406.9 621.785C2406.05 620.085 2406.05 617.321 2406.41 614.273C2395.64 631.211 2391.1 652.117 2395.78 673.306ZM2477.42 677.984L2471.75 674.298L2481.39 672.243C2484.5 671.535 2487.91 674.936 2488.9 679.755C2489.96 684.574 2488.26 689.039 2485.14 689.677C2482.02 690.385 2478.62 686.984 2477.63 682.165C2477.2 680.677 2477.28 679.259 2477.42 677.984ZM2463.81 656.582C2463.24 653.818 2465.02 651.054 2467.78 650.416L2486.7 646.306C2489.46 645.739 2492.23 647.51 2492.8 650.274C2493.36 653.038 2491.59 655.802 2488.83 656.44L2469.91 660.55C2467.14 661.188 2464.38 659.416 2463.81 656.582ZM2437.31 720.433L2437.59 718.591C2438.87 722.347 2441.84 725.323 2445.53 725.678L2454.6 726.599C2457.72 726.953 2460.05 724.827 2461.05 721.922L2461.4 722.843C2463.74 728.371 2460.2 734.394 2455.02 733.898L2445.95 732.977C2440.57 732.481 2436.46 726.528 2437.31 720.433ZM2409.38 692.653L2403.71 688.968L2413.35 686.913C2416.47 686.275 2419.87 689.606 2420.86 694.425C2421.93 699.244 2420.23 703.709 2417.11 704.417C2413.99 705.126 2410.59 701.724 2409.6 696.905C2409.24 695.346 2409.24 694 2409.38 692.653ZM2395.64 671.322C2395.07 668.558 2396.27 665.865 2398.47 665.44L2413.14 662.251C2415.27 661.755 2417.53 663.668 2418.1 666.432C2418.67 669.196 2417.46 671.889 2415.27 672.314L2400.6 675.503C2398.47 675.999 2396.2 674.086 2395.64 671.322Z" fill="#FF9985"/>
<path d="M2463.81 656.581C2463.24 653.817 2465.02 651.053 2467.78 650.416L2486.7 646.305C2489.46 645.738 2492.23 647.51 2492.8 650.274C2493.36 653.038 2491.59 655.802 2488.83 656.439L2469.91 660.55C2467.14 661.188 2464.38 659.416 2463.81 656.581Z" fill="#000543"/>
<path d="M2398.47 665.44L2413.14 662.251C2415.27 661.755 2417.53 663.668 2418.1 666.432C2418.67 669.196 2417.46 671.889 2415.27 672.314L2400.6 675.503C2398.47 675.999 2396.2 674.086 2395.64 671.322C2395.07 668.558 2396.27 665.865 2398.47 665.44Z" fill="#000543"/>
<path d="M2437.59 718.591C2438.87 722.347 2441.84 725.323 2445.53 725.678L2454.6 726.599C2457.72 726.953 2460.05 724.827 2461.05 721.922L2461.4 722.843C2463.74 728.371 2460.2 734.394 2455.02 733.898L2445.95 732.977C2440.57 732.41 2436.46 726.528 2437.31 720.433L2437.59 718.591Z" fill="#FA694F"/>
<path d="M2481.31 672.243C2484.43 671.535 2487.83 674.936 2488.83 679.755C2489.89 684.574 2488.19 689.039 2485.07 689.677C2481.95 690.385 2478.55 686.984 2477.56 682.165C2477.28 680.677 2477.28 679.259 2477.42 677.984L2471.75 674.299L2481.31 672.243Z" fill="#000543"/>
<path d="M2413.35 686.912C2416.47 686.274 2419.87 689.605 2420.86 694.424C2421.93 699.243 2420.23 703.708 2417.11 704.417C2413.99 705.125 2410.59 701.724 2409.6 696.905C2409.24 695.416 2409.31 693.999 2409.46 692.723L2403.79 689.038L2413.35 686.912Z" fill="#000543"/>
<path d="M2470.12 757C2470.12 757 2456.37 761.89 2450.49 750.977L2480.32 742.047C2480.75 747.433 2481.32 752.89 2470.12 757Z" fill="white"/>
<path d="M2752.6 1271.78C2753.8 1276.18 2756.07 1280 2758.98 1283.12H2836.65L2843.95 1281.92C2844.51 1281.78 2845.08 1282.27 2845.65 1283.12H2859.04C2860.17 1270.93 2859.18 1255.98 2857.98 1249.67L2793.49 993.131C2792.71 992.352 2792.14 991.36 2792.07 989.942C2792 988.242 2791.65 986.541 2791.43 984.84L2784.63 957.839C2775.06 933.815 2750.68 909.437 2724.25 894.625C2720.14 892.358 2712.7 888.035 2707.95 887.609C2723.54 934.524 2716.6 1004.05 2683.43 1041.25C2703.91 1105.24 2731.83 1194.82 2752.6 1271.78Z" fill="#FFC660"/>
<path d="M2103.09 1158.25L2151.78 1187.73L2125.49 1225.44L2082.26 1194.4L2103.09 1158.25Z" fill="#FF9985"/>
<path d="M2067.09 1083.2C2062.77 1085.12 2060.86 1090.36 2062.84 1094.97L2080.91 1136.14C2082.9 1140.68 2088.14 1142.88 2092.46 1141.03C2096.79 1139.12 2098.7 1133.88 2096.72 1129.27L2078.64 1088.09C2076.66 1083.49 2071.42 1081.29 2067.09 1083.2Z" fill="#FF9985"/>
<path d="M2028.9 1180.01C2023.51 1174.91 2018.55 1169.17 2017.13 1163.36C2016.07 1158.82 2017.2 1154.64 2018.55 1150.67C2022.09 1140.47 2027.19 1130.83 2033.86 1122.11C2039.95 1114.1 2049.38 1106.17 2063.2 1108.29C2076.52 1110.35 2088.07 1118.78 2095.51 1128.63C2109.61 1147.34 2114.5 1154.14 2115.71 1173.28C2117.2 1197.3 2104.79 1211.55 2073.4 1200.28C2057.24 1194.47 2040.59 1191.14 2028.9 1180.01Z" fill="#FF9985"/>
<path d="M2058.87 1122.61L1997.36 1101.63C1993.18 1100.21 1990.98 1095.68 1992.4 1091.5C1993.82 1087.32 1998.42 1085.12 2002.53 1086.54L2064.05 1107.51C2068.23 1108.93 2070.42 1113.47 2069.01 1117.65C2067.59 1121.76 2063.05 1124.02 2058.87 1122.61Z" fill="#FF9985"/>
<path d="M2045.76 1140.96L1984.25 1119.98C1980.07 1118.57 1977.87 1114.03 1979.29 1109.85C1980.71 1105.67 1985.31 1103.47 1989.42 1104.89L2050.94 1125.87C2055.12 1127.28 2057.31 1131.82 2055.9 1136C2054.48 1140.11 2049.94 1142.38 2045.76 1140.96Z" fill="#FF9985"/>
<path d="M2046.54 1166.55L1985.03 1145.57C1980.85 1144.15 1978.65 1139.62 1980.07 1135.43C1981.48 1131.25 1986.09 1129.06 1990.2 1130.47L2051.71 1151.45C2055.9 1152.87 2058.09 1157.4 2056.68 1161.58C2055.26 1165.77 2050.65 1167.96 2046.54 1166.55Z" fill="#FF9985"/>
<path d="M2055.9 1189.44L1994.38 1168.46C1990.2 1167.04 1988 1162.51 1989.42 1158.32C1990.84 1154.14 1995.45 1151.95 1999.56 1153.36L2061.07 1174.34C2065.25 1175.76 2067.45 1180.29 2066.03 1184.48C2064.61 1188.59 2060.01 1190.85 2055.9 1189.44Z" fill="#FF9985"/>
<path d="M2113.87 1241.95L2189.55 1283.12H2421.15C2415.76 1279.79 2410.31 1276.74 2405.27 1274.26C2403.79 1273.56 2403.01 1272.35 2402.72 1271.15C2348.86 1246.63 2246.53 1199.22 2164.82 1156.48C2152.77 1150.17 2137.96 1154.43 2131.02 1166.05L2105.64 1209.21C2103.94 1212.11 2102.88 1215.23 2102.46 1218.35C2101.32 1227.49 2105.5 1236.77 2113.87 1241.95Z" fill="#FFC660"/>
<path d="M2527.73 1156.69L2576.42 1186.18L2550.06 1223.88L2506.83 1192.84L2527.73 1156.69Z" fill="#FF9985"/>
<path d="M2491.73 1081.65C2487.41 1083.56 2485.5 1088.8 2487.48 1093.41L2505.55 1134.58C2507.54 1139.12 2512.78 1141.32 2517.1 1139.47C2521.43 1137.56 2523.34 1132.32 2521.35 1127.71L2503.28 1086.54C2501.23 1081.93 2496.06 1079.73 2491.73 1081.65Z" fill="#FF9985"/>
<path d="M2453.53 1178.45C2448.15 1173.35 2443.19 1167.61 2441.77 1161.8C2440.71 1157.26 2441.84 1153.08 2443.19 1149.11C2446.73 1138.91 2451.9 1129.27 2458.5 1120.55C2464.59 1112.54 2474.02 1104.61 2487.83 1106.73C2501.16 1108.79 2512.64 1117.22 2520.15 1127.07C2534.25 1145.78 2539.14 1152.58 2540.35 1171.72C2541.84 1195.74 2529.43 1209.99 2498.04 1198.72C2481.88 1192.91 2465.23 1189.58 2453.53 1178.45Z" fill="#FF9985"/>
<path d="M2483.51 1121.05L2422 1100.07C2417.82 1098.65 2415.62 1094.12 2417.04 1089.94C2418.46 1085.76 2423.06 1083.56 2427.17 1084.98L2488.69 1105.95C2492.87 1107.37 2495.06 1111.91 2493.65 1116.09C2492.23 1120.27 2487.69 1122.46 2483.51 1121.05Z" fill="#FF9985"/>
<path d="M2470.33 1139.4L2408.82 1118.43C2404.64 1117.01 2402.44 1112.47 2403.86 1108.29C2405.27 1104.11 2409.88 1101.91 2413.99 1103.33L2475.5 1124.31C2479.68 1125.73 2481.88 1130.26 2480.46 1134.44C2479.12 1138.55 2474.51 1140.82 2470.33 1139.4Z" fill="#FF9985"/>
<path d="M2471.11 1164.99L2409.6 1144.01C2405.42 1142.59 2403.22 1138.06 2404.64 1133.88C2406.05 1129.69 2410.66 1127.5 2414.77 1128.91L2476.28 1149.89C2480.46 1151.31 2482.66 1155.84 2481.24 1160.03C2479.9 1164.21 2475.29 1166.4 2471.11 1164.99Z" fill="#FF9985"/>
<path d="M2480.46 1187.88L2418.95 1166.9C2414.77 1165.48 2412.57 1160.95 2413.99 1156.77C2415.41 1152.58 2420.01 1150.39 2424.12 1151.8L2485.64 1172.78C2489.82 1174.2 2492.02 1178.73 2490.6 1182.92C2489.25 1187.03 2484.65 1189.29 2480.46 1187.88Z" fill="#FF9985"/>
<path d="M2538.51 1240.39L2617.03 1283.12H2847.7L2848.06 1282.98C2841.89 1279.01 2835.58 1275.61 2829.84 1272.7C2828.35 1272 2827.57 1270.79 2827.29 1269.59C2773.43 1245.07 2671.1 1197.66 2589.39 1154.92C2577.34 1148.62 2562.53 1152.87 2555.58 1164.49L2530.21 1207.65C2528.51 1210.55 2527.45 1213.67 2527.02 1216.79C2525.96 1225.93 2530.07 1235.22 2538.51 1240.39Z" fill="#FFC660"/>
<path d="M2595.27 904.477H2536.31C2524.47 904.477 2514.76 894.768 2514.76 882.933V871.098C2514.76 859.263 2524.47 849.554 2536.31 849.554H2595.27C2607.11 849.554 2616.81 859.263 2616.81 871.098V882.933C2616.74 894.768 2607.11 904.477 2595.27 904.477Z" fill="#FF9985"/>
<path d="M1663.71 768.764C1650.67 768.764 1643.73 779.678 1648.26 793.143L1769.59 1155.35C1775.54 1173.14 1794.25 1187.52 1811.33 1187.52H2064.61C2081.76 1187.52 2090.76 1173.14 2084.81 1155.35L1981.27 846.294C1977.59 835.309 1970.15 824.679 1960.37 816.387L1920.4 782.654C1909.98 773.867 1897.51 768.835 1886.17 768.835H1663.71V768.764Z" fill="#C4D7F2"/>
<path d="M1745.5 893.775H1800.98C1802.61 893.775 1804.46 895.192 1805.02 896.893C1805.59 898.594 1804.74 900.011 1803.04 900.011H1747.55L1745.5 893.775Z" fill="white"/>
<path d="M1942.79 893.775H1833.37C1831.74 893.775 1830.82 895.192 1831.39 896.893C1831.95 898.594 1833.8 900.011 1835.43 900.011H1944.85L1942.79 893.775Z" fill="white"/>
<path d="M1868.03 917.729H1753.5L1755.56 923.965H1870.15L1868.03 917.729Z" fill="white"/>
<path d="M1923.23 917.729H1894.6L1896.73 924.036H1925.36C1926.99 924.036 1927.91 922.618 1927.34 920.918C1926.63 919.146 1924.86 917.729 1923.23 917.729Z" fill="white"/>
<path d="M1729.69 846.648H1785.18C1786.81 846.648 1788.65 848.066 1789.22 849.767C1789.79 851.467 1788.94 852.885 1787.31 852.885H1731.82L1729.69 846.648Z" fill="white"/>
<path d="M1927.06 846.648H1817.64C1816.01 846.648 1815.09 848.066 1815.65 849.767C1816.22 851.467 1818.06 852.885 1819.69 852.885H1929.11L1927.06 846.648Z" fill="white"/>
<path d="M1737.7 870.602H1907.43C1909.06 870.602 1910.9 872.019 1911.47 873.72C1912.03 875.421 1911.18 876.838 1909.48 876.838H1739.75L1737.7 870.602Z" fill="white"/>
<path d="M1778.66 992.919H1834.15C1835.78 992.919 1837.62 994.336 1838.19 996.037C1838.76 997.738 1837.91 999.155 1836.28 999.155H1780.79L1778.66 992.919Z" fill="white"/>
<path d="M1976.03 992.919H1866.61C1864.98 992.919 1864.06 994.336 1864.62 996.037C1865.19 997.738 1867.03 999.155 1868.66 999.155H1978.08L1976.03 992.919Z" fill="white"/>
<path d="M1786.67 1016.87H1956.4C1958.03 1016.87 1959.87 1018.29 1960.44 1019.99C1961 1021.69 1960.15 1023.11 1958.45 1023.11H1788.72L1786.67 1016.87Z" fill="white"/>
<path d="M1762.86 945.792H1818.35C1819.98 945.792 1821.82 947.209 1822.39 948.91C1822.95 950.611 1822.1 952.028 1820.4 952.028H1764.91L1762.86 945.792Z" fill="white"/>
<path d="M1960.22 945.792H1850.8C1849.17 945.792 1848.25 947.209 1848.82 948.91C1849.39 950.611 1851.23 952.028 1852.86 952.028H1962.28L1960.22 945.792Z" fill="white"/>
<path d="M1850.1 969.674H1770.87L1772.99 975.982H1852.22L1850.1 969.674Z" fill="white"/>
<path d="M1811.26 1090.15H1866.75C1868.38 1090.15 1870.22 1091.57 1870.79 1093.27C1871.36 1094.97 1870.51 1096.39 1868.8 1096.39H1813.32L1811.26 1090.15Z" fill="white"/>
<path d="M1933.15 1090.15H1899.14C1897.51 1090.15 1896.58 1091.57 1897.15 1093.27C1897.72 1094.97 1899.56 1096.39 1901.19 1096.39H1935.21L1933.15 1090.15Z" fill="white"/>
<path d="M1819.27 1114.1H1989C1990.63 1114.1 1992.47 1115.52 1993.04 1117.22C1993.6 1118.92 1992.75 1120.34 1991.05 1120.34H1821.32L1819.27 1114.1Z" fill="white"/>
<path d="M1795.46 1043.02H1850.95C1852.58 1043.02 1854.42 1044.44 1854.99 1046.14C1855.55 1047.84 1854.7 1049.26 1853 1049.26H1797.51L1795.46 1043.02Z" fill="white"/>
<path d="M1937.97 1043.02H1883.33C1881.7 1043.02 1880.78 1044.44 1881.35 1046.14C1881.92 1047.84 1883.76 1049.26 1885.39 1049.26H1940.03L1937.97 1043.02Z" fill="white"/>
<path d="M1803.46 1066.98H1973.19C1974.82 1066.98 1976.67 1068.39 1977.23 1070.09C1977.8 1071.8 1976.95 1073.21 1975.25 1073.21H1805.52L1803.46 1066.98Z" fill="white"/>
<path d="M2663.11 597.907C2671.38 562.902 2649.7 527.824 2614.7 519.559C2579.69 511.293 2544.61 532.969 2536.35 567.974C2528.08 602.979 2549.76 638.057 2584.76 646.323C2619.77 654.588 2654.85 632.912 2663.11 597.907Z" fill="#000543"/>
<path d="M2706.96 1621.87H2286.85C2286.71 1623.85 2286.57 1625.84 2286.57 1627.82V2330.9C2286.57 2349.12 2294.86 2351.81 2306.48 2357.97H2706.96V1621.87Z" fill="#D4CFF6"/>
<path d="M2615.33 1621.87V2357.97H3063.71C3080.36 2357.97 3093.83 2342.6 3093.83 2323.6V1621.87H2615.33Z" fill="#D4CFF6"/>
<path d="M3062.86 1543.07H2655.72V1628.53L3095.31 1626.62V1583.32C3095.38 1561.07 3080.79 1543.07 3062.86 1543.07Z" fill="#7C38E9"/>
<path d="M2835.02 1543.07H2320.3C2302.37 1543.07 2287.78 1561.07 2287.78 1583.32V1631.22L2835.02 1628.82V1543.07Z" fill="#7C38E9"/>
<path d="M2903.55 1588.49C2903.55 1601.18 2893.41 1611.45 2880.87 1611.45C2868.32 1611.45 2858.19 1601.18 2858.19 1588.49C2858.19 1575.81 2868.32 1565.53 2880.87 1565.53C2893.41 1565.6 2903.55 1575.88 2903.55 1588.49Z" fill="#969ECC"/>
<path d="M3062.64 1588.49C3062.64 1601.18 3052.51 1611.45 3039.97 1611.45C3027.42 1611.45 3017.29 1601.18 3017.29 1588.49C3017.29 1575.81 3027.42 1565.53 3039.97 1565.53C3052.51 1565.53 3062.64 1575.88 3062.64 1588.49Z" fill="#F4B545"/>
<path d="M2984.76 1588.49C2984.76 1601.18 2974.63 1611.45 2962.08 1611.45C2949.54 1611.45 2939.4 1601.18 2939.4 1588.49C2939.4 1575.81 2949.54 1565.53 2962.08 1565.53C2974.63 1565.6 2984.76 1575.88 2984.76 1588.49Z" fill="white"/>
<path d="M2190.05 1831C2188.14 1831 2186.22 1830.72 2184.38 1830.08L1951.37 1751.63C1942.01 1748.51 1936.98 1738.31 1940.1 1728.95L1980.92 1607.7C1982.41 1603.16 1985.67 1599.48 1989.92 1597.35C1994.17 1595.22 1999.06 1594.87 2003.6 1596.43L2236.61 1674.88C2245.96 1678.07 2250.99 1688.2 2247.88 1697.56L2207.06 1818.81C2204.51 1826.32 2197.49 1831 2190.05 1831ZM2186.65 1823.35C2192.32 1825.26 2198.41 1822.21 2200.32 1816.54L2241.14 1695.29C2243.06 1689.62 2240.01 1683.53 2234.34 1681.61L2001.33 1603.16C1998.56 1602.24 1995.66 1602.45 1993.11 1603.73C1990.56 1605 1988.57 1607.2 1987.65 1609.97L1946.83 1731.22C1944.92 1736.89 1947.96 1742.98 1953.63 1744.9L2186.65 1823.35Z" fill="#29BEAC"/>
<path d="M2105.01 1718.32C2098.56 1718.32 2092.32 1715.49 2088.14 1710.46L1997.22 1601.25L2002.67 1596.71L2093.6 1705.92C2097.28 1710.38 2103.31 1712.23 2108.9 1710.74L2237.18 1675.8L2239.02 1682.6L2110.75 1717.54C2108.83 1718.04 2106.92 1718.32 2105.01 1718.32Z" fill="#29BEAC"/>
<path d="M2868.75 2357.97L2845.79 2229.28C2845.5 2227.51 2843.73 2226.3 2842.03 2226.66C2840.26 2226.94 2839.06 2228.64 2839.41 2230.41L2862.16 2357.97H2868.75Z" fill="#6071AD"/>
<path d="M2784.56 1880.25C2802.28 1876.07 2822.05 1874.73 2838.49 1881.67C2851.95 1887.41 2861.52 1898.11 2868.04 1909.45C2888.24 1944.74 2881.51 1989.32 2852.38 2019.94C2823.25 2050.55 2773.43 2066.14 2727.08 2060.05C2679.96 2053.88 2627.23 2011.71 2649.84 1968.91C2670.67 1929.44 2736.37 1891.52 2784.56 1880.25Z" fill="#F4B545"/>
<path d="M2274.81 2078.61L2241.22 2038.5L2273.25 2006.75L2308.54 2044.6L2274.81 2078.61Z" fill="#FD9783"/>
<path d="M2222.79 1947.93C2219.39 1950.06 2218.47 1954.6 2220.73 1958.14L2240.86 1989.6C2243.06 1993.08 2247.66 1994.21 2251.07 1992.08C2254.47 1989.96 2255.39 1985.42 2253.12 1981.88L2232.99 1950.41C2230.73 1946.94 2226.12 1945.88 2222.79 1947.93Z" fill="#FD9783"/>
<path d="M2202.95 2032.27C2197.84 2028.79 2193.03 2024.75 2191.11 2020.08C2189.62 2016.53 2190.05 2012.92 2190.76 2009.45C2192.46 2000.59 2195.51 1992.08 2199.97 1984.01C2204.01 1976.64 2210.88 1968.98 2222.65 1968.91C2233.99 1968.84 2244.62 1974.3 2251.99 1981.38C2266.02 1994.92 2275.94 2004.77 2279.27 2020.36C2283.45 2039.85 2269.92 2048.14 2242.42 2043.04C2228.32 2040.49 2214 2039.92 2202.95 2032.27Z" fill="#FD9783"/>
<path d="M2220.81 1981.31L2167.09 1972.03C2163.47 1971.39 2160.99 1967.92 2161.7 1964.37C2162.34 1960.76 2165.88 1958.35 2169.57 1958.99L2223.29 1968.27C2226.9 1968.91 2229.38 1972.38 2228.67 1975.93C2227.96 1979.54 2224.42 1981.95 2220.81 1981.31Z" fill="#FD9783"/>
<path d="M2212.16 1998.04L2158.44 1988.75C2154.83 1988.12 2152.35 1984.64 2153.06 1981.1C2153.69 1977.49 2157.24 1975.08 2160.92 1975.71L2214.64 1985C2218.25 1985.64 2220.73 1989.11 2220.03 1992.65C2219.32 1996.27 2215.77 1998.68 2212.16 1998.04Z" fill="#FD9783"/>
<path d="M2215.14 2017.38L2161.42 2008.1C2157.8 2007.46 2155.32 2003.99 2156.03 2000.45C2156.67 1996.83 2160.21 1994.42 2163.9 1995.06L2217.62 2004.34C2221.23 2004.98 2223.71 2008.46 2223 2012C2222.29 2015.54 2218.75 2017.95 2215.14 2017.38Z" fill="#FD9783"/>
<path d="M2226.55 2036.52L2172.83 2027.23C2169.21 2026.6 2166.73 2023.12 2167.44 2019.58C2168.08 2015.97 2171.62 2013.56 2175.31 2014.2L2229.03 2023.48C2232.64 2024.12 2235.12 2027.59 2234.41 2031.13C2233.7 2034.75 2230.16 2037.16 2226.55 2036.52Z" fill="#FD9783"/>
<path d="M2402.65 2269.74C2411.65 2278.82 2433.69 2286.75 2456.02 2290.01L2492.58 2280.87L2482.73 2188.67C2476 2175.28 2470.54 2162.03 2466.29 2157.21C2455.45 2144.95 2352.26 2053.31 2310.74 2012.42C2303.51 2005.34 2295.36 2002.93 2284.44 2013.06L2240.08 2054.09C2229.24 2064.09 2234.34 2071.6 2240.65 2079.39C2294.93 2146.22 2379.12 2246 2402.65 2269.74Z" fill="#FFC660"/>
<path d="M2679.67 2027.66C2704.19 2056.72 2703.27 2097.04 2677.55 2117.87C2641.55 2147 2508.03 2267.34 2497.05 2277.4C2475.43 2297.24 2439.65 2294.12 2416.54 2270.31C2394.79 2247.92 2392.94 2228.57 2410.52 2207.31C2451.27 2157.84 2530 2067.84 2585.28 2015.4C2610.51 1991.45 2653.88 1997.12 2679.67 2027.66Z" fill="#FFC660"/>
<path d="M2832.25 1949.92C2776.2 1947.79 2756.99 1944.46 2701.93 1955.52C2685.63 1956.58 2594 1965.79 2563.59 2044.38L2549.7 2357.97H2636.8H2823.75H2964.42L3018.85 2131.2C3024.8 2084.07 2960.74 1961.61 2832.25 1949.92Z" fill="#F4B545"/>
<path d="M2939.97 2357.97H3061.58C3062.79 2351.95 3062.93 2345.64 3061.65 2339.41C3058.75 2324.74 3027.28 2153.24 3017.57 2107.95C3008.93 2067.77 2981.22 2047.57 2943.66 2053.39C2904.11 2059.48 2876.69 2093.57 2883.99 2127.58C2898.94 2197.25 2920.13 2295.97 2939.97 2357.97Z" fill="#FFC660"/>
<path d="M2553.25 2357.98L2559.98 2165.64C2560.05 2163.73 2558.56 2162.1 2556.65 2162.1C2554.81 2161.95 2553.18 2163.51 2553.1 2165.43L2546.37 2358.05H2553.25V2357.98Z" fill="#C9782D"/>
<path d="M2799.65 1796.21C2800.36 1796.21 2801.07 1796.14 2801.85 1796.28C2811.42 1797.69 2818.08 1807.9 2816.73 1819.03C2815.81 1826.61 2811.42 1832.56 2805.68 1835.25L2806.67 1864.17C2814.46 1855.24 2821.34 1845.74 2825.87 1834.47C2834.59 1812.93 2829.98 1792.73 2824.53 1771.47C2809.36 1754.89 2786.19 1744.33 2766.56 1735.54C2731.62 1719.95 2698.81 1711.94 2663.3 1723.43C2659.76 1724.56 2657.42 1728.03 2657.56 1731.72C2657.78 1740.86 2659.12 1751.77 2661.04 1761.34C2661.82 1765.17 2662.24 1768.07 2665.71 1771.19C2663.59 1771.19 2661.89 1772.82 2661.89 1774.88C2661.89 1777 2663.73 1778.77 2665.93 1778.84L2680.95 1779.27C2683.15 1779.34 2684.92 1777.64 2684.92 1775.51C2684.92 1773.39 2683.08 1771.62 2680.88 1771.54L2666.99 1771.19C2667.27 1764.74 2668.34 1758.5 2670.39 1752.76C2670.25 1750 2670.46 1747.24 2671.24 1744.69C2672.16 1744.12 2673.44 1743.48 2675 1742.77C2682.37 1739.58 2697.18 1735.97 2721.34 1741C2758.62 1748.8 2746.64 1790.11 2787.68 1797.98L2799.65 1795.78V1796.21Z" fill="#000543"/>
<path d="M2671.17 1744.76C2670.39 1747.31 2670.11 1750.07 2670.32 1752.84C2671.52 1749.36 2673.15 1746.03 2674.93 1742.84C2673.37 1743.55 2672.09 1744.19 2671.17 1744.76Z" fill="#000543"/>
<path d="M2805.68 1835.25C2811.42 1832.63 2815.81 1826.61 2816.73 1819.03C2818.08 1807.9 2811.42 1797.69 2801.85 1796.28C2801.14 1796.14 2800.36 1796.21 2799.65 1796.21V1795.85L2787.68 1798.05C2746.64 1790.18 2758.62 1748.87 2721.34 1741.07C2697.11 1736.04 2682.37 1739.65 2675 1742.84C2673.23 1746.03 2671.6 1749.29 2670.39 1752.83C2668.34 1758.65 2667.2 1764.81 2666.99 1771.26L2680.88 1771.61C2683.08 1771.69 2684.92 1773.46 2684.92 1775.58C2684.92 1777.71 2683.15 1779.41 2680.95 1779.34L2666.85 1778.99L2667.56 1827.81C2668.12 1864.1 2692.36 1891.74 2728.79 1892.59C2729.64 1892.59 2730.49 1892.52 2731.34 1892.52L2733.46 1956.51C2733.68 1963.45 2740.48 1993.22 2747.49 1993.22H2798.31C2805.32 1993.22 2809.93 1963.1 2809.65 1956.15L2806.81 1869.98L2805.68 1835.25ZM2732.61 1791.88C2732.54 1788.13 2734.6 1785.08 2737.15 1785.15C2739.7 1785.22 2741.75 1788.34 2741.83 1792.1C2741.9 1795.85 2739.84 1798.9 2737.29 1798.83C2734.74 1798.83 2732.61 1795.71 2732.61 1791.88ZM2680.88 1796.28C2678.33 1796.21 2676.27 1793.09 2676.2 1789.33C2676.13 1785.58 2678.19 1782.53 2680.74 1782.6C2683.29 1782.67 2685.34 1785.79 2685.41 1789.54C2685.49 1793.37 2683.43 1796.35 2680.88 1796.28ZM2695.05 1811.73L2695.62 1810.45C2696.12 1813.43 2698.17 1816.05 2701.36 1817.04L2709.23 1819.38C2711.92 1820.16 2714.33 1819.1 2715.82 1817.18L2715.96 1817.89C2716.95 1822.36 2712.77 1826.04 2708.3 1824.69L2700.44 1822.36C2695.69 1820.94 2693.21 1815.98 2695.05 1811.73ZM2713.76 1850.92C2713.76 1850.92 2703.42 1852.62 2700.51 1842.91L2726.23 1841.21C2725.88 1845.03 2723.54 1849.71 2713.76 1850.92ZM2725.1 1780.54C2722.9 1780.47 2721.06 1778.7 2721.06 1776.58C2721.06 1774.45 2722.83 1772.75 2725.03 1772.82L2740.05 1773.24C2742.25 1773.32 2744.09 1775.09 2744.09 1777.21C2744.09 1779.34 2742.32 1781.04 2740.12 1780.97L2725.1 1780.54Z" fill="#FD9783"/>
<path d="M2713.76 1850.92C2723.54 1849.78 2725.88 1845.03 2726.31 1841.14L2700.58 1842.84C2703.42 1852.62 2713.76 1850.92 2713.76 1850.92Z" fill="white"/>
<path d="M2744.09 1777.21C2744.09 1775.09 2742.25 1773.32 2740.05 1773.25L2725.03 1772.82C2722.83 1772.75 2721.06 1774.45 2721.06 1776.58C2721.06 1778.7 2722.9 1780.47 2725.1 1780.54L2740.12 1780.97C2742.32 1781.04 2744.09 1779.34 2744.09 1777.21Z" fill="#000543"/>
<path d="M2680.74 1782.6C2678.19 1782.53 2676.13 1785.5 2676.2 1789.33C2676.27 1793.09 2678.33 1796.21 2680.88 1796.28C2683.43 1796.35 2685.49 1793.37 2685.41 1789.54C2685.34 1785.79 2683.29 1782.67 2680.74 1782.6Z" fill="#000543"/>
<path d="M2737.29 1798.9C2739.84 1798.97 2741.9 1795.99 2741.83 1792.17C2741.75 1788.41 2739.7 1785.29 2737.15 1785.22C2734.6 1785.15 2732.54 1788.13 2732.61 1791.95C2732.61 1795.71 2734.74 1798.83 2737.29 1798.9Z" fill="#000543"/>
<path d="M2715.96 1817.82L2715.82 1817.11C2714.4 1819.03 2711.99 1820.09 2709.23 1819.31L2701.36 1816.97C2698.17 1816.05 2696.12 1813.36 2695.62 1810.38L2695.05 1811.66C2693.21 1815.91 2695.69 1820.94 2700.37 1822.29L2708.23 1824.62C2712.77 1826.04 2716.95 1822.29 2715.96 1817.82Z" fill="#F8694F"/>
<path d="M2649.34 1720.52C2649.2 1703.44 2658.06 1686.64 2671.95 1677.64C2689.03 1666.59 2710.71 1667.79 2730.63 1670.91C2738.85 1672.19 2747.07 1673.75 2754.79 1676.94C2765.21 1681.19 2774.35 1688.27 2784.49 1693.16C2791.15 1696.35 2798.17 1698.69 2804.54 1702.45C2823.75 1713.79 2834.02 1737.31 2835.87 1760.28C2837.71 1783.24 2832.39 1806.06 2827.15 1828.45C2828.85 1812.22 2822.47 1795.36 2810.71 1784.65C2795.61 1771.05 2774.14 1768.43 2756.64 1758.43C2747.07 1752.98 2738.71 1745.39 2729.35 1739.65C2717.73 1732.5 2703.84 1728.1 2690.59 1730.79C2684.49 1732.07 2678.68 1734.98 2674 1739.23C2671.6 1741.35 2669.47 1743.83 2667.77 1746.6C2666.63 1748.44 2665.36 1754.75 2663.94 1755.74C2655.86 1761.76 2649.41 1725.9 2649.34 1720.52Z" fill="#000543"/>
<path d="M2770.31 2014.05C2800.22 2014.05 2824.46 1998.86 2824.46 1980.11C2824.46 1961.36 2800.22 1946.16 2770.31 1946.16C2740.41 1946.16 2716.17 1961.36 2716.17 1980.11C2716.17 1998.86 2740.41 2014.05 2770.31 2014.05Z" fill="#FD9783"/>
<path d="M2231.72 2034.18H2161.42C2155.18 2034.18 2149.3 2029.93 2148.17 2024.68L2119.04 1886.07C2117.91 1880.82 2122.09 1876.57 2128.32 1876.57H2198.62C2204.86 1876.57 2210.74 1880.82 2211.88 1886.07L2241 2024.68C2242.07 2029.93 2237.88 2034.18 2231.72 2034.18Z" fill="#7C38E9"/>
<path d="M2221.25 2007H2160.68C2155.3 2007 2147.56 1999.7 2146.58 1995.54L2124.16 1889.53C2123.18 1885.37 2126.79 1882 2132.16 1882H2196.77C2202.14 1882 2208.81 1889.53 2208.81 1889.53L2230.9 1998.67C2231.81 2002.83 2226.56 2007 2221.25 2007Z" fill="#321FA0"/>
<path d="M1649.19 1734.05L1605.6 1939H1578.18L1616.73 1757.79C1619.56 1744.68 1634.09 1734.05 1649.19 1734.05Z" fill="#321FA0"/>
<path d="M1578.25 1939L1622.75 1729.59H1381.52L1337.01 1939H1578.25Z" fill="white"/>
<path d="M1167.21 1881.6H1850.38C1862.78 1881.6 1874.62 1872.96 1876.88 1862.18L1968.02 1433.58C1970.29 1422.87 1962.14 1414.16 1949.74 1414.16H1266.57C1254.17 1414.16 1242.33 1422.8 1240.07 1433.58L1148.93 1862.25C1146.66 1872.96 1154.88 1881.6 1167.21 1881.6Z" fill="#C4D7F2"/>
<path d="M1142.13 1881.6H1825.29C1837.69 1881.6 1849.53 1872.96 1851.8 1862.18L1942.93 1433.58C1945.2 1422.87 1937.05 1414.16 1924.65 1414.16H1241.48C1229.08 1414.16 1217.25 1422.8 1214.98 1433.58L1123.84 1862.18C1121.58 1872.96 1129.73 1881.6 1142.13 1881.6Z" fill="#321FA0"/>
<path d="M1911.68 1433.43H1249.49C1241.13 1433.43 1233.12 1439.17 1231.63 1446.26L1148.79 1835.75C1147.3 1842.84 1152.83 1848.58 1161.19 1848.58H1823.38C1831.74 1848.58 1839.75 1842.84 1841.24 1835.75L1924.08 1446.26C1925.64 1439.17 1920.11 1433.43 1911.68 1433.43Z" fill="white"/>
<path d="M1762.22 1456.82H1262.89C1256.58 1456.82 1250.55 1461.14 1249.42 1466.46L1184.44 1771.69C1183.3 1777 1187.48 1781.32 1193.79 1781.32H1693.12C1699.43 1781.32 1705.46 1777 1706.59 1771.69L1771.57 1466.46C1772.71 1461.14 1768.53 1456.82 1762.22 1456.82Z" fill="#5765AD"/>
<path d="M1903.32 1468.44C1904.38 1463.48 1900.63 1458.8 1895.52 1458.8H1832.88H1798.36C1794.54 1458.8 1790.92 1461.43 1790.21 1464.61L1761.8 1598.2C1761.72 1598.41 1761.58 1598.63 1761.51 1598.84L1723.74 1776.5C1723.03 1779.76 1725.58 1782.32 1729.41 1782.32H1827.14C1832.17 1782.32 1836.56 1778.77 1837.62 1773.81L1874.62 1602.59C1874.69 1602.17 1874.55 1601.74 1874.62 1601.32L1903.32 1468.44Z" fill="#5765AD"/>
<path d="M1679.8 1491.54H1277.63C1275.07 1491.54 1273.59 1489.49 1274.22 1486.94L1276.49 1478.01C1277.13 1475.46 1279.68 1473.4 1282.23 1473.4H1684.41C1686.96 1473.4 1688.45 1475.46 1687.81 1478.01L1685.54 1486.94C1684.9 1489.49 1682.35 1491.54 1679.8 1491.54Z" fill="#29347C"/>
<path d="M1359.76 1906.12C1359.2 1905.98 1358.56 1906.12 1357.92 1906.12H1359.76Z" fill="#F7CBAD"/>
<path d="M1036.46 2501.55C1033.63 2512.68 1028.17 2523.1 1026.12 2534.36C1023.21 2550.73 1027.6 2567.39 1027.96 2583.97C1028.17 2596.44 1026.12 2608.85 1026.12 2621.25C1026.12 2633.72 1028.38 2646.76 1036.25 2656.47C1057.37 2574.33 1060.35 2488.58 1078.98 2405.81C1081.96 2392.49 1085.36 2379.23 1088.69 2365.98C1092.17 2351.95 1091.81 2333.31 1073.1 2331.61C1061.34 2330.55 1057.01 2341.53 1053.9 2350.96C1043.69 2381.93 1034.48 2412.47 1037.1 2445.28C1038.59 2463.99 1041.21 2483.13 1036.46 2501.55Z" fill="#000543"/>
<path d="M1246.52 2326.44C1250.63 2327.64 1255.02 2329.06 1258.28 2332.18C1262.89 2336.71 1263.59 2343.59 1261.96 2348.76C1260.33 2353.94 1256.93 2358.12 1254.59 2362.94C1248.07 2376.33 1250.27 2393.69 1254.31 2409.99C1258.28 2426.29 1263.95 2442.87 1263.88 2458.89C1263.88 2475.97 1257.43 2490.99 1253.89 2507.08C1250.48 2522.74 1249.92 2539.61 1252.26 2556.62C1254.17 2570.44 1257.93 2584.33 1259.41 2598.15C1261.68 2618.48 1259.56 2639.89 1271.74 2658.52C1287.19 2557.11 1297.68 2454.14 1308.24 2351.24C1309.45 2339.55 1310.51 2327.15 1305.19 2315.17C1295.91 2294.41 1270.96 2282.93 1249.21 2279.45C1236.24 2277.4 1222.56 2277.4 1212.99 2283.85C1206.05 2288.52 1197.69 2304.12 1206.83 2313.54C1214.13 2321.19 1237.37 2323.75 1246.52 2326.44Z" fill="#000543"/>
<path d="M1312.28 2623.44L1305.05 2734.28L1356.86 2738.39L1372.38 2621.39L1312.28 2623.44Z" fill="#FF9985"/>
<path d="M1424.75 2745.34L1363.38 2722.31L1308.52 2723.3C1301.93 2723.44 1296.62 2729.6 1296.48 2737.26L1295.84 2770.92L1437.01 2772.2C1442.82 2763.13 1439.77 2751.01 1424.75 2745.34Z" fill="#FCCCB1"/>
<path d="M1295.84 2770.92L1294.42 2777.09C1293.5 2780.91 1297.54 2784.1 1302.78 2784.1H1412.49C1424.46 2784.03 1432.97 2778.72 1437.08 2772.27L1295.84 2770.92Z" fill="#000543"/>
<path d="M1327.52 2768.3L1308.03 2768.65C1306.97 2768.65 1306.12 2767.8 1306.12 2766.81L1306.04 2762.77C1306.04 2761.71 1306.89 2760.86 1307.89 2760.86L1327.38 2760.5C1328.44 2760.5 1329.29 2761.35 1329.29 2762.35L1329.36 2766.39C1329.43 2767.38 1328.58 2768.23 1327.52 2768.3Z" fill="#000543"/>
<path d="M1060.63 2635.21L1055.67 2737.61L1102.37 2734.85L1114.7 2625.78L1060.63 2635.21Z" fill="#FF9985"/>
<path d="M1020.31 1538.6C1047.38 1529.74 1065.94 1507.21 1071.12 1479.5C1071.47 1478.93 1071.76 1478.43 1072.04 1477.87C1067.93 1474.54 1064.6 1469.22 1063.18 1462.84C1060.63 1451.15 1065.59 1440.66 1074.17 1439.39C1077.35 1438.89 1080.68 1439.81 1083.59 1441.65C1085.65 1443 1087.56 1444.91 1089.19 1447.11C1090.96 1446.47 1090.96 1440.87 1090.89 1439.46C1090.75 1435.91 1089.9 1432.44 1089.61 1428.9C1089.26 1423.87 1091.46 1417.35 1093.8 1410.97L1104.57 1464.9C1107.61 1483.75 1100.53 1502.03 1088.34 1515.5C1082.6 1521.8 1075.79 1527.05 1068.35 1530.81C1065.24 1538.67 1057.09 1602.59 1057.09 1602.59L980.974 1596.22L993.518 1533.5C993.518 1533.57 1012.94 1541.01 1020.31 1538.6Z" fill="#FF9985"/>
<path d="M996.21 1534.07C999.612 1535.48 1009.96 1538.03 1013.22 1538.96C1015.63 1539.59 1018.04 1539.38 1020.31 1538.67C1021.23 1538.39 1021.94 1538.1 1022.57 1537.75C1058.86 1524.07 1068.57 1493.25 1071.12 1479.57C1071.47 1479 1071.76 1478.51 1072.04 1477.94C1067.93 1474.61 1064.6 1469.29 1063.18 1462.91C1060.63 1451.22 1065.59 1440.73 1074.16 1439.46C1077.35 1438.96 1080.68 1439.88 1083.59 1441.72C1085.65 1443.07 1087.56 1444.98 1089.19 1447.18C1090.96 1446.54 1090.96 1440.95 1090.89 1439.53C1090.75 1435.98 1089.9 1432.51 1089.61 1428.97C1089.26 1423.94 1091.46 1417.42 1093.8 1411.04C1095.71 1405.65 1097.76 1400.34 1098.33 1396.09C1100.1 1383.61 1096.63 1365.75 1089.05 1355.69C1081.39 1345.63 1065.52 1348.96 1052.9 1348.11C1048.37 1347.83 1043.69 1348.18 1039.51 1346.62C1035.83 1345.2 1032.85 1342.3 1029.31 1340.53C1022.43 1336.98 1014 1337.76 1006.77 1340.45C1006.42 1340.6 1006.13 1340.81 1005.78 1340.95C998.974 1343.71 992.809 1347.82 986.501 1351.58C976.367 1357.6 965.383 1362.42 956.524 1370.22C953.194 1373.2 950.217 1376.74 947.879 1380.57C944.619 1386.02 942.634 1392.19 943.13 1398.42C941.855 1399.63 940.65 1400.9 939.587 1402.18C933.067 1410.33 929.382 1420.82 929.24 1431.24C929.169 1433.43 929.311 1435.56 929.524 1437.76C931.012 1452.14 937.886 1465.82 947.312 1476.95C952.768 1483.54 990.541 1531.73 996.21 1534.07Z" fill="#000543"/>
<path d="M1071.19 2204.83L1079.05 2219.36C1080.54 2250.82 1071.54 2309.36 1061.13 2376.9C1049.57 2452.09 1035.19 2545.63 1030.09 2635.28C1029.52 2645.41 1026.54 2675.53 1034.05 2682.34C1041.42 2689.07 1051.27 2692.04 1061.2 2690.7C1061.34 2690.7 1124.06 2680.92 1124.06 2680.92C1138.3 2678.72 1149.5 2667.6 1151.91 2653.35C1171.68 2536.42 1197.47 2432.39 1212.64 2365.13C1225.68 2307.23 1235.11 2265.35 1238.65 2230.06L1239.57 2221.13L1071.19 2204.83Z" fill="#000543"/>
<path d="M1365.79 2152.17L1363.09 2161.25L1365.08 2151.89C1208.74 2087.26 974.241 2108.73 880.696 2120.92L870.208 2122.27L870.562 2123.33C858.94 2125.24 836.687 2127.94 814.435 2129.28L830.309 2292.14C864.892 2290.3 911.807 2312.69 957.446 2306.88C1046.38 2295.68 1159.63 2303.55 1256.65 2311.84C1265.72 2312.62 1273.59 2321.19 1273.09 2329.84C1272.38 2342.24 1271.6 2355.07 1270.75 2368.39C1265.86 2447.76 1258.78 2566.11 1262.74 2660.79C1263.1 2668.73 1266.85 2676.67 1273.09 2682.48C1279.19 2688.15 1287.05 2691.34 1294.85 2691.34C1295.13 2691.34 1366.07 2688.86 1366.07 2688.86C1379.32 2688.5 1391.01 2679.08 1391.94 2665.97C1403.91 2505.38 1427.16 2345.71 1436.37 2276.55C1443.1 2225.1 1417.38 2172.87 1365.79 2152.17Z" fill="#000543"/>
<path d="M1017.97 2154.3C1058.36 2144.73 1070.05 2147.28 1081.75 2105.97C1097.41 2050.76 1125.05 1863.88 1134.62 1832.91C1145.25 1798.54 1157.93 1764.67 1165.3 1729.31C1170.19 1705.78 1172.81 1679.77 1164.81 1656.95C1151.77 1631.93 1132.99 1608.62 1109.95 1599.26C1069.77 1582.89 939.871 1580.27 907.697 1615.71C847.53 1682.04 853.767 1702.02 823.435 1778.77C777.371 1898.33 857.097 1892.02 753.276 2112.91C748.953 2122.06 743.638 2144.02 748.528 2150.47C772.269 2181.8 814.081 2182.65 858.515 2183.71C882.326 2184.21 960.706 2167.84 1017.97 2154.3Z" fill="#F4B545"/>
<path d="M1177.99 2743.35L1116.61 2720.32L1061.76 2721.31C1055.17 2721.46 1049.86 2727.62 1049.72 2735.27L1049.08 2769.57H1190.25C1196.06 2760.5 1193.01 2748.95 1177.99 2743.35Z" fill="#FCCCB1"/>
<path d="M1049.08 2769.65L1047.66 2775.24C1046.74 2779.07 1050.78 2782.26 1056.02 2782.19H1165.73C1177.7 2782.12 1186.21 2776.17 1190.32 2769.65H1049.08Z" fill="#000543"/>
<path d="M1080.76 2766.31L1061.27 2766.67C1060.2 2766.67 1059.35 2765.82 1059.35 2764.83L1059.28 2760.79C1059.28 2759.72 1060.13 2758.87 1061.13 2758.87L1080.61 2758.52C1081.68 2758.52 1082.53 2759.37 1082.53 2760.36L1082.6 2764.4C1082.67 2765.39 1081.82 2766.31 1080.76 2766.31Z" fill="#000543"/>
<path d="M1402.99 2784.88C1402.64 2784.88 1402.28 2784.88 1402 2784.81C1398.24 2784.24 1395.69 2780.7 1396.26 2776.94L1462.66 2324.67C1463.23 2320.91 1466.7 2318.22 1470.39 2318.86C1474.14 2319.42 1476.69 2322.97 1476.13 2326.72L1409.72 2779C1409.16 2782.4 1406.25 2784.88 1402.99 2784.88Z" fill="#6D72A0"/>
<path d="M1454.94 2430.76C1454.58 2430.76 1454.23 2430.76 1453.95 2430.68C1450.19 2430.12 1447.64 2426.57 1448.21 2422.82L1514.61 1970.54C1515.18 1966.78 1518.65 1964.09 1522.33 1964.73C1526.09 1965.3 1528.64 1968.84 1528.07 1972.6L1461.67 2424.87C1461.17 2428.28 1458.27 2430.76 1454.94 2430.76Z" fill="#6D72A0"/>
<path d="M1962.63 2786.09C1962.99 2786.09 1963.34 2786.09 1963.63 2786.02C1967.38 2785.45 1969.93 2781.98 1969.37 2778.22L1902.96 2331.97C1902.4 2328.21 1898.92 2325.66 1895.24 2326.23C1891.48 2326.79 1888.93 2330.27 1889.5 2334.02L1955.9 2780.28C1956.4 2783.61 1959.3 2786.09 1962.63 2786.09Z" fill="#6D72A0"/>
<path d="M1909.2 2426.86C1909.55 2426.86 1909.91 2426.86 1910.19 2426.79C1913.95 2426.22 1916.5 2422.75 1915.93 2418.99L1849.53 1972.74C1848.96 1968.98 1845.49 1966.43 1841.8 1967C1838.05 1967.56 1835.5 1971.04 1836.06 1974.79L1902.4 2421.05C1902.96 2424.45 1905.87 2426.86 1909.2 2426.86Z" fill="#6D72A0"/>
<path d="M1119.02 1980.53H1883.9C1882.77 1957.36 1863.77 1938.93 1840.32 1938.93H1119.38C1119.95 1952.89 1119.73 1966.71 1119.02 1980.53Z" fill="#5765AD"/>
<path d="M1106.62 1980.53H1553.23C1552.1 1957.36 1533.1 1938.93 1509.65 1938.93H1114.21C1111.94 1950.84 1107.26 1966.71 1106.62 1980.53Z" fill="#321FA0"/>
<path d="M1966.74 2143.74H1968.59C1967.95 2143.74 1967.38 2143.6 1966.74 2143.53V2143.74Z" fill="#FFE5D4"/>
<path d="M683.258 2328.56V2778.08C683.258 2781.98 686.376 2785.09 690.274 2785.09C694.172 2785.09 697.29 2781.98 697.29 2778.08V2328.56H683.258Z" fill="#6D72A0"/>
<path d="M1034.9 2309.78H718.551V2323.82H1027.89V2776.87C1027.89 2780.77 1031.01 2783.89 1034.9 2783.89C1038.8 2783.89 1041.92 2780.77 1041.92 2776.87V2316.8C1041.92 2312.9 1038.8 2309.78 1034.9 2309.78Z" fill="#6D72A0"/>
<path d="M1238.79 2788C1234.89 2788 1231.78 2784.88 1231.78 2780.98V2316.8C1231.78 2312.9 1234.89 2309.78 1238.79 2309.78C1242.69 2309.78 1245.81 2312.9 1245.81 2316.8V2780.98C1245.81 2784.88 1242.69 2788 1238.79 2788Z" fill="#6D72A0"/>
<path d="M1271.25 2334.94H981.187L998.691 2269.67H1271.25C1279.97 2269.67 1287.05 2276.76 1287.05 2285.48V2319.14C1287.05 2327.78 1279.89 2334.94 1271.25 2334.94Z" fill="#FFF59C"/>
<path d="M679.077 2273.5L620.682 1710.95C617.139 1675.73 637.053 1646.89 664.904 1646.89H939.871C967.722 1646.89 993.447 1675.73 996.99 1710.95L1053.4 2273.5H679.077Z" fill="#FFF59C"/>
<path d="M655.053 2273.5L602.965 1710.95C599.705 1675.73 618.06 1646.89 643.785 1646.89H897.491C923.216 1646.89 946.886 1675.73 950.146 1710.95L1009.18 2280.16L655.053 2273.5Z" fill="#F7C469"/>
<path d="M999.329 2269.6H654.132V2297.45C654.132 2318.15 663.486 2334.87 674.967 2334.87H999.329C1004.79 2334.87 1009.18 2328 1009.18 2319.56V2284.91C1009.18 2276.48 1004.79 2269.6 999.329 2269.6Z" fill="#F7C469"/>
<path d="M1372.09 1902.79C1398.1 1906.55 1418.09 1908.96 1425.46 1909.31L1424.68 1938.37C1414.76 1938.44 1396.05 1937.87 1372.38 1939.36C1372.52 1925.96 1372.31 1916.11 1372.09 1902.79Z" fill="#FFC660"/>
<path d="M1206.83 1855.52L1340.84 1875.22C1340.84 1875.22 1375.35 1879.69 1387.4 1880.61C1402.92 1880.89 1396.9 1911.72 1396.76 1928.23C1396.68 1933.76 1392.93 1939.71 1387.4 1939.5C1370.96 1939.07 1233.55 1939.07 1182.17 1939.07C1167.07 1939.07 1152.4 1931.99 1144.25 1919.23C1143.33 1917.74 1142.55 1916.33 1142.13 1915.05C1133.2 1881.25 1156.51 1864.31 1173.52 1858.36C1184.22 1854.67 1195.63 1853.82 1206.83 1855.52Z" fill="#FFC660"/>
<path d="M1674.84 1708.26H1583.7C1582.57 1708.26 1581.93 1707.2 1582.36 1705.92C1582.71 1704.64 1583.92 1703.58 1585.05 1703.58H1676.19C1677.32 1703.58 1677.96 1704.64 1677.53 1705.92C1677.18 1707.2 1675.97 1708.26 1674.84 1708.26Z" fill="#B6D2F2"/>
<path d="M1558.55 1708.26H1493.28C1492.14 1708.26 1491.51 1707.2 1491.93 1705.92C1492.29 1704.64 1493.49 1703.58 1494.62 1703.58H1559.89C1561.03 1703.58 1561.66 1704.64 1561.24 1705.92C1560.89 1707.2 1559.68 1708.26 1558.55 1708.26Z" fill="#B6D2F2"/>
<path d="M1684.76 1672.9H1593.63C1592.49 1672.9 1591.85 1671.83 1592.28 1670.56C1592.63 1669.28 1593.84 1668.22 1594.97 1668.22H1686.11C1687.24 1668.22 1687.88 1669.28 1687.45 1670.56C1687.1 1671.83 1685.9 1672.9 1684.76 1672.9Z" fill="#B6D2F2"/>
<path d="M1568.47 1672.9H1503.2C1502.06 1672.9 1501.43 1671.83 1501.85 1670.56C1502.21 1669.28 1503.41 1668.22 1504.54 1668.22H1569.81C1570.95 1668.22 1571.59 1669.28 1571.16 1670.56C1570.81 1671.83 1569.6 1672.9 1568.47 1672.9Z" fill="#B6D2F2"/>
<path d="M1695.6 1686.15H1625.59C1624.45 1686.15 1623.25 1687.21 1622.89 1688.49C1622.54 1689.76 1623.18 1690.83 1624.24 1690.83H1694.05C1694.61 1689.27 1695.04 1687.71 1695.6 1686.15Z" fill="#B6D2F2"/>
<path d="M1600.64 1690.83H1498.17C1497.03 1690.83 1496.4 1689.76 1496.82 1688.49C1497.17 1687.21 1498.38 1686.15 1499.51 1686.15H1601.99C1603.12 1686.15 1603.76 1687.21 1603.33 1688.49C1602.98 1689.76 1601.78 1690.83 1600.64 1690.83Z" fill="#B6D2F2"/>
<path d="M1881.63 1492.82H1840.1C1839.61 1492.82 1839.32 1492.32 1839.47 1491.76C1839.61 1491.19 1840.18 1490.69 1840.67 1490.69H1882.2C1882.7 1490.69 1882.98 1491.19 1882.84 1491.76C1882.7 1492.32 1882.2 1492.82 1881.63 1492.82Z" fill="#B6D2F2"/>
<path d="M1828.62 1492.82H1798.86C1798.36 1492.82 1798.08 1492.32 1798.22 1491.76C1798.36 1491.19 1798.93 1490.69 1799.43 1490.69H1829.19C1829.69 1490.69 1829.97 1491.19 1829.83 1491.76C1829.69 1492.32 1829.12 1492.82 1828.62 1492.82Z" fill="#B6D2F2"/>
<path d="M1886.17 1476.66H1844.64C1844.14 1476.66 1843.86 1476.17 1844 1475.6C1844.14 1475.03 1844.71 1474.54 1845.21 1474.54H1886.74C1887.23 1474.54 1887.51 1475.03 1887.37 1475.6C1887.23 1476.24 1886.74 1476.66 1886.17 1476.66Z" fill="#B6D2F2"/>
<path d="M1833.16 1476.66H1803.39C1802.9 1476.66 1802.61 1476.17 1802.76 1475.6C1802.9 1475.03 1803.47 1474.54 1803.96 1474.54H1833.73C1834.22 1474.54 1834.51 1475.03 1834.36 1475.6C1834.22 1476.24 1833.65 1476.66 1833.16 1476.66Z" fill="#B6D2F2"/>
<path d="M1891.13 1482.69H1859.17C1858.67 1482.69 1858.1 1483.18 1857.96 1483.75C1857.82 1484.32 1858.1 1484.81 1858.6 1484.81H1890.42C1890.7 1484.17 1890.85 1483.47 1891.13 1482.69Z" fill="#B6D2F2"/>
<path d="M1847.83 1484.88H1801.13C1800.63 1484.88 1800.35 1484.39 1800.49 1483.82C1800.63 1483.25 1801.2 1482.76 1801.69 1482.76H1848.4C1848.89 1482.76 1849.17 1483.25 1849.03 1483.82C1848.89 1484.39 1848.32 1484.88 1847.83 1484.88Z" fill="#B6D2F2"/>
<path d="M1857.18 1605.93H1815.65C1815.16 1605.93 1814.88 1605.43 1815.02 1604.86C1815.16 1604.3 1815.73 1603.8 1816.22 1603.8H1857.75C1858.25 1603.8 1858.53 1604.3 1858.39 1604.86C1858.25 1605.43 1857.68 1605.93 1857.18 1605.93Z" fill="#B6D2F2"/>
<path d="M1804.17 1605.93H1774.41C1773.91 1605.93 1773.63 1605.43 1773.77 1604.86C1773.91 1604.3 1774.48 1603.8 1774.98 1603.8H1804.74C1805.24 1603.8 1805.52 1604.3 1805.38 1604.86C1805.24 1605.43 1804.67 1605.93 1804.17 1605.93Z" fill="#B6D2F2"/>
<path d="M1861.72 1589.77H1820.19C1819.69 1589.77 1819.41 1589.27 1819.55 1588.7C1819.69 1588.14 1820.26 1587.64 1820.76 1587.64H1862.29C1862.78 1587.64 1863.07 1588.14 1862.92 1588.7C1862.78 1589.34 1862.21 1589.77 1861.72 1589.77Z" fill="#B6D2F2"/>
<path d="M1808.71 1589.77H1778.95C1778.45 1589.77 1778.17 1589.27 1778.31 1588.7C1778.45 1588.14 1779.02 1587.64 1779.51 1587.64H1809.28C1809.77 1587.64 1810.06 1588.14 1809.91 1588.7C1809.77 1589.34 1809.21 1589.77 1808.71 1589.77Z" fill="#B6D2F2"/>
<path d="M1866.68 1595.86H1834.72C1834.22 1595.86 1833.66 1596.36 1833.51 1596.93C1833.37 1597.49 1833.66 1597.99 1834.15 1597.99H1865.97C1866.18 1597.28 1866.4 1596.57 1866.68 1595.86Z" fill="#B6D2F2"/>
<path d="M1823.38 1597.99H1776.68C1776.18 1597.99 1775.9 1597.49 1776.04 1596.93C1776.18 1596.36 1776.75 1595.86 1777.24 1595.86H1823.95C1824.44 1595.86 1824.73 1596.36 1824.58 1596.93C1824.44 1597.49 1823.88 1597.99 1823.38 1597.99Z" fill="#B6D2F2"/>
<path d="M1832.59 1631.08H1768.6C1768.1 1631.08 1767.82 1630.59 1767.96 1630.02C1768.1 1629.45 1768.67 1628.96 1769.17 1628.96H1833.16C1833.66 1628.96 1833.94 1629.45 1833.8 1630.02C1833.66 1630.59 1833.09 1631.08 1832.59 1631.08Z" fill="#B6D2F2"/>
<path d="M1855.91 1615H1814.38C1813.88 1615 1813.6 1614.5 1813.74 1613.93C1813.88 1613.37 1814.45 1612.87 1814.95 1612.87H1856.47C1856.97 1612.87 1857.25 1613.37 1857.11 1613.93C1856.97 1614.5 1856.4 1615 1855.91 1615Z" fill="#B6D2F2"/>
<path d="M1802.9 1615H1773.13C1772.64 1615 1772.35 1614.5 1772.5 1613.93C1772.64 1613.37 1773.2 1612.87 1773.7 1612.87H1803.47C1803.96 1612.87 1804.24 1613.37 1804.1 1613.93C1803.96 1614.5 1803.39 1615 1802.9 1615Z" fill="#B6D2F2"/>
<path d="M1860.87 1621.02H1828.91C1828.41 1621.02 1827.84 1621.52 1827.7 1622.08C1827.56 1622.65 1827.84 1623.15 1828.34 1623.15H1860.16C1860.37 1622.44 1860.58 1621.73 1860.87 1621.02Z" fill="#B6D2F2"/>
<path d="M1817.57 1623.15H1770.87C1770.37 1623.15 1770.09 1622.65 1770.23 1622.08C1770.37 1621.52 1770.94 1621.02 1771.43 1621.02H1818.13C1818.63 1621.02 1818.91 1621.52 1818.77 1622.08C1818.63 1622.65 1818.06 1623.15 1817.57 1623.15Z" fill="#B6D2F2"/>
<path d="M1367.13 1514.44H1320.71C1320.15 1514.44 1319.79 1513.87 1320.01 1513.23C1320.22 1512.59 1320.79 1512.03 1321.35 1512.03H1367.77C1368.34 1512.03 1368.69 1512.59 1368.48 1513.23C1368.34 1513.87 1367.7 1514.44 1367.13 1514.44Z" fill="#B6D2F2"/>
<path d="M1307.96 1514.44H1274.72C1274.15 1514.44 1273.8 1513.87 1274.01 1513.23C1274.23 1512.59 1274.79 1512.03 1275.36 1512.03H1308.6C1309.16 1512.03 1309.52 1512.59 1309.3 1513.23C1309.09 1513.87 1308.53 1514.44 1307.96 1514.44Z" fill="#B6D2F2"/>
<path d="M1324.33 1523.58H1272.17C1271.6 1523.58 1271.25 1523.01 1271.46 1522.37C1271.67 1521.73 1272.24 1521.17 1272.81 1521.17H1324.97C1325.53 1521.17 1325.89 1521.73 1325.68 1522.37C1325.46 1523.01 1324.9 1523.58 1324.33 1523.58Z" fill="#B6D2F2"/>
<path d="M1837.48 1570.99H1802.61C1799.28 1570.99 1796.45 1569.71 1794.61 1567.3C1792.76 1564.89 1792.2 1561.56 1793.05 1558.16L1802.05 1524.14C1803.82 1517.48 1810.48 1512.17 1817.21 1512.17H1852.08C1855.41 1512.17 1858.25 1513.44 1860.09 1515.85C1861.93 1518.26 1862.5 1521.59 1861.65 1524.99L1852.65 1559.01C1850.88 1565.74 1844.21 1570.99 1837.48 1570.99ZM1817.21 1515.64C1812.11 1515.64 1806.8 1519.82 1805.45 1524.99L1796.45 1559.01C1795.81 1561.42 1796.17 1563.55 1797.37 1565.18C1798.5 1566.66 1800.35 1567.52 1802.61 1567.52H1837.48C1842.58 1567.52 1847.9 1563.33 1849.25 1558.16L1858.25 1524.14C1858.88 1521.81 1858.53 1519.61 1857.32 1517.98C1856.19 1516.49 1854.35 1515.64 1852.08 1515.64H1817.21Z" fill="#B6D2F2"/>
<path d="M1195.21 1938.08C1195.21 1938.08 1220.79 1917.32 1213.14 1885.22C1182.24 1755.24 1168.99 1671.62 1166.93 1664.82C1147.02 1599.26 1083.94 1732.92 1090.82 1778.56C1099.04 1833.06 1141.7 1916.11 1141.7 1916.11C1148.22 1930.64 1181.18 1943.75 1195.21 1938.08Z" fill="#FFC660"/>
<path d="M1341.34 1747.66C1314.19 1747.66 1290.24 1737.1 1273.8 1718.04C1257.15 1698.62 1250.2 1672.75 1254.45 1645.19C1262.53 1591.96 1310.86 1547.32 1364.44 1543.49C1366.78 1543.28 1369.05 1544.2 1370.61 1545.97C1372.09 1547.67 1372.73 1549.94 1372.31 1552.21L1355.01 1638.52C1354.73 1639.8 1355.09 1641.08 1355.86 1642.07C1356.64 1643.06 1357.85 1643.63 1359.2 1643.63H1449.34C1451.82 1643.63 1454.16 1644.76 1455.72 1646.67C1457.28 1648.66 1457.91 1651.28 1457.28 1653.76C1445.16 1706.49 1394.2 1747.66 1341.34 1747.66ZM1364.94 1547.03C1312.64 1550.72 1265.79 1594.09 1257.93 1645.75C1253.89 1672.26 1260.48 1697.13 1276.49 1715.77C1292.23 1734.05 1315.26 1744.19 1341.34 1744.19C1392.64 1744.19 1442.04 1704.15 1453.8 1653.05C1454.16 1651.64 1453.8 1650.15 1452.88 1649.01C1452.03 1647.88 1450.69 1647.31 1449.27 1647.31H1359.12C1356.79 1647.31 1354.59 1646.25 1353.1 1644.48C1351.61 1642.64 1351.05 1640.3 1351.47 1638.03L1368.76 1551.71C1368.98 1550.58 1368.69 1549.37 1367.91 1548.52C1367.2 1547.53 1366.07 1547.03 1364.94 1547.03Z" fill="#B6D2F2"/>
<path d="M1398.81 1938.72L1419.15 1914.13C1426.66 1904.99 1439.7 1902.58 1450.05 1908.32L1490.58 1931.07C1494.13 1933.05 1492.71 1938.44 1488.67 1938.44L1398.81 1938.72Z" fill="#FF9985"/>
<path d="M1482.36 1617.76H1405.47C1404.9 1617.76 1404.41 1617.48 1404.05 1617.12C1403.7 1616.7 1403.63 1616.13 1403.7 1615.63L1424.32 1526.98C1424.82 1524.85 1425.95 1522.94 1427.58 1521.45L1440.48 1509.69C1442.75 1507.63 1445.65 1506.5 1448.63 1506.5H1507.31C1507.88 1506.5 1508.37 1506.71 1508.73 1507.14C1509.08 1507.56 1509.15 1508.13 1509.08 1508.62L1483.99 1616.41C1483.92 1617.19 1483.21 1617.76 1482.36 1617.76ZM1407.74 1614.22H1480.95L1505.18 1509.97H1448.7C1446.58 1509.97 1444.52 1510.75 1442.89 1512.24L1429.99 1524C1428.86 1524.99 1428.15 1526.27 1427.8 1527.76L1407.74 1614.22Z" fill="#B6D2F2"/>
<path d="M1598.37 1619.53H1521.48C1520.92 1619.53 1520.42 1619.25 1520.07 1618.89C1519.71 1618.47 1519.64 1617.9 1519.71 1617.41L1540.33 1528.75C1540.83 1526.62 1541.96 1524.71 1543.59 1523.22L1556.49 1511.46C1558.76 1509.4 1561.59 1508.27 1564.64 1508.27H1623.32C1623.89 1508.27 1624.38 1508.48 1624.74 1508.91C1625.09 1509.33 1625.16 1509.9 1625.09 1510.4L1600 1618.19C1599.93 1618.97 1599.22 1619.53 1598.37 1619.53ZM1523.75 1615.99H1596.96L1621.19 1511.74H1564.71C1562.59 1511.74 1560.53 1512.52 1558.97 1514.01L1546.07 1525.77C1544.94 1526.77 1544.23 1528.04 1543.88 1529.53L1523.75 1615.99Z" fill="#B6D2F2"/>
<path d="M1710.77 1619.53H1633.88C1633.31 1619.53 1632.82 1619.25 1632.46 1618.89C1632.11 1618.47 1632.04 1617.9 1632.11 1617.41L1652.73 1528.75C1653.23 1526.62 1654.36 1524.71 1655.99 1523.22L1668.89 1511.46C1671.16 1509.4 1674.06 1508.27 1677.04 1508.27H1735.72C1736.28 1508.27 1736.78 1508.48 1737.13 1508.91C1737.49 1509.33 1737.63 1509.9 1737.49 1510.4L1712.4 1618.19C1712.33 1618.97 1711.62 1619.53 1710.77 1619.53ZM1636.15 1615.99H1709.35L1733.59 1511.74H1677.11C1674.98 1511.74 1672.93 1512.52 1671.3 1514.01L1658.4 1525.77C1657.27 1526.77 1656.56 1528.04 1656.2 1529.53L1636.15 1615.99Z" fill="#B6D2F2"/>
<path d="M340.47 2451.45C332.958 2445.99 325.234 2439.61 320.415 2428.42C315.596 2417.22 314.887 2400 320.982 2391.78C325.305 2385.97 331.612 2386.11 336.36 2381.5C351.738 2366.62 342.171 2324.6 343.376 2302.27C344.581 2279.17 354.927 2259.04 368.251 2253.8C385.542 2247 380.794 2236.29 384.338 2206.74C389.653 2162.52 421.543 2147.64 437.914 2159.62C452.867 2170.53 455.205 2208.09 469.166 2222.4C476.253 2229.7 484.97 2228.85 492.836 2232.89C505.592 2239.34 515.797 2259.82 517.356 2281.93C518.278 2295.68 514.805 2326.23 526.923 2334.87C529.9 2337 533.231 2336.86 536.136 2338.98C544.073 2344.72 545.349 2363.22 543.152 2376.83C540.884 2390.43 536.42 2403.54 537.695 2417.79C538.121 2422.61 539.254 2427.35 539.113 2432.1C538.829 2445.92 529.687 2454.99 521.467 2454.99L340.47 2451.45Z" fill="#29BEAC"/>
<path d="M551.372 2495.81C553.286 2478.95 555.058 2462.43 556.829 2446.77H305.178C309.997 2490.78 315.666 2541.03 321.123 2589L551.372 2495.81Z" fill="#7C38E9"/>
<path d="M551.372 2495.81L321.123 2589.07C325.871 2631.03 330.548 2671.14 334.304 2703.88L537.412 2619.12C542.018 2579.22 546.837 2536.35 551.372 2495.81Z" fill="#321FA0"/>
<path d="M334.305 2703.81C335.864 2717.42 337.352 2729.82 338.557 2740.45C341.321 2763.98 361.234 2781.76 384.975 2781.76H477.032C500.773 2781.76 520.687 2764.05 523.451 2740.45C526.923 2710.47 531.955 2666.89 537.483 2619.05L334.305 2703.81Z" fill="#7C38E9"/>
<path d="M2943.59 487.49H2835.09C2796.04 521.223 2771.24 571.114 2771.24 626.745C2771.24 724.472 2847.42 804.34 2943.59 810.293V487.49Z" fill="#F7C469"/>
<path d="M2471.75 1523.36C2470.83 1523.36 2469.91 1523.01 2469.2 1522.3L2464.59 1517.48C2463.24 1516.06 2463.24 1513.8 2464.66 1512.45C2466.08 1511.1 2468.35 1511.1 2469.69 1512.52L2474.3 1517.34C2475.65 1518.76 2475.65 1521.03 2474.23 1522.37C2473.45 1523.01 2472.6 1523.36 2471.75 1523.36ZM2447.44 1498.14C2446.52 1498.14 2445.6 1497.78 2444.89 1497.07L2425.26 1476.59C2423.91 1475.17 2423.91 1472.91 2425.33 1471.56C2426.75 1470.21 2429.02 1470.21 2430.36 1471.63L2449.99 1492.11C2451.34 1493.53 2451.34 1495.8 2449.92 1497.14C2449.21 1497.78 2448.36 1498.14 2447.44 1498.14ZM2408.18 1457.24C2407.26 1457.24 2406.34 1456.89 2405.63 1456.18L2386 1435.7C2384.65 1434.28 2384.65 1432.02 2386.07 1430.67C2387.49 1429.32 2389.75 1429.32 2391.1 1430.74L2410.73 1451.22C2412.08 1452.64 2412.08 1454.91 2410.66 1456.25C2409.95 1456.89 2409.1 1457.24 2408.18 1457.24ZM2368.92 1416.28C2368 1416.28 2367.08 1415.93 2366.37 1415.22L2346.74 1394.74C2345.39 1393.32 2345.39 1391.05 2346.81 1389.71C2348.23 1388.36 2350.49 1388.43 2351.84 1389.78L2371.47 1410.26C2372.82 1411.68 2372.82 1413.94 2371.4 1415.29C2370.69 1416 2369.84 1416.28 2368.92 1416.28ZM1667.68 1398.14C1665.7 1398.14 1664.14 1396.58 1664.14 1394.6V1366.25C1664.14 1364.27 1665.7 1362.71 1667.68 1362.71C1669.67 1362.71 1671.23 1364.27 1671.23 1366.25V1394.6C1671.23 1396.58 1669.67 1398.14 1667.68 1398.14ZM2329.66 1375.39C2328.74 1375.39 2327.82 1375.04 2327.11 1374.33L2312.01 1358.6H2308.47C2306.48 1358.6 2304.93 1357.04 2304.93 1355.05C2304.93 1353.07 2306.48 1351.51 2308.47 1351.51H2313.5C2314.49 1351.51 2315.41 1351.93 2316.05 1352.57L2332.21 1369.37C2333.56 1370.79 2333.56 1373.05 2332.14 1374.4C2331.43 1375.11 2330.58 1375.39 2329.66 1375.39ZM2280.12 1358.6H2251.77C2249.79 1358.6 2248.23 1357.04 2248.23 1355.05C2248.23 1353.07 2249.79 1351.51 2251.77 1351.51H2280.12C2282.11 1351.51 2283.67 1353.07 2283.67 1355.05C2283.67 1357.04 2282.11 1358.6 2280.12 1358.6ZM2223.43 1358.6H2195.08C2193.1 1358.6 2191.54 1357.04 2191.54 1355.05C2191.54 1353.07 2193.1 1351.51 2195.08 1351.51H2223.43C2225.41 1351.51 2226.97 1353.07 2226.97 1355.05C2226.97 1357.04 2225.41 1358.6 2223.43 1358.6ZM2166.73 1358.6H2138.39C2136.4 1358.6 2134.84 1357.04 2134.84 1355.05C2134.84 1353.07 2136.4 1351.51 2138.39 1351.51H2166.73C2168.72 1351.51 2170.28 1353.07 2170.28 1355.05C2170.28 1357.04 2168.72 1358.6 2166.73 1358.6ZM2110.04 1358.6H2081.69C2079.71 1358.6 2078.15 1357.04 2078.15 1355.05C2078.15 1353.07 2079.71 1351.51 2081.69 1351.51H2110.04C2112.02 1351.51 2113.58 1353.07 2113.58 1355.05C2113.58 1357.04 2112.02 1358.6 2110.04 1358.6ZM2053.34 1358.6H2025C2023.01 1358.6 2021.45 1357.04 2021.45 1355.05C2021.45 1353.07 2023.01 1351.51 2025 1351.51H2053.34C2055.33 1351.51 2056.89 1353.07 2056.89 1355.05C2056.89 1357.04 2055.33 1358.6 2053.34 1358.6ZM1996.65 1358.6H1968.3C1966.32 1358.6 1964.76 1357.04 1964.76 1355.05C1964.76 1353.07 1966.32 1351.51 1968.3 1351.51H1996.65C1998.64 1351.51 2000.19 1353.07 2000.19 1355.05C2000.19 1357.04 1998.64 1358.6 1996.65 1358.6ZM1939.96 1358.6H1911.61C1909.63 1358.6 1908.07 1357.04 1908.07 1355.05C1908.07 1353.07 1909.63 1351.51 1911.61 1351.51H1939.96C1941.94 1351.51 1943.5 1353.07 1943.5 1355.05C1943.5 1357.04 1941.94 1358.6 1939.96 1358.6ZM1883.26 1358.6H1854.92C1852.93 1358.6 1851.37 1357.04 1851.37 1355.05C1851.37 1353.07 1852.93 1351.51 1854.92 1351.51H1883.26C1885.25 1351.51 1886.81 1353.07 1886.81 1355.05C1886.81 1357.04 1885.25 1358.6 1883.26 1358.6ZM1826.57 1358.6H1798.22C1796.24 1358.6 1794.68 1357.04 1794.68 1355.05C1794.68 1353.07 1796.24 1351.51 1798.22 1351.51H1826.57C1828.55 1351.51 1830.11 1353.07 1830.11 1355.05C1830.11 1357.04 1828.55 1358.6 1826.57 1358.6ZM1769.87 1358.6H1741.53C1739.54 1358.6 1737.98 1357.04 1737.98 1355.05C1737.98 1353.07 1739.54 1351.51 1741.53 1351.51H1769.87C1771.86 1351.51 1773.42 1353.07 1773.42 1355.05C1773.42 1357.04 1771.86 1358.6 1769.87 1358.6ZM1713.18 1358.6H1684.83C1682.85 1358.6 1681.29 1357.04 1681.29 1355.05C1681.29 1353.07 1682.85 1351.51 1684.83 1351.51H1713.18C1715.16 1351.51 1716.72 1353.07 1716.72 1355.05C1716.72 1357.04 1715.16 1358.6 1713.18 1358.6Z" fill="#29BEAC"/>
<path d="M1649.4 1395.73C1647.48 1395.73 1645.85 1394.17 1645.85 1392.19L1645.71 1363.84C1645.71 1361.86 1647.27 1360.3 1649.26 1360.3C1651.24 1360.3 1652.8 1361.86 1652.8 1363.84L1652.94 1392.19C1652.94 1394.17 1651.38 1395.73 1649.4 1395.73ZM1649.11 1339.04C1647.2 1339.04 1645.57 1337.48 1645.57 1335.49L1645.43 1307.15C1645.43 1305.16 1646.99 1303.6 1648.97 1303.6C1650.96 1303.6 1652.52 1305.16 1652.52 1307.15L1652.66 1335.49C1652.66 1337.48 1651.1 1339.04 1649.11 1339.04ZM1648.76 1282.34C1646.85 1282.34 1645.22 1280.78 1645.22 1278.8L1645.08 1250.45C1645.08 1248.47 1646.63 1246.91 1648.62 1246.91C1650.6 1246.91 1652.16 1248.47 1652.16 1250.45L1652.3 1278.8C1652.37 1280.78 1650.74 1282.34 1648.76 1282.34ZM1648.48 1225.65C1646.56 1225.65 1644.93 1224.09 1644.93 1222.11L1644.79 1193.76C1644.79 1191.77 1646.35 1190.22 1648.34 1190.22C1650.32 1190.22 1651.88 1191.77 1651.88 1193.76L1652.02 1222.11C1652.02 1224.09 1650.46 1225.65 1648.48 1225.65ZM1648.19 1168.95C1646.28 1168.95 1644.65 1167.4 1644.65 1165.41L1644.51 1137.06C1644.51 1135.08 1646.07 1133.52 1648.05 1133.52C1650.04 1133.52 1651.59 1135.08 1651.59 1137.06L1651.74 1165.41C1651.74 1167.4 1650.11 1168.95 1648.19 1168.95ZM1647.84 1112.26C1645.93 1112.26 1644.3 1110.7 1644.3 1108.72L1644.15 1080.37C1644.15 1078.39 1645.71 1076.83 1647.7 1076.83C1649.68 1076.83 1651.24 1078.39 1651.24 1080.37L1651.38 1108.72C1651.38 1110.7 1649.82 1112.26 1647.84 1112.26ZM1728.84 1075.2H1723.95C1721.97 1075.2 1720.41 1073.64 1720.41 1071.65C1720.41 1069.67 1721.97 1068.11 1723.95 1068.11H1728.84C1730.83 1068.11 1732.38 1069.67 1732.38 1071.65C1732.38 1073.64 1730.83 1075.2 1728.84 1075.2ZM1695.6 1075.2H1667.26C1665.27 1075.2 1663.71 1073.64 1663.71 1071.65C1663.71 1069.67 1665.27 1068.11 1667.26 1068.11H1695.6C1697.59 1068.11 1699.15 1069.67 1699.15 1071.65C1699.15 1073.64 1697.59 1075.2 1695.6 1075.2Z" fill="#29BEAC"/>
<path d="M2773.43 1250.24C2773.01 1250.24 2772.58 1250.17 2772.23 1249.96L2611.85 1167.89C2610.58 1167.25 2610.01 1165.62 2610.72 1164.35C2611.36 1163.07 2612.99 1162.51 2614.26 1163.21L2774.64 1245.28C2775.91 1245.92 2776.48 1247.55 2775.77 1248.82C2775.35 1249.67 2774.42 1250.24 2773.43 1250.24Z" fill="#C9782D"/>
<path d="M1628.28 1396.79C1626.3 1396.79 1624.74 1395.24 1624.74 1393.25V1372.49C1624.74 1370.5 1626.3 1368.94 1628.28 1368.94C1630.26 1368.94 1631.82 1370.5 1631.82 1372.49V1393.25C1631.82 1395.16 1630.26 1396.79 1628.28 1396.79ZM1628.28 1347.61C1626.3 1347.61 1624.74 1346.05 1624.74 1344.07V1315.72C1624.74 1313.74 1626.3 1312.18 1628.28 1312.18C1630.26 1312.18 1631.82 1313.74 1631.82 1315.72V1344.07C1631.82 1346.05 1630.26 1347.61 1628.28 1347.61ZM1610 1309.2H1581.65C1579.66 1309.2 1578.11 1307.64 1578.11 1305.66C1578.11 1303.67 1579.66 1302.12 1581.65 1302.12H1610C1611.98 1302.12 1613.54 1303.67 1613.54 1305.66C1613.54 1307.64 1611.98 1309.2 1610 1309.2ZM1553.3 1309.2H1524.95C1522.97 1309.2 1521.41 1307.64 1521.41 1305.66C1521.41 1303.67 1522.97 1302.12 1524.95 1302.12H1553.3C1555.29 1302.12 1556.85 1303.67 1556.85 1305.66C1556.85 1307.64 1555.29 1309.2 1553.3 1309.2ZM1496.61 1309.2H1468.26C1466.28 1309.2 1464.72 1307.64 1464.72 1305.66C1464.72 1303.67 1466.28 1302.12 1468.26 1302.12H1496.61C1498.59 1302.12 1500.15 1303.67 1500.15 1305.66C1500.15 1307.64 1498.59 1309.2 1496.61 1309.2ZM1439.91 1309.2H1411.57C1409.58 1309.2 1408.02 1307.64 1408.02 1305.66C1408.02 1303.67 1409.58 1302.12 1411.57 1302.12H1439.91C1441.9 1302.12 1443.46 1303.67 1443.46 1305.66C1443.46 1307.64 1441.9 1309.2 1439.91 1309.2ZM1383.22 1309.2H1358.84C1356.86 1309.2 1355.3 1307.64 1355.3 1305.66V1301.69C1355.3 1299.71 1356.86 1298.15 1358.84 1298.15C1360.83 1298.15 1362.38 1299.71 1362.38 1301.69V1302.12H1383.22C1385.2 1302.12 1386.76 1303.67 1386.76 1305.66C1386.76 1307.64 1385.2 1309.2 1383.22 1309.2ZM1358.84 1276.96C1356.86 1276.96 1355.3 1275.4 1355.3 1273.41V1245.07C1355.3 1243.08 1356.86 1241.52 1358.84 1241.52C1360.83 1241.52 1362.38 1243.08 1362.38 1245.07V1273.41C1362.38 1275.33 1360.75 1276.96 1358.84 1276.96Z" fill="#29BEAC"/>
<circle cx="2195" cy="2020" r="9" fill="#321FA0"/>
<path d="M306 2788L3095 2788" stroke="#D4CFF6" stroke-width="8" stroke-linecap="round" stroke-linejoin="round"/>
</svg>
