<svg width="4602" height="3334" viewBox="0 0 4602 3334" fill="none" xmlns="http://www.w3.org/2000/svg">
<g clip-path="url(#clip0_45_6875)">
<path d="M4163.85 2897.23C4413.14 2583.4 4525.47 2298.03 4498.33 2090.87C4473.76 1883.7 4309.76 1754.72 4065.34 1753.64C4058.51 1753.61 4051.66 1753.67 4044.78 1753.85C3810.78 1759.34 3646.29 1661.27 3540.26 1479.03C3391.81 1229.4 3089.47 1080.24 2752.5 1080.78C1928.7 1080.78 823.184 2083.09 -0.0513611 3327.53H3765.62C3907.19 3194.74 4042.88 3049.51 4163.85 2897.23Z" fill="#F4F7FB"/>
<path d="M939.923 3247.04L969.037 3260.57L1005.73 3208.97L965.7 3183.99C957.279 3204.53 948.755 3225.5 939.923 3247.04Z" fill="#B3680A"/>
<path d="M1463.49 3231.15C1475.22 3250.46 1487.47 3270.28 1500.33 3290.97L1523.47 3280.47L1510.27 3214.51L1463.49 3231.15Z" fill="#B3680A"/>
<path d="M1488.11 3289.61L1531.01 3266.94L1570.4 3267.2C1577.36 3267.25 1584.34 3266.73 1591.25 3265.66L1601.93 3263.99C1615.4 3262.06 1620.26 3281.16 1608.37 3287.45L1524.9 3331.59C1516.15 3336.21 1505.62 3332.36 1501.87 3323.19L1488.11 3289.61Z" fill="#233862"/>
<path d="M1613.48 3269.53C1616.61 3275.23 1615.56 3283.65 1608.4 3287.43L1524.93 3331.56C1517.64 3335.41 1509.17 3333.33 1504.34 3327.22L1613.48 3269.53Z" fill="#233862"/>
<path d="M935.276 3237.98L979.307 3258.36L1002.95 3289.84C1007.14 3295.41 1011.78 3300.65 1016.82 3305.5L1024.6 3312.97C1034.3 3322.52 1022.05 3337.98 1009.83 3332.31L924.134 3292.64C915.148 3288.48 911.836 3277.77 916.868 3269.22L935.276 3237.98Z" fill="#233862"/>
<path d="M1027.21 3325.53C1024.6 3331.48 1017.25 3335.75 1009.91 3332.33L924.211 3292.67C916.74 3289.2 913.248 3281.19 915.173 3273.67L1027.21 3325.53Z" fill="#233862"/>
<path d="M1468.52 2363.94L1425.19 2377.29C1425.19 2377.29 1332.48 2287.35 1298.36 2209.82L1379.31 2166.04C1413.86 2253.44 1451.48 2263.6 1472.91 2346.43L1468.52 2363.94Z" fill="#F4B545"/>
<path d="M1358 2552.51L1135.3 2552.02C1135.3 2552.02 1115.1 2692.05 1103.77 2812.67C1100.39 2848.74 1089.37 2883.55 1072.63 2915.69C1032.17 2993.33 942.234 3082.75 903.697 3176.85L1018.66 3229.1L1198.25 2954.92C1211.78 2936.26 1222.88 2915.95 1231.3 2894.49C1266.98 2803.65 1358 2552.51 1358 2552.51Z" fill="#1F3A6F"/>
<path d="M1447.96 2882.86L1362.16 2552.41L1139 2551.43C1157.95 2656.7 1242.21 2767.43 1308.81 2881.47C1318.92 2898.83 1327.21 2917.18 1333.22 2936.34C1364.65 3036.18 1349.14 3153.15 1408.96 3251.59L1523.88 3214.51L1452.12 2901.65C1450.96 2895.34 1449.58 2889.07 1447.96 2882.86Z" fill="#1F3A6F"/>
<path d="M1350.14 2423.83C1350.14 2367.71 1374.97 2247.56 1380.54 2179.44C1382 2161.39 1371.01 2144.6 1353.86 2138.78C1273.45 2111.43 1166.32 2111.07 1086.24 2149.71C1083.26 2241.88 1138.1 2438.67 1138.1 2438.67L1131.35 2552.51H1365.65L1349.91 2423.88L1350.14 2423.83Z" fill="#F4B545"/>
<path d="M1274.76 2105.37L1271.01 2074.36L1224.85 2051.74L1221.87 2086.12C1220.26 2104.81 1205.73 2119.8 1187.06 2121.88C1184.36 2122.19 1181.69 2122.52 1179.02 2122.88L1216.02 2155C1247.47 2182.29 1296.64 2166.81 1306.78 2126.45C1302.21 2125.58 1297.61 2124.78 1292.97 2124.06C1283.41 2122.6 1275.94 2115 1274.76 2105.37Z" fill="#F48368"/>
<path d="M1296.77 2080.91C1294.27 2093.36 1279.59 2101.65 1258.43 2087.58L1226.57 2055.39L1220.8 1998.47L1251.66 1958.08L1319.51 1977.72L1296.77 2080.91Z" fill="#F48368"/>
<path d="M1299.49 1955.87L1257.07 1947.5C1227.73 1940.03 1210.37 1958.98 1211.42 1993.77L1214.2 2036.34C1214.94 2047.81 1214.25 2053.74 1223.88 2059.98L1226.7 2055.9C1232.66 2047.27 1234.97 2036.67 1233.17 2026.35C1231.84 2018.52 1234.25 2011.69 1238.59 2010.97C1242.9 2010.23 1247.47 2015.85 1248.78 2023.53C1268.19 2012.49 1264.7 1984.22 1285.52 1983.35L1276.87 2003.94L1311.01 2000.14C1319.59 1999.29 1326.52 1992.79 1327.96 1984.3C1329.6 1970.82 1312.81 1958.49 1299.49 1955.87Z" fill="#1F3A6F"/>
<path d="M1073.97 2435.72L1032.94 2416.44C1032.94 2416.44 1021.28 2197.52 1086.21 2149.71C1137.25 2170.3 1164.57 2226.09 1149.55 2279.06L1109.37 2420.62L1073.97 2435.72Z" fill="#F4B545"/>
<path d="M2289.45 2395.28C2255.33 2362.32 2162.21 2266.84 2138.97 2245.81C2101.69 2212.1 2055.22 2257.83 2086.16 2297.59C2105.11 2321.96 2241.08 2454.36 2301.59 2453.9L2289.45 2395.28Z" fill="#FF9985"/>
<path d="M2284.52 2393.28L2301.57 2453.9C2349.83 2426.43 2374.02 2362.4 2407.16 2295.69L2389.96 2276.34L2284.52 2393.28Z" fill="#FF9985"/>
<path d="M3081.69 1871L3157.2 1937.41C3199.46 1880.75 3217.25 1847.35 3217.25 1847.35L3204.65 1791.41L3147.09 1805.58L3081.69 1871Z" fill="#F4ACC8"/>
<path d="M2978.92 1973.69C2952.55 2010.87 3021.36 2079.01 3057.48 2058.93C3085.73 2030.61 3123.67 1982.4 3157.23 1937.41L3081.72 1871L2978.92 1973.69Z" fill="#F4B545"/>
<path d="M3156.84 1935.72L3081.69 1870.97C3077.33 1867.22 3070.76 1867.71 3067.01 1872.07L3043.65 1899.19C3039.9 1903.55 3040.39 1910.12 3044.75 1913.87L3119.9 1978.62C3124.26 1982.37 3130.83 1981.88 3134.58 1977.52L3157.95 1950.41C3161.69 1946.07 3161.21 1939.49 3156.84 1935.72Z" fill="#F4B545"/>
<path d="M3147.11 1805.55L3164.6 1855.1L3217.28 1847.35C3272.4 1773.18 3283.44 1649.79 3287.91 1595.51L3270.27 1580.08L3147.11 1805.55Z" fill="#F4ACC8"/>
<path d="M3294.04 1556.59L3284.11 1573.56L3287.39 1598.78L3266.03 1621.55L3242.72 1585.55L3263.18 1552.1L3295.81 1534.59C3298.61 1541.78 3297.95 1549.89 3294.04 1556.59Z" fill="#F4ACC8"/>
<path d="M3333.71 925.142C3333.71 975.463 3374.51 1016.28 3424.85 1016.28H3684.6L2268.5 2432.36L1672.68 1832.05L550.834 2953.9C515.25 2989.48 515.25 3047.2 550.834 3082.78C586.419 3118.36 644.134 3118.36 679.718 3082.78L1672.2 2090.3L2268.04 2690.61L3813.48 1145.17V1404.91C3813.48 1455.23 3854.27 1496.05 3904.62 1496.05C3954.97 1496.05 3995.76 1455.26 3995.76 1404.91V834H3424.88C3374.51 834 3333.71 874.822 3333.71 925.142Z" fill="#7C39EB"/>
<path d="M2404.52 2296.34L2428.04 2282.91L2446.68 2277.57L2464.57 2259.26L2454.15 2253.15C2441.98 2246.02 2426.8 2246.48 2415.1 2254.33L2407.57 2259.39L2389.96 2276.34L2404.52 2296.34Z" fill="#FF9985"/>
<path d="M1032.94 2416.41C1031.09 2435.36 1036.28 2451.82 1047.75 2463.58C1062.21 2478.36 1083.52 2474.23 1099.82 2461.52C1153.66 2419.57 1221.54 2341.5 1242.93 2301.14L1229.37 2265.4L1032.94 2416.41Z" fill="#F4B545"/>
<path d="M1242.93 2301.16L1282.41 2295.77L1307.09 2304.35L1307.39 2296.54C1307.75 2287.43 1302.75 2278.96 1294.58 2274.9L1281.49 2268.4L1307.34 2267.84L1310.14 2262.16L1268.37 2255.08C1255.2 2254.59 1242.21 2258.19 1229.35 2265.4L1227.47 2290.77L1242.93 2301.16Z" fill="#F48368"/>
<path d="M1529.65 2232.87L1550.63 2208.89L1557.1 2188.15L1578.1 2168.58L1581.9 2175.41C1591.3 2192.28 1590.17 2213.05 1579.02 2228.81C1577.3 2231.23 1575.38 2233.51 1573.27 2235.59L1549.63 2258.88L1529.65 2232.87Z" fill="#F48368"/>
<path d="M1471.48 2366.55C1494.43 2343.22 1549.6 2258.83 1549.6 2258.83L1529.65 2232.84L1414.07 2348.43C1417.77 2386.43 1443.23 2395.28 1471.48 2366.55Z" fill="#F4B545"/>
<path d="M2691.42 3220.24L2736.76 3247.61L2758.66 3284.58C2762.54 3291.12 2766.93 3297.34 2771.84 3303.22L2779.38 3312.25C2788.75 3323.78 2773.63 3339.06 2761.05 3331.48L2672.81 3278.24C2663.57 3272.67 2661.23 3260.62 2667.73 3251.95L2691.42 3220.24Z" fill="#233862"/>
<path d="M2780.72 3326.2C2777.15 3332.33 2768.7 3336.08 2761.13 3331.51L2672.89 3278.26C2665.19 3273.61 2662.39 3264.5 2665.37 3256.57L2780.72 3326.2Z" fill="#233862"/>
<path d="M3215.74 2495.85L2964.42 2459.52C2935.28 2567.3 2923.29 2664.19 2913.81 2758.96C2908.96 2807.48 2874.02 2872.25 2837.23 2904.3C2757.38 2973.79 2726.32 3069.15 2687.55 3175.87C2678.18 3201.65 2688.6 3230.48 2712.32 3244.27C2736.38 3258.26 2767.06 3252.72 2784.7 3231.18L3014.92 2950.05C3034.25 2927.74 3049.78 2902.42 3060.95 2875.08C3104.18 2769.12 3215.74 2495.85 3215.74 2495.85Z" fill="#1F3A6F"/>
<path d="M3299.49 3064.6L3350.14 3080.06L3380.41 3110.56C3385.78 3115.95 3391.55 3120.91 3397.74 3125.4L3407.27 3132.33C3419.18 3141.21 3408.27 3159.73 3394.2 3155.46L3295.61 3125.43C3285.29 3122.27 3280.08 3111.18 3284.24 3101.19L3299.49 3064.6Z" fill="#233862"/>
<path d="M3411.96 3145.48C3410.01 3152.31 3402.72 3158.01 3394.27 3155.44L3295.69 3125.4C3287.09 3122.78 3282.13 3114.64 3283.08 3106.22L3411.96 3145.48Z" fill="#233862"/>
<path d="M3496.66 2578.65C3391.53 2533.51 3120.31 2417.03 3120.31 2417.03L3079.43 2667.63C3183.67 2697.85 3277.92 2711.66 3369.96 2722.7C3311.09 2803.06 3317.92 2881.27 3284.95 3013.74C3277.25 3044.65 3295.74 3076.05 3326.42 3084.58C3355.17 3092.56 3385.37 3077.77 3396.69 3050.17L3537.25 2707.58C3554.09 2663.55 3547.62 2605.25 3496.66 2578.65Z" fill="#1F3A6F"/>
<path d="M3038.56 1975.98C2959.18 1968.81 2876.41 1987.81 2807.47 2038.65C2792.86 2049.4 2786.42 2068.12 2790.91 2085.68C2817.92 2191.33 2883.49 2442.16 2906.11 2528.71C2910.42 2545.19 2927.42 2554.85 2943.8 2550.15L3233.22 2467.38C3250.17 2462.52 3259.43 2444.32 3253.38 2427.76C3221.82 2341.68 3130.42 2097.54 3072.73 1998.01C3065.55 1985.6 3052.86 1977.26 3038.56 1975.98Z" fill="#F4B545"/>
<path d="M2980.13 1975.51C2940.49 1978.47 2901.03 1988.2 2863.88 2005.35C2879.92 2022.68 2929.01 2036.39 2959.49 2027.68C2979.2 2022.06 2992.71 2009.35 2996.02 1993.64C2998.1 1983.78 2990.17 1974.77 2980.13 1975.51Z" fill="#F4ACC8"/>
<path d="M2953.35 1928.38L2980.9 1995.64L2895.84 2006.17L2896.46 1919.57L2953.35 1928.38Z" fill="#F4ACC8"/>
<path d="M2978.56 1938.31C2981.36 1951.56 2970.5 1965.89 2943.83 1961.03L2895.97 1948.33L2869.32 1889.61L2882.49 1837.03L2957.25 1827.61L2978.56 1938.31Z" fill="#F4ACC8"/>
<path d="M2987.65 1841.45L2971.09 1799.39L2957.79 1818.42L2882.49 1824.89C2850.71 1830.53 2842.13 1856.54 2858.46 1889.92L2879.85 1930.07C2885.21 1940.14 2886.14 1946.07 2895.99 1948.33L2899.79 1918.36C2897.43 1916.85 2895.07 1914.54 2893.14 1911.56C2888.63 1904.6 2888.11 1896.9 2892.04 1894.36C2895.94 1891.82 2902.8 1895.39 2907.32 1902.34C2909.47 1905.66 2910.68 1909.12 2910.96 1912.13C2910.99 1912.13 2918.46 1955.34 2918.46 1955.34L2936.1 1963.65C2964.72 1975.57 2980.38 1962.22 2980.46 1946.71L2974.53 1917.18L2929.22 1925.73L2914.84 1872.38L2896.05 1866.66L2976.76 1861.03C2985.6 1859.19 2990.73 1849.92 2987.65 1841.45Z" fill="#1F3A6F"/>
<path d="M2696.07 2330.97L2736.94 2356.85L2776.41 2345.58L2827.16 2240.73L2735.46 2197.98C2713.35 2267.5 2696.07 2330.97 2696.07 2330.97Z" fill="#F4ACC8"/>
<path d="M2793.22 2056.57C2776.43 2091.38 2751.99 2145.99 2735.46 2197.98L2827.16 2240.73L2890.22 2110.48C2902.9 2066.71 2820.74 2025.73 2793.22 2056.57Z" fill="#F4B545"/>
<path d="M2697.07 2593.36L2706.73 2603.22L2705.93 2626.89L2720.69 2645.35L2725.55 2676.18L2682.82 2672.51L2668.99 2635.8L2671.01 2603.55L2697.07 2593.36Z" fill="#F4ACC8"/>
<path d="M2776.41 2345.58L2745.49 2311.15L2696.07 2330.95C2659.72 2415.9 2662.72 2549.71 2671.01 2603.53L2706.73 2603.19L2776.41 2345.58Z" fill="#F4ACC8"/>
<path d="M2825.29 2240.03L2734.22 2200.75C2728.93 2198.47 2726.5 2192.33 2728.78 2187.07L2742.95 2154.21C2745.24 2148.92 2751.37 2146.48 2756.64 2148.76L2847.7 2188.04C2852.99 2190.33 2855.43 2196.46 2853.14 2201.73L2838.97 2234.59C2836.71 2239.88 2830.58 2242.32 2825.29 2240.03Z" fill="#F4B545"/>
<path d="M2171.45 2069.64L2102.36 2088.15L2096.35 2148.2L2092.63 2252.23L2162.41 2270.46C2203.67 2204.14 2224.34 2087.79 2171.45 2069.64Z" fill="#1F3A6F"/>
<path d="M2213.89 2332.92C2213.89 2298.98 2161.39 2262.09 2149.09 2235.28C2119.13 2227.81 2095.82 2228.66 2063.9 2239.78C2038.54 2248.61 2023.13 2273.31 2026.52 2301.01C2032.25 2347.84 2048.6 2391.77 2051.76 2435.39H2209.32C2209.32 2393.31 2213.89 2372.46 2213.89 2332.92Z" fill="#F4B545"/>
<path d="M1988.78 2567.07C1967.21 2645.66 1971.48 2749.33 1972.61 2841.01C1972.94 2867.58 1963.08 2893.36 1944.65 2912.49C1876.23 2983.5 1823.16 3069.17 1759.13 3157.7L1774.92 3173.92L2039.36 2958.54C2056.35 2944.71 2068.45 2925.78 2073.89 2904.55L2144.21 2630.1L1988.78 2567.07Z" fill="#FF9985"/>
<path d="M2281.16 2931.97L2216.3 2559.01C2216.3 2559.01 2209.83 2486.17 2209.29 2435.44H2051.73C2048.96 2476.46 1975.46 2515.49 1990.01 2601.81C1995.12 2632.07 2099.28 2781.83 2155.38 2879.34C2173.07 2910.1 2185.96 2943.24 2195.15 2977.49C2222.57 3079.49 2267.73 3174.77 2327.37 3292.49L2349.83 3289.64L2281.16 2931.97Z" fill="#FF9985"/>
<path d="M1728.86 3166.43L1746.29 3153.97C1752.73 3149.38 1761.49 3149.76 1767.52 3154.92L1778.51 3164.35C1785.08 3169.97 1786.44 3179.6 1781.72 3186.84C1782.44 3195.46 1785.65 3203.73 1791.17 3210.38L1791.53 3210.79C1794.66 3214.54 1798.43 3217.7 1802.67 3220.14L1819.08 3229.51C1829.76 3238.6 1819.82 3255.28 1807.03 3250.3L1755.04 3230.1C1748.86 3227.68 1743.59 3223.37 1740.03 3217.77L1722.77 3190.69C1717.41 3182.34 1720.23 3171.25 1728.86 3166.43Z" fill="#233862"/>
<path d="M1740 3217.75L1722.75 3190.66C1718.33 3183.76 1719.59 3175 1725.03 3169.43L1756.02 3216L1823.06 3242.22C1821.23 3248.45 1814.66 3253.2 1807.03 3250.25L1755.04 3230.05C1748.83 3227.68 1743.57 3223.37 1740 3217.75Z" fill="#233862"/>
<path d="M2316.07 3315.34L2314.94 3293.92C2314.53 3286.02 2319.56 3278.83 2327.14 3276.54L2340.98 3272.36C2349.24 3269.84 2358.1 3273.87 2361.67 3281.75C2369.32 3285.78 2378.02 3287.5 2386.6 3286.45L2387.14 3286.37C2391.99 3285.76 2396.69 3284.27 2401 3282.01L2417.71 3273.23C2431.12 3269.1 2439.85 3286.45 2428.78 3294.56L2383.77 3327.53C2378.41 3331.46 2371.96 3333.56 2365.31 3333.56H2333.2C2323.31 3333.54 2315.48 3325.19 2316.07 3315.34Z" fill="#233862"/>
<path d="M2365.34 3333.54H2333.22C2325.03 3333.54 2318.31 3327.79 2316.56 3320.19L2372.5 3319.11L2430.65 3276.7C2434.94 3281.6 2435.4 3289.69 2428.81 3294.51L2383.8 3327.48C2378.43 3331.43 2371.96 3333.54 2365.34 3333.54Z" fill="#233862"/>
<path d="M2223.8 2559.01C2223.8 2559.01 2209.86 2486.17 2209.32 2435.44H2051.76C2049.83 2463.83 1989.65 2509.94 1978.74 2573.62C1966.96 2642.32 1939.38 2763.19 1852.5 2837.11C1991.76 2947.48 2090.94 2837.11 2265.08 2837.11L2223.8 2559.01Z" fill="#1F3A6F"/>
<path d="M2147.32 2186.45L2151.91 2240.55L2090.91 2233.59L2105.29 2166.84L2147.32 2186.45Z" fill="#FF9985"/>
<path d="M2153.02 2189.33C2140.77 2188.76 2126.83 2182.24 2118.31 2177.57C2113.02 2174.67 2108.93 2170.1 2106.68 2164.5C2097.92 2142.75 2079.44 2085.09 2123.83 2073.1C2133.66 2070.46 2147.5 2074.18 2159.38 2078.88C2174.61 2084.91 2184.11 2100.11 2183.11 2116.46C2181.98 2135.03 2178.97 2153.82 2174.51 2172.79C2172.17 2182.65 2163.16 2189.82 2153.02 2189.33Z" fill="#FF9985"/>
<path d="M2217.1 2051.07C2208.09 2059.14 2198.15 2063.73 2186.21 2060.91L2128.34 2047.43C2102.62 2041.14 2054.22 2037.72 2054.22 2106.07C2054.22 2139.16 2015.07 2126.55 1988.11 2223.58C2009.19 2246.12 2095.33 2262.6 2123.65 2197.44C2143.49 2151.84 2118.25 2120.91 2144.06 2098.34C2178.97 2098.31 2217.1 2100.78 2217.1 2051.07Z" fill="#1F3A6F"/>
<path d="M2115.56 2286.89C2095.84 2240.65 2022.8 2250.74 2034.25 2299.8C2041.26 2329.87 2146.68 2553.69 2194.07 2537.31L2209.99 2492.49C2194.92 2453.77 2127.86 2315.72 2115.56 2286.89Z" fill="#FF9985"/>
<path d="M2192.09 2481.37L2175.64 2534.1C2217.43 2555.98 2280.03 2567.43 2353.2 2581.21L2368.01 2554.77L2192.09 2481.37Z" fill="#FF9985"/>
<path d="M2359.92 2554.39L2386.8 2555.67L2420.8 2537.85C2424.03 2552.43 2417.1 2579.67 2381.03 2584.65L2353.22 2581.24L2359.92 2554.39Z" fill="#FF9985"/>
<path d="M881.703 1827.69H469.418C450.96 1827.69 436 1812.73 436 1794.27V1381.96C436 1363.5 450.96 1348.54 469.418 1348.54H881.734C900.192 1348.54 915.152 1363.5 915.152 1381.96V1794.27C915.12 1812.73 900.16 1827.69 881.703 1827.69Z" fill="#7C39EB"/>
<path d="M605.243 1532.33H529.788V1716.1H605.243V1532.33Z" fill="#F4F7FB"/>
<path d="M713.303 1604.54H637.848V1716.1H713.303V1604.54Z" fill="#F4F7FB"/>
<path d="M821.332 1460.13H745.877V1716.1H821.332V1460.13Z" fill="#F4F7FB"/>
<path d="M4450.1 2824.54H4167.88C4155.24 2824.54 4145 2814.3 4145 2801.66V2519.41C4145 2506.78 4155.24 2496.54 4167.88 2496.54H4450.12C4462.76 2496.54 4473 2506.78 4473 2519.41V2801.66C4472.98 2814.3 4462.74 2824.54 4450.1 2824.54Z" fill="#7C39EB"/>
<path d="M4357.12 2622.35H4408.78V2748.15H4357.12V2622.35Z" fill="#F4F7FB"/>
<path d="M4283.15 2671.78H4334.8V2748.15H4283.15V2671.78Z" fill="#F4F7FB"/>
<path d="M4209.2 2572.93H4260.85V2748.15H4209.2V2572.93Z" fill="#F4F7FB"/>
<path d="M2374.71 1874.05H2176.15C2148.22 1874.05 2125.49 1851.33 2125.49 1823.4V1624.83C2125.49 1596.9 2148.22 1574.18 2176.15 1574.18H2374.71C2402.64 1574.18 2425.37 1596.9 2425.37 1624.83V1823.4C2425.37 1851.33 2402.64 1874.05 2374.71 1874.05ZM2176.15 1581.88C2152.45 1581.88 2133.2 1601.16 2133.2 1624.83V1823.4C2133.2 1847.09 2152.48 1866.35 2176.15 1866.35H2374.71C2398.41 1866.35 2417.66 1847.07 2417.66 1823.4V1624.83C2417.66 1601.14 2398.38 1581.88 2374.71 1581.88H2176.15Z" fill="#F4B545"/>
<path d="M2179.36 1783.06L2218.36 1744.06C2195.82 1705.6 2209.01 1653.1 2255.43 1631.82C2264.36 1627.74 2274.17 1625.91 2284.01 1625.91C2301.57 1625.91 2319.05 1630.82 2333.07 1641.37C2372.17 1670.71 2375.04 1726.71 2341.75 1760.01C2326.93 1774.82 2307.19 1782.99 2286.19 1782.99C2272.25 1782.99 2258.54 1779.24 2246.6 1772.28L2207.6 1811.28C2199.79 1819.08 2187.16 1819.08 2179.36 1811.28C2171.55 1803.5 2171.55 1790.87 2179.36 1783.06ZM2286.19 1665.84C2275.84 1665.84 2266.14 1669.84 2258.87 1677.13C2243.8 1692.2 2243.8 1716.7 2258.87 1731.77C2266.16 1739.06 2275.84 1743.06 2286.19 1743.06C2296.53 1743.06 2306.24 1739.06 2313.5 1731.77C2320.8 1724.47 2324.8 1714.77 2324.8 1704.45C2324.8 1694.1 2320.8 1684.4 2313.5 1677.13C2306.24 1669.87 2296.53 1665.84 2286.19 1665.84Z" fill="#F4B545"/>
<path d="M1348.83 1608.07H1533.25C1559.31 1608.07 1580.44 1629.2 1580.44 1655.26V1744.73C1580.44 1770.79 1559.31 1791.92 1533.25 1791.92H1459.82L1408.11 1847.79L1407.96 1791.92H1348.83C1322.77 1791.92 1301.64 1770.79 1301.64 1744.73V1655.26C1301.64 1629.2 1322.77 1608.07 1348.83 1608.07Z" fill="#29BEAC"/>
<path d="M1481.03 1702.01C1481.03 1712.23 1489.32 1720.52 1499.54 1720.52C1509.76 1720.52 1518.05 1712.23 1518.05 1702.01C1518.05 1691.79 1509.76 1683.5 1499.54 1683.5C1489.32 1683.5 1481.03 1691.79 1481.03 1702.01ZM1422.52 1702.01C1422.52 1712.23 1430.81 1720.52 1441.03 1720.52C1451.25 1720.52 1459.54 1712.23 1459.54 1702.01C1459.54 1691.79 1451.25 1683.5 1441.03 1683.5C1430.81 1683.5 1422.52 1691.79 1422.52 1702.01ZM1363.98 1702.01C1363.98 1712.23 1372.27 1720.52 1382.49 1720.52C1392.71 1720.52 1401 1712.23 1401 1702.01C1401 1691.79 1392.71 1683.5 1382.49 1683.5C1372.27 1683.5 1363.98 1691.79 1363.98 1702.01Z" fill="white"/>
<path d="M4489.56 1820.13C4514.65 1796.41 4530.31 1762.83 4530.31 1725.57C4530.31 1652.38 4469.87 1593.3 4396.16 1595.51C4328.77 1597.54 4273.36 1651.97 4270.2 1719.31C4268.23 1761.52 4286.35 1799.54 4315.85 1824.65C4326.28 1833.53 4334.54 1844.44 4341.27 1856.38C4342.55 1858.64 4344.25 1860.85 4346.33 1889.99H4454.03C4455.88 1861.08 4457.45 1859.13 4458.68 1857.1C4467.02 1843.29 4477.83 1831.22 4489.56 1820.13Z" fill="#F4B545"/>
<path d="M4400.17 1539.03C4398.04 1539.03 4396.32 1537.31 4396.32 1535.18V1481.39C4396.32 1479.26 4398.04 1477.54 4400.17 1477.54C4402.3 1477.54 4404.02 1479.26 4404.02 1481.39V1535.18C4404.02 1537.31 4402.3 1539.03 4400.17 1539.03Z" fill="#F4B545"/>
<path d="M4303.92 1564.83C4302.58 1564.83 4301.3 1564.14 4300.58 1562.9L4273.67 1516.31C4272.59 1514.46 4273.23 1512.12 4275.08 1511.04C4276.91 1509.99 4279.27 1510.61 4280.35 1512.45L4307.25 1559.05C4308.33 1560.9 4307.69 1563.24 4305.84 1564.32C4305.22 1564.68 4304.56 1564.83 4303.92 1564.83Z" fill="#F4B545"/>
<path d="M4233.44 1635.3C4232.8 1635.3 4232.13 1635.15 4231.51 1634.79L4184.94 1607.88C4183.09 1606.83 4182.48 1604.47 4183.53 1602.62C4184.58 1600.77 4186.94 1600.16 4188.79 1601.21L4235.37 1628.12C4237.21 1629.17 4237.83 1631.53 4236.78 1633.38C4236.06 1634.61 4234.75 1635.3 4233.44 1635.3Z" fill="#F4B545"/>
<path d="M4207.64 1731.56H4153.85C4151.72 1731.56 4150 1729.84 4150 1727.71C4150 1725.57 4151.72 1723.85 4153.85 1723.85H4207.64C4209.77 1723.85 4211.49 1725.57 4211.49 1727.71C4211.49 1729.84 4209.77 1731.56 4207.64 1731.56Z" fill="#F4B545"/>
<path d="M4186.84 1854.74C4185.51 1854.74 4184.22 1854.05 4183.5 1852.81C4182.43 1850.97 4183.07 1848.63 4184.92 1847.55L4231.49 1820.64C4233.34 1819.59 4235.67 1820.21 4236.75 1822.06C4237.83 1823.91 4237.19 1826.24 4235.34 1827.32L4188.77 1854.23C4188.18 1854.56 4187.51 1854.74 4186.84 1854.74Z" fill="#F4B545"/>
<path d="M4613.49 1854.74C4612.85 1854.74 4612.18 1854.59 4611.57 1854.23L4564.97 1827.32C4563.12 1826.27 4562.5 1823.91 4563.56 1822.06C4564.61 1820.21 4566.97 1819.59 4568.82 1820.64L4615.42 1847.55C4617.27 1848.6 4617.88 1850.97 4616.83 1852.81C4616.14 1854.05 4614.83 1854.74 4613.49 1854.74Z" fill="#F4B545"/>
<path d="M4646.51 1731.56H4592.72C4590.59 1731.56 4588.87 1729.84 4588.87 1727.71C4588.87 1725.57 4590.59 1723.85 4592.72 1723.85H4646.51C4648.64 1723.85 4650.36 1725.57 4650.36 1727.71C4650.36 1729.84 4648.64 1731.56 4646.51 1731.56Z" fill="#F4B545"/>
<path d="M4566.92 1635.3C4565.58 1635.3 4564.3 1634.61 4563.58 1633.38C4562.5 1631.53 4563.15 1629.19 4564.99 1628.12L4611.59 1601.21C4613.41 1600.13 4615.78 1600.77 4616.86 1602.62C4617.93 1604.47 4617.29 1606.81 4615.44 1607.88L4568.84 1634.79C4568.23 1635.12 4567.56 1635.3 4566.92 1635.3Z" fill="#F4B545"/>
<path d="M4496.44 1564.83C4495.8 1564.83 4495.13 1564.68 4494.52 1564.32C4492.67 1563.26 4492.05 1560.9 4493.11 1559.05L4520.01 1512.45C4521.07 1510.61 4523.43 1509.99 4525.28 1511.04C4527.12 1512.09 4527.74 1514.46 4526.69 1516.31L4499.78 1562.9C4499.06 1564.14 4497.75 1564.83 4496.44 1564.83Z" fill="#F4B545"/>
<path d="M4387.59 1737.49H4362.89C4347.15 1737.49 4334.34 1724.68 4334.34 1708.94C4334.34 1693.2 4347.15 1680.39 4362.89 1680.39C4378.63 1680.39 4391.44 1693.2 4391.44 1708.94V1733.64C4391.44 1735.74 4389.72 1737.49 4387.59 1737.49ZM4362.91 1688.09C4351.41 1688.09 4342.07 1697.44 4342.07 1708.94C4342.07 1720.44 4351.41 1729.78 4362.91 1729.78H4383.76V1708.94C4383.74 1697.44 4374.39 1688.09 4362.91 1688.09Z" fill="white"/>
<path d="M4437.45 1737.49H4412.75C4410.62 1737.49 4408.9 1735.77 4408.9 1733.64V1708.94C4408.9 1693.2 4421.71 1680.39 4437.45 1680.39C4453.18 1680.39 4465.99 1693.2 4465.99 1708.94C4465.99 1724.68 4453.18 1737.49 4437.45 1737.49ZM4416.6 1729.78H4437.45C4448.95 1729.78 4458.29 1720.44 4458.29 1708.94C4458.29 1697.44 4448.95 1688.09 4437.45 1688.09C4425.94 1688.09 4416.6 1697.44 4416.6 1708.94V1729.78Z" fill="white"/>
<path d="M4412.75 1893.84C4410.62 1893.84 4408.9 1892.12 4408.9 1889.99V1737.46H4391.44V1889.99C4391.44 1892.12 4389.72 1893.84 4387.59 1893.84C4385.46 1893.84 4383.74 1892.12 4383.74 1889.99V1733.61C4383.74 1731.48 4385.46 1729.76 4387.59 1729.76H4412.75C4414.88 1729.76 4416.6 1731.48 4416.6 1733.61V1889.99C4416.6 1892.12 4414.88 1893.84 4412.75 1893.84Z" fill="white"/>
<path d="M4463.66 1889.99H4336.67C4331.28 1889.99 4327.02 1894.53 4327.38 1899.9L4329.85 1963.7C4330.15 1972.84 4335.62 1983.08 4343.32 1995.15C4347.3 2001.39 4350.1 2009.5 4359.73 2015.07C4363.48 2017.23 4367.69 2018.9 4372.08 2020.34C4376.08 2032.04 4387.07 2040.52 4400.14 2040.52C4413.21 2040.52 4424.2 2032.04 4428.2 2020.34C4432.59 2018.9 4436.8 2017.23 4440.55 2015.07C4450.21 2009.5 4453 2001.39 4456.96 1995.15C4464.43 1983.44 4469.74 1973.46 4470.33 1964.52C4470.44 1964.52 4472.93 1899.9 4472.93 1899.9C4473.31 1894.53 4469.05 1889.99 4463.66 1889.99Z" fill="white"/>
<path d="M4400.17 2044.37C4386.51 2044.37 4374.29 2036.02 4369.13 2023.39C4364.58 2021.83 4360.96 2020.23 4357.8 2018.41C4349.28 2013.48 4345.48 2006.7 4342.4 2001.24C4341.63 1999.85 4340.86 1998.51 4340.06 1997.23C4331.87 1984.37 4326.33 1973.79 4325.99 1963.85L4323.5 1900.08C4323.27 1896.56 4324.56 1892.97 4327.05 1890.32C4329.54 1887.68 4333.03 1886.16 4336.65 1886.16H4463.63C4467.25 1886.16 4470.74 1887.68 4473.23 1890.32C4475.73 1892.97 4477.01 1896.56 4476.78 1900.16L4475.52 1932.38C4474.78 1951.63 4474.42 1960.59 4473.67 1964.75L4474.18 1964.78C4473.54 1974.53 4468.15 1984.8 4460.22 1997.23C4459.42 1998.49 4458.65 1999.85 4457.88 2001.24C4454.8 2006.7 4451 2013.51 4442.48 2018.41C4439.32 2020.23 4435.67 2021.83 4431.16 2023.39C4426.07 2036.02 4413.82 2044.37 4400.17 2044.37ZM4336.7 1893.84C4335.19 1893.84 4333.75 1894.46 4332.7 1895.56C4331.64 1896.67 4331.13 1898.13 4331.23 1899.64L4333.72 1963.52C4334 1971.74 4339.06 1981.26 4346.58 1993.05C4347.46 1994.43 4348.31 1995.9 4349.15 1997.41C4352.03 2002.54 4355.01 2007.83 4361.68 2011.68C4364.76 2013.46 4368.43 2015.02 4373.31 2016.61C4374.47 2017 4375.37 2017.87 4375.75 2019.03C4379.37 2029.55 4389.18 2036.61 4400.19 2036.61C4411.21 2036.61 4421.01 2029.55 4424.63 2019.03C4425.02 2017.87 4425.92 2017 4427.07 2016.61C4431.93 2015.02 4435.62 2013.46 4438.7 2011.68C4445.38 2007.83 4448.36 2002.52 4451.23 1997.41C4452.08 1995.9 4452.9 1994.43 4453.8 1993.05C4460.12 1983.16 4466.02 1972.81 4466.56 1964.24C4466.74 1961.54 4468.2 1924.37 4469.15 1899.72C4469.26 1898.1 4468.74 1896.64 4467.69 1895.54C4466.64 1894.43 4465.22 1893.82 4463.71 1893.82H4336.7V1893.84Z" fill="#F4B545"/>
<path d="M4359.14 1938.72C4357.5 1938.72 4355.96 1937.64 4355.44 1935.97C4354.83 1933.94 4355.98 1931.79 4358.01 1931.17L4440.09 1906.37C4442.12 1905.75 4444.27 1906.91 4444.89 1908.94C4445.51 1910.97 4444.35 1913.12 4442.32 1913.74L4360.24 1938.54C4359.88 1938.67 4359.5 1938.72 4359.14 1938.72Z" fill="#F4B545"/>
<path d="M4359.14 1963.52C4357.5 1963.52 4355.96 1962.44 4355.44 1960.77C4354.83 1958.74 4355.98 1956.59 4358.01 1955.97L4440.09 1931.17C4442.12 1930.56 4444.27 1931.71 4444.89 1933.74C4445.51 1935.77 4444.35 1937.92 4442.32 1938.54L4360.24 1963.34C4359.88 1963.47 4359.5 1963.52 4359.14 1963.52Z" fill="#F4B545"/>
<path d="M4359.14 1988.32C4357.5 1988.32 4355.96 1987.24 4355.44 1985.57C4354.83 1983.55 4355.98 1981.39 4358.01 1980.77L4440.09 1955.97C4442.12 1955.36 4444.27 1956.51 4444.89 1958.54C4445.51 1960.57 4444.35 1962.72 4442.32 1963.34L4360.24 1988.14C4359.88 1988.27 4359.5 1988.32 4359.14 1988.32Z" fill="#F4B545"/>
<path d="M2972.86 1112.11C2972.55 1145.13 2962.45 1177.32 2943.85 1204.61C2925.25 1231.9 2898.97 1253.05 2868.34 1265.41C2837.72 1277.77 2804.11 1280.76 2771.78 1274.02C2739.45 1267.28 2709.85 1251.11 2686.71 1227.55C2663.57 1203.98 2647.94 1174.09 2641.79 1141.64C2635.63 1109.19 2639.24 1075.65 2652.15 1045.26C2665.06 1014.86 2686.69 988.971 2714.32 970.867C2741.94 952.763 2774.3 943.255 2807.33 943.545C2829.27 943.725 2850.96 948.23 2871.16 956.802C2891.36 965.374 2909.67 977.846 2925.05 993.502C2940.42 1009.16 2952.56 1027.69 2960.76 1048.04C2968.96 1068.4 2973.07 1090.17 2972.86 1112.11Z" fill="#29BEAC"/>
<path d="M2743.51 1101.9L2791.88 1149.72L2868.39 1062.36" stroke="white" stroke-width="12" stroke-linecap="round" stroke-linejoin="round"/>
<path d="M3690.74 2132.77H3423.26C3417.04 2132.77 3412 2123.86 3412 2112.88V1981.43C3412 1970.44 3417.04 1961.54 3423.26 1961.54H3690.74C3696.96 1961.54 3702 1970.44 3702 1981.43V2112.88C3702 2123.86 3696.96 2132.77 3690.74 2132.77Z" fill="#29BEAC"/>
<path d="M3455.24 2028.11H3645.18" stroke="white" stroke-width="12" stroke-miterlimit="10"/>
<path d="M3455.24 2066.31H3511.13" stroke="white" stroke-width="12" stroke-miterlimit="10"/>
<path d="M3446.5 2110.01V2187.47L3502.35 2110.01H3446.5Z" fill="#29BEAC"/>
</g>
<defs>
<clipPath id="clip0_45_6875">
<rect width="4602" height="3334" fill="white"/>
</clipPath>
</defs>
</svg>
