<svg width="3821" height="2800" viewBox="0 0 3821 2800" fill="none" xmlns="http://www.w3.org/2000/svg">
<g clip-path="url(#clip0_46_7048)">
<path d="M3655.76 2410.66C3655.76 2417.41 3654.77 2424.15 3652.82 2430.81C3648.66 2445.16 3639.96 2459.24 3627.15 2473.05C3594.69 2508 3535.47 2540.87 3454.21 2570.75C3445.11 2574.1 3435.74 2577.45 3426.1 2580.66C3409.44 2586.32 3392.01 2591.84 3373.81 2597.23C3369.33 2598.59 3364.8 2599.9 3360.18 2601.21C3354.66 2602.79 3349.04 2604.38 3343.38 2605.92C3340.94 2606.6 3338.49 2607.28 3336 2607.96C3324.36 2611.13 3312.46 2614.25 3300.28 2617.29C3021.68 2687.51 2603.91 2732.1 2136.89 2732.1C2078.94 2732.1 2021.76 2731.42 1965.49 2730.06C1207.33 2712.04 618.02 2575.91 618.02 2410.67C618.02 2362.18 668.86 2316.23 759.68 2274.99C710.11 2164.35 681.41 2042.93 681.41 1912.68V1907.47C681.77 1842.01 650.99 1780.8 599.06 1740.96C494.75 1660.92 427.89 1537.42 427.89 1398.84C427.89 1157.54 630.57 961.97 880.61 961.97C882.74 961.97 884.87 961.97 887.04 962.02C1009.41 963.65 1128.2 926.3 1231.38 860.52C1270 835.89 1315.86 821.63 1365.02 821.63C1452.49 821.63 1529.4 866.77 1573.81 934.99C1581.6 946.99 1594.95 954.09 1609.21 953.55H1609.66C1621.7 953.1 1632.97 947.3 1640.17 937.61C1815.1 702.38 2095.16 550 2410.79 550C2694.79 550 2949.95 673.37 3125.69 869.43C3181.1 931.25 3239.91 989.92 3302.89 1044.01C3507.82 1220.01 3637.66 1480.98 3637.66 1772.34C3637.66 1983.76 3585.87 2149.81 3517.87 2276.71C3590.44 2310.17 3636.71 2346.65 3650.97 2385.09C3654.17 2393.51 3655.76 2402.06 3655.76 2410.66Z" fill="#ECF3FE"/>
<path d="M2377.54 614.13C2377.41 614.13 2377.28 614.13 2377.16 614.13C2191.67 619.55 2044.82 686.21 1954.3 741.19C1856.11 800.82 1802.43 858.49 1800.19 860.92C1795.36 866.16 1795.69 874.32 1800.93 879.15C1803.41 881.44 1806.55 882.57 1809.68 882.57C1813.16 882.57 1816.62 881.17 1819.17 878.42C1819.7 877.85 1873.16 820.53 1968.5 762.77C2056.23 709.62 2198.47 645.17 2377.92 639.93C2385.05 639.72 2390.65 633.78 2390.45 626.65C2390.23 619.67 2384.49 614.13 2377.54 614.13ZM2442.06 608.97C2432.08 608.97 2423.99 617.06 2423.99 627.04C2423.99 637.02 2432.08 645.11 2442.06 645.11C2452.04 645.11 2460.13 637.02 2460.13 627.04C2460.13 617.06 2452.04 608.97 2442.06 608.97Z" fill="#FEFEFE"/>
<path d="M127.5 2078.05C77.77 2024.56 32.18 1960.47 0 1884.33C0 1884.33 222.09 1984.4 461.37 1947.01C614.53 1923.07 793.17 2301.05 793.17 2301.05L693.98 2303.13C473.23 2307.75 265.98 2227.01 127.5 2078.05Z" fill="#C4D7F2"/>
<path d="M765.42 2248.99C763.8 2248.7 705.8 2233.42 622.56 2207.64C580.8 2137.96 536.25 2075.09 490.52 2028.03L487.03 2032.03C531.33 2077.62 574.53 2138.14 615.16 2205.34C595.23 2199.13 573.96 2192.34 551.74 2185.04C554.07 2184.21 556.4 2183.39 558.73 2182.54C559.37 2182.31 560.65 2181.84 560.65 2181.84L555.78 2179.22C555.78 2179.22 554.01 2179.86 553.13 2180.17C550.53 2181.1 547.93 2182.01 545.34 2182.92C522.57 2175.4 498.88 2167.35 474.67 2158.83C433.14 2089.68 388.87 2027.33 343.43 1980.56L339.94 1984.56C383.86 2029.76 426.69 2089.63 467 2156.12C446.6 2148.89 425.88 2141.34 405.08 2133.5L403.5 2132.37C403.5 2132.37 403.11 2132.46 402.6 2132.57C381.16 2124.47 359.65 2116.06 338.35 2107.39C338.09 2107.04 337.78 2106.62 337.58 2106.34C298.59 2053.49 257.85 2006.32 217.4 1972.05L214.93 1975.51C253.95 2008.57 293.24 2053.7 330.98 2104.37C240.31 2067.11 154.04 2025.13 93.6003 1981.52L90.8203 1984.75C128.05 2011.62 175.03 2038.01 226.79 2063.15C194.2 2067.66 163.15 2070.05 134.64 2069.68L134.22 2073.91C164.82 2074.31 198.32 2071.54 233.51 2066.39C283.89 2090.57 338.52 2113.55 392.94 2134.64C333.55 2147.22 276.65 2154.86 227.33 2154.21L226.91 2158.44C278.32 2159.11 337.91 2150.83 399.96 2137.35C446.37 2155.21 492.48 2171.67 535.51 2186.31C481.81 2204.66 429.98 2218.18 383.86 2223.56L383.99 2227.81C431.93 2222.22 485.99 2207.88 541.9 2188.48C665.66 2230.35 762.41 2256.72 764.5 2257.09L765.42 2248.99Z" fill="#ECF3FE"/>
<path d="M403.68 1529.8C398.1 1455.05 402.61 1374.44 425.57 1292.75C425.57 1292.75 539.32 1515.24 754.79 1638.44C892.71 1717.3 793.86 2134.91 793.86 2134.91L713.13 2073.07C533.46 1935.45 419.22 1737.97 403.68 1529.8Z" fill="#C4D7F2"/>
<path d="M804.94 2075.39C803.83 2074.12 767.17 2024.72 717.04 1950.75C728.2 1868.11 732.76 1789.15 726.26 1722.11L720.91 1723.09C727.2 1788.04 723.06 1864.25 712.58 1944.16C700.6 1926.42 687.91 1907.35 674.8 1887.27C677.2 1888.1 679.58 1888.93 681.99 1889.74C682.65 1889.96 683.97 1890.41 683.97 1890.41L681.75 1885.19C681.75 1885.19 679.93 1884.57 679.02 1884.26C676.34 1883.34 673.68 1882.41 671.02 1881.48C657.61 1860.87 643.79 1839.24 629.86 1816.91C640.86 1734.85 645.32 1656.48 638.87 1589.86L633.52 1590.84C639.76 1655.22 635.73 1730.67 625.46 1809.83C613.76 1790.97 602 1771.64 590.37 1752.04L589.83 1750.12C589.83 1750.12 589.46 1749.94 588.99 1749.7C577.01 1729.47 565.17 1708.95 553.67 1688.36C553.69 1687.92 553.71 1687.38 553.72 1687.02C556.32 1619.65 553.89 1555.73 543.44 1502.34L539.25 1503.54C549.33 1555.04 551.91 1616.41 549.7 1681.22C500.96 1593.28 458.76 1504.36 438.29 1430.67L434 1431.48C446.61 1476.87 467.33 1528.13 492.68 1581.44C463.7 1564.19 437.32 1546.23 414.74 1527.68L411.7 1530.81C435.94 1550.73 464.53 1569.95 495.99 1588.36C520.85 1640.01 549.88 1693.43 579.94 1745.2C524.35 1717.26 473.91 1686.96 434.85 1654.86L431.81 1657.99C472.53 1691.45 525.53 1722.95 583.83 1751.87C609.55 1795.91 635.93 1838.64 661.01 1877.94C606.29 1858.28 556.14 1835.94 515.79 1810.73L513.18 1814.22C555.13 1840.43 607.58 1863.54 664.74 1883.77C737.01 1996.61 797.59 2079.7 799.03 2081.34L804.94 2075.39Z" fill="#ECF3FE"/>
<path d="M372.88 1643.93C292.98 1610.89 203.03 1586.8 105.26 1582.53C105.26 1582.53 308.07 1787.31 365.47 2067.77C402.21 2247.29 895.4 2289.4 895.4 2289.4L856.72 2178.67C770.62 1932.24 595.39 1735.94 372.88 1643.93Z" fill="#C4D7F2"/>
<path d="M826.18 2280.11C825.19 2278.44 784.27 2220.48 721.27 2138.9C626.7 2121.36 538.54 2097.92 467.42 2066.65L470.42 2061.14C539.32 2091.43 624.31 2114.34 715.66 2131.64C700.53 2112.12 684.21 2091.35 666.93 2069.75C666.97 2072.67 667.02 2075.59 667.05 2078.52C667.06 2079.32 667.07 2080.93 667.07 2080.93L662.15 2076.62C662.15 2076.62 662.13 2074.4 662.11 2073.29C662.07 2070.02 662 2066.77 661.94 2063.52C644.18 2041.4 625.46 2018.47 606.01 1995.16C512.13 1977.66 424.65 1954.32 353.99 1923.26L356.99 1917.75C425.29 1947.77 509.41 1970.54 599.84 1987.79C583.39 1968.17 566.45 1948.33 549.16 1928.52L547.25 1927.24C547.25 1927.24 547.18 1926.77 547.1 1926.16C529.25 1905.75 511.03 1885.39 492.61 1865.37C492.12 1865.23 491.52 1865.06 491.12 1864.95C416.36 1843.54 347.2 1817.85 292.46 1787.17L295.28 1783C348.08 1812.59 414.39 1837.52 486.21 1858.44C407.4 1773.36 325.17 1695.1 251.81 1646.12L254.24 1641.72C299.44 1671.89 348.13 1713.05 397.42 1760.03C388.96 1722.06 378.78 1686.69 366.59 1655.26L371.11 1653.05C384.2 1686.78 394.97 1725.03 403.8 1766.14C451.44 1811.98 499.52 1863.03 545.41 1914.61C534.82 1843.63 519.78 1777.46 498.68 1723.09L503.2 1720.88C525.19 1777.55 540.63 1846.97 551.32 1921.26C590.32 1965.31 627.64 2009.6 661.66 2051.23C659.82 1984.19 653.41 1921.2 640.32 1867.9L645.09 1866.29C658.7 1921.69 665.13 1987.49 666.71 2057.41C764.32 2177.24 833.55 2273.55 834.83 2275.72L826.18 2280.11Z" fill="#ECF3FE"/>
<path d="M2913.37 1741.06C2913.37 1759.62 2914.77 1778.03 2917.52 1796.15L2758.89 1876.29L2862.84 2082.09L3021.48 2001.98C3034.43 2014.94 3048.41 2027 3063.36 2038.01L3007.86 2206.8L3226.89 2278.82L3282.39 2110.02C3300.95 2110.02 3319.36 2108.62 3337.47 2105.87L3337.48 2105.88L3417.6 2264.5L3623.4 2160.55L3543.3 2001.93L3543.28 2001.9C3556.25 1988.95 3568.3 1974.97 3579.31 1960.02L3748.12 2015.53L3820.14 1796.5L3651.34 1741C3651.34 1722.44 3649.92 1704.04 3647.17 1685.93L3805.82 1605.79L3701.87 1399.99L3543.22 1480.13C3530.28 1467.17 3516.31 1455.1 3501.37 1444.09L3556.88 1275.27L3337.85 1203.25L3282.34 1372.06C3263.78 1372.06 3245.37 1373.46 3227.25 1376.21L3227.24 1376.18L3147.11 1217.58L2941.31 1321.53L3021.43 1480.15L3021.44 1480.16C3008.48 1493.11 2996.42 1507.09 2985.41 1522.03L2816.61 1466.53L2744.59 1685.56L2913.37 1741.06ZM3004.36 1647.3C3055.71 1491.12 3223.95 1406.15 3380.12 1457.5C3382.56 1458.3 3384.97 1459.13 3387.37 1459.99C3387.44 1460.02 3387.51 1460.04 3387.58 1460.07C3389.86 1460.89 3392.12 1461.73 3394.37 1462.59C3394.87 1462.78 3395.36 1462.99 3395.85 1463.18C3397.67 1463.89 3399.48 1464.61 3401.27 1465.35C3401.94 1465.63 3402.6 1465.92 3403.27 1466.2C3404.88 1466.88 3406.48 1467.56 3408.07 1468.26C3408.83 1468.6 3409.58 1468.94 3410.33 1469.29C3411.82 1469.96 3413.3 1470.64 3414.77 1471.33C3415.57 1471.71 3416.36 1472.1 3417.15 1472.48C3418.56 1473.16 3419.97 1473.85 3421.37 1474.55C3422.19 1474.96 3422.99 1475.38 3423.8 1475.8C3425.16 1476.5 3426.52 1477.2 3427.86 1477.92C3428.68 1478.36 3429.5 1478.81 3430.31 1479.25C3431.63 1479.97 3432.94 1480.7 3434.24 1481.43C3435.06 1481.9 3435.88 1482.37 3436.69 1482.84C3437.97 1483.58 3439.25 1484.33 3440.52 1485.1C3441.33 1485.58 3442.13 1486.07 3442.93 1486.57C3444.19 1487.34 3445.45 1488.13 3446.7 1488.92C3447.49 1489.42 3448.27 1489.92 3449.06 1490.43C3450.3 1491.23 3451.54 1492.04 3452.76 1492.86C3453.53 1493.38 3454.31 1493.9 3455.07 1494.42C3456.29 1495.25 3457.5 1496.09 3458.7 1496.94C3459.46 1497.47 3460.21 1498.01 3460.96 1498.55C3462.16 1499.41 3463.34 1500.28 3464.53 1501.16C3465.27 1501.71 3466.01 1502.26 3466.74 1502.81C3467.91 1503.7 3469.07 1504.6 3470.23 1505.5C3470.95 1506.07 3471.68 1506.63 3472.4 1507.2C3473.54 1508.11 3474.67 1509.03 3475.8 1509.95C3476.52 1510.54 3477.24 1511.13 3477.95 1511.72C3479.15 1512.72 3480.32 1513.75 3481.51 1514.77C3482.38 1515.52 3483.27 1516.27 3484.13 1517.04C3485.22 1518 3486.28 1518.98 3487.35 1519.95C3488.13 1520.66 3488.91 1521.35 3489.68 1522.07C3490.84 1523.15 3491.98 1524.24 3493.11 1525.34C3493.77 1525.97 3494.43 1526.59 3495.09 1527.23C3496.36 1528.47 3497.6 1529.73 3498.84 1530.98C3499.34 1531.49 3499.86 1531.99 3500.35 1532.5C3501.76 1533.95 3503.14 1535.41 3504.52 1536.89C3504.84 1537.23 3505.17 1537.57 3505.48 1537.91C3507.11 1539.68 3508.72 1541.46 3510.31 1543.27C3510.36 1543.33 3510.41 1543.38 3510.46 1543.44C3543.64 1581.16 3566.82 1626.81 3577.74 1675.83C3577.74 1675.84 3577.74 1675.85 3577.75 1675.86C3578.29 1678.28 3578.79 1680.7 3579.27 1683.14C3579.29 1683.23 3579.3 1683.32 3579.32 1683.4C3579.78 1685.75 3580.21 1688.11 3580.62 1690.48C3580.65 1690.65 3580.68 1690.82 3580.7 1690.99C3581.08 1693.27 3581.44 1695.56 3581.78 1697.85C3581.82 1698.11 3581.85 1698.37 3581.89 1698.63C3582.2 1700.83 3582.49 1703.04 3582.76 1705.26C3582.8 1705.61 3582.84 1705.95 3582.88 1706.3C3583.13 1708.42 3583.35 1710.55 3583.55 1712.68C3583.59 1713.13 3583.63 1713.58 3583.67 1714.03C3583.87 1716.27 3584.05 1718.52 3584.2 1720.77C3584.29 1722.08 3584.37 1723.38 3584.44 1724.69C3584.5 1725.79 3584.55 1726.89 3584.59 1727.99C3584.64 1729.26 3584.69 1730.54 3584.73 1731.82C3584.76 1732.97 3584.78 1734.12 3584.8 1735.26C3584.82 1736.49 3584.84 1737.73 3584.85 1738.96C3584.86 1740.17 3584.85 1741.37 3584.84 1742.58C3584.83 1743.76 3584.82 1744.94 3584.8 1746.12C3584.77 1747.39 3584.73 1748.67 3584.69 1749.94C3584.65 1751.06 3584.62 1752.18 3584.57 1753.3C3584.51 1754.65 3584.43 1756 3584.35 1757.35C3584.29 1758.4 3584.23 1759.45 3584.16 1760.51C3584.06 1761.93 3583.94 1763.36 3583.83 1764.78C3583.75 1765.76 3583.67 1766.75 3583.58 1767.73C3583.44 1769.24 3583.27 1770.75 3583.11 1772.26C3583.01 1773.16 3582.92 1774.06 3582.81 1774.96C3582.62 1776.57 3582.4 1778.18 3582.19 1779.78C3582.08 1780.59 3581.98 1781.4 3581.87 1782.2C3581.62 1783.92 3581.35 1785.64 3581.07 1787.36C3580.96 1788.06 3580.85 1788.76 3580.74 1789.45C3580.43 1791.3 3580.09 1793.15 3579.74 1795C3579.63 1795.57 3579.54 1796.14 3579.42 1796.71C3579.03 1798.73 3578.6 1800.76 3578.17 1802.78C3578.08 1803.18 3578.01 1803.58 3577.92 1803.98C3577.42 1806.25 3576.89 1808.52 3576.33 1810.79C3576.29 1810.94 3576.26 1811.09 3576.22 1811.24C3574.41 1818.59 3572.3 1825.92 3569.9 1833.23C3551.19 1890.14 3516.94 1937.59 3473.42 1972.44C3397.52 2033.22 3293.4 2055.66 3194.14 2023.02C3108.74 1994.94 3044.62 1931.9 3012.44 1855C2985.81 1791.31 2981.09 1718.07 3004.36 1647.3Z" fill="#C4D7F2"/>
<path d="M2558.41 785.28C2552.61 794.45 2547.55 803.98 2543.25 813.79L2439.84 803.81L2426.88 937.96L2530.29 947.96C2532.63 958.41 2535.78 968.74 2539.72 978.85L2459.55 1044.89L2545.25 1148.92L2625.42 1082.88C2634.59 1088.68 2644.12 1093.74 2653.93 1098.04V1098.05L2643.94 1201.45L2778.09 1214.41L2788.09 1111.02V1111C2798.54 1108.66 2808.87 1105.51 2818.98 1101.57L2885.03 1181.75L2989.05 1096.05L2923 1015.87C2928.8 1006.7 2933.85 997.17 2938.15 987.36L3041.57 997.35L3054.53 863.2L2951.11 853.21C2948.77 842.76 2945.64 832.44 2941.7 822.33L3021.88 756.28L2936.18 652.25L2856 718.3C2846.83 712.5 2837.3 707.44 2827.49 703.14V703.12L2837.47 599.73L2703.32 586.77L2693.33 690.17V690.18C2682.88 692.52 2672.56 695.67 2662.45 699.6L2596.41 619.43L2492.38 705.13L2558.41 785.28ZM2632.66 767.4C2706.83 706.3 2816.5 716.89 2877.6 791.06C2878.55 792.22 2879.49 793.38 2880.41 794.56C2880.44 794.6 2880.46 794.63 2880.49 794.67C2881.36 795.79 2882.22 796.91 2883.06 798.04C2883.25 798.29 2883.42 798.54 2883.61 798.8C2884.28 799.72 2884.95 800.64 2885.61 801.57C2885.85 801.92 2886.09 802.27 2886.33 802.62C2886.91 803.46 2887.49 804.3 2888.06 805.14C2888.33 805.54 2888.59 805.95 2888.86 806.35C2889.38 807.15 2889.91 807.94 2890.41 808.75C2890.69 809.19 2890.95 809.63 2891.23 810.06C2891.71 810.84 2892.2 811.62 2892.67 812.4C2892.94 812.86 2893.21 813.32 2893.48 813.78C2893.93 814.55 2894.38 815.32 2894.82 816.1C2895.09 816.57 2895.35 817.05 2895.61 817.53C2896.04 818.3 2896.46 819.07 2896.87 819.84C2897.13 820.33 2897.38 820.81 2897.64 821.3C2898.04 822.07 2898.44 822.84 2898.83 823.61C2899.08 824.1 2899.32 824.59 2899.56 825.09C2899.94 825.87 2900.32 826.65 2900.69 827.43C2900.92 827.92 2901.15 828.42 2901.38 828.91C2901.74 829.69 2902.1 830.48 2902.45 831.27C2902.67 831.77 2902.89 832.27 2903.11 832.77C2903.45 833.56 2903.79 834.36 2904.12 835.15C2904.33 835.65 2904.53 836.15 2904.74 836.65C2905.06 837.45 2905.38 838.25 2905.69 839.05C2905.88 839.55 2906.08 840.05 2906.27 840.56C2906.57 841.37 2906.87 842.17 2907.16 842.98C2907.34 843.49 2907.52 843.99 2907.7 844.5C2907.98 845.31 2908.25 846.11 2908.52 846.92C2908.69 847.44 2908.86 847.95 2909.03 848.47C2909.31 849.34 2909.57 850.21 2909.83 851.09C2910.03 851.74 2910.23 852.38 2910.42 853.03C2910.66 853.84 2910.88 854.66 2911.1 855.47C2911.26 856.06 2911.43 856.65 2911.59 857.24C2911.83 858.13 2912.05 859.03 2912.27 859.93C2912.4 860.45 2912.53 860.96 2912.66 861.48C2912.9 862.49 2913.12 863.5 2913.34 864.51C2913.43 864.92 2913.53 865.33 2913.61 865.74C2913.85 866.89 2914.08 868.05 2914.3 869.21C2914.35 869.48 2914.41 869.75 2914.46 870.01C2914.71 871.39 2914.95 872.78 2915.17 874.17C2915.18 874.21 2915.19 874.26 2915.19 874.3C2919.79 903.3 2916.98 933.1 2907.05 960.73C2907.05 960.74 2907.05 960.74 2907.04 960.75C2906.55 962.11 2906.04 963.47 2905.52 964.82C2905.5 964.87 2905.48 964.92 2905.46 964.97C2904.95 966.28 2904.43 967.58 2903.89 968.87C2903.85 968.96 2903.81 969.06 2903.77 969.15C2903.25 970.4 2902.71 971.64 2902.16 972.87C2902.1 973.01 2902.03 973.15 2901.97 973.29C2901.44 974.48 2900.89 975.66 2900.33 976.84C2900.24 977.02 2900.15 977.21 2900.06 977.39C2899.52 978.51 2898.96 979.63 2898.4 980.75C2898.28 980.99 2898.16 981.22 2898.04 981.45C2897.44 982.62 2896.83 983.79 2896.2 984.94C2895.83 985.61 2895.47 986.28 2895.09 986.95C2894.78 987.51 2894.45 988.07 2894.13 988.63C2893.76 989.28 2893.38 989.92 2893 990.56C2892.66 991.14 2892.31 991.71 2891.96 992.28C2891.59 992.9 2891.21 993.51 2890.83 994.12C2890.46 994.72 2890.07 995.31 2889.69 995.91C2889.32 996.49 2888.94 997.07 2888.56 997.65C2888.15 998.27 2887.73 998.89 2887.31 999.5C2886.94 1000.04 2886.57 1000.58 2886.2 1001.12C2885.75 1001.77 2885.29 1002.41 2884.83 1003.05C2884.47 1003.55 2884.11 1004.05 2883.75 1004.55C2883.26 1005.22 2882.75 1005.89 2882.25 1006.56C2881.9 1007.02 2881.56 1007.48 2881.2 1007.94C2880.66 1008.64 2880.11 1009.34 2879.55 1010.03C2879.22 1010.44 2878.89 1010.86 2878.56 1011.27C2877.96 1012 2877.35 1012.73 2876.75 1013.46C2876.44 1013.83 2876.14 1014.19 2875.83 1014.56C2875.17 1015.33 2874.5 1016.1 2873.82 1016.86C2873.55 1017.17 2873.28 1017.48 2873 1017.79C2872.27 1018.61 2871.52 1019.42 2870.77 1020.22C2870.54 1020.47 2870.31 1020.72 2870.08 1020.97C2869.25 1021.85 2868.41 1022.71 2867.56 1023.58C2867.39 1023.75 2867.23 1023.92 2867.06 1024.09C2866.1 1025.06 2865.13 1026.01 2864.15 1026.96C2864.08 1027.02 2864.02 1027.09 2863.96 1027.15C2860.77 1030.21 2857.44 1033.18 2853.97 1036.04C2826.94 1058.31 2795.19 1071.04 2762.8 1074.66C2706.31 1080.96 2647.86 1059.51 2609.03 1012.37C2575.62 971.81 2563.64 920.63 2571.78 872.59C2578.49 832.74 2599.05 795.09 2632.66 767.4Z" fill="#C4D7F2"/>
<path d="M178.9 1890.04C206.403 1890.04 228.7 1867.74 228.7 1840.24C228.7 1812.74 206.403 1790.44 178.9 1790.44C151.396 1790.44 129.1 1812.74 129.1 1840.24C129.1 1867.74 151.396 1890.04 178.9 1890.04Z" fill="#ECF3FE"/>
<path d="M319.24 1577.67C346.744 1577.67 369.04 1555.37 369.04 1527.87C369.04 1500.37 346.744 1478.07 319.24 1478.07C291.737 1478.07 269.44 1500.37 269.44 1527.87C269.44 1555.37 291.737 1577.67 319.24 1577.67Z" fill="#ECF3FE"/>
<path d="M3115.46 2558.5H731.37C718.01 2558.5 707.17 2547.67 707.17 2534.3V977.12C707.17 963.76 718 952.92 731.37 952.92H3115.46C3128.82 952.92 3139.66 963.75 3139.66 977.12V2534.31C3139.66 2547.67 3128.83 2558.5 3115.46 2558.5Z" fill="#4C1A9C"/>
<path d="M3043.14 2498.23H796.46C783.1 2498.23 772.26 2487.4 772.26 2474.03V1047.03C772.26 1033.67 783.09 1022.83 796.46 1022.83H3043.14C3056.5 1022.83 3067.34 1033.66 3067.34 1047.03V2474.04C3067.34 2487.4 3056.51 2498.23 3043.14 2498.23Z" fill="#7C38E9"/>
<path d="M1428.39 1102.31H839.86V2428.77H1428.39V1102.31Z" fill="#FEFEFE"/>
<path d="M1396.71 1143.06H862.5V2388.03H1396.71V1143.06Z" fill="#D4CFF6"/>
<path d="M2994.8 1102.31H1505.36V2428.77H2994.8V1102.31Z" fill="#D4CFF6"/>
<path d="M872.605 1292H623V1541.61H872.605V1292Z" fill="#29BEAC"/>
<path d="M872.613 1526.17C861.472 1489.69 833.452 1460.15 797.206 1445.86C803.339 1436.83 806.926 1425.92 806.926 1414.18C806.926 1382.98 781.632 1357.69 750.439 1357.69C719.238 1357.69 693.951 1382.99 693.951 1414.18C693.951 1425.25 697.176 1435.53 702.675 1444.25C664.375 1457.85 634.586 1488.27 623.008 1526.16V1541.62H872.613V1526.17Z" fill="white"/>
<path d="M1556.13 1853H1327V2082.13H1556.13V1853Z" fill="#29BEAC"/>
<path d="M1556.13 2067.95C1545.9 2034.47 1520.18 2007.35 1486.91 1994.23C1492.54 1985.94 1495.83 1975.93 1495.83 1965.16C1495.83 1936.52 1472.61 1913.3 1443.98 1913.3C1415.33 1913.3 1392.12 1936.52 1392.12 1965.16C1392.12 1975.31 1395.08 1984.76 1400.13 1992.76C1364.97 2005.24 1337.63 2033.16 1327 2067.95V2082.14H1556.13V2067.95Z" fill="white"/>
<path d="M901.21 1344.05H942.633L935.554 1392.05L995.442 1344.05H1230V1176.03H901.21V1344.05Z" fill="#29BEAC"/>
<path d="M1214.93 1193.71H917.8V1327.98H1214.93V1193.71Z" fill="#FEFEFE"/>
<path d="M1138.81 1218.49H933.279V1230.97H1138.81V1218.49Z" fill="#D4CFF6"/>
<path d="M1032.39 1253.34H933.279V1265.83H1032.39V1253.34Z" fill="#D4CFF6"/>
<path d="M1090.71 1288.21H933.279V1300.69H1090.71V1288.21Z" fill="#D4CFF6"/>
<path d="M1284.93 1886.35H1242.69L1249.89 1935.31L1188.82 1886.35H949.607V1715H1284.93V1886.35Z" fill="#29BEAC"/>
<path d="M964.974 1869.96H1268.01V1733.02H964.974V1869.96Z" fill="#FEFEFE"/>
<path d="M1193.81 1758.3H984.192V1771.03H1193.81V1758.3Z" fill="#D4CFF6"/>
<path d="M1085.28 1793.85H984.192V1806.58H1085.28V1793.85Z" fill="#D4CFF6"/>
<path d="M1144.75 1829.4H984.192V1842.14H1144.75V1829.4Z" fill="#D4CFF6"/>
<path d="M1837.87 1662.17H1700.02V1524.33H1837.87V1662.17ZM1722.08 1640.12H1815.82V1546.38H1722.08V1640.12Z" fill="#FEFEFE"/>
<path d="M1837.87 1948.89H1700.02V1811.04H1837.87V1948.89ZM1722.08 1926.84H1815.82V1833.1H1722.08V1926.84Z" fill="#FEFEFE"/>
<path d="M1760.71 1604.05L1859.09 1518.81L1769.17 1621.46L1758.87 1632.75L1751.35 1620.58L1721.4 1566.84L1760.71 1604.05Z" fill="#29BEAC"/>
<path d="M2157.56 1541.45H1890.17V1564.09H2157.56V1541.45Z" fill="#FEFEFE"/>
<path d="M2379.1 1622.94H1890.17V1645.58H2379.1V1622.94Z" fill="#FEFEFE"/>
<path d="M2157.56 1835.71H1890.17V1858.35H2157.56V1835.71Z" fill="#FEFEFE"/>
<path d="M2338.35 1835.71H2198.01V1858.35H2338.35V1835.71Z" fill="#FEFEFE"/>
<path d="M2379.1 1912.68H1890.17V1935.32H2379.1V1912.68Z" fill="#FEFEFE"/>
<path d="M1384.6 2800H453.57C441.89 2800 432.42 2790.53 432.42 2778.85V2237.16C432.42 2225.48 441.89 2216.01 453.57 2216.01H1384.6C1396.28 2216.01 1405.75 2225.48 1405.75 2237.16V2778.85C1405.76 2790.53 1396.29 2800 1384.6 2800Z" fill="#321FA0"/>
<path d="M1342.18 2668.47H506.52C497.56 2668.47 490.29 2661.2 490.29 2652.24V2568.95C490.29 2559.99 497.56 2552.72 506.52 2552.72H1342.18C1351.14 2552.72 1358.41 2559.99 1358.41 2568.95V2652.24C1358.41 2661.2 1351.14 2668.47 1342.18 2668.47Z" fill="#FEFEFE"/>
<path d="M600.26 2602.7C598.67 2599.95 592.56 2600.28 584.86 2603.06C583.42 2595 580.65 2589.55 577.47 2589.55C574.5 2589.55 571.88 2594.34 570.38 2601.56C563.72 2598.39 558.32 2597.57 556.52 2599.94C554.49 2602.61 557.59 2608.58 563.76 2614.99C556.83 2620.57 553.01 2626.11 554.69 2629.01C556.28 2631.76 562.39 2631.43 570.09 2628.65C571.54 2636.71 574.3 2642.16 577.48 2642.16C580.45 2642.16 583.07 2637.37 584.57 2630.15C591.23 2633.32 596.63 2634.14 598.43 2631.77C600.46 2629.1 597.36 2623.13 591.19 2616.72C598.12 2611.14 601.94 2605.6 600.26 2602.7ZM705.49 2602.7C703.9 2599.95 697.79 2600.28 690.09 2603.06C688.64 2595 685.88 2589.55 682.7 2589.55C679.72 2589.55 677.11 2594.34 675.61 2601.56C668.95 2598.39 663.55 2597.57 661.75 2599.94C659.72 2602.61 662.82 2608.58 668.99 2614.99C662.06 2620.57 658.25 2626.11 659.92 2629.01C661.51 2631.76 667.62 2631.43 675.32 2628.65C676.77 2636.71 679.53 2642.16 682.71 2642.16C685.68 2642.16 688.29 2637.37 689.8 2630.15C696.46 2633.32 701.86 2634.14 703.66 2631.77C705.69 2629.1 702.59 2623.13 696.42 2616.72C703.35 2611.14 707.16 2605.6 705.49 2602.7ZM810.72 2602.7C809.13 2599.95 803.02 2600.28 795.32 2603.06C793.87 2595 791.11 2589.55 787.93 2589.55C784.95 2589.55 782.34 2594.34 780.84 2601.56C774.18 2598.39 768.78 2597.57 766.98 2599.94C764.95 2602.61 768.05 2608.58 774.22 2614.99C767.29 2620.57 763.48 2626.11 765.15 2629.01C766.74 2631.76 772.85 2631.43 780.55 2628.65C782 2636.71 784.76 2642.16 787.94 2642.16C790.91 2642.16 793.53 2637.37 795.03 2630.15C801.69 2633.32 807.09 2634.14 808.89 2631.77C810.92 2629.1 807.82 2623.13 801.65 2616.72C808.57 2611.14 812.39 2605.6 810.72 2602.7ZM915.94 2602.7C914.35 2599.95 908.24 2600.28 900.54 2603.06C899.09 2595 896.33 2589.55 893.15 2589.55C890.18 2589.55 887.57 2594.34 886.06 2601.56C879.4 2598.39 874 2597.57 872.2 2599.94C870.17 2602.61 873.27 2608.58 879.44 2614.99C872.51 2620.57 868.7 2626.11 870.37 2629.01C871.96 2631.76 878.07 2631.43 885.77 2628.65C887.22 2636.71 889.98 2642.16 893.16 2642.16C896.13 2642.16 898.75 2637.37 900.25 2630.15C906.91 2633.32 912.31 2634.14 914.11 2631.77C916.14 2629.1 913.04 2623.13 906.87 2616.72C913.8 2611.14 917.62 2605.6 915.94 2602.7ZM1021.17 2602.7C1019.58 2599.95 1013.47 2600.28 1005.77 2603.06C1004.33 2595 1001.56 2589.55 998.38 2589.55C995.41 2589.55 992.79 2594.34 991.29 2601.56C984.63 2598.39 979.23 2597.57 977.43 2599.94C975.4 2602.61 978.5 2608.58 984.67 2614.99C977.74 2620.57 973.93 2626.11 975.6 2629.01C977.19 2631.76 983.3 2631.43 991 2628.65C992.44 2636.71 995.21 2642.16 998.39 2642.16C1001.37 2642.16 1003.98 2637.37 1005.48 2630.15C1012.14 2633.32 1017.54 2634.14 1019.34 2631.77C1021.37 2629.1 1018.27 2623.13 1012.1 2616.72C1019.02 2611.14 1022.84 2605.6 1021.17 2602.7ZM1126.39 2602.7C1124.8 2599.95 1118.69 2600.28 1110.99 2603.06C1109.55 2595 1106.78 2589.55 1103.6 2589.55C1100.62 2589.55 1098.01 2594.34 1096.51 2601.56C1089.85 2598.39 1084.45 2597.57 1082.65 2599.94C1080.62 2602.61 1083.72 2608.58 1089.89 2614.99C1082.96 2620.57 1079.14 2626.11 1080.82 2629.01C1082.41 2631.76 1088.52 2631.43 1096.22 2628.65C1097.66 2636.71 1100.43 2642.16 1103.61 2642.16C1106.58 2642.16 1109.19 2637.37 1110.7 2630.15C1117.36 2633.32 1122.76 2634.14 1124.56 2631.77C1126.59 2629.1 1123.49 2623.13 1117.32 2616.72C1124.25 2611.14 1128.07 2605.6 1126.39 2602.7ZM1295.38 2609.46C1284.36 2594.16 1266.57 2585.02 1247.8 2585.02C1229.03 2585.02 1211.24 2594.16 1200.22 2609.46L1198.32 2612.1L1200.22 2614.74C1211.25 2630.04 1229.03 2639.18 1247.8 2639.18C1266.57 2639.18 1284.36 2630.04 1295.38 2614.74L1297.28 2612.1L1295.38 2609.46ZM1247.8 2589.53C1247.84 2589.53 1247.88 2589.55 1247.93 2589.55C1247.84 2589.55 1247.76 2589.55 1247.68 2589.55C1247.72 2589.55 1247.76 2589.53 1247.8 2589.53ZM1229.81 2626.64C1222.03 2623.59 1215.01 2618.66 1209.57 2612.09C1215.01 2605.52 1222.02 2600.6 1229.81 2597.54C1227.6 2601.85 1226.36 2606.82 1226.36 2612.09C1226.37 2617.36 1227.61 2622.33 1229.81 2626.64ZM1256.49 2624.75C1250.7 2625.91 1244.89 2625.91 1239.1 2624.75C1236.72 2621.35 1235.39 2616.82 1235.39 2612.09C1235.39 2607.37 1236.73 2602.84 1239.1 2599.43C1244.89 2598.27 1250.7 2598.27 1256.49 2599.43C1258.86 2602.83 1260.2 2607.36 1260.2 2612.09C1260.21 2616.82 1258.87 2621.35 1256.49 2624.75ZM1265.79 2626.64C1268 2622.33 1269.24 2617.36 1269.24 2612.09C1269.24 2606.83 1268 2601.85 1265.79 2597.54C1273.57 2600.59 1280.59 2605.52 1286.03 2612.09C1280.59 2618.66 1273.57 2623.59 1265.79 2626.64Z" fill="#7C38E9"/>
<path d="M1342.18 2463.28H506.52C497.56 2463.28 490.29 2456.01 490.29 2447.05V2363.76C490.29 2354.8 497.56 2347.53 506.52 2347.53H1342.18C1351.14 2347.53 1358.41 2354.8 1358.41 2363.76V2447.05C1358.41 2456.01 1351.14 2463.28 1342.18 2463.28Z" fill="#FEFEFE"/>
<path d="M564.71 2410.36C564.71 2412.6 565.28 2414.33 566.42 2415.55C567.56 2416.77 569.17 2417.39 571.24 2417.39C573.3 2417.39 574.89 2416.85 576.02 2415.76C577.15 2414.67 577.72 2413.12 577.72 2411.11L578.15 2417.8C577.49 2419.38 576.42 2420.71 574.94 2421.78C573.46 2422.85 571.64 2423.38 569.48 2423.38C565.95 2423.38 563.22 2422.24 561.3 2419.97C559.38 2417.7 558.42 2414.5 558.42 2410.37V2390.92H564.71V2410.36ZM577.72 2390.91H583.98V2422.91H577.72V2390.91Z" fill="#7C38E9"/>
<path d="M616.48 2422.81C614.82 2422.44 613.28 2421.88 611.84 2421.15C610.4 2420.41 609.07 2419.49 607.86 2418.37L611.59 2413.78C613.32 2415.1 615.03 2416.08 616.74 2416.74C618.45 2417.4 620.13 2417.73 621.8 2417.73C624.29 2417.73 626.15 2417.34 627.4 2416.57C628.64 2415.8 629.27 2414.64 629.27 2413.1C629.27 2412.07 628.93 2411.3 628.25 2410.79C627.57 2410.28 626.73 2409.93 625.72 2409.76C624.71 2409.59 623.3 2409.43 621.47 2409.28C621.3 2409.28 621.13 2409.28 620.95 2409.26C620.76 2409.25 620.59 2409.23 620.43 2409.21C620.35 2409.21 620.26 2409.2 620.18 2409.19C620.1 2409.18 620.02 2409.17 619.93 2409.17C617.86 2409.01 616.1 2408.7 614.66 2408.26C613.22 2407.82 612.02 2406.99 611.07 2405.78C610.11 2404.57 609.64 2402.83 609.64 2400.57C609.64 2398.31 610.1 2396.43 611.03 2394.93C611.96 2393.43 613.33 2392.3 615.16 2391.55C616.99 2390.8 619.28 2390.42 622.03 2390.42C623.69 2390.42 625.28 2390.57 626.79 2390.88C628.3 2391.19 629.74 2391.65 631.12 2392.25C632.5 2392.86 633.82 2393.62 635.1 2394.55L631.31 2399.14C629.71 2398.11 628.13 2397.34 626.58 2396.83C625.03 2396.32 623.51 2396.06 622.03 2396.06C619.89 2396.06 618.29 2396.43 617.22 2397.15C616.15 2397.88 615.62 2398.98 615.62 2400.43C615.62 2401.29 615.92 2401.94 616.53 2402.37C617.13 2402.8 617.9 2403.09 618.83 2403.23C619.76 2403.37 621.07 2403.5 622.77 2403.6C622.89 2403.62 623.02 2403.63 623.16 2403.63C623.3 2403.63 623.43 2403.64 623.58 2403.66C623.64 2403.66 623.7 2403.66 623.77 2403.66C623.83 2403.66 623.89 2403.67 623.95 2403.69C626.19 2403.83 628.1 2404.13 629.67 2404.58C631.24 2405.03 632.56 2405.93 633.63 2407.26C634.7 2408.6 635.23 2410.53 635.23 2413.06C635.23 2415.36 634.74 2417.27 633.75 2418.78C632.76 2420.29 631.28 2421.43 629.3 2422.19C627.32 2422.95 624.83 2423.33 621.82 2423.33C619.91 2423.37 618.14 2423.18 616.48 2422.81Z" fill="#7C38E9"/>
<path d="M665.7 2421.7C663.6 2420.59 662 2418.96 660.91 2416.81C659.82 2414.66 659.26 2412.07 659.26 2409.03V2405.42C659.26 2402.26 659.79 2399.55 660.85 2397.31C661.91 2395.07 663.44 2393.36 665.46 2392.19C667.47 2391.02 669.9 2390.43 672.73 2390.43C675.4 2390.43 677.68 2391.1 679.57 2392.43C681.46 2393.77 682.9 2395.7 683.9 2398.23C684.9 2400.76 685.39 2403.79 685.39 2407.32V2409.42H663.81V2404.36H679.41C679.23 2401.75 678.55 2399.72 677.39 2398.27C676.23 2396.82 674.67 2396.1 672.72 2396.1C670.34 2396.1 668.49 2396.88 667.19 2398.44C665.88 2400 665.23 2402.21 665.23 2405.07V2409.14C665.23 2411.79 665.93 2413.83 667.32 2415.24C668.72 2416.66 670.7 2417.37 673.27 2417.37C674.54 2417.37 675.81 2417.11 677.06 2416.6C678.31 2416.09 679.43 2415.37 680.42 2414.44L684.55 2418.57C682.97 2420.09 681.19 2421.27 679.22 2422.1C677.25 2422.93 675.26 2423.35 673.27 2423.35C670.32 2423.37 667.8 2422.81 665.7 2421.7Z" fill="#7C38E9"/>
<path d="M710.979 2390.91H717.27V2422.91H710.979V2390.91ZM726.49 2396.95C725.65 2396.6 724.67 2396.43 723.56 2396.43C721.57 2396.43 720.019 2396.98 718.919 2398.08C717.819 2399.18 717.27 2400.71 717.27 2402.66L716.62 2396.49C717.61 2394.58 718.88 2393.09 720.44 2392.03C722 2390.97 723.73 2390.44 725.62 2390.44C727.08 2390.44 728.4 2390.65 729.58 2391.07C730.76 2391.49 731.79 2392.11 732.68 2392.94L728.58 2398.49C728.03 2397.81 727.33 2397.3 726.49 2396.95Z" fill="#7C38E9"/>
<path d="M754.88 2390.91H761.17V2422.91H754.88V2390.91ZM774.3 2403.51C774.3 2401.25 773.71 2399.5 772.54 2398.27C771.37 2397.04 769.72 2396.42 767.61 2396.42C765.55 2396.42 763.97 2396.96 762.85 2398.05C761.73 2399.14 761.17 2400.67 761.17 2402.64L760.52 2396.47C761.51 2394.54 762.8 2393.05 764.39 2392C765.98 2390.95 767.75 2390.43 769.68 2390.43C773.15 2390.43 775.84 2391.57 777.74 2393.84C779.64 2396.11 780.59 2399.32 780.59 2403.47V2422.89H774.3V2403.51Z" fill="#7C38E9"/>
<path d="M808.49 2420.92C806.54 2419.29 805.56 2416.81 805.56 2413.48C805.56 2410.32 806.45 2407.94 808.24 2406.36C810.03 2404.78 812.73 2403.99 816.35 2403.99H825.44L825.87 2409.05H816.37C814.73 2409.05 813.5 2409.42 812.69 2410.14C811.88 2410.87 811.47 2411.99 811.47 2413.48C811.47 2415.1 812.01 2416.31 813.09 2417.09C814.17 2417.87 815.81 2418.26 818.01 2418.26C820.41 2418.26 822.21 2418 823.39 2417.49C824.57 2416.98 825.16 2416.18 825.16 2415.09L825.81 2419.59C825.26 2420.45 824.57 2421.16 823.76 2421.72C822.95 2422.27 822.01 2422.69 820.94 2422.97C819.87 2423.25 818.67 2423.39 817.33 2423.39C813.39 2423.37 810.44 2422.55 808.49 2420.92ZM825.17 2402.62C825.17 2400.52 824.61 2398.9 823.49 2397.73C822.37 2396.57 820.78 2395.99 818.73 2395.99C817.46 2395.99 816.21 2396.19 814.99 2396.57C813.76 2396.96 812.68 2397.51 811.74 2398.2L807.15 2395.06C808.36 2393.6 809.96 2392.46 811.94 2391.65C813.92 2390.84 816.13 2390.43 818.55 2390.43C821.2 2390.43 823.47 2390.9 825.36 2391.83C827.25 2392.76 828.69 2394.12 829.68 2395.9C830.67 2397.68 831.16 2399.82 831.16 2402.33V2422.89H825.18V2402.62H825.17Z" fill="#7C38E9"/>
<path d="M857.66 2390.91H863.95V2422.91H857.66V2390.91ZM876.77 2403.51C876.77 2401.25 876.22 2399.5 875.11 2398.27C874 2397.04 872.43 2396.42 870.39 2396.42C868.33 2396.42 866.75 2396.96 865.63 2398.05C864.51 2399.14 863.95 2400.67 863.95 2402.64L863.3 2396.47C864.29 2394.54 865.58 2393.05 867.17 2392C868.76 2390.95 870.52 2390.43 872.46 2390.43C874.7 2390.43 876.61 2390.94 878.19 2391.95C879.77 2392.97 880.98 2394.45 881.81 2396.41C882.64 2398.36 883.06 2400.72 883.06 2403.47V2422.89H876.77V2403.51ZM895.89 2403.51C895.89 2401.25 895.31 2399.5 894.13 2398.27C892.96 2397.04 891.31 2396.42 889.2 2396.42C887.25 2396.42 885.74 2397.02 884.67 2398.21C883.6 2399.4 883.07 2401.09 883.07 2403.27L881.81 2397.1C882.82 2394.98 884.15 2393.34 885.8 2392.18C887.45 2391.02 889.28 2390.44 891.27 2390.44C893.57 2390.44 895.54 2390.95 897.17 2391.96C898.81 2392.98 900.05 2394.46 900.9 2396.42C901.75 2398.37 902.18 2400.73 902.18 2403.48V2422.9H895.89V2403.51Z" fill="#7C38E9"/>
<path d="M934.2 2421.7C932.1 2420.59 930.5 2418.96 929.41 2416.81C928.31 2414.66 927.76 2412.07 927.76 2409.03V2405.42C927.76 2402.26 928.29 2399.55 929.35 2397.31C930.41 2395.07 931.94 2393.36 933.96 2392.19C935.97 2391.02 938.4 2390.43 941.23 2390.43C943.9 2390.43 946.18 2391.1 948.07 2392.43C949.96 2393.77 951.4 2395.7 952.4 2398.23C953.4 2400.76 953.89 2403.79 953.89 2407.32V2409.42H932.31V2404.36H947.91C947.73 2401.75 947.05 2399.72 945.89 2398.27C944.73 2396.82 943.17 2396.1 941.22 2396.1C938.84 2396.1 936.99 2396.88 935.69 2398.44C934.38 2400 933.73 2402.21 933.73 2405.07V2409.14C933.73 2411.79 934.43 2413.83 935.82 2415.24C937.22 2416.66 939.2 2417.37 941.77 2417.37C943.04 2417.37 944.31 2417.11 945.56 2416.6C946.81 2416.09 947.93 2415.37 948.92 2414.44L953.05 2418.57C951.47 2420.09 949.69 2421.27 947.72 2422.1C945.75 2422.93 943.76 2423.35 941.77 2423.35C938.83 2423.37 936.3 2422.81 934.2 2421.7Z" fill="#7C38E9"/>
<path d="M1593.83 1354.35L2908.78 1354.35V1229.76L1593.83 1229.76V1354.35Z" fill="#FEFEFE"/>
<path d="M1593.83 2363.91H2908.78V2125.45H1593.83V2363.91Z" fill="#FEFEFE"/>
<path d="M1649.01 1290.71C1649.01 1308.44 1663.61 1322.86 1681.55 1322.86C1689.66 1322.86 1697.07 1319.89 1702.78 1315.02L1726.42 1331.55L1731.12 1324.99L1708.27 1309.02C1711.93 1303.82 1714.09 1297.52 1714.09 1290.72C1714.09 1272.99 1699.49 1258.57 1681.55 1258.57C1663.6 1258.56 1649.01 1272.98 1649.01 1290.71ZM1657.14 1290.71C1657.14 1277.41 1668.09 1266.6 1681.55 1266.6C1695.01 1266.6 1705.96 1277.42 1705.96 1290.71C1705.96 1304.01 1695.01 1314.82 1681.55 1314.82C1668.09 1314.83 1657.14 1304.01 1657.14 1290.71Z" fill="#C9C9C9"/>
<path d="M1791.77 1318.34C1789.55 1317.87 1787.48 1317.16 1785.56 1316.22C1783.64 1315.28 1781.84 1314.1 1780.17 1312.68L1784.66 1307.16C1786.62 1308.86 1788.77 1310.13 1791.13 1310.98C1793.49 1311.83 1796.05 1312.25 1798.8 1312.25C1802.53 1312.25 1805.41 1311.56 1807.47 1310.18C1809.52 1308.8 1810.55 1306.85 1810.55 1304.33V1304.29C1810.55 1302.5 1810.08 1301.08 1809.15 1300.03C1808.22 1298.98 1807.02 1298.2 1805.54 1297.7C1804.07 1297.19 1802.16 1296.73 1799.83 1296.3C1799.76 1296.28 1799.68 1296.26 1799.6 1296.26C1799.52 1296.26 1799.44 1296.25 1799.37 1296.22L1798.84 1296.11C1795.4 1295.52 1792.6 1294.85 1790.44 1294.11C1788.28 1293.37 1786.44 1292.01 1784.9 1290.04C1783.37 1288.07 1782.6 1285.27 1782.6 1281.64V1281.6C1782.6 1278.42 1783.31 1275.7 1784.74 1273.45C1786.17 1271.2 1788.25 1269.48 1790.98 1268.3C1793.71 1267.12 1797 1266.53 1800.85 1266.53C1802.69 1266.53 1804.5 1266.73 1806.28 1267.13C1808.06 1267.53 1809.82 1268.13 1811.55 1268.92C1813.28 1269.71 1814.99 1270.71 1816.66 1271.91L1812.56 1277.64C1810.6 1276.2 1808.65 1275.12 1806.71 1274.4C1804.77 1273.68 1802.81 1273.32 1800.86 1273.32C1797.35 1273.32 1794.62 1274.02 1792.67 1275.42C1790.72 1276.82 1789.75 1278.81 1789.75 1281.38V1281.42C1789.75 1283.19 1790.25 1284.58 1791.25 1285.59C1792.25 1286.6 1793.5 1287.35 1795 1287.84C1796.5 1288.32 1798.58 1288.82 1801.24 1289.34C1801.34 1289.36 1801.42 1289.38 1801.51 1289.39C1801.59 1289.4 1801.68 1289.42 1801.77 1289.44C1801.89 1289.46 1802.02 1289.49 1802.16 1289.51C1802.3 1289.53 1802.43 1289.56 1802.55 1289.58C1805.66 1290.22 1808.26 1290.97 1810.35 1291.84C1812.44 1292.71 1814.18 1294.12 1815.59 1296.07C1816.99 1298.02 1817.69 1300.67 1817.69 1304.05V1304.12C1817.69 1307.26 1816.95 1309.94 1815.46 1312.17C1813.98 1314.4 1811.82 1316.1 1809 1317.26C1806.18 1318.43 1802.78 1319.01 1798.8 1319.01C1796.33 1319.05 1793.99 1318.81 1791.77 1318.34Z" fill="#C9C9C9"/>
<path d="M1833.58 1317.14C1831.17 1315.87 1829.34 1314 1828.08 1311.53C1826.82 1309.07 1826.19 1306.09 1826.19 1302.6V1298.46C1826.19 1294.83 1826.8 1291.73 1828.01 1289.16C1829.22 1286.59 1830.98 1284.63 1833.3 1283.29C1835.61 1281.95 1838.39 1281.27 1841.65 1281.27C1844.72 1281.27 1847.33 1282.04 1849.5 1283.57C1851.67 1285.1 1853.32 1287.32 1854.47 1290.22C1855.61 1293.12 1856.19 1296.6 1856.19 1300.65V1303.06H1831.43V1297.26H1849.33C1849.12 1294.27 1848.34 1291.94 1847.01 1290.28C1845.68 1288.62 1843.89 1287.79 1841.65 1287.79C1838.91 1287.79 1836.8 1288.69 1835.3 1290.48C1833.8 1292.27 1833.05 1294.81 1833.05 1298.08V1302.75C1833.05 1305.79 1833.85 1308.13 1835.45 1309.75C1837.05 1311.38 1839.33 1312.19 1842.28 1312.19C1843.74 1312.19 1845.19 1311.9 1846.63 1311.31C1848.07 1310.72 1849.35 1309.9 1850.49 1308.83L1855.23 1313.57C1853.41 1315.32 1851.37 1316.67 1849.11 1317.62C1846.85 1318.58 1844.57 1319.05 1842.28 1319.05C1838.88 1319.05 1835.98 1318.41 1833.58 1317.14Z" fill="#C9C9C9"/>
<path d="M1867.67 1316.24C1865.43 1314.37 1864.31 1311.52 1864.31 1307.7C1864.31 1304.07 1865.34 1301.35 1867.39 1299.53C1869.44 1297.72 1872.54 1296.81 1876.69 1296.81H1887.13L1887.62 1302.61H1876.73C1874.84 1302.61 1873.44 1303.03 1872.51 1303.87C1871.58 1304.71 1871.11 1305.99 1871.11 1307.71C1871.11 1309.57 1871.73 1310.95 1872.97 1311.85C1874.21 1312.75 1876.09 1313.19 1878.61 1313.19C1881.37 1313.19 1883.43 1312.9 1884.78 1312.31C1886.13 1311.72 1886.81 1310.8 1886.81 1309.55L1887.55 1314.71C1886.91 1315.7 1886.13 1316.51 1885.2 1317.15C1884.27 1317.79 1883.19 1318.26 1881.96 1318.58C1880.74 1318.9 1879.35 1319.06 1877.82 1319.06C1873.29 1319.05 1869.91 1318.11 1867.67 1316.24ZM1886.8 1295.25C1886.8 1292.85 1886.16 1290.98 1884.87 1289.64C1883.58 1288.31 1881.76 1287.64 1879.41 1287.64C1877.95 1287.64 1876.51 1287.86 1875.11 1288.31C1873.71 1288.76 1872.46 1289.38 1871.38 1290.18L1866.11 1286.57C1867.5 1284.9 1869.33 1283.59 1871.61 1282.66C1873.88 1281.73 1876.41 1281.26 1879.2 1281.26C1882.24 1281.26 1884.85 1281.8 1887.02 1282.87C1889.19 1283.94 1890.84 1285.5 1891.97 1287.54C1893.1 1289.58 1893.67 1292.04 1893.67 1294.91V1318.5H1886.81V1295.25H1886.8Z" fill="#C9C9C9"/>
<path d="M1904.63 1281.8H1911.84V1318.51H1904.63V1281.8ZM1922.42 1288.74C1921.45 1288.34 1920.33 1288.14 1919.06 1288.14C1916.77 1288.14 1915 1288.77 1913.74 1290.03C1912.48 1291.29 1911.85 1293.04 1911.85 1295.28L1911.11 1288.21C1912.24 1286.02 1913.7 1284.31 1915.5 1283.1C1917.29 1281.89 1919.27 1281.28 1921.44 1281.28C1923.11 1281.28 1924.63 1281.52 1925.98 1282C1927.34 1282.48 1928.52 1283.2 1929.53 1284.14L1924.83 1290.51C1924.19 1289.73 1923.38 1289.14 1922.42 1288.74Z" fill="#C9C9C9"/>
<path d="M1941.08 1317.17C1938.71 1315.92 1936.9 1314.1 1935.65 1311.72C1934.4 1309.34 1933.77 1306.46 1933.77 1303.09V1297.04C1933.77 1293.72 1934.4 1290.87 1935.65 1288.52C1936.9 1286.16 1938.71 1284.36 1941.08 1283.13C1943.45 1281.89 1946.31 1281.27 1949.66 1281.27C1951.57 1281.27 1953.37 1281.5 1955.05 1281.96C1956.74 1282.42 1958.25 1283.09 1959.59 1283.96C1960.93 1284.83 1962.05 1285.89 1962.95 1287.14L1957.75 1291.81C1956.71 1290.63 1955.5 1289.72 1954.11 1289.09C1952.72 1288.45 1951.27 1288.13 1949.76 1288.13C1946.98 1288.13 1944.82 1288.91 1943.29 1290.46C1941.76 1292.02 1940.99 1294.21 1940.99 1297.04V1303.09C1940.99 1305.99 1941.75 1308.23 1943.27 1309.81C1944.79 1311.39 1946.96 1312.18 1949.76 1312.18C1951.29 1312.18 1952.75 1311.84 1954.15 1311.15C1955.54 1310.47 1956.74 1309.5 1957.76 1308.25L1962.96 1313.27C1962.04 1314.5 1960.91 1315.54 1959.56 1316.4C1958.22 1317.26 1956.7 1317.92 1955.02 1318.36C1953.33 1318.81 1951.55 1319.03 1949.66 1319.03C1946.3 1319.05 1943.44 1318.42 1941.08 1317.17Z" fill="#C9C9C9"/>
<path d="M1970.91 1267.09H1978.12V1318.52H1970.91V1267.09ZM1993.19 1296.27C1993.19 1293.68 1992.52 1291.67 1991.17 1290.26C1989.83 1288.85 1987.94 1288.14 1985.51 1288.14C1983.15 1288.14 1981.33 1288.75 1980.05 1289.98C1978.76 1291.21 1978.12 1292.94 1978.12 1295.18L1977.38 1288.11C1978.51 1285.94 1979.99 1284.26 1981.82 1283.07C1983.65 1281.88 1985.67 1281.28 1987.88 1281.28C1991.87 1281.28 1994.95 1282.58 1997.13 1285.19C1999.31 1287.8 2000.4 1291.48 2000.4 1296.24V1318.52H1993.19V1296.27Z" fill="#C9C9C9"/>
<path d="M2718.6 1974.42C2693.89 1966.94 2592.86 1933.28 2528.91 1827.73C2471.32 1732.69 2479.95 1639.04 2483.57 1611.15C2488.29 1610.87 2508.54 1609.12 2525.11 1592.21C2535.79 1581.32 2542.56 1566.59 2543.21 1550.3L2543.58 1541.02C2578.34 1526.18 2637.92 1505.92 2714.27 1505.01C2796.28 1504.03 2860.05 1525.83 2895.63 1541.02C2895.63 1543.3 2895.63 1545.59 2895.63 1547.87C2895.63 1580.36 2920.16 1607.61 2952.47 1611.02L2953.64 1611.14C2956.68 1638.66 2964.11 1736.61 2900.97 1834.39C2837.62 1932.47 2744.88 1965.93 2718.6 1974.42Z" fill="#FEFEFE"/>
<path d="M2717.8 1957.59C2694.35 1950.49 2598.46 1918.54 2537.75 1818.36C2483.08 1728.15 2491.28 1639.26 2494.72 1612.79C2499.2 1612.52 2518.42 1610.86 2534.15 1594.81C2544.28 1584.47 2550.71 1570.5 2551.33 1555.03L2551.68 1546.22C2584.68 1532.13 2641.23 1512.91 2713.69 1512.05C2791.53 1511.12 2852.05 1531.81 2885.83 1546.22C2885.83 1548.39 2885.83 1550.56 2885.83 1552.72C2885.83 1583.56 2909.11 1609.43 2939.78 1612.66L2940.89 1612.78C2943.77 1638.9 2950.83 1731.87 2890.89 1824.68C2830.77 1917.77 2742.75 1949.53 2717.8 1957.59Z" fill="#321FA0"/>
<path d="M2717.77 1935.9C2696.6 1929.49 2610.04 1900.65 2555.24 1810.22C2505.89 1728.79 2513.29 1648.55 2516.39 1624.66C2520.43 1624.42 2537.78 1622.92 2551.98 1608.43C2561.13 1599.1 2566.93 1586.48 2567.49 1572.52L2567.81 1564.57C2597.59 1551.86 2648.64 1534.5 2714.05 1533.72C2784.31 1532.88 2838.95 1551.56 2869.43 1564.57C2869.43 1566.53 2869.43 1568.48 2869.43 1570.44C2869.43 1598.28 2890.45 1621.63 2918.13 1624.55L2919.13 1624.66C2921.73 1648.24 2928.1 1732.16 2874 1815.94C2819.74 1899.96 2740.29 1928.63 2717.77 1935.9Z" fill="#C4D7F2"/>
<path d="M2717.74 1920.15C2698.23 1914.24 2618.45 1887.66 2567.94 1804.32C2522.46 1729.27 2529.28 1655.32 2532.14 1633.29C2535.87 1633.07 2551.86 1631.69 2564.94 1618.34C2573.37 1609.74 2578.72 1598.11 2579.23 1585.24L2579.52 1577.91C2606.97 1566.19 2654.02 1550.19 2714.31 1549.48C2779.07 1548.71 2829.43 1565.92 2857.52 1577.91C2857.52 1579.71 2857.52 1581.52 2857.52 1583.32C2857.52 1608.98 2876.89 1630.5 2902.41 1633.19L2903.33 1633.29C2905.73 1655.02 2911.6 1732.37 2861.73 1809.58C2811.73 1887.03 2738.5 1913.45 2717.74 1920.15Z" fill="white"/>
<path d="M2787.7 1683.71H2778.86C2778.91 1669.85 2776.56 1648.83 2763.84 1633.98C2754.16 1622.68 2740.34 1616.95 2722.75 1616.95C2704.14 1616.95 2689.75 1622.92 2679.99 1634.69C2667.71 1649.5 2665.85 1670.03 2666.24 1683.71H2657.35C2650.78 1683.71 2645.45 1689.04 2645.45 1695.61V1773.77C2645.45 1780.34 2650.78 1785.67 2657.35 1785.67H2787.7C2794.27 1785.67 2799.6 1780.34 2799.6 1773.77V1695.61C2799.6 1689.04 2794.28 1683.71 2787.7 1683.71ZM2689.35 1642.41C2696.7 1633.57 2707.93 1629.09 2722.74 1629.09C2736.61 1629.09 2747.32 1633.38 2754.59 1641.85C2764.84 1653.8 2766.74 1671.76 2766.69 1683.72H2678.41C2678.03 1671.98 2679.44 1654.35 2689.35 1642.41Z" fill="#7C38E9"/>
<path d="M2740.79 1723.84C2740.79 1713.76 2732.62 1705.58 2722.53 1705.58C2712.45 1705.58 2704.27 1713.75 2704.27 1723.84C2704.27 1729.04 2706.45 1733.74 2709.94 1737.06L2709.74 1760.59L2735.92 1760.53L2735.11 1737.06C2738.6 1733.73 2740.79 1729.04 2740.79 1723.84Z" fill="#4C1A9C"/>
<path d="M2736.26 1726.28C2736.26 1718.12 2730.11 1711.5 2722.52 1711.5C2714.93 1711.5 2708.78 1718.12 2708.78 1726.28C2708.78 1730.49 2710.42 1734.29 2713.05 1736.98L2713.01 1755.13L2732.65 1754.88L2731.99 1736.97C2734.62 1734.29 2736.26 1730.49 2736.26 1726.28Z" fill="#7C38E9"/>
<path d="M3507.18 2077.83L3480.38 2327.23L3474.18 2385.09L3469.24 2430.81L3468.61 2436.83L3464.72 2473.05L3454.22 2570.75C3445.12 2574.1 3435.75 2577.45 3426.11 2580.66C3409.45 2586.32 3392.02 2591.84 3373.82 2597.23C3369.34 2598.59 3364.81 2599.9 3360.19 2601.21C3354.67 2602.79 3349.05 2604.38 3343.39 2605.92C3340.95 2606.6 3338.5 2607.28 3336.01 2607.96C3324.37 2611.13 3312.47 2614.25 3300.29 2617.29H3193.22L3197.88 2576.18L3206.8 2497.27L3207.53 2490.98L3209.57 2473.05L3210.16 2467.84V2467.79L3212.38 2448.19L3213.65 2436.83L3214.33 2430.81L3219.54 2385.09L3220.17 2379.3L3230.36 2289.35L3234.03 2257.07L3240.14 2202.88C3240.14 2202.88 3240.19 2202.88 3240.14 2202.83L3256.08 2062.17C3256.49 2058.77 3257.17 2055.42 3258.16 2052.26C3261.19 2042.21 3267.03 2033.34 3274.77 2026.32C3275.4 2025.73 3276.04 2025.14 3276.72 2024.6C3288.44 2014.78 3304.11 2008.94 3321.22 2009.07L3428.2 2010.02L3433.95 2010.11L3440.83 2010.16C3480.15 2010.51 3511.07 2042.06 3507.18 2077.83Z" fill="#48507D"/>
<path d="M3480.11 2084.8L3449.05 2370.06L3447.42 2385.09L3442.44 2430.81L3441.76 2436.83L3437.82 2473.05L3426.1 2580.66C3409.44 2586.32 3392.01 2591.84 3373.81 2597.23C3369.33 2598.59 3364.8 2599.9 3360.18 2601.21C3354.66 2602.79 3349.04 2604.38 3343.38 2605.92C3340.94 2606.6 3338.49 2607.28 3336 2607.96C3324.36 2611.13 3312.46 2614.25 3300.28 2617.29H3190.95L3195.57 2576.18L3204.49 2497.14L3205.26 2490.53L3207.21 2473.05L3207.75 2468.25V2468.2L3210.01 2448.19L3211.32 2436.83L3212 2430.81L3217.16 2385.09L3217.84 2378.89L3227.89 2289.89L3231.6 2257.11L3237.35 2206L3252.52 2071.63C3253.29 2064.7 3255.24 2058.18 3258.13 2052.25C3262.03 2044.15 3267.73 2037.08 3274.65 2031.52C3275.38 2030.93 3276.19 2030.34 3276.96 2029.8C3286.87 2022.6 3299.01 2018.44 3312.05 2018.39H3420.48C3422.83 2018.39 3425.19 2018.53 3427.45 2018.8C3427.81 2018.85 3428.22 2018.89 3428.58 2018.94C3430.62 2019.21 3432.65 2019.57 3434.6 2020.07C3463.17 2026.9 3483.41 2054.15 3480.11 2084.8Z" fill="#5765AD"/>
<path d="M2997 2349.34C3038.68 2354.13 3076.36 2324.23 3081.15 2282.55L3112.18 2012.68C3116.97 1971 3087.07 1933.32 3045.39 1928.53C3003.71 1923.74 2966.03 1953.64 2961.24 1995.32L2930.21 2265.19C2925.42 2306.87 2955.32 2344.55 2997 2349.34Z" fill="#FFC7A2"/>
<path d="M3078.33 2271.87C3077.09 2229.93 3042.08 2196.94 3000.14 2198.19L2679.66 2227.71L2694.91 2335.59L3004.65 2350.06C3046.58 2348.81 3079.57 2313.81 3078.33 2271.87Z" fill="#FFD0B8"/>
<path d="M2847.19 2342.76C2849.03 2331.4 2854.18 2309.11 2870.78 2286.59C2880.5 2273.4 2897.47 2260.89 2909.54 2252.96C2917.96 2247.43 2927.51 2243.88 2937.5 2242.63L2968.57 2238.75C2976.02 2237.82 2983.58 2238.18 2990.91 2239.8L3011.49 2244.37L3008.43 2350.38L2847.19 2342.76Z" fill="#EFB68F"/>
<path d="M2930.81 2193.4C2930.37 2196.27 2931.95 2199.08 2934.65 2200.15C2955.51 2208.43 2982.29 2216.92 3014.1 2222.11C3043.88 2226.96 3070.45 2227.67 3092.22 2226.71C3099.04 2226.41 3104.6 2221.18 3105.28 2214.39C3111.65 2150.82 3118.03 2087.24 3124.4 2023.67C3129.19 1981.99 3087.06 1933.33 3045.38 1928.54C3003.7 1923.75 2966.02 1953.65 2961.23 1995.33L2930.81 2193.4Z" fill="#FFC660"/>
<path d="M3014.1 2222.1C3018.01 2222.74 3021.86 2223.29 3025.65 2223.79L3039.65 2181.05L3004.47 2087.83L2998.84 2152.58C2996.16 2183.35 2968.23 2205.58 2937.65 2201.28C2958.06 2209.2 2983.76 2217.16 3014.1 2222.1Z" fill="#C9782D"/>
<path d="M3403.42 2471.25C3406.05 2482.13 3398.41 2492.77 3387.27 2493.83C3337.98 2498.49 3276.36 2500.76 3216.16 2497.81C3144.35 2494.29 3065.98 2482.7 3009.57 2470.42C2999.29 2468.18 2992.98 2457.78 2995.63 2447.6C3005.43 2409.99 3008.2 2377.43 3007.85 2340.95C3006.63 2215.69 3005.4 2090.44 3004.18 1965.18C3003.99 1945.43 3019.05 1928.87 3038.74 1927.2L3204.42 1913.15L3357.02 1927.28C3400.14 1931.27 3431.89 1969.42 3427.99 2012.55L3395.37 2373.31C3392.55 2404.45 3394.86 2435.83 3402.2 2466.22L3403.42 2471.25Z" fill="#F4953E"/>
<path d="M3006.68 2222.57C3005.71 2222.57 3004.92 2221.79 3004.92 2220.82L3004.47 2087.84C3004.47 2086.87 3005.25 2086.08 3006.22 2086.08C3006.22 2086.08 3006.22 2086.08 3006.23 2086.08C3007.2 2086.08 3007.99 2086.86 3007.99 2087.83L3008.44 2220.81C3008.44 2221.78 3007.61 2222.5 3006.68 2222.57Z" fill="#C9782D"/>
<path d="M3315.68 2500.83C3314.8 2500.83 3314.05 2500.15 3313.98 2499.25C3313.91 2498.31 3314.61 2497.5 3315.55 2497.43L3385.06 2492.32C3391.74 2491.36 3396.58 2488.92 3399.34 2485.07C3402.61 2480.52 3402.42 2474.83 3401.68 2470.86C3401.55 2470.15 3400.86 2469.36 3400.18 2469.14C3399.84 2469.03 3399.74 2469.13 3399.67 2469.19C3385.54 2482.65 3372.45 2476.35 3371.9 2476.07C3371.06 2475.65 3370.72 2474.63 3371.14 2473.79C3371.56 2472.95 3372.57 2472.61 3373.42 2473.03C3373.88 2473.26 3384.98 2478.48 3397.32 2466.73C3398.36 2465.74 3399.78 2465.45 3401.22 2465.91C3403.09 2466.52 3404.65 2468.3 3405.01 2470.24C3405.87 2474.86 3406.06 2481.53 3402.09 2487.06C3398.77 2491.69 3393.15 2494.6 3385.41 2495.71L3315.78 2500.83C3315.76 2500.83 3315.72 2500.83 3315.68 2500.83Z" fill="#E57A6C"/>
<path d="M3006.91 2245.16C3051.14 2252.37 3096.15 2253.44 3140.67 2248.33L3159.08 2246.22C3219.05 2239.34 3265.5 2190.54 3269.43 2130.3L3272.06 2089.93L3310.16 2270.65L3107.67 2318.03L3014.21 2298.54L3006.91 2245.16Z" fill="#F4953E"/>
<path d="M3118.08 1800.55L3127.44 1933.7L3254.6 1926.78L3247.34 1793.51L3118.08 1800.55Z" fill="#FFD0B8"/>
<path d="M3110.04 1921.14L3204.42 1913.13L3272.06 1919.39C3272.06 1919.39 3272.41 1975.55 3182.42 1974.41C3110 1973.5 3110.04 1921.14 3110.04 1921.14Z" fill="#FFD0B8"/>
<path d="M3126.46 1919.75C3129.53 1927.26 3135.12 1938.21 3145.19 1948.88C3160.41 1965.01 3177.56 1971.69 3186.35 1974.42C3180.84 1981.15 3175.33 1987.88 3169.82 1994.61C3169.82 1994.61 3110.02 1977.02 3110.05 1921.14C3110.72 1920.37 3113.09 1917.86 3117.05 1917.21C3122.13 1916.38 3125.86 1919.27 3126.46 1919.75Z" fill="#FFC660"/>
<path d="M3254.1 1917.51C3247.91 1926.52 3238.86 1937.81 3226.1 1948.87C3211.47 1961.56 3197.12 1969.5 3186.35 1974.41C3191.39 1981.14 3196.43 1987.87 3201.48 1994.6C3201.48 1994.6 3271.84 1966.46 3272.07 1919.39C3271.77 1918.81 3269.59 1914.73 3264.8 1913.68C3260.89 1912.84 3256.76 1914.33 3254.1 1917.51Z" fill="#FFC660"/>
<path d="M3249.28 1829.15C3249.28 1829.15 3202.93 1905.04 3126.13 1909.81L3122.04 1875.46L3249.28 1829.15Z" fill="#FFBC9F"/>
<path d="M3043.16 1702.62C3043.16 1702.62 3031.01 1681.79 3044.59 1641.05L3060.9 1642.82L3043.16 1702.62Z" fill="#454545"/>
<path d="M3049.76 1638.53C3049.76 1638.53 2996.73 1930.87 3145.87 1881.87C3199 1864.41 3227.15 1848.32 3242 1836.62C3252.59 1828.27 3258.24 1815.13 3257.51 1801.67L3250.06 1664.91L3049.76 1638.53Z" fill="#FFD0B8"/>
<path d="M3065.27 1774.79C3070.8 1774.49 3074.87 1766.78 3074.37 1757.57C3073.87 1748.36 3068.98 1741.14 3063.46 1741.44C3057.93 1741.74 3053.86 1749.45 3054.36 1758.66C3054.86 1767.87 3059.75 1775.09 3065.27 1774.79Z" fill="#232323"/>
<path d="M3135.56 1770.96C3141.09 1770.66 3145.16 1762.95 3144.66 1753.74C3144.15 1744.53 3139.27 1737.31 3133.74 1737.61C3128.22 1737.91 3124.15 1745.62 3124.65 1754.83C3125.15 1764.04 3130.03 1771.26 3135.56 1770.96Z" fill="#232323"/>
<path d="M3099.78 1798C3096.75 1798.16 3094.18 1797.79 3092.09 1797.22C3089.14 1796.41 3086.66 1794.35 3085.28 1791.56C3083.84 1788.64 3083.71 1785.23 3084.93 1782.21L3103.28 1736.98C3103.75 1735.84 3105.05 1735.28 3106.2 1735.75C3107.35 1736.22 3107.9 1737.52 3107.43 1738.67L3089.08 1783.9C3088.33 1785.73 3088.41 1787.8 3089.29 1789.58C3090.11 1791.24 3091.52 1792.42 3093.26 1792.9C3100.28 1794.82 3108.67 1792.57 3117.54 1786.4C3118.56 1785.69 3119.95 1785.94 3120.66 1786.96C3121.37 1787.98 3121.12 1789.37 3120.1 1790.08C3112.01 1795.71 3105.17 1797.71 3099.78 1798Z" fill="#EAA27D"/>
<path d="M3092.7 1820.35C3104.56 1820.01 3126.12 1818.1 3145.33 1809.6C3150.85 1807.16 3153.94 1809.74 3151.91 1815.43C3145.04 1834.73 3116.58 1861.62 3089.2 1828.05C3086.76 1825.04 3088.82 1820.47 3092.7 1820.35Z" fill="#D88D6C"/>
<path d="M3114.28 1703.34C3127.49 1688.26 3154.42 1687.22 3168.17 1702.1C3169.04 1703.07 3168.95 1704.57 3167.97 1705.43C3167.39 1705.94 3166.64 1706.12 3165.93 1705.98C3157.37 1704.47 3149.65 1703.17 3141.23 1703.33C3132.83 1703.4 3125.07 1705.03 3116.68 1707.11C3114.54 1707.78 3112.79 1704.98 3114.28 1703.34Z" fill="#232323"/>
<path d="M3038.58 1714.27C3050.8 1698.44 3077.39 1695.52 3092.25 1709.2C3093.19 1710.1 3093.22 1711.59 3092.32 1712.53C3091.78 1713.1 3091.02 1713.33 3090.29 1713.24C3081.67 1712.25 3073.85 1711.46 3065.46 1712.23C3057.47 1712.86 3049.77 1714.97 3041.25 1717.87C3039.15 1718.71 3037.18 1716.01 3038.58 1714.27Z" fill="#232323"/>
<path d="M3062.43 1608.29C3062.43 1608.29 3075.13 1561.91 3151.06 1557.77C3226.99 1553.63 3269.36 1585.87 3268.37 1614.35C3268.37 1614.35 3337 1619.39 3307.95 1742.83L3243.08 1712.33C3228.61 1698.89 3211.74 1684.91 3192.22 1671.34C3144.95 1638.44 3098.86 1619.53 3062.43 1608.29Z" fill="#454545"/>
<path d="M3113.72 1564.29C3113.72 1564.29 3086.71 1581.22 3051.33 1590.08C3022.56 1597.28 3016.09 1634.96 3040.85 1651.28C3074.39 1673.38 3128.9 1692.62 3216.15 1689.16C3216.15 1689.16 3220.15 1714.22 3242.47 1710.18C3242.47 1710.18 3219.46 1570.2 3113.72 1564.29Z" fill="#454545"/>
<path d="M3266.2 1804.83C3291.33 1804.83 3311.71 1784.45 3311.71 1759.32C3311.71 1734.19 3291.33 1713.81 3266.2 1713.81C3241.06 1713.81 3220.69 1734.19 3220.69 1759.32C3220.69 1784.45 3241.06 1804.83 3266.2 1804.83Z" fill="#FFD0B8"/>
<path d="M3250.69 1778.8C3250.58 1778.81 3250.46 1778.8 3250.35 1778.79C3249.21 1778.66 3248.4 1777.64 3248.52 1776.51C3248.63 1775.55 3251.31 1752.85 3265.59 1746.91C3273.97 1743.43 3284.35 1746.52 3296.41 1756.12C3297.3 1756.83 3297.45 1758.13 3296.74 1759.03C3296.03 1759.92 3294.73 1760.07 3293.83 1759.36C3283.04 1750.77 3274.07 1747.87 3267.18 1750.73C3255.13 1755.74 3252.66 1776.75 3252.64 1776.96C3252.52 1777.99 3251.68 1778.75 3250.69 1778.8Z" fill="#EAA27D"/>
<path d="M3281.33 1770.92C3280.33 1770.97 3279.41 1770.29 3279.2 1769.28C3279.18 1769.19 3277.3 1760.59 3271.21 1757.97C3267.49 1756.36 3262.8 1757.27 3257.25 1760.66C3256.28 1761.26 3255 1760.95 3254.41 1759.97C3253.81 1759 3254.12 1757.72 3255.1 1757.13C3261.87 1753 3267.86 1752.01 3272.88 1754.19C3280.94 1757.68 3283.16 1768 3283.26 1768.44C3283.49 1769.56 3282.78 1770.65 3281.66 1770.88C3281.54 1770.9 3281.43 1770.91 3281.33 1770.92Z" fill="#EAA27D"/>
<path d="M3245.22 1760.79C3245.22 1760.79 3240.3 1730.6 3261.35 1714.22L3242.46 1710.17C3242.47 1710.18 3234 1741.1 3245.22 1760.79Z" fill="#454545"/>
<path d="M2846.55 2385.17H3070.22C3075.7 2385.17 3080.14 2380.73 3080.14 2375.25V2360.3C3080.14 2354.82 3075.7 2350.38 3070.22 2350.38H2846.55C2841.07 2350.38 2836.63 2354.82 2836.63 2360.3V2375.25C2836.63 2380.73 2841.07 2385.17 2846.55 2385.17Z" fill="url(#paint0_linear_46_7048)"/>
<path d="M2865.62 2385.17L2421.44 2386.5C2407.39 2386.54 2394.93 2377.5 2390.6 2364.13L2296.06 2071.83C2292.51 2062.1 2299.71 2051.8 2310.07 2051.8H2735.52C2752.22 2051.8 2766.96 2062.7 2771.84 2078.67L2865.62 2385.17Z" fill="url(#paint1_linear_46_7048)"/>
<path d="M2555.44 2251.83C2571.45 2251.83 2584.43 2238.85 2584.43 2222.84C2584.43 2206.83 2571.45 2193.85 2555.44 2193.85C2539.43 2193.85 2526.45 2206.83 2526.45 2222.84C2526.45 2238.85 2539.43 2251.83 2555.44 2251.83Z" fill="#F9F9F9"/>
<path d="M3370.4 2404.71C3412.31 2402.77 3444.71 2367.21 3442.77 2325.3L3427.67 1999.68C3425.73 1957.77 3390.17 1925.37 3348.26 1927.31C3306.35 1929.25 3273.95 1964.81 3275.89 2006.72L3290.99 2332.34C3292.93 2374.25 3328.49 2406.65 3370.4 2404.71Z" fill="#FFD0B8"/>
<path d="M3441.93 2333.05C3444.36 2291.16 3412.38 2255.24 3370.49 2252.8L3067.37 2262.24V2352.13L3361.68 2404.49C3403.57 2406.91 3439.5 2374.93 3441.93 2333.05Z" fill="#FFD0B8"/>
<path d="M3272.06 2219.09C3272 2222.54 3274.48 2225.49 3277.88 2226.04C3300.29 2229.64 3327.64 2232.2 3358.74 2231.24C3391.5 2230.23 3419.94 2225.59 3442.88 2220.23C3446.19 2219.46 3448.46 2216.41 3448.22 2213.01C3443.19 2141.59 3438.16 2070.18 3433.13 1998.76C3431.19 1956.85 3390.16 1925.37 3348.25 1927.31C3306.34 1929.25 3273.11 1959.94 3275.05 2001.86L3272.06 2219.09Z" fill="#FFC660"/>
<path d="M3285.9 2228.29C3285.84 2228.29 3285.77 2228.29 3285.71 2228.28L3279.6 2227.6C3274.25 2227.01 3270.29 2222.5 3270.39 2217.12L3272.73 2086.87C3272.75 2085.94 3273.5 2085.2 3274.43 2085.2C3274.44 2085.2 3274.45 2085.2 3274.46 2085.2C3275.4 2085.22 3276.15 2085.99 3276.13 2086.93L3273.79 2217.18C3273.72 2220.79 3276.38 2223.82 3279.98 2224.22L3286.09 2224.9C3287.02 2225 3287.7 2225.84 3287.59 2226.78C3287.5 2227.65 3286.76 2228.29 3285.9 2228.29Z" fill="#C9782D"/>
<path d="M2968.37 2294.32C2968.37 2294.32 2905.36 2279.97 2894.61 2309.5C2894.61 2309.5 2904.92 2324.67 2927.23 2324.82C2949.53 2324.97 2968.37 2294.32 2968.37 2294.32Z" fill="#E0AE8C"/>
<path d="M3111.62 2271.74L2997.7 2242.82C2987.55 2240.24 2976.98 2239.75 2966.63 2241.36L2932.98 2246.62C2926.28 2247.67 2919.85 2250.08 2914.17 2253.79C2896.87 2265.1 2861.02 2292.86 2851.15 2334.06C2851.15 2334.06 2850.52 2342.58 2863.86 2340.21C2863.86 2340.21 2866.8 2356.75 2883.94 2346.95C2886.51 2345.48 2888.66 2343.38 2890.14 2340.82C2896.55 2329.77 2920.48 2294.34 2960.57 2300.88C2960.57 2300.88 2878.83 2342.47 2898.66 2352.91C2916.44 2362.28 2940.03 2338.74 2974.32 2337.16C2981.2 2336.84 2988.01 2338.54 2994.12 2341.72C3004.86 2347.31 3025.12 2356.59 3041.46 2356.64L3088.01 2349.8L3111.62 2271.74Z" fill="#FFD0B8"/>
<path d="M2862.81 2340.93C2863.53 2340.99 2864.24 2340.61 2864.59 2339.93C2887.45 2294.51 2918.08 2280.37 2918.38 2280.24C2919.3 2279.83 2919.71 2278.75 2919.3 2277.83C2918.89 2276.91 2917.81 2276.5 2916.89 2276.91C2915.59 2277.49 2884.81 2291.62 2861.32 2338.29C2860.87 2339.19 2861.23 2340.29 2862.13 2340.74C2862.36 2340.85 2862.58 2340.91 2862.81 2340.93Z" fill="#E0AE8C"/>
<path d="M3355.64 2273.75C3354.83 2273.75 3354.02 2273.43 3353.41 2272.8C3331.59 2250.15 3288.45 2258.34 3288.02 2258.42C3286.33 2258.76 3284.71 2257.66 3284.38 2255.98C3284.05 2254.3 3285.14 2252.67 3286.82 2252.34C3288.73 2251.96 3333.73 2243.44 3357.88 2268.5C3359.07 2269.73 3359.03 2271.7 3357.8 2272.88C3357.19 2273.46 3356.42 2273.75 3355.64 2273.75Z" fill="#E0AE8C"/>
<path d="M1920.94 2436.82H3343.38V2385.1H1920.94V2436.82Z" fill="#5765AD"/>
<path d="M2501.43 2430.81H1970.21V2617.28H2501.43V2430.81Z" fill="#5765AD"/>
<path d="M2501.42 2430.81V2617.28H1970.21L2110.82 2567.94L2381.09 2473.05L2484.26 2436.83L2501.42 2430.81Z" fill="#D87F09"/>
<path d="M3321.56 2448.19L3320.56 2466.8L3320.24 2473.05L3318.93 2497.18L3318.88 2498.27L3318.75 2500.62L3318.7 2501.84L3317.8 2519.13L3316.85 2536.79C3315.27 2566.76 3305.08 2594.38 3288.83 2617.28H2767.71C2765.04 2608.68 2763.59 2599.58 2763.59 2590.12C2763.59 2584.33 2764.13 2578.62 2765.17 2573.1C2768.16 2557.53 2775.13 2543.22 2785.09 2531.5C2794.69 2520.18 2807 2511.22 2821.17 2505.6C2826.92 2503.34 2833.03 2501.62 2839.37 2500.57L3003.16 2473.04L3013.62 2471.27L3151.06 2448.18H3321.56V2448.19Z" fill="#C65542"/>
<path d="M2958.89 2606.06C2958.89 2609.77 2958.71 2613.53 2958.26 2617.29H2741.5C2744.8 2604.52 2748.06 2591.76 2751.37 2578.99C2751.91 2576.95 2752.5 2574.96 2753.18 2573.01C2764.05 2539.96 2789.99 2515.61 2821.18 2505.6C2839.79 2499.62 2860.25 2498.76 2880.49 2504.15C2895.2 2508.09 2908.38 2514.92 2919.51 2523.89C2919.69 2524.03 2919.83 2524.16 2920.01 2524.3C2936.08 2537.38 2947.85 2554.95 2954.01 2574.51C2957.22 2584.6 2958.89 2595.24 2958.89 2606.06Z" fill="url(#paint2_linear_46_7048)"/>
<path d="M2895.38 2617.28H2861.83C2863.46 2611.98 2865.95 2606.96 2869.39 2602.48C2870.93 2600.4 2872.7 2598.41 2874.64 2596.64C2876 2595.33 2877.45 2594.1 2878.99 2592.97L2895.38 2617.28Z" fill="#0A3459"/>
<path d="M3386.62 2466.8L3386.3 2473.05L3386.25 2473.5L3386.07 2477.12L3385.25 2492.29L3385.16 2494.01L3385.07 2495.78L3381.95 2555.4C3381.9 2556.67 3381.82 2557.94 3381.68 2559.2C3381.59 2560.38 3381.5 2561.55 3381.36 2562.73C3381.36 2563 3381.31 2563.23 3381.31 2563.41C3381.08 2565.63 3380.81 2567.8 3380.45 2569.97C3380.32 2571.01 3380.13 2572.05 3380 2573.09C3379.73 2574.67 3379.41 2576.21 3379.1 2577.75C3379.01 2578.2 3378.92 2578.66 3378.83 2579.06C3378.51 2580.74 3378.11 2582.36 3377.7 2583.99C3376.75 2587.88 3375.62 2591.73 3374.4 2595.53C3374.22 2596.07 3373.99 2596.66 3373.81 2597.21C3369.33 2598.57 3364.8 2599.88 3360.18 2601.19C3354.66 2602.77 3349.04 2604.36 3343.38 2605.9C3340.94 2606.58 3338.49 2607.26 3336 2607.94C3324.36 2611.11 3312.46 2614.23 3300.28 2617.27H2875.13C2874.54 2613.24 2874.27 2609.08 2874.27 2604.87C2874.27 2602.11 2874.41 2599.35 2874.63 2596.63C2875.31 2588.75 2876.98 2581.19 2879.52 2573.95C2883.32 2563.08 2889.07 2553.08 2896.36 2544.39C2903.02 2536.47 2910.99 2529.68 2919.99 2524.29C2929.68 2518.5 2940.54 2514.38 2952.22 2512.34L2970.64 2509.17L3101.38 2486.58H3101.43L3168.02 2475.08L3179.93 2473.04L3207.73 2468.24L3210.13 2467.83L3216.15 2466.79H3386.62V2466.8Z" fill="url(#paint3_linear_46_7048)"/>
<path d="M3089 2617.28H2868.71C2868.67 2616.83 2868.67 2616.37 2868.71 2615.92C2868.62 2611.44 2868.85 2606.91 2869.39 2602.47C2870.48 2592.65 2872.92 2583.05 2876.63 2573.95C2884.92 2553.58 2899.49 2535.74 2919.5 2523.88C2920.31 2523.38 2921.18 2522.93 2922.04 2522.43C2937.48 2513.83 2954.14 2509.53 2970.66 2509.17C3008.42 2508.22 3045.4 2527.64 3065.23 2562.82L3070.66 2575.31L3089 2617.28Z" fill="url(#paint4_linear_46_7048)"/>
<path d="M2871.57 2617.28H2867.99C2867.99 2617.14 2868.03 2616.96 2868.08 2616.83C2868.17 2616.42 2868.4 2616.11 2868.71 2615.92C2869.12 2615.56 2869.71 2615.42 2870.25 2615.56C2871.07 2615.79 2871.57 2616.51 2871.57 2617.28Z" fill="#072D49"/>
<path d="M3386.62 2466.8L3386.3 2473.05L3386.25 2473.5L3386.07 2477.12L3385.25 2492.29L3385.16 2494.01L3385.07 2495.78L3381.95 2555.4C3381.9 2556.67 3381.82 2557.94 3381.68 2559.2C3381.59 2560.38 3381.5 2561.55 3381.36 2562.73C3381.36 2563 3381.31 2563.23 3381.31 2563.41C3381.08 2565.63 3380.81 2567.8 3380.45 2569.97C3380.32 2571.01 3380.13 2572.05 3380 2573.09C3379.73 2574.67 3379.41 2576.21 3379.1 2577.75C3379.01 2578.2 3378.92 2578.66 3378.83 2579.06C3378.51 2580.74 3378.11 2582.36 3377.7 2583.99C3376.75 2587.88 3375.62 2591.73 3374.4 2595.53C3374.22 2596.07 3373.99 2596.66 3373.81 2597.21C3369.33 2598.57 3364.8 2599.88 3360.18 2601.19C3360.63 2580.91 3354.52 2561.22 3343.38 2544.83C3341.12 2541.48 3338.67 2538.31 3336 2535.28C3330.66 2529.21 3324.59 2523.78 3317.8 2519.12C3313.95 2516.49 3309.88 2514.14 3305.62 2512.06C3296.75 2507.71 3287.06 2504.64 3276.64 2503.14C3267.68 2501.83 3258.85 2500.42 3250.02 2498.88H3249.89C3235 2496.34 3220.55 2493.58 3207.52 2490.96C3206.75 2490.82 3206.03 2490.69 3205.26 2490.51C3173.89 2484.17 3151.25 2478.65 3151.25 2478.65L3168.05 2475.07L3172.85 2474.07L3179.05 2473.03L3207.75 2468.19L3210.15 2467.78L3216.17 2466.78H3386.62V2466.8Z" fill="#2D488E"/>
<path d="M3343.38 2430.81V2605.92C3340.94 2606.6 3338.49 2607.28 3336 2607.96C3324.36 2611.13 3312.46 2614.25 3300.28 2617.29C3021.68 2687.51 2603.91 2732.1 2136.89 2732.1C2078.94 2732.1 2021.76 2731.42 1965.49 2730.06V2430.81H3343.38Z" fill="#5765AD"/>
<path d="M1965.5 2473.04H3343.38V2430.82H1965.5V2473.04Z" fill="#4C599D"/>
<path d="M3655.76 2410.66C3655.76 2417.41 3654.77 2424.15 3652.82 2430.81H3336.01V2385.09H3650.96C3654.17 2393.51 3655.76 2402.06 3655.76 2410.66Z" fill="#48507D"/>
<path d="M3652.82 2430.81C3648.66 2445.16 3639.96 2459.24 3627.15 2473.05C3594.69 2508 3535.47 2540.87 3454.21 2570.75C3445.11 2574.1 3435.74 2577.45 3426.1 2580.66C3409.44 2586.32 3392.01 2591.84 3373.81 2597.23C3369.33 2598.59 3364.8 2599.9 3360.18 2601.21C3354.66 2602.79 3349.04 2604.38 3343.38 2605.92C3340.94 2606.6 3338.49 2607.28 3336 2607.96V2430.81H3652.82Z" fill="#48507D"/>
<path d="M3652.82 2430.81C3648.66 2445.16 3639.96 2459.24 3627.15 2473.05H3336.01V2430.81H3652.82Z" fill="#424970"/>
</g>
<defs>
<linearGradient id="paint0_linear_46_7048" x1="2836.63" y1="2367.78" x2="3080.13" y2="2367.78" gradientUnits="userSpaceOnUse">
<stop stop-color="#EAEAEA"/>
<stop offset="0.3636" stop-color="#D9D9D9"/>
<stop offset="1" stop-color="#B3B3B3"/>
</linearGradient>
<linearGradient id="paint1_linear_46_7048" x1="2613.09" y1="2168.69" x2="2457.74" y2="2430.99" gradientUnits="userSpaceOnUse">
<stop stop-color="#EAEAEA"/>
<stop offset="0.4692" stop-color="#E8E8E8"/>
<stop offset="0.6382" stop-color="#E1E1E1"/>
<stop offset="0.7587" stop-color="#D6D6D6"/>
<stop offset="0.8561" stop-color="#C5C5C5"/>
<stop offset="0.9385" stop-color="#AFAFAF"/>
<stop offset="1" stop-color="#999999"/>
</linearGradient>
<linearGradient id="paint2_linear_46_7048" x1="2850.29" y1="2599.42" x2="2800.33" y2="2672.58" gradientUnits="userSpaceOnUse">
<stop stop-color="#0D3972"/>
<stop offset="0.4196" stop-color="#0C3770"/>
<stop offset="0.6536" stop-color="#0A3268"/>
<stop offset="0.8414" stop-color="#072A5A"/>
<stop offset="1" stop-color="#021E47"/>
</linearGradient>
<linearGradient id="paint3_linear_46_7048" x1="2874.28" y1="2542.04" x2="3386.62" y2="2542.04" gradientUnits="userSpaceOnUse">
<stop stop-color="#0D3972"/>
<stop offset="0.3764" stop-color="#0C376F"/>
<stop offset="0.629" stop-color="#0A3266"/>
<stop offset="0.8447" stop-color="#062857"/>
<stop offset="1" stop-color="#021E47"/>
</linearGradient>
<linearGradient id="paint4_linear_46_7048" x1="2868.68" y1="2563.21" x2="3089" y2="2563.21" gradientUnits="userSpaceOnUse">
<stop stop-color="#0D3972"/>
<stop offset="0.3764" stop-color="#0C376F"/>
<stop offset="0.629" stop-color="#0A3266"/>
<stop offset="0.8447" stop-color="#062857"/>
<stop offset="1" stop-color="#021E47"/>
</linearGradient>
<clipPath id="clip0_46_7048">
<rect width="3820.16" height="2800" fill="white"/>
</clipPath>
</defs>
</svg>
