<svg id="Layer_1" data-name="Layer 1" xmlns="http://www.w3.org/2000/svg" viewBox="0 0 498.64 422.09"><defs><style>.cls-1{fill:#f5f5f5;}.cls-2{fill:#7c39eb;}.cls-12,.cls-3,.cls-4,.cls-9{fill:#fff;}.cls-3,.cls-8{opacity:0.6;}.cls-10,.cls-12,.cls-3,.cls-9{isolation:isolate;}.cls-12,.cls-5{opacity:0.4;}.cls-6{fill:#263238;}.cls-7{opacity:0.5;}.cls-9{opacity:0.7;}.cls-10{opacity:0.2;}.cls-11{fill:#e4897b;}.cls-13{fill:#de5753;}</style></defs><title>1-Sign up</title><g id="freepik--Shadow--inject-2"><ellipse id="freepik--path--inject-2" class="cls-1" cx="249.32" cy="407.53" rx="249.32" ry="14.56"/></g><g id="freepik--Tab--inject-2"><rect class="cls-2" x="102.37" y="68.81" width="248.88" height="289.71" rx="9.41"/><rect class="cls-3" x="102.37" y="68.81" width="248.88" height="289.71" rx="9.41"/><rect class="cls-4" x="142.69" y="201.68" width="168.24" height="28.8"/><g class="cls-5"><path class="cls-6" d="M158.45,257.93v.75h-5.83v-8.25h5.65v.74h-4.78v3h4.27v.73h-4.27v3.08Z" transform="translate(-0.72 -39.04)"/><path class="cls-6" d="M159.62,255.12h3.1v.72h-3.1Z" transform="translate(-0.72 -39.04)"/><path class="cls-6" d="M174.82,255.08v3.6H174v-3.52c0-1.28-.66-2-1.78-2a2,2,0,0,0-2.08,1.9,1.93,1.93,0,0,0,0,.34v3.26h-.85v-3.52c0-1.28-.65-2-1.78-2a2,2,0,0,0-2.09,1.9,1.94,1.94,0,0,0,0,.34v3.26h-.85v-6.21h.81v1.14a2.55,2.55,0,0,1,2.27-1.19,2.22,2.22,0,0,1,2.2,1.29,2.73,2.73,0,0,1,2.46-1.29,2.34,2.34,0,0,1,2.51,2.16A2.07,2.07,0,0,1,174.82,255.08Z" transform="translate(-0.72 -39.04)"/><path class="cls-6" d="M181.79,254.83v3.85H181v-1a2.32,2.32,0,0,1-2.13,1c-1.4,0-2.27-.74-2.27-1.8s.62-1.77,2.4-1.77h2v-.37c0-1.07-.59-1.64-1.74-1.64a3.22,3.22,0,0,0-2.08.73l-.37-.62a3.87,3.87,0,0,1,2.57-.85,2.22,2.22,0,0,1,2.47,1.93A1.93,1.93,0,0,1,181.79,254.83Zm-.85,2v-1H179c-1.19,0-1.59.47-1.59,1.11s.58,1.17,1.57,1.17a1.94,1.94,0,0,0,2-1.26Z" transform="translate(-0.72 -39.04)"/><path class="cls-6" d="M183.88,250.52a.6.6,0,0,1,.61-.59h0a.59.59,0,0,1,.61.58h0a.6.6,0,0,1-.59.61h0a.59.59,0,0,1-.61-.59Zm.19,1.95h.83v6.21h-.83Z" transform="translate(-0.72 -39.04)"/><path class="cls-6" d="M187.23,249.93h.84v8.75h-.84Z" transform="translate(-0.72 -39.04)"/></g><rect class="cls-4" x="142.69" y="241.03" width="168.24" height="28.8"/><g class="cls-5"><path class="cls-6" d="M159.07,292.64c0,1.77-1.28,2.83-3.37,2.83h-2.21v2.58h-.87v-8.26h3.08C157.8,289.82,159.07,290.88,159.07,292.64Zm-.87,0c0-1.28-.86-2.07-2.57-2.07h-2.19v4.13h2.19C157.34,294.7,158.2,293.94,158.2,292.64Z" transform="translate(-0.72 -39.04)"/><path class="cls-6" d="M165.41,294.23v3.85h-.81v-1a2.32,2.32,0,0,1-2.13,1c-1.41,0-2.27-.74-2.27-1.82s.62-1.79,2.39-1.79h2v-.38c0-1.06-.6-1.63-1.76-1.63a3.17,3.17,0,0,0-2.06.73l-.38-.63a4,4,0,0,1,2.57-.84,2.22,2.22,0,0,1,2.48,1.91A2.44,2.44,0,0,1,165.41,294.23Zm-.84,2v-1h-2c-1.19,0-1.58.48-1.58,1.12s.57,1.16,1.57,1.16a2,2,0,0,0,2-1.26Z" transform="translate(-0.72 -39.04)"/><path class="cls-6" d="M166.83,297.36l.37-.65a3.88,3.88,0,0,0,2.21.69c1.17,0,1.66-.4,1.66-1,0-1.62-4-.35-4-2.79,0-1,.88-1.78,2.46-1.78a4.26,4.26,0,0,1,2.2.58l-.37.67a3.23,3.23,0,0,0-1.83-.53c-1.12,0-1.62.44-1.62,1,0,1.67,4,.41,4,2.79,0,1.08-.93,1.78-2.57,1.78A4.06,4.06,0,0,1,166.83,297.36Z" transform="translate(-0.72 -39.04)"/><path class="cls-6" d="M172.59,297.36l.38-.65a3.68,3.68,0,0,0,2.2.69c1.18,0,1.66-.4,1.66-1,0-1.62-4-.35-4-2.79,0-1,.87-1.78,2.44-1.78a4.26,4.26,0,0,1,2.2.58l-.36.67a3.26,3.26,0,0,0-1.84-.53c-1.12,0-1.61.44-1.61,1,0,1.67,4,.41,4,2.79,0,1.08-1,1.78-2.57,1.78A4.12,4.12,0,0,1,172.59,297.36Z" transform="translate(-0.72 -39.04)"/><path class="cls-6" d="M188.2,291.87l-2.34,6.2h-.79l-1.9-5.08-2,5.08h-.78l-2.4-6.2h.79l2,5.28,2-5.28h.72l2,5.28,2-5.28Z" transform="translate(-0.72 -39.04)"/><path class="cls-6" d="M188.66,295a3.17,3.17,0,1,1,3.16,3.17h0a3.07,3.07,0,0,1-3.16-3Zm5.46,0a2.31,2.31,0,1,0-2.3,2.42,2.27,2.27,0,0,0,2.31-2.22A1.34,1.34,0,0,0,194.12,295Z" transform="translate(-0.72 -39.04)"/><path class="cls-6" d="M199.81,291.82v.81h-.21a2,2,0,0,0-2.1,1.91,2.3,2.3,0,0,0,0,.37v3.16h-.84v-6.2h.8v1.21A2.35,2.35,0,0,1,199.81,291.82Z" transform="translate(-0.72 -39.04)"/><path class="cls-6" d="M206.92,289.39v8.75h-.8v-1.23a2.7,2.7,0,0,1-2.39,1.29,3.16,3.16,0,0,1,0-6.31,2.65,2.65,0,0,1,2.35,1.28v-3.78ZM206.1,295a2.32,2.32,0,1,0-2.31,2.41,2.27,2.27,0,0,0,2.32-2.21c0-.09,0-.18,0-.27Z" transform="translate(-0.72 -39.04)"/></g><g class="cls-7"><path d="M184.33,325h-2.76l-.59,1.29h-.54l2.25-4.93h.52l2.25,4.93h-.54Zm-.2-.42L183,322l-1.18,2.65Z" transform="translate(-0.72 -39.04)"/><path d="M186.18,321.11h.5v5.22h-.5Z" transform="translate(-0.72 -39.04)"/><path d="M190,322.61v.48h-.13a1.21,1.21,0,0,0-1.3,1.09,1.31,1.31,0,0,0,0,.28v1.89H188v-3.71h.49v.72A1.38,1.38,0,0,1,190,322.61Z" transform="translate(-0.72 -39.04)"/><path d="M194,324.64h-3.15a1.36,1.36,0,0,0,1.44,1.28h0a1.48,1.48,0,0,0,1.14-.47l.27.32a2,2,0,0,1-2.76.07,2,2,0,0,1-.61-1.36,1.79,1.79,0,0,1,1.7-1.87h.12a1.75,1.75,0,0,1,1.8,1.71v.16A.91.91,0,0,1,194,324.64Zm-3.09-.38h2.57a1.29,1.29,0,0,0-2.57,0Z" transform="translate(-0.72 -39.04)"/><path d="M197.75,324.11v2.29h-.44v-.58a1.36,1.36,0,0,1-1.28.62c-.84,0-1.29-.44-1.29-1.08s.36-1.06,1.43-1.06h1.14v-.22c0-.63-.36-1-1.05-1a1.94,1.94,0,0,0-1.29.43l-.22-.37a2.29,2.29,0,0,1,1.51-.5,1.28,1.28,0,0,1,1.48,1.05A1,1,0,0,1,197.75,324.11Zm-.49,1.18v-.61h-1.17c-.72,0-1,.28-1,.66s.35.7.94.7a1.2,1.2,0,0,0,1.23-.81Z" transform="translate(-0.72 -39.04)"/><path d="M202.46,321.11v5.22H202v-.73a1.57,1.57,0,0,1-1.43.77,1.89,1.89,0,0,1,0-3.76,1.65,1.65,0,0,1,1.42.73v-2.23Zm-.49,3.37a1.38,1.38,0,1,0-1.38,1.44,1.34,1.34,0,0,0,1.43-1.26v-.18Z" transform="translate(-0.72 -39.04)"/><path d="M207,322.63l-1.85,4.15a1.3,1.3,0,0,1-1.29,1,1.27,1.27,0,0,1-.9-.34l.24-.37a1,1,0,0,0,.68.28c.33,0,.55-.15.77-.63l.15-.35-1.66-3.7h.58l1.4,3.15,1.39-3.15Z" transform="translate(-0.72 -39.04)"/><path d="M212.37,324.11v2.29h-.47v-.58a1.38,1.38,0,0,1-1.29.62c-.84,0-1.29-.44-1.29-1.08s.36-1.06,1.43-1.06h1.17v-.22c0-.63-.35-1-1-1a1.94,1.94,0,0,0-1.29.43l-.23-.37a2.32,2.32,0,0,1,1.52-.5,1.28,1.28,0,0,1,1.48,1.05A1,1,0,0,1,212.37,324.11Zm-.5,1.18v-.61h-1.16c-.72,0-1,.28-1,.66s.35.7.94.7a1.19,1.19,0,0,0,1.17-.81Z" transform="translate(-0.72 -39.04)"/><path d="M221.74,324.19v2.14h-.48v-2.09c0-.79-.4-1.18-1.07-1.18a1.19,1.19,0,0,0-1.29,1.09v2.13h-.49v-2c0-.79-.39-1.18-1.08-1.18a1.19,1.19,0,0,0-1.28,1.09.6.6,0,0,0,0,.19v1.94h-.5v-3.7H216v.68a1.51,1.51,0,0,1,1.37-.71,1.29,1.29,0,0,1,1.28.79,1.61,1.61,0,0,1,1.47-.79,1.4,1.4,0,0,1,1.61,1.13A1.25,1.25,0,0,1,221.74,324.19Z" transform="translate(-0.72 -39.04)"/><path d="M226.3,324.64h-3.1a1.38,1.38,0,0,0,1.46,1.28,1.45,1.45,0,0,0,1.14-.47l.28.32a1.85,1.85,0,0,1-1.43.6,1.82,1.82,0,0,1-1.94-1.7v-.19a1.8,1.8,0,0,1,3.6,0S226.3,324.59,226.3,324.64Zm-3.1-.38h2.63a1.32,1.32,0,0,0-2.63,0Z" transform="translate(-0.72 -39.04)"/><path d="M233.45,324.19v2.14h-.51v-2.09c0-.79-.38-1.18-1.05-1.18a1.19,1.19,0,0,0-1.29,1.07v2.15h-.5v-2c0-.79-.38-1.18-1.06-1.18a1.19,1.19,0,0,0-1.29,1.07.74.74,0,0,0,0,.21v1.94h-.5v-3.7h.47v.68a1.51,1.51,0,0,1,1.37-.71,1.29,1.29,0,0,1,1.28.79,1.61,1.61,0,0,1,1.47-.79,1.39,1.39,0,0,1,1.61,1.13A1.46,1.46,0,0,1,233.45,324.19Z" transform="translate(-0.72 -39.04)"/><path d="M238.56,324.48a1.79,1.79,0,0,1-1.7,1.89h-.13a1.57,1.57,0,0,1-1.43-.77v.73h-.49v-5.22h.5v2.23a1.64,1.64,0,0,1,1.42-.73,1.79,1.79,0,0,1,1.84,1.73A.66.66,0,0,1,238.56,324.48Zm-.5,0a1.38,1.38,0,1,0-1.37,1.44,1.35,1.35,0,0,0,1.38-1.32A.49.49,0,0,0,238.06,324.48Z" transform="translate(-0.72 -39.04)"/><path d="M242.82,324.64h-3.07a1.36,1.36,0,0,0,1.43,1.28h0a1.47,1.47,0,0,0,1.12-.52l.28.32a2,2,0,0,1-2.76.06,2,2,0,0,1-.61-1.35,1.79,1.79,0,0,1,1.7-1.87h.12a1.76,1.76,0,0,1,1.79,1.71,1,1,0,0,1,0,.17Zm-3.1-.38h2.57a1.29,1.29,0,0,0-2.57,0Z" transform="translate(-0.72 -39.04)"/><path d="M245.71,322.61v.48h-.11a1.21,1.21,0,0,0-1.3,1.09,2.62,2.62,0,0,0,0,.28v1.89h-.5v-3.71h.48v.72A1.38,1.38,0,0,1,245.71,322.61Z" transform="translate(-0.72 -39.04)"/><path d="M249,322.67c0-.51-.41-.86-1.13-.86a1.69,1.69,0,0,0-1.35.56l-.37-.28a2.17,2.17,0,0,1,1.76-.73c1,0,1.62.47,1.62,1.28,0,1.2-1.28,1.29-1.28,2.27h-.53C247.67,323.7,249,323.58,249,322.67ZM247.57,326a.37.37,0,0,1,.43-.3.38.38,0,0,1,0,.74.37.37,0,0,1-.43-.3A.33.33,0,0,1,247.57,326Z" transform="translate(-0.72 -39.04)"/><path d="M252.44,321.41h1.14v4h2.47v.92h-3.61Z" transform="translate(-0.72 -39.04)"/><path d="M256.31,324.44a2.08,2.08,0,1,1,2.21,1.95h-.13a2,2,0,0,1-2.08-1.82Zm3.05,0a1,1,0,1,0-1,1.05,1,1,0,0,0,1-.94Z" transform="translate(-0.72 -39.04)"/><path d="M265.12,322.54v3.16a1.86,1.86,0,0,1-1.61,2.07,1.74,1.74,0,0,1-.51,0,3.09,3.09,0,0,1-1.87-.53l.44-.78a2.18,2.18,0,0,0,1.28.42c.78,0,1.12-.34,1.12-1v-.17a1.52,1.52,0,0,1-1.19.47,1.84,1.84,0,1,1-.31-3.66h.31a1.49,1.49,0,0,1,1.28.54v-.49ZM264,324.33a.91.91,0,0,0-.89-.94h-.1a.94.94,0,0,0-1,.82.92.92,0,0,0,.82,1h.22a.9.9,0,0,0,1-.83A.28.28,0,0,0,264,324.33Z" transform="translate(-0.72 -39.04)"/><path d="M268,321.41a.62.62,0,0,1,.64-.62h0a.62.62,0,0,1,.68.55v0a.68.68,0,0,1-1.36,0Zm.13,1.13h1.09v3.86h-1.09Z" transform="translate(-0.72 -39.04)"/><path d="M274.13,324.11v2.17H273v-2c0-.62-.28-.9-.77-.9a.91.91,0,0,0-.92,1v1.87h-1.09v-3.85h1.06v.45a1.66,1.66,0,0,1,1.28-.51,1.48,1.48,0,0,1,1.55,1.41A1.22,1.22,0,0,1,274.13,324.11Z" transform="translate(-0.72 -39.04)"/></g><rect class="cls-2" x="142.08" y="298.33" width="168.24" height="28.8"/><g class="cls-8"><path class="cls-6" d="M198.07,139.73l.58-1.21a5.53,5.53,0,0,0,3.56,1.29c1.87,0,2.66-.72,2.66-1.66,0-2.58-6.53-1-6.53-5,0-1.67,1.29-3.09,4.13-3.09a6.36,6.36,0,0,1,3.47,1l-.51,1.28a5.56,5.56,0,0,0-3-.87c-1.84,0-2.57.77-2.57,1.71,0,2.57,6.54,1,6.54,5,0,1.64-1.28,3.06-4.18,3.06A6.45,6.45,0,0,1,198.07,139.73Z" transform="translate(-0.72 -39.04)"/><path class="cls-6" d="M208.17,130.25a1,1,0,0,1,1-1h0a1,1,0,0,1,1,.92v0a1,1,0,0,1-2,0Zm.25,2.57h1.49V141h-1.49Z" transform="translate(-0.72 -39.04)"/><path class="cls-6" d="M220.55,132.78v7.06c0,2.9-1.47,4.21-4.23,4.21a6.15,6.15,0,0,1-3.86-1.22l.71-1.15a4.93,4.93,0,0,0,3.15,1.07c1.93,0,2.8-.9,2.8-2.75v-.64a3.72,3.72,0,0,1-2.94,1.28,4,4,0,1,1-.45-7.91h.45a3.75,3.75,0,0,1,3,1.29v-1.29Zm-1.44,3.86a2.82,2.82,0,1,0-3,2.67h.14a2.65,2.65,0,0,0,2.87-2.41,2.26,2.26,0,0,0,0-.26Z" transform="translate(-0.72 -39.04)"/><path class="cls-6" d="M231.14,136.26V141h-1.49v-4.59c0-1.61-.79-2.39-2.2-2.39a2.43,2.43,0,0,0-2.58,2.27,2.14,2.14,0,0,0,0,.44v4.22H223.4v-8.18h1.43V134a3.46,3.46,0,0,1,2.95-1.29,3.18,3.18,0,0,1,3.38,3A2.72,2.72,0,0,1,231.14,136.26Z" transform="translate(-0.72 -39.04)"/><path class="cls-6" d="M245.66,132.78V141h-1.4v-1.28a3.33,3.33,0,0,1-2.78,1.28,3.21,3.21,0,0,1-3.52-2.87,2.66,2.66,0,0,1,0-.69v-4.71h1.48v4.54c0,1.6.81,2.41,2.21,2.41a2.42,2.42,0,0,0,2.58-2.24,1.93,1.93,0,0,0,0-.48v-4.23Z" transform="translate(-0.72 -39.04)"/><path class="cls-6" d="M257,136.87a4,4,0,0,1-3.76,4.18h-.37a3.49,3.49,0,0,1-2.85-1.28V144h-1.48V132.82h1.42v1.29a3.49,3.49,0,0,1,2.91-1.38,4,4,0,0,1,4.13,3.79A2,2,0,0,1,257,136.87Zm-1.49,0a2.75,2.75,0,1,0-2.76,2.88,2.72,2.72,0,0,0,2.77-2.65A1.77,1.77,0,0,0,255.46,136.87Z" transform="translate(-0.72 -39.04)"/></g><rect class="cls-4" x="142.69" y="162.32" width="168.24" height="28.8"/><g class="cls-5"><path class="cls-6" d="M152.62,211.07h.87v7.5h4.62v.75h-5.49Z" transform="translate(-0.72 -39.04)"/><path class="cls-6" d="M164.09,215.48v3.86h-.8v-1a2.38,2.38,0,0,1-2.14,1c-1.4,0-2.26-.73-2.26-1.81s.61-1.75,2.39-1.75h2v-.37c0-1.07-.6-1.65-1.76-1.65a3.17,3.17,0,0,0-2.06.73l-.38-.63a4,4,0,0,1,2.57-.83,2.21,2.21,0,0,1,2.46,1.93A2.36,2.36,0,0,1,164.09,215.48Zm-.84,2v-1h-1.94c-1.21,0-1.6.48-1.6,1.12s.58,1.16,1.57,1.16a2,2,0,0,0,2-1.26Z" transform="translate(-0.72 -39.04)"/><path class="cls-6" d="M165.5,218.67l.37-.66a3.9,3.9,0,0,0,2.22.7c1.18,0,1.65-.4,1.65-1,0-1.62-4-.35-4-2.79,0-1,.86-1.77,2.45-1.77a4.29,4.29,0,0,1,2.19.57l-.37.67a3.19,3.19,0,0,0-1.82-.52c-1.12,0-1.61.43-1.61,1,0,1.68,4,.42,4,2.79,0,1.09-.94,1.78-2.57,1.78A4.16,4.16,0,0,1,165.5,218.67Z" transform="translate(-0.72 -39.04)"/><path class="cls-6" d="M175.45,219a2,2,0,0,1-1.28.44,1.65,1.65,0,0,1-1.82-1.46,2.16,2.16,0,0,1,0-.36v-3.74h-1.11v-.7h1.11v-1.37h.84v1.37h1.88v.7h-1.88v3.71a1,1,0,0,0,.83,1.12h.24a1.4,1.4,0,0,0,.92-.32Z" transform="translate(-0.72 -39.04)"/><path class="cls-6" d="M187,211.07v8.25h-.72l-5.3-6.7v6.7h-.88v-8.25h.72l5.31,6.7v-6.7Z" transform="translate(-0.72 -39.04)"/><path class="cls-6" d="M194.28,215.48v3.86h-.82v-1a2.34,2.34,0,0,1-2.14,1c-1.4,0-2.26-.73-2.26-1.81s.62-1.75,2.4-1.75h2v-.37c0-1.07-.61-1.65-1.77-1.65a3.12,3.12,0,0,0-2.05.73l-.39-.63a4,4,0,0,1,2.57-.83,2.21,2.21,0,0,1,2.45,1.94A2.26,2.26,0,0,1,194.28,215.48Zm-.84,2v-1h-1.95c-1.2,0-1.58.48-1.58,1.12s.58,1.16,1.57,1.16a2,2,0,0,0,2-1.26Z" transform="translate(-0.72 -39.04)"/><path class="cls-6" d="M206.79,215.72v3.6H206v-3.51c0-1.28-.66-2-1.78-2a2,2,0,0,0-2.09,1.9,1.94,1.94,0,0,0,0,.34v3.25h-.84v-3.51c0-1.28-.67-2-1.8-2a2,2,0,0,0-2.08,1.9,1.93,1.93,0,0,0,0,.34v3.25h-.84v-6.19h.76v1.13a2.61,2.61,0,0,1,2.28-1.19,2.25,2.25,0,0,1,2.21,1.29,2.72,2.72,0,0,1,2.44-1.29,2.35,2.35,0,0,1,2.56,2.11A2,2,0,0,1,206.79,215.72Z" transform="translate(-0.72 -39.04)"/><path class="cls-6" d="M214.49,216.48h-5.14a2.29,2.29,0,0,0,2.43,2.16h0a2.45,2.45,0,0,0,1.91-.81l.46.54a3.28,3.28,0,0,1-5.65-2.15,3,3,0,0,1,2.84-3.14h.2a3,3,0,0,1,3,2.9v.25A.48.48,0,0,0,214.49,216.48Zm-5.14-.62h4.4a2.2,2.2,0,0,0-4.4,0Z" transform="translate(-0.72 -39.04)"/></g><rect class="cls-4" x="142.69" y="122.97" width="168.24" height="28.8"/><g class="cls-5"><path class="cls-6" d="M153.49,172.48v3.24h4.27v.76h-4.27V180h-.87v-8.26h5.65v.76Z" transform="translate(-0.72 -39.04)"/><path class="cls-6" d="M159.6,171.81a.62.62,0,1,1,1.23,0,.6.6,0,0,1-.6.62h0a.6.6,0,0,1-.6-.6Zm.18,2h.83V180h-.83Z" transform="translate(-0.72 -39.04)"/><path class="cls-6" d="M166.08,173.73v.81h-.21a2,2,0,0,0-2.1,1.9,2.55,2.55,0,0,0,0,.39V180H163v-6.2h.8V175A2.36,2.36,0,0,1,166.08,173.73Z" transform="translate(-0.72 -39.04)"/><path class="cls-6" d="M166.77,179.27l.38-.67a3.71,3.71,0,0,0,2.21.71c1.18,0,1.66-.41,1.66-1,0-1.62-4-.35-4-2.8,0-1,.86-1.76,2.44-1.76a4.08,4.08,0,0,1,2.2.58l-.38.66a3.17,3.17,0,0,0-1.82-.52c-1.12,0-1.61.43-1.61,1,0,1.67,4,.41,4,2.79,0,1.06-.94,1.76-2.57,1.76A4.27,4.27,0,0,1,166.77,179.27Z" transform="translate(-0.72 -39.04)"/><path class="cls-6" d="M176.74,179.6a2.13,2.13,0,0,1-1.29.43,1.64,1.64,0,0,1-1.81-1.43,2.28,2.28,0,0,1,0-.37v-3.74h-1.12v-.71h1.12v-1.4h.84v1.36h1.87v.71h-1.87v3.69a1,1,0,0,0,.84,1.13.83.83,0,0,0,.22,0,1.42,1.42,0,0,0,.93-.32Z" transform="translate(-0.72 -39.04)"/><path class="cls-6" d="M188.31,171.72V180h-.72l-5.3-6.7V180h-.87v-8.26h.72l5.31,6.7v-6.7Z" transform="translate(-0.72 -39.04)"/><path class="cls-6" d="M195.55,176.13V180h-.81v-1a2.32,2.32,0,0,1-2.12,1c-1.41,0-2.28-.72-2.28-1.8s.62-1.75,2.41-1.75h2v-.38c0-1.06-.6-1.64-1.76-1.64a3.12,3.12,0,0,0-2.06.74l-.38-.63a3.92,3.92,0,0,1,2.57-.84,2.2,2.2,0,0,1,2.44,1.93A2.36,2.36,0,0,1,195.55,176.13Zm-.83,2v-1h-2c-1.19,0-1.58.47-1.58,1.1s.58,1.17,1.57,1.17a2,2,0,0,0,2-1.26Z" transform="translate(-0.72 -39.04)"/><path class="cls-6" d="M208.06,176.38V180h-.83v-3.51c0-1.29-.67-2-1.79-2a2,2,0,0,0-2.08,1.89,1.9,1.9,0,0,0,0,.34V180h-.84v-3.51c0-1.29-.66-2-1.8-2a2,2,0,0,0-2.08,1.89c0,.12,0,.23,0,.34V180h-.83v-6.2h.77V175a2.57,2.57,0,0,1,2.28-1.18,2.23,2.23,0,0,1,2.21,1.28,2.65,2.65,0,0,1,2.44-1.28,2.33,2.33,0,0,1,2.54,2.12A2,2,0,0,1,208.06,176.38Z" transform="translate(-0.72 -39.04)"/><path class="cls-6" d="M215.77,177.13h-5.15a2.3,2.3,0,0,0,2.44,2.16h0a2.39,2.39,0,0,0,1.9-.82l.46.55a3.26,3.26,0,0,1-4.63.1,3.22,3.22,0,0,1-1-2.24,3,3,0,0,1,2.83-3.15h.2a3,3,0,0,1,3,2.9,2.18,2.18,0,0,1,0,.25A.39.39,0,0,0,215.77,177.13Zm-5.15-.63H215a2.2,2.2,0,0,0-4.4,0Z" transform="translate(-0.72 -39.04)"/></g><path class="cls-4" d="M197.48,354.83l.58-1.2a5.5,5.5,0,0,0,3.56,1.28c1.86,0,2.66-.72,2.66-1.66,0-2.57-6.53-1-6.53-5,0-1.67,1.28-3.09,4.13-3.09a6.46,6.46,0,0,1,3.47.95l-.52,1.29a5.53,5.53,0,0,0-3-.88c-1.84,0-2.58.78-2.58,1.71,0,2.58,6.55,1,6.55,4.95,0,1.65-1.29,3.07-4.18,3.07A6.4,6.4,0,0,1,197.48,354.83Z" transform="translate(-0.72 -39.04)"/><path class="cls-4" d="M207.57,345.36a1,1,0,0,1,1-1h0a1,1,0,0,1,1,.93h0a1,1,0,0,1-2,0Zm.26,2.57h1.49v8.18h-1.49Z" transform="translate(-0.72 -39.04)"/><path class="cls-4" d="M220,347.89V355c0,2.89-1.46,4.21-4.23,4.21a6.09,6.09,0,0,1-3.85-1.23l.7-1.14a5,5,0,0,0,3.15,1.07c1.93,0,2.81-.9,2.81-2.76v-.64a3.74,3.74,0,0,1-2.95,1.29,4,4,0,0,1-.45-7.91h.45a3.71,3.71,0,0,1,3,1.29v-1.29Zm-1.44,3.86a2.81,2.81,0,1,0-2.95,2.67h.14a2.65,2.65,0,0,0,2.87-2.4,2.26,2.26,0,0,0,0-.26Z" transform="translate(-0.72 -39.04)"/><path class="cls-4" d="M230.55,351.36v4.71h-1.49v-4.59c0-1.61-.8-2.39-2.2-2.39a2.41,2.41,0,0,0-2.58,2.26,2.26,2.26,0,0,0,0,.45V356h-1.48v-8.18h1.43v1.29a3.45,3.45,0,0,1,2.94-1.29,3.17,3.17,0,0,1,3.38,3A2.63,2.63,0,0,1,230.55,351.36Z" transform="translate(-0.72 -39.04)"/><path class="cls-4" d="M245.07,347.89v8.18h-1.4v-1.29a3.32,3.32,0,0,1-2.78,1.29,3.19,3.19,0,0,1-3.52-3.56V347.8h1.47v4.54c0,1.59.81,2.4,2.22,2.4a2.41,2.41,0,0,0,2.58-2.23,2.57,2.57,0,0,0,0-.48V347.8Z" transform="translate(-0.72 -39.04)"/><path class="cls-4" d="M256.36,352a4,4,0,0,1-3.76,4.18h-.37a3.48,3.48,0,0,1-2.85-1.29v4.22H247.9V347.93h1.41v1.29a3.48,3.48,0,0,1,2.92-1.38,4,4,0,0,1,4.13,3.78Zm-1.49,0a2.75,2.75,0,1,0-2.77,2.88,2.71,2.71,0,0,0,2.77-2.66Z" transform="translate(-0.72 -39.04)"/></g><g id="freepik--speech-bubble--inject-2"><path class="cls-2" d="M441.14,39H404.2a11.37,11.37,0,0,0-11.37,11.37V82.56a11.37,11.37,0,0,0,11.36,11.38H415l-2.58,10.14L422.7,93.94h18.51a11.39,11.39,0,0,0,11.38-11.38h0V50.41A11.37,11.37,0,0,0,441.22,39Z" transform="translate(-0.72 -39.04)"/><path class="cls-9" d="M441.14,39H404.2a11.37,11.37,0,0,0-11.37,11.37V82.56a11.37,11.37,0,0,0,11.36,11.38H415l-2.58,10.14L422.7,93.94h18.51a11.39,11.39,0,0,0,11.38-11.38h0V50.41A11.37,11.37,0,0,0,441.22,39Z" transform="translate(-0.72 -39.04)"/><circle class="cls-4" cx="421.96" cy="27.31" r="14.34"/><path class="cls-2" d="M422.68,48A18.34,18.34,0,1,0,441,66.36,18.34,18.34,0,0,0,422.68,48Zm10.4,12.86L422,73.89a1.62,1.62,0,0,1-1.28.59,1.64,1.64,0,0,1-1.29-.59l-7.19-8.47a1.69,1.69,0,0,1,2.5-2.27l.08.09,5.9,7,9.76-11.5a1.69,1.69,0,0,1,2.57,2.18Z" transform="translate(-0.72 -39.04)"/></g><g id="freepik--Character--inject-2"><path class="cls-2" d="M434.74,237.39s-22.39-2.83-56.31,6.43c0,0-5.45-60.62-4.81-68.95S426,169,426,169s1.29,24.27,4.66,38.9S436.49,234.57,434.74,237.39Z" transform="translate(-0.72 -39.04)"/><path class="cls-10" d="M434.74,237.39s-22.39-2.83-56.31,6.43c0,0-5.45-60.62-4.81-68.95S426,169,426,169s1.29,24.27,4.66,38.9S436.49,234.57,434.74,237.39Z" transform="translate(-0.72 -39.04)"/><polygon class="cls-11" points="361.36 399.02 370.49 401.61 372.66 387.4 373.83 379.8 364.7 377.21 363.14 387.4 361.36 399.02"/><polygon class="cls-11" points="413.85 399.77 423.26 401.01 423.35 387.4 423.41 378.94 413.99 377.7 413.92 387.4 413.85 399.77"/><polygon class="cls-10" points="413.99 377.7 413.92 387.4 423.35 387.4 423.41 378.94 413.99 377.7"/><polygon class="cls-10" points="363.14 387.4 372.66 387.4 373.83 379.8 364.7 377.21 363.14 387.4"/><path class="cls-11" d="M321.54,179.85l-9.06-2.68,1.66,10.35s8.22,1.89,9-2.39Z" transform="translate(-0.72 -39.04)"/><polygon class="cls-11" points="302.71 140.53 307.16 148.94 313.42 148.48 311.76 138.13 302.71 140.53"/><polygon class="cls-11" points="333.34 143.45 318.45 140.12 317.1 147.35 330.61 150.64 333.34 143.45"/><path class="cls-2" d="M379.1,176l-.88,1c-1.87,2.19-6.43,7.51-11.17,12.08-3.86,3.73-7.72,7-10.29,7.64-7.29,1.88-33.79-5.93-33.79-5.93l2.74-10.75s24.69,3.28,26.6,3.28c1.46,0,16.47-21.75,20.11-23.54Z" transform="translate(-0.72 -39.04)"/><path class="cls-10" d="M378.22,177c-1.87,2.19-6.43,7.51-11.17,12.08.95-7.53,3.72-14.45,7.35-18.82a6.89,6.89,0,0,1,1.16-1.13Z" transform="translate(-0.72 -39.04)"/><path class="cls-6" d="M362.19,436.64l10.36-.27a.82.82,0,0,1,.83.61l2.18,8.35a1.38,1.38,0,0,1-1,1.68,1.54,1.54,0,0,1-.3,0c-3.75,0-9.16,0-13.85.09-5.51.16-9-.11-15.43,0-3.86.11-5.15-3.78-3.5-4.18,7.37-1.82,12.19-1.46,18.46-5.58A4.45,4.45,0,0,1,362.19,436.64Z" transform="translate(-0.72 -39.04)"/><path class="cls-2" d="M361.29,438h0c-1.52.34-4.22.79-5.3-.1a1.28,1.28,0,0,1-.46-1.08.69.69,0,0,1,.34-.6c1.15-.68,5,1.15,5.47,1.36a.25.25,0,0,1,.13.22A.21.21,0,0,1,361.29,438Zm-5.15-1.42h-.07a.27.27,0,0,0-.14.24.81.81,0,0,0,.29.71c.61.5,2.18.55,4.26.14-1.51-.63-3.6-1.36-4.31-1.09Z" transform="translate(-0.72 -39.04)"/><path class="cls-2" d="M361.29,438h-.16c-1.17-.48-3.51-2.46-3.38-3.53,0-.26.21-.58.83-.66a1.73,1.73,0,0,1,1.28.35c1.29,1,1.58,3.5,1.61,3.6a.24.24,0,0,1-.09.21Zm-2.88-3.69c-.19.07-.21.17-.21.21-.07.64,1.52,2.21,2.72,2.88a5.15,5.15,0,0,0-1.37-2.88,1.13,1.13,0,0,0-.92-.26Z" transform="translate(-0.72 -39.04)"/><path class="cls-6" d="M414.94,436.64l10.36-.27a.84.84,0,0,1,.84.61l2.17,8.35a1.35,1.35,0,0,1-1,1.67,1.2,1.2,0,0,1-.33.05c-3.74,0-9.15,0-13.86.09-5.49.16-9-.11-15.43,0-3.86.11-5.14-3.78-3.5-4.18,7.37-1.82,12.18-1.46,18.45-5.58A4.53,4.53,0,0,1,414.94,436.64Z" transform="translate(-0.72 -39.04)"/><path class="cls-2" d="M414.05,438h0c-1.52.34-4.23.79-5.3-.1a1.28,1.28,0,0,1-.46-1.08.69.69,0,0,1,.34-.6c1.14-.68,5,1.15,5.46,1.36a.2.2,0,0,1,.12.22A.2.2,0,0,1,414.05,438Zm-5.15-1.42h-.07a.24.24,0,0,0-.13.24.8.8,0,0,0,.29.71c.61.5,2.16.55,4.26.14-1.53-.63-3.63-1.36-4.33-1.09Z" transform="translate(-0.72 -39.04)"/><path class="cls-2" d="M414.05,438h-.17c-1.16-.48-3.51-2.46-3.37-3.53,0-.26.19-.58.81-.66a1.72,1.72,0,0,1,1.29.35,6.37,6.37,0,0,1,1.6,3.6.2.2,0,0,1-.09.21Zm-2.9-3.69c-.18.07-.19.17-.19.21-.09.64,1.52,2.21,2.71,2.88a5.23,5.23,0,0,0-1.36-2.88,1.18,1.18,0,0,0-.92-.26Z" transform="translate(-0.72 -39.04)"/><path class="cls-6" d="M434,231.86c5,21.62-3.58,191.67-3.58,191.67H413.87L406.8,281.82l-26,141.71-17.68-1.28c11.57-109.79,21.77-175.33,21.77-175.33v-8.28Z" transform="translate(-0.72 -39.04)"/><path class="cls-12" d="M363.08,422.25l17.68,1.28L401.25,312l5.55-30.15,7.07,141.71H430.4s8.57-170,3.58-191.67l-49.16,6.78v8.28S374.64,312.46,363.08,422.25Z" transform="translate(-0.72 -39.04)"/><path class="cls-6" d="M425.07,151.8a208.19,208.19,0,0,0,.78,31c.7,7.2,1.65,14,2.66,20.14,2.38,14.39,5.08,25.18,5.47,28.94l-49.16,6.78c-17.93-50.15-11.17-79.29-11.17-79.29a97.17,97.17,0,0,1,11.27-3.85c.81-.22,1.64-.43,2.48-.62A184.19,184.19,0,0,1,408.3,152c1.29-.12,2.69-.21,4-.27A123.7,123.7,0,0,1,425.07,151.8Z" transform="translate(-0.72 -39.04)"/><path class="cls-11" d="M398.76,129.24c.36,6.87,1.09,19.78,6.81,23.06,0,0-3.56,6.78-11.26,7.47-5.83.52-5.44-5.23-5.44-5.23,3.37-2.51,2.57-6.76,0-11.57Z" transform="translate(-0.72 -39.04)"/><path class="cls-10" d="M394.72,134.84,388.91,143a22,22,0,0,1,1.54,3.47c2.7-1.08,5.8-5.14,5.35-8.09A10.16,10.16,0,0,0,394.72,134.84Z" transform="translate(-0.72 -39.04)"/><path class="cls-6" d="M373.68,115.39c-1.11,3.57-.5,10.9,4.48,8.52S375.61,109.25,373.68,115.39Z" transform="translate(-0.72 -39.04)"/><path class="cls-11" d="M399.4,120.22c.55,9.17,1.29,14.51-2.71,19.7-6.08,7.81-17.86,4.9-21.15-3.95-3-8-3.36-21.63,5.14-26.25a12.66,12.66,0,0,1,18.72,10.5Z" transform="translate(-0.72 -39.04)"/><path class="cls-6" d="M393,115.23V104.94s10.91-.81,10.42,4.78c6,3,3.19,12.39-4.93,17-4.45-3.56-3.93-12.12-3.93-12.12A13.74,13.74,0,0,1,393,115.23Z" transform="translate(-0.72 -39.04)"/><path class="cls-11" d="M403.84,127.37a8.56,8.56,0,0,1-3.67,5.54c-2.57,1.69-4.79-.38-4.88-3.28-.08-2.57,1.14-6.63,4.1-7.15a4,4,0,0,1,4.52,3.31A4,4,0,0,1,403.84,127.37Z" transform="translate(-0.72 -39.04)"/><path class="cls-6" d="M385.86,124.31c.09.75-.23,1.39-.72,1.44s-.95-.5-1-1.29.23-1.38.71-1.44S385.77,123.51,385.86,124.31Z" transform="translate(-0.72 -39.04)"/><path class="cls-6" d="M377.45,125.25c.09.74-.23,1.39-.72,1.44s-1-.5-1-1.29.23-1.39.72-1.44S377.34,124.5,377.45,125.25Z" transform="translate(-0.72 -39.04)"/><path class="cls-13" d="M380.16,125.31a25.74,25.74,0,0,1-2.86,6.54,4.45,4.45,0,0,0,3.61.19Z" transform="translate(-0.72 -39.04)"/><path class="cls-6" d="M385.24,134.43a7.73,7.73,0,0,1-1,.18.22.22,0,1,1,0-.44h0a5.94,5.94,0,0,0,4.53-2.83.2.2,0,0,1,.27-.1h0a.21.21,0,0,1,.1.29h0A6.08,6.08,0,0,1,385.24,134.43Z" transform="translate(-0.72 -39.04)"/><path class="cls-6" d="M388.12,121.31a.46.46,0,0,1-.43-.12,3.56,3.56,0,0,0-3-1.15.43.43,0,0,1-.51-.32v0a.45.45,0,0,1,.35-.51h0a4.39,4.39,0,0,1,3.77,1.4.42.42,0,0,1,0,.6v0A.49.49,0,0,1,388.12,121.31Z" transform="translate(-0.72 -39.04)"/><path class="cls-6" d="M373.48,122.77a.39.39,0,0,1-.26,0,.44.44,0,0,1-.27-.56,4.3,4.3,0,0,1,2.84-2.8.44.44,0,0,1,.54.32.44.44,0,0,1-.32.53,3.34,3.34,0,0,0-2.22,2.24A.44.44,0,0,1,373.48,122.77Z" transform="translate(-0.72 -39.04)"/><path class="cls-6" d="M397.81,119s-6.43-2.35-9.36-6.08c0,0-5.84,1.53-7,3.85a2.9,2.9,0,0,1-.5-3.85s-4.37.92-5.23,3.85a3.66,3.66,0,0,1-2.06-3.85s-1.94.73-2.57,3.85c0,0-4.82-10,11.11-12.93a11.93,11.93,0,0,0-3.74-.63s11.12-4.49,19.93-.39S405.63,114.91,397.81,119Z" transform="translate(-0.72 -39.04)"/><path class="cls-2" d="M437.77,240.53l-15.43,2.06s-6.36-44.48-9.17-58.85V153.09l8.07-2.12,6.25,2.12a150.45,150.45,0,0,1,3.94,18.77c.76,4.81,1.44,9.95,2.05,15.16.83,7.1,1.53,14.33,2.12,21.09.92,10.92,1.54,20.57,1.88,26.48C437.67,238.29,437.77,240.53,437.77,240.53Z" transform="translate(-0.72 -39.04)"/><path class="cls-2" d="M413.19,183.72s1.28-21.64,8.06-32.8c0,0-.17-3.19-1.52-3.71s-6.54,2.57-6.54,2.57-3.23-2.21-3.94-1.18S406.82,156.47,413.19,183.72Z" transform="translate(-0.72 -39.04)"/><path class="cls-9" d="M413.19,183.72s1.28-21.64,8.06-32.8c0,0-.17-3.19-1.52-3.71s-6.54,2.57-6.54,2.57-3.23-2.21-3.94-1.18S406.82,156.47,413.19,183.72Z" transform="translate(-0.72 -39.04)"/><path class="cls-2" d="M378.11,246.46l1.76,1.28s-2.57-14.34-1.52-50.6c0-1.75.12-3.43.18-5,1.29-30.68,6.07-36.26,6.43-36.59L380.51,157l-8.06,2.78C370,186,378.11,246.46,378.11,246.46Z" transform="translate(-0.72 -39.04)"/><path class="cls-2" d="M378.8,186.82s-4.45-21-3.12-28.29,6.07-4,6.07-4,4.36-3.52,5.65.36C387.4,154.86,381.41,159.08,378.8,186.82Z" transform="translate(-0.72 -39.04)"/><path class="cls-9" d="M378.8,186.82s-4.45-21-3.12-28.29,6.07-4,6.07-4,4.36-3.52,5.65.36C387.4,154.86,381.41,159.08,378.8,186.82Z" transform="translate(-0.72 -39.04)"/><path class="cls-10" d="M433.45,187c-6.58-3.69-7.46-13.32-7.46-13.32.4-.15,2.85-1,5.42-1.84C432.17,176.62,432.85,181.76,433.45,187Z" transform="translate(-0.72 -39.04)"/><path class="cls-10" d="M401.25,312l5.55-30.15-1.07-16S398.13,293.53,401.25,312Z" transform="translate(-0.72 -39.04)"/><path class="cls-10" d="M437.45,234.54c-4.14-.29-7.71-.56-7.71-.56L429,217.15a6,6,0,0,1,4.33-.8,47.64,47.64,0,0,0,2.31-8.29C436.49,219,437.12,228.65,437.45,234.54Z" transform="translate(-0.72 -39.04)"/><polygon class="cls-11" points="438.15 169 430.09 181.95 436.46 185.62 444.04 173.95 438.15 169"/><path class="cls-2" d="M427.14,152.88c5.42.59,28.49,32.25,29.51,41.79s-13.55,26-13.55,26L433.37,215s9.88-15.18,10.39-19.28S425.7,175,425.7,175a37.29,37.29,0,0,1-2.29-11.91C423.15,156.12,427.14,152.88,427.14,152.88Z" transform="translate(-0.72 -39.04)"/><path class="cls-2" d="M428.94,217.16s8.29,1.78,11.64,7c0,0-3.48,10.86-6,12.05s-8.63,1.18-8.63,1.18S425.6,225.3,428.94,217.16Z" transform="translate(-0.72 -39.04)"/></g></svg>