<svg id="Layer_1" data-name="Layer 1" xmlns="http://www.w3.org/2000/svg" viewBox="0 0 380.72 358.18"><defs><style>.cls-1{fill:#f4f7fb;}.cls-2{fill:#263238;}.cls-3{fill:#7c39eb;}.cls-4{fill:#fff;}.cls-5{fill:#455a64;}.cls-6{fill:#e1d4ff;}.cls-7{fill:#c7c7c7;}.cls-8{fill:#dbdbdb;}.cls-9{fill:#a6a6a6;}.cls-10{fill:#ad6359;}.cls-11{fill:#37474f;}.cls-12{opacity:0.1;isolation:isolate;}.cls-13{fill:#ff9abb;}</style></defs><title>2-Team create</title><g id="freepik--Window--inject-2"><rect class="cls-1" x="0.25" y="0.26" width="345.72" height="238.11"/><path class="cls-2" d="M405.7,380.21c-.06.06-345.8.1-345.87.15s0-238.21-.1-238.26v-.26H60s345.77.17,345.82.14-.16,238.14-.1,238.22Zm0,0c0,.05-.25-238.56,0-238L60,142.36l.25-.25c0-.08.11,238.78-.25,238l345.72.15Z" transform="translate(-59.73 -141.84)"/><rect class="cls-2" x="0.25" y="0.26" width="345.72" height="9.16"/><path class="cls-3" d="M68.84,146.68A1.85,1.85,0,1,1,67,144.84a1.85,1.85,0,0,1,1.87,1.84Z" transform="translate(-59.73 -141.84)"/><path class="cls-4" d="M76.35,146.68a1.85,1.85,0,1,1-1.86-1.84h0a1.85,1.85,0,0,1,1.84,1.84Z" transform="translate(-59.73 -141.84)"/><path class="cls-5" d="M83.89,146.68A1.85,1.85,0,1,1,82,144.84h0a1.85,1.85,0,0,1,1.85,1.83Z" transform="translate(-59.73 -141.84)"/><rect class="cls-6" x="36.05" y="29.98" width="7.45" height="1.2"/><rect class="cls-6" x="36.05" y="35.36" width="7.45" height="1.2"/><rect class="cls-6" x="36.05" y="32.7" width="7.45" height="1.2"/><rect class="cls-6" x="62.24" y="31.94" width="39.63" height="2.65"/><rect class="cls-3" x="116.59" y="31.94" width="39.63" height="2.65"/><rect class="cls-6" x="170.95" y="31.94" width="39.63" height="2.65"/><rect class="cls-4" x="227.32" y="28.64" width="82.76" height="9.26"/><path class="cls-7" d="M369.9,179.84c-.25-.24-83.43.68-83.18,0v-9.71l62.46.12,20.78.09s0,9.46,0,9.5Zm0,0s-.09-9.64,0-9.42c-10.35.06-31.13.13-41.48.14l-41.47.07.25-.25v9.46c-1.45-.66,83,.21,82.72,0Z" transform="translate(-59.73 -141.84)"/><path class="cls-8" d="M368.11,177.71l-.86.65-1.58-2.1-.58-.76a1.86,1.86,0,0,0,.33-.19,1.46,1.46,0,0,0,.44-.57l.62.81Z" transform="translate(-59.73 -141.84)"/><path class="cls-8" d="M366.42,172.78a2.33,2.33,0,1,0-.75,3.48,2.2,2.2,0,0,0,.32-.21,2.3,2.3,0,0,0,.45-3.23Zm-1,2.53a1.86,1.86,0,0,1-.33.19,1.42,1.42,0,1,1,.77-1.85A1.41,1.41,0,0,1,365.42,175.31Z" transform="translate(-59.73 -141.84)"/><rect class="cls-7" x="229.25" y="30.46" width="0.5" height="5.62"/><rect class="cls-8" x="339.28" y="9.42" width="6.69" height="228.95"/><path class="cls-9" d="M402.36,231h0a1.71,1.71,0,0,1-1.73-1.71h0V154.59a1.72,1.72,0,0,1,1.69-1.75h0a1.72,1.72,0,0,1,1.72,1.72h0v74.71a1.72,1.72,0,0,1-1.7,1.74Z" transform="translate(-59.73 -141.84)"/><path class="cls-7" d="M369.9,253.46c-.23-.23-274.59.67-274.35,0V227.84c.25,0,274.16.19,274.39.25v25.37Zm0,0V228.09c.12.07-274.12.23-274.1.25l.25-.25v25.37c-1.59-.63,274.32.2,273.89,0Z" transform="translate(-59.73 -141.84)"/><path class="cls-7" d="M109.63,237.72c31.35-.49,66.53-.49,97.88,0C176.16,238.21,141,238.21,109.63,237.72Z" transform="translate(-59.73 -141.84)"/><path class="cls-7" d="M109.63,243.84c20.39-.5,42.83-.5,63.22,0C152.46,244.33,130,244.33,109.63,243.84Z" transform="translate(-59.73 -141.84)"/><rect class="cls-6" x="184.76" y="95.06" width="56.19" height="7.76"/><rect class="cls-3" x="186.42" y="96.74" width="52.51" height="4.32"/><rect class="cls-3" x="268.88" y="93.48" width="28.95" height="10.82"/><path class="cls-4" d="M336.18,238.36a2.42,2.42,0,0,1,1.39.47.18.18,0,0,1,0,.22.14.14,0,0,1-.21,0,2,2,0,0,0-1.2-.42,1.88,1.88,0,1,0-.28,3.75h.28a1.8,1.8,0,0,0,1.19-.41.13.13,0,0,1,.19,0h0a.18.18,0,0,1,0,.22,2.25,2.25,0,0,1-1.39.46,2.18,2.18,0,1,1-.3-4.35h.3Z" transform="translate(-59.73 -141.84)"/><path class="cls-4" d="M341,240.89a1,1,0,0,0-1.26-.66,1,1,0,0,0-.65.66v1.68h0a.17.17,0,0,1-.09.08h0a.17.17,0,0,1-.12-.05h0a0,0,0,0,1,0,0v-4a.15.15,0,0,1,.14-.15.16.16,0,0,1,.16.15h0v1.58a1.23,1.23,0,0,1,.95-.44,1.2,1.2,0,0,1,1.25,1.14v1.72a.15.15,0,0,1-.16.14h0a.14.14,0,0,1-.14-.14h0Z" transform="translate(-59.73 -141.84)"/><path class="cls-4" d="M342.34,241.22a1.46,1.46,0,0,1,2.91-.11h0a.15.15,0,0,1-.15.14h-2.46a1.17,1.17,0,0,0,1.16,1.15,1.1,1.1,0,0,0,1-.55.17.17,0,0,1,.2,0,.19.19,0,0,1,.05.21,1.47,1.47,0,0,1-2.71-.77Zm.32-.24h2.27a1.15,1.15,0,0,0-2.27,0Z" transform="translate(-59.73 -141.84)"/><path class="cls-4" d="M346.08,241.21a1.51,1.51,0,0,1,1.52-1.5h0a1.58,1.58,0,0,1,1,.33.15.15,0,0,1,0,.2h0a.13.13,0,0,1-.2,0h0a1.32,1.32,0,0,0-.78-.27,1.22,1.22,0,0,0-1.22,1.21,1.21,1.21,0,0,0,1.21,1.21h0a1.31,1.31,0,0,0,.78-.26.14.14,0,0,1,.19,0h0a.17.17,0,0,1,0,.21,1.52,1.52,0,0,1-1,.32A1.5,1.5,0,0,1,346.08,241.21Z" transform="translate(-59.73 -141.84)"/><path class="cls-4" d="M349.84,238.57a.15.15,0,0,1,.15-.15.15.15,0,0,1,.15.15v2.89l1.78-1.77a.13.13,0,0,1,.18,0l0,0a.14.14,0,0,1,0,.19h0L351,241.05l1.17,1.42a.17.17,0,0,1,0,.21.07.07,0,0,1-.09,0,.11.11,0,0,1-.12-.05l-1.15-1.39-.62.61v.69a.14.14,0,0,1-.14.14h0a.15.15,0,0,1-.15-.14Z" transform="translate(-59.73 -141.84)"/><path class="cls-7" d="M369.9,288.84c-.23-.23-274.59.66-274.35,0V263.22c.25,0,274.16.19,274.39.25v25.37Zm0,0V263.47c.12.06-274.12.23-274.1.25l.25-.25v25.37c-1.59-.63,274.32.2,273.89,0Z" transform="translate(-59.73 -141.84)"/><path class="cls-7" d="M109.63,273.08c31.35-.49,66.53-.49,97.88,0C176.16,273.57,141,273.57,109.63,273.08Z" transform="translate(-59.73 -141.84)"/><path class="cls-7" d="M109.63,279.2c20.39-.49,42.83-.5,63.22,0C152.46,279.7,130,279.69,109.63,279.2Z" transform="translate(-59.73 -141.84)"/><rect class="cls-6" x="184.76" y="130.42" width="56.19" height="7.76"/><rect class="cls-3" x="186.42" y="132.1" width="36.56" height="4.32"/><rect class="cls-3" x="268.88" y="128.85" width="28.95" height="10.82"/><path class="cls-4" d="M336.18,273.73a2.33,2.33,0,0,1,1.39.47.17.17,0,0,1,0,.21.14.14,0,0,1-.2,0v0a2,2,0,0,0-1.2-.41,1.88,1.88,0,1,0-.28,3.75h.28a1.81,1.81,0,0,0,1.19-.42.13.13,0,0,1,.19,0h0a.17.17,0,0,1,0,.21,2.26,2.26,0,0,1-1.39.47,2.18,2.18,0,1,1-.3-4.35h.3Z" transform="translate(-59.73 -141.84)"/><path class="cls-4" d="M341,276.26a1,1,0,0,0-1.26-.66,1,1,0,0,0-.65.66V278h0a.15.15,0,0,1-.09.07h0a.17.17,0,0,1-.12-.05v-.05h0v-4a.15.15,0,0,1,.15-.15.16.16,0,0,1,.15.15v1.58a1.31,1.31,0,0,1,.95-.44,1.2,1.2,0,0,1,1.25,1.14v1.72a.16.16,0,0,1-.16.15.15.15,0,0,1-.14-.15Z" transform="translate(-59.73 -141.84)"/><path class="cls-4" d="M342.34,276.58a1.46,1.46,0,0,1,2.91-.11h0a.14.14,0,0,1-.15.13h-2.46a1.16,1.16,0,0,0,1.16,1.15,1.15,1.15,0,0,0,1-.54.14.14,0,0,1,.19,0h0a.19.19,0,0,1,.05.21,1.47,1.47,0,0,1-2.71-.79Zm.32-.24h2.27a1.15,1.15,0,0,0-2.27,0Z" transform="translate(-59.73 -141.84)"/><path class="cls-4" d="M346.08,276.57a1.52,1.52,0,0,1,1.54-1.5h0a1.64,1.64,0,0,1,1,.33.15.15,0,0,1,0,.21.12.12,0,0,1-.15,0,1.32,1.32,0,0,0-.78-.27,1.22,1.22,0,0,0-1.22,1.21,1.21,1.21,0,0,0,1.21,1.21h0a1.31,1.31,0,0,0,.78-.26.15.15,0,0,1,.2,0,.18.18,0,0,1,0,.22,1.57,1.57,0,0,1-1,.32,1.51,1.51,0,0,1-1.56-1.48Z" transform="translate(-59.73 -141.84)"/><path class="cls-4" d="M349.84,273.93a.15.15,0,0,1,.15-.14.16.16,0,0,1,.15.13h0v2.91l1.78-1.77a.16.16,0,0,1,.21,0,.15.15,0,0,1,0,.18L351,276.44l1.17,1.41a.18.18,0,0,1,0,.22h-.09a.11.11,0,0,1-.12-.06l-1.15-1.39-.62.61v.69a.15.15,0,0,1-.15.15.14.14,0,0,1-.15-.15Z" transform="translate(-59.73 -141.84)"/><path class="cls-7" d="M369.9,324.19c-.23-.23-274.59.67-274.35,0V298.57c.25,0,274.16.19,274.39.25v25.37Zm0,0-.06-25.35c.12.06-274.12.23-274.1.25l.25-.25v25.37c-1.59-.63,274.32.2,273.89,0Z" transform="translate(-59.73 -141.84)"/><path class="cls-7" d="M109.63,308.45c31.35-.49,66.53-.5,97.88,0C176.16,308.94,141,308.93,109.63,308.45Z" transform="translate(-59.73 -141.84)"/><path class="cls-7" d="M109.63,314.56c20.39-.49,42.83-.49,63.22,0C152.46,315.06,130,315.06,109.63,314.56Z" transform="translate(-59.73 -141.84)"/><rect class="cls-6" x="184.76" y="165.78" width="56.19" height="7.76"/><rect class="cls-3" x="186.42" y="167.46" width="7.01" height="4.32"/><rect class="cls-3" x="268.88" y="164.21" width="28.95" height="10.82"/><path class="cls-4" d="M336.18,309.09a2.33,2.33,0,0,1,1.39.47.18.18,0,0,1,0,.22.14.14,0,0,1-.21,0,2,2,0,0,0-1.2-.42,1.88,1.88,0,1,0-.28,3.75h.28a1.81,1.81,0,0,0,1.19-.42.17.17,0,0,1,.21,0,.18.18,0,0,1,0,.22,2.34,2.34,0,0,1-1.39.46,2.18,2.18,0,1,1-.3-4.35h.3Z" transform="translate(-59.73 -141.84)"/><path class="cls-4" d="M341,311.62a1,1,0,0,0-1.26-.66,1,1,0,0,0-.65.66v1.74a.13.13,0,0,1-.09.07h0a.13.13,0,0,1-.12,0v-.05a0,0,0,0,1,0-.05v-4a.15.15,0,0,1,.15-.15.16.16,0,0,1,.15.15v1.51a1.23,1.23,0,0,1,.95-.44,1.2,1.2,0,0,1,1.25,1.14v1.71a.16.16,0,0,1-.16.15.15.15,0,0,1-.14-.15Z" transform="translate(-59.73 -141.84)"/><path class="cls-4" d="M342.34,311.94a1.46,1.46,0,0,1,2.91-.11h0a.14.14,0,0,1-.15.13h-2.46a1.17,1.17,0,0,0,1.16,1.16,1.1,1.1,0,0,0,1-.55.18.18,0,0,1,.2,0,.19.19,0,0,1,.05.21,1.47,1.47,0,0,1-2.71-.79Zm.32-.23h2.27a1.15,1.15,0,0,0-2.27,0Z" transform="translate(-59.73 -141.84)"/><path class="cls-4" d="M346.08,311.93a1.51,1.51,0,0,1,1.53-1.49h0a1.58,1.58,0,0,1,1,.33.15.15,0,0,1,0,.2h0a.15.15,0,0,1-.2,0,1.25,1.25,0,0,0-1.75.25,1.18,1.18,0,0,0,1,1.9h0a1.25,1.25,0,0,0,.78-.27.14.14,0,0,1,.19,0h0a.17.17,0,0,1,0,.21,1.61,1.61,0,0,1-2.57-1.13Z" transform="translate(-59.73 -141.84)"/><path class="cls-4" d="M349.84,309.3a.15.15,0,0,1,.15-.15.15.15,0,0,1,.15.15v2.88l1.78-1.77a.16.16,0,0,1,.21,0,.15.15,0,0,1,0,.18L351,311.78l1.17,1.42a.17.17,0,0,1,0,.21h-.09a.13.13,0,0,1-.12,0l-1.15-1.4-.62.62v.68a.15.15,0,0,1-.15.15.14.14,0,0,1-.15-.15Z" transform="translate(-59.73 -141.84)"/><path class="cls-7" d="M369.9,359.55c-.23-.23-274.59.67-274.35,0V333.94c.25,0,274.16.18,274.39.25v25.36Zm0,0V334.19c.12.06-274.12.22-274.1.24l.25-.24v25.36c-1.59-.63,274.32.2,273.89,0Z" transform="translate(-59.73 -141.84)"/><path class="cls-7" d="M109.63,343.84c31.35-.49,66.53-.49,97.88,0C176.16,344.33,141,344.33,109.63,343.84Z" transform="translate(-59.73 -141.84)"/><path class="cls-7" d="M109.63,349.93c20.39-.49,42.83-.5,63.22,0C152.46,350.42,130,350.42,109.63,349.93Z" transform="translate(-59.73 -141.84)"/><rect class="cls-6" x="184.76" y="201.15" width="56.19" height="7.76"/><rect class="cls-3" x="186.42" y="202.83" width="10.71" height="4.32"/><rect class="cls-3" x="268.88" y="199.58" width="28.95" height="10.82"/><path class="cls-4" d="M336.18,344.45a2.42,2.42,0,0,1,1.39.47.18.18,0,0,1,0,.22.14.14,0,0,1-.21,0,2,2,0,0,0-1.2-.42,1.88,1.88,0,1,0-.28,3.75h.28a1.8,1.8,0,0,0,1.19-.41.13.13,0,0,1,.19,0h0a.18.18,0,0,1,0,.22,2.25,2.25,0,0,1-1.39.46,2.18,2.18,0,1,1-.3-4.35h.3Z" transform="translate(-59.73 -141.84)"/><path class="cls-4" d="M341,347a1,1,0,0,0-1.26-.66,1,1,0,0,0-.65.66v1.7h0a.14.14,0,0,1-.09.08h0a.13.13,0,0,1-.12,0v-.05a0,0,0,0,1,0,0v-4a.15.15,0,0,1,.15-.15.16.16,0,0,1,.15.15v1.58a1.23,1.23,0,0,1,.95-.44,1.2,1.2,0,0,1,1.25,1.14v1.72a.15.15,0,0,1-.16.14h0a.14.14,0,0,1-.14-.14h0Z" transform="translate(-59.73 -141.84)"/><path class="cls-4" d="M342.34,347.31a1.46,1.46,0,0,1,2.91-.11h0a.15.15,0,0,1-.15.14h-2.46a1.17,1.17,0,0,0,1.16,1.15,1.1,1.1,0,0,0,1-.55.15.15,0,0,1,.2,0,.17.17,0,0,1,.05.2,1.46,1.46,0,0,1-2.71-.74A.14.14,0,0,1,342.34,347.31Zm.32-.24h2.27a1.15,1.15,0,0,0-2.27,0Z" transform="translate(-59.73 -141.84)"/><path class="cls-4" d="M346.08,347.3a1.51,1.51,0,0,1,1.52-1.5h0a1.58,1.58,0,0,1,1,.33.15.15,0,0,1,0,.2h0a.13.13,0,0,1-.2,0h0a1.32,1.32,0,0,0-.78-.27,1.21,1.21,0,1,0,0,2.42,1.31,1.31,0,0,0,.78-.26.15.15,0,0,1,.2,0,.18.18,0,0,1,0,.22,1.53,1.53,0,0,1-1,.31A1.5,1.5,0,0,1,346.08,347.3Z" transform="translate(-59.73 -141.84)"/><path class="cls-4" d="M349.84,344.66a.15.15,0,0,1,.15-.15.15.15,0,0,1,.15.15v2.89l1.78-1.77a.15.15,0,0,1,.24.18l0,0L351,347.14l1.17,1.42a.17.17,0,0,1,0,.21.07.07,0,0,1-.09,0,.13.13,0,0,1-.12,0l-1.15-1.39-.62.61v.69a.14.14,0,0,1-.14.14h0a.15.15,0,0,1-.15-.14Z" transform="translate(-59.73 -141.84)"/></g><rect class="cls-3" x="226.99" y="27.63" width="83.24" height="21.26"/><path class="cls-4" d="M295.52,179.76h-2.19V179h2.19v-2.34h.79V179h2.19v.74h-2.19v2.34h-.79Z" transform="translate(-59.73 -141.84)"/><path class="cls-4" d="M301.93,179.42c0-2.54,1.51-4.09,3.51-4.09a2.93,2.93,0,0,1,2.17,1l-.55.65a2.13,2.13,0,0,0-1.6-.74c-1.49,0-2.49,1.21-2.49,3.17s.95,3.22,2.45,3.22a2.36,2.36,0,0,0,1.83-.88l.55.63a3,3,0,0,1-2.42,1.13C303.41,183.49,301.93,182,301.93,179.42Z" transform="translate(-59.73 -141.84)"/><path class="cls-4" d="M309.18,177.52H310l.08,1.06h0a2,2,0,0,1,1.67-1.2,1.32,1.32,0,0,1,.62.12l-.19.86a1.69,1.69,0,0,0-.56-.09c-.5,0-1.09.35-1.48,1.34v3.74h-1Z" transform="translate(-59.73 -141.84)"/><path class="cls-4" d="M312.8,180.44a2.81,2.81,0,0,1,2.63-3.06c1.49,0,2.34,1.06,2.34,2.73a2.9,2.9,0,0,1,0,.56h-3.94a1.94,1.94,0,0,0,1.94,2,2.52,2.52,0,0,0,1.46-.47l.36.65a3.52,3.52,0,0,1-1.94.6A2.79,2.79,0,0,1,312.8,180.44Zm4.09-.47c0-1.17-.53-1.81-1.44-1.81a1.8,1.8,0,0,0-1.68,1.81Z" transform="translate(-59.73 -141.84)"/><path class="cls-4" d="M318.68,181.84c0-1.27,1.1-1.91,3.59-2.18,0-.75-.25-1.47-1.21-1.47a3.28,3.28,0,0,0-1.74.62l-.39-.67a4.33,4.33,0,0,1,2.3-.76c1.43,0,2,.94,2,2.39v3.58h-.82l-.08-.7h0a3.08,3.08,0,0,1-1.94.84A1.58,1.58,0,0,1,318.68,181.84Zm3.59.09v-1.62c-2,.23-2.62.71-2.62,1.46s.45.93,1,.93A2.4,2.4,0,0,0,322.27,181.93Z" transform="translate(-59.73 -141.84)"/><path class="cls-4" d="M325.11,181.55v-3.23h-.87v-.74l.92-.06.12-1.63h.82v1.63h1.59v.8H326.1v3.24c0,.72.23,1.13.91,1.13a1.83,1.83,0,0,0,.66-.16l.2.75a3.57,3.57,0,0,1-1.09.21C325.54,183.49,325.11,182.71,325.11,181.55Z" transform="translate(-59.73 -141.84)"/><path class="cls-4" d="M328.41,180.44a2.81,2.81,0,0,1,2.63-3.06c1.49,0,2.33,1.06,2.33,2.73a4.18,4.18,0,0,1,0,.56h-3.95a2,2,0,0,0,1.95,2,2.57,2.57,0,0,0,1.46-.47l.35.65a3.48,3.48,0,0,1-1.93.6A2.79,2.79,0,0,1,328.41,180.44Zm4.09-.47c0-1.17-.53-1.81-1.45-1.81a1.79,1.79,0,0,0-1.67,1.81Z" transform="translate(-59.73 -141.84)"/><path class="cls-4" d="M339,176.33h-2.39v-.85h5.79v.85H340v7h-1Z" transform="translate(-59.73 -141.84)"/><path class="cls-4" d="M342.45,180.44a2.81,2.81,0,0,1,2.63-3.06c1.49,0,2.33,1.06,2.33,2.73a3,3,0,0,1,0,.56h-3.94a1.94,1.94,0,0,0,1.94,2,2.57,2.57,0,0,0,1.46-.47l.35.65a3.48,3.48,0,0,1-1.93.6A2.79,2.79,0,0,1,342.45,180.44Zm4.09-.47c0-1.17-.53-1.81-1.44-1.81a1.79,1.79,0,0,0-1.68,1.81Z" transform="translate(-59.73 -141.84)"/><path class="cls-4" d="M348.32,181.84c0-1.27,1.1-1.91,3.6-2.18,0-.75-.25-1.47-1.21-1.47a3.29,3.29,0,0,0-1.75.62l-.38-.67a4.33,4.33,0,0,1,2.3-.76c1.42,0,2,.94,2,2.39v3.58h-.82l-.08-.7h0a3.05,3.05,0,0,1-1.93.84A1.59,1.59,0,0,1,348.32,181.84Zm3.6.09v-1.62c-2,.23-2.63.71-2.63,1.46s.45.93,1,.93A2.42,2.42,0,0,0,351.92,181.93Z" transform="translate(-59.73 -141.84)"/><path class="cls-4" d="M354.75,177.52h.82l.09.85h0a2.56,2.56,0,0,1,1.82-1,1.54,1.54,0,0,1,1.62,1.11,2.72,2.72,0,0,1,1.93-1.11c1.2,0,1.78.79,1.78,2.28v3.69h-1v-3.57c0-1.08-.35-1.55-1.09-1.55a2.14,2.14,0,0,0-1.47.9v4.22h-1v-3.57c0-1.08-.34-1.55-1.09-1.55a2.17,2.17,0,0,0-1.46.9v4.22h-1Z" transform="translate(-59.73 -141.84)"/><g id="freepik--Floor--inject-2"><path class="cls-2" d="M65.86,499.59c119.27-.56,253.08-.56,372.35,0C318.94,500.16,185.13,500.16,65.86,499.59Z" transform="translate(-59.73 -141.84)"/></g><g id="freepik--Character--inject-2"><path class="cls-10" d="M437,435.33s-.1,42.05-.1,42.08c-.24,7.76-.58,14.57-1.09,18.08v.05a5.64,5.64,0,0,1-.65,2.38V498c-2.36,1.5-64.48,1.39-66.65.66s-.25-7,2.17-8.89S397,477.22,397,477.22l.48-42Z" transform="translate(-59.73 -141.84)"/><path class="cls-4" d="M437.24,469.07s-.3,8.27-.3,8.34c-.24,7.76-.58,14.57-1.09,18.08v.05a10.75,10.75,0,0,1-.65,2.38V498c-2.36,1.5-64.48,1.39-66.65.66s-.25-7,2.17-8.89S397,477.22,397,477.22l.18-8.45Z" transform="translate(-59.73 -141.84)"/><path class="cls-2" d="M393.09,477.14c4.15-.56,9.19.31,12.15,3.4.12.12-.06.29-.18.24a58.07,58.07,0,0,0-11.95-3.12.26.26,0,0,1-.23-.3A.27.27,0,0,1,393.09,477.14Z" transform="translate(-59.73 -141.84)"/><path class="cls-2" d="M390,478.79c4.15-.56,9.19.31,12.16,3.4.11.12-.06.28-.19.24a57.45,57.45,0,0,0-11.95-3.12.26.26,0,0,1,0-.52Z" transform="translate(-59.73 -141.84)"/><path class="cls-2" d="M387,480.43c4.15-.56,9.19.31,12.16,3.4.12.12-.06.29-.19.24A58,58,0,0,0,387,481a.28.28,0,0,1-.24-.3A.29.29,0,0,1,387,480.43Z" transform="translate(-59.73 -141.84)"/><path class="cls-11" d="M368.49,498.63c2.17.73,64.34.84,66.66-.66.92-.55,1.45-9.61,1.79-20.56v-.34l-40.07-.52v.68s-23.78,10.6-26.21,12.51S366.32,497.9,368.49,498.63Z" transform="translate(-59.73 -141.84)"/><path class="cls-3" d="M437,477.06v.36c-.35,10.94-.92,20-1.79,20.55-1.08.68-14.55,1-29.1,1.15-17.42.13-36.37-.09-37.56-.49-2.17-.73-.23-7,2.17-8.89s26.22-12.51,26.22-12.51v-.68l13.38.18Z" transform="translate(-59.73 -141.84)"/><path class="cls-2" d="M369.2,496.22c10.47-.24,52.73-.22,63.1.34.09,0,.09.07,0,.07-10.37.46-52.63.1-63.1-.23C369,496.39,369,496.22,369.2,496.22Z" transform="translate(-59.73 -141.84)"/><path class="cls-12" d="M410.24,476.73c-1.17,6.68-2.93,16.54-4.19,22.39-17.42.13-36.37-.09-37.56-.49-2.17-.73-.23-7,2.17-8.89s26.23-12.51,26.23-12.51v-.68Z" transform="translate(-59.73 -141.84)"/><path class="cls-11" d="M440.45,478l-44.93-.82s-.35-77.53.12-101.93c.56-27.86,4.44-111.39,4.44-111.39l33.59.92s6.68,19.56,6,31.59c-.2,3.48-2.54,8.53-3.57,12.23l-5.37,69.06Z" transform="translate(-59.73 -141.84)"/><path class="cls-2" d="M437.34,470a35.42,35.42,0,0,0-3.57-.39c-1.32-.12-2.65-.26-4-.35-2.56-.18-5.11-.3-7.67-.38-5.15-.16-10.32-.27-15.47-.25-2.94,0-5.88.06-8.81.14a.09.09,0,1,0,0,.18h0c5.11.33,10.22.55,15.33.79s10.23.48,15.33.53h4.4a38.05,38.05,0,0,0,4.41-.09C437.4,470.15,437.45,470,437.34,470Z" transform="translate(-59.73 -141.84)"/><path class="cls-2" d="M400.19,427.11C400,415,400,400,400,387.91q0-36.35,1.48-72.61c.55-13.58,1.28-27.14,2.07-40.71a.12.12,0,1,0-.24,0c-2,24.26-3.13,48.61-3.83,72.94s-.92,51.33-.41,75.55c.29,13.58.65,28.63,1.56,42.2a.09.09,0,0,0,.09.09.1.1,0,0,0,.1-.09C400.64,453,400.39,439.35,400.19,427.11Z" transform="translate(-59.73 -141.84)"/><path class="cls-10" d="M388.88,436.56s-1.46,40.61-1.46,40.64c-.24,7.76-.59,14.56-1.1,18.07a0,0,0,0,1,0,.05,5.41,5.41,0,0,1-.65,2.39l0,.05c-2.37,1.49-64.49,1.38-66.65.65s-.25-7,2.17-8.88S347.37,477,347.37,477l1.84-40.57Z" transform="translate(-59.73 -141.84)"/><path class="cls-4" d="M387.72,468.86s-.3,8.27-.3,8.34c-.24,7.76-.59,14.56-1.1,18.07a0,0,0,0,1,0,.05,10.45,10.45,0,0,1-.65,2.39l0,.05c-2.37,1.49-64.49,1.38-66.65.65s-.25-7,2.17-8.88S347.37,477,347.37,477l.2-8.46Z" transform="translate(-59.73 -141.84)"/><path class="cls-2" d="M343.56,476.93c4.15-.56,9.19.31,12.16,3.4.11.12-.06.29-.19.23a58.05,58.05,0,0,0-11.95-3.11.26.26,0,0,1-.23-.3A.27.27,0,0,1,343.56,476.93Z" transform="translate(-59.73 -141.84)"/><path class="cls-2" d="M340.5,478.57c4.15-.57,9.19.32,12.16,3.41.12.11-.06.28-.19.23a57.33,57.33,0,0,0-11.94-3.11.28.28,0,0,1-.24-.3A.29.29,0,0,1,340.5,478.57Z" transform="translate(-59.73 -141.84)"/><path class="cls-2" d="M337.45,480.22c4.14-.57,9.19.31,12.15,3.4.12.12-.06.29-.19.23a58,58,0,0,0-11.94-3.11.26.26,0,0,1-.23-.3A.27.27,0,0,1,337.45,480.22Z" transform="translate(-59.73 -141.84)"/><path class="cls-3" d="M319,498.41c2.17.73,64.28.84,66.65-.65.92-.56,1.45-9.61,1.84-20.56v-.33l-40.08-.51V477s-23.79,10.6-26.22,12.52S316.8,497.69,319,498.41Z" transform="translate(-59.73 -141.84)"/><path class="cls-2" d="M319.68,496c10.47-.24,52.73-.22,63.1.34.08,0,.08.06,0,.06-10.38.46-52.63.11-63.11-.23C319.45,496.18,319.45,496,319.68,496Z" transform="translate(-59.73 -141.84)"/><path class="cls-11" d="M413,307.19s-20,57.57-20.66,68.24c-.54,9.09-1.95,102.52-1.95,102.52l-43.91-1s7-96.51,8-106c1.55-14.91,9.62-48.78,20.28-85.38,2-6.85,8.48-22.26,8.48-22.26l49.42,1.37s-1.07,22.7-11.86,38.84C420.77,303.55,416,305.59,413,307.19Z" transform="translate(-59.73 -141.84)"/><path class="cls-2" d="M388.15,469.52c-4.91-.26-10-.53-14.94-.56s-9.79-.09-14.71,0c-2.75.07-5.51.07-8.27.24a.07.07,0,0,0,0,.14h0c4.91.38,9.85.48,14.78.57s9.77.18,14.71.12c2.75,0,5.51-.09,8.27-.19C388.28,469.87,388.45,469.52,388.15,469.52Z" transform="translate(-59.73 -141.84)"/><path class="cls-2" d="M382.87,290.72c-1.84,5.51-3.37,11.1-5,16.65s-3.31,11.22-5,16.82c-3.17,10.85-8,29.05-10.51,40.09s-9.53,98.61-9.52,100.06c0,.14.2.14.22,0,1.36-10.17,9-95.3,10.05-99.27,3-10.89,6.19-26.09,9.34-36.94l5.4-18.57c1.84-6.23,3.67-12.45,5.32-18.74a.18.18,0,0,0-.15-.2A.17.17,0,0,0,382.87,290.72Z" transform="translate(-59.73 -141.84)"/><path class="cls-2" d="M401.31,303.77a42.2,42.2,0,0,0,6.91.74c2.32-.06,4.65-.23,7-.52a52.94,52.94,0,0,1,6.66.22,23.24,23.24,0,0,0,6.7-.62c.1,0,.16.13,0,.15a39.89,39.89,0,0,1-6.59,1.43c-2.3.26-4.59-.1-6.9,0a55.77,55.77,0,0,1-7.08.21,24.9,24.9,0,0,1-6.77-1.46C401.16,303.89,401.21,303.76,401.31,303.77Z" transform="translate(-59.73 -141.84)"/><path class="cls-2" d="M397.3,353.92c.52-1.78,1-3.55,1.56-5.32,1.11-3.57,2.23-7.15,3.45-10.68,2.42-7,4.71-14.1,7.26-21.09,1.45-4,2.76-8,4.43-11.86a.08.08,0,0,1,.1-.05.08.08,0,0,1,0,.11c-.91,3.68-2.09,7.18-3.19,10.75s-2.26,7.14-3.43,10.69c-2.32,7.06-4.6,14.14-7.12,21.14-.69,2-1.42,3.92-2.17,5.87s-1.4,4-2.32,6a.09.09,0,0,1-.12.05.09.09,0,0,1-.05-.11C396.13,357.53,396.77,355.73,397.3,353.92Z" transform="translate(-59.73 -141.84)"/><path class="cls-2" d="M411.83,294.34c.32-3,1.34-12.69,1.52-14.47.08-.91.44-6,.1-6.05a44.22,44.22,0,0,0-5.52-.1c-1.8,0-3.6-.07-5.41-.2-3.68-.2-7.31-.55-10.91-1a.39.39,0,1,0-.16.76h.06q5.5.81,11,1.19c1.79.13,8.76.49,10.37.31,0,.73-.48,3.41-.56,4a19.6,19.6,0,0,0-2.3.16c-.86.05-1.71.09-2.57.11q-2.66.07-5.34-.06a81.91,81.91,0,0,1-10.25-1.1c-.12,0-.12.13,0,.16a60.52,60.52,0,0,0,10.46,1.44c1.67.07,3.32.07,5,0,.92,0,1.84-.07,2.69-.14a16.45,16.45,0,0,0,2.32-.25.9.9,0,0,1-.05.36c-.21,1.68-1.32,11.6-1.71,14.87-1.84.84-10.78,5-11.84,4.39-2-1.09-8.84-5.66-10.84-6.8.28-2.94.66-5.86,1.16-8.76.25-1.5.54-3,.85-4.48a28.66,28.66,0,0,0,.85-4.6c0-.12-.2-.22-.29-.11l-.14.19a.09.09,0,0,0,0,.1,21.84,21.84,0,0,0-1.34,4.1c-.39,1.52-.73,3-1,4.59-.61,3.07-1.09,6.13-1.42,9.2a.54.54,0,0,0,.25.54c3,1.76,11.26,7.08,12,7.22,1.46.26,12.38-4.47,12.66-4.67A1.08,1.08,0,0,0,411.83,294.34Z" transform="translate(-59.73 -141.84)"/><path class="cls-2" d="M424.53,292c-.25-2.63-1-10.93-1.16-12.46-.06-.75-.37-5.15-.17-5.17a16.61,16.61,0,0,1,3.15.26c1,.09,2,.14,3.08.17a53.45,53.45,0,0,0,6.2-.2c.32,0,.39.62.08.66a57.48,57.48,0,0,1-6.29.32,48.73,48.73,0,0,1-5.91-.38c0,.62.34,2.94.4,3.46a8.62,8.62,0,0,1,1.32.28c.49.1,1,.18,1.46.25,1,.15,2,.24,3,.29a31.68,31.68,0,0,0,5.84-.3c.06,0,.07.11,0,.12a22.08,22.08,0,0,1-5.95.59,27.11,27.11,0,0,1-2.83-.28l-1.53-.3a5.68,5.68,0,0,1-1.33-.35v.31c.16,1.45,1,10,1.28,12.8,1.06.84,6.25,4.91,6.84,4.49,1.12-.8,4.94-4.29,6.06-5.12-.22-2.53-.5-5.06-.84-7.57-.17-1.29-.37-2.58-.58-3.87a37.75,37.75,0,0,1-.57-4c0-.11.1-.18.16-.07l.08.16a.14.14,0,0,1,0,.09,27,27,0,0,1,.82,3.53c.25,1.32.48,2.63.68,4q.61,4,1,8a.51.51,0,0,1-.13.44c-1.68,1.32-6.28,5.34-6.72,5.42-.82.14-7.15-4.6-7.35-4.77A1.19,1.19,0,0,1,424.53,292Z" transform="translate(-59.73 -141.84)"/><path class="cls-2" d="M419.83,286c-.08-4.55-.19-9.11-.47-13.66-.17-2.61-.36-5.23-.62-7.84,0-.09-.15-.1-.15,0,.22,4.59.43,9.19.59,13.78s.18,9.1.22,13.65c0,2.62,0,5.24.07,7.86a.07.07,0,1,0,.14,0C419.87,295.18,419.9,290.59,419.83,286Z" transform="translate(-59.73 -141.84)"/><path class="cls-10" d="M407.75,210.14c-.05,1-3.36,8-7.69,8.59-1.41.2-2.86-7.47-2.86-7.47l-.23-.54-3.3-7.57,8.15-7.77,1.19-1s.77,2.14,1.69,4.8l.14.38c.05.15.11.29.15.43.15.4.29.8.42,1.21s.22.61.31.92.21.65.31,1A53.85,53.85,0,0,1,407.75,210.14Z" transform="translate(-59.73 -141.84)"/><path class="cls-2" d="M404.7,199.13A16.59,16.59,0,0,1,397,210.72l-3.3-7.57,8.15-7.77,1.19-1S403.78,196.47,404.7,199.13Z" transform="translate(-59.73 -141.84)"/><path class="cls-2" d="M399.5,178.87a1.36,1.36,0,0,1-2.29,1.3,1.58,1.58,0,0,1-.37.44,1.49,1.49,0,0,1-2-.14,1.26,1.26,0,0,1-.32.37,1.38,1.38,0,0,1-1.92-.21,1.48,1.48,0,0,1-.29-.85,1.37,1.37,0,0,1-1.84-.29,1.43,1.43,0,0,1-.25-.51l-.09.08a1.36,1.36,0,0,1-2.16-1.44,1.35,1.35,0,0,1-1.86-1.72,1.59,1.59,0,0,1-.8-.49,1.52,1.52,0,0,1-.3-1.11,1.5,1.5,0,0,1-1.32-1.66,1.61,1.61,0,0,1,.26-.7,1.3,1.3,0,0,1-.4-.34,1.35,1.35,0,0,1,.08-1.83,1.57,1.57,0,0,1-.51-.41,1.51,1.51,0,0,1,.22-2.11h0a1.19,1.19,0,0,1,.43-.23,1,1,0,0,1-.17-.18,1.36,1.36,0,0,1,.22-1.91,1.37,1.37,0,0,1,.68-.28,1.48,1.48,0,0,1,1.07-2.3,1.48,1.48,0,0,1,1.77-1.92,1.39,1.39,0,0,1,.51-1,1.34,1.34,0,0,1,1.08-.27,1.49,1.49,0,0,1,2.32-1.28,1.35,1.35,0,0,1,1.78-.7,1.56,1.56,0,0,1,.4.27,1.42,1.42,0,0,1,.4-.51,1.51,1.51,0,0,1,2.11.24,1.11,1.11,0,0,1,.17.3,1.54,1.54,0,0,1,.19-.17,1.48,1.48,0,0,1,2.09.24h0a1.32,1.32,0,0,1,.2.32,1.18,1.18,0,0,1,.28-.31,1.5,1.5,0,0,1,2.11.24,1.47,1.47,0,0,1,.32,1.14,1.47,1.47,0,0,1,1.37.54,1.56,1.56,0,0,1,.32,1.07,1.35,1.35,0,0,1,1.8.64,1.37,1.37,0,0,1,0,1.07,1.36,1.36,0,0,1,1.11,2.09,1.45,1.45,0,0,1,1.07.55,1.51,1.51,0,0,1,0,1.9,1.3,1.3,0,0,1,.38.32,1.36,1.36,0,0,1-.22,1.91h0a1.19,1.19,0,0,1-.43.23l.06.06a1.52,1.52,0,0,1-.24,2.12,1.36,1.36,0,0,1-.37.21,1.07,1.07,0,0,1,.26.26,1.35,1.35,0,0,1-.22,1.9,1.31,1.31,0,0,1-1,.28,1.33,1.33,0,0,1-.49,1.3,1.38,1.38,0,0,1-1,.29,1.51,1.51,0,0,1-.82,2,1.49,1.49,0,0,1-1.36-.12,1.35,1.35,0,0,1-2,1.35Z" transform="translate(-59.73 -141.84)"/><path class="cls-2" d="M418.54,196.89a1.33,1.33,0,0,1-.45,1.43,1.36,1.36,0,0,0-2.21.31,1.49,1.49,0,0,1-2-.14,1.23,1.23,0,0,1-.31.37,1.35,1.35,0,0,1-1.9-.2,1.31,1.31,0,0,1-.31-.87,1.35,1.35,0,0,1-1.84-.29,1.2,1.2,0,0,1-.24-.51l-.11.08a1.34,1.34,0,0,1-1.89-.21h0a1.36,1.36,0,0,0-1.91-1.58,1.34,1.34,0,0,1-.2-1.36,1.56,1.56,0,0,1-.84-.53,1.4,1.4,0,0,1-.31-1.11,1.54,1.54,0,0,1-1-.56,1.47,1.47,0,0,1-.05-1.83,1.38,1.38,0,0,1-.33-2.18,1.57,1.57,0,0,1-.51-.41,1.49,1.49,0,0,1,.23-2.1,1.14,1.14,0,0,1,.43-.24,1,1,0,0,1-.17-.18,1.34,1.34,0,0,1,.21-1.89h0a1.32,1.32,0,0,1,.68-.28,1.51,1.51,0,0,1,.33-2,1.44,1.44,0,0,1,.75-.31,1.49,1.49,0,0,1,.49-1.64,1.47,1.47,0,0,1,1.28-.28,1.36,1.36,0,0,1,1.43-1.27l.15,0a1.5,1.5,0,0,1,2.33-1.28,1.39,1.39,0,0,1,.39-.51,1.37,1.37,0,0,1,1.8.08,1.42,1.42,0,0,1,.4-.51,1.49,1.49,0,0,1,2.09.24h0a1.49,1.49,0,0,1,.18.3l.17-.17a1.49,1.49,0,0,1,2.3.56,1.22,1.22,0,0,1,.29-.31,1.49,1.49,0,0,1,2.1.24,1.48,1.48,0,0,0,1.68,1.68,1.43,1.43,0,0,1,.33,1.07,1.36,1.36,0,0,1,1.8.67,1.39,1.39,0,0,1,0,1,1.35,1.35,0,0,1,1.33,1.39,1.33,1.33,0,0,1-.21.7,1.48,1.48,0,0,1,1.07.55,1.51,1.51,0,0,1,0,1.9,1.44,1.44,0,0,1,.38.32,1.36,1.36,0,0,1-.22,1.91h0a1.19,1.19,0,0,1-.43.23l.06.06a1.51,1.51,0,0,1-.24,2.12,1.3,1.3,0,0,1-.38.22.81.81,0,0,1,.27.25,1.34,1.34,0,0,1-.21,1.9h0a2.27,2.27,0,0,0-2.13,1.86,1.45,1.45,0,0,1-.36,0,1.49,1.49,0,0,1-2.18,1.83,1.3,1.3,0,0,1-.5,1.23A1.37,1.37,0,0,1,418.54,196.89Z" transform="translate(-59.73 -141.84)"/><path class="cls-10" d="M381.28,189.2c-3.17,14.62,5.25,18.15,8.41,18.82,2.88.61,12.73,2.33,17.4-11.88s-1.14-20.31-7.63-22.06S384.45,174.55,381.28,189.2Z" transform="translate(-59.73 -141.84)"/><path class="cls-2" d="M383.55,187.74a8.91,8.91,0,0,0,1-.07,1.63,1.63,0,0,0,1.05-.27.55.55,0,0,0,.09-.64,1.34,1.34,0,0,0-1.25-.49,1.94,1.94,0,0,0-1.31.51.56.56,0,0,0,0,.8A.52.52,0,0,0,383.55,187.74Z" transform="translate(-59.73 -141.84)"/><path class="cls-2" d="M393.44,189.2c-.33-.1-.66-.22-1-.35a1.66,1.66,0,0,1-.91-.55.53.53,0,0,1,.1-.65,1.32,1.32,0,0,1,1.33-.12,2,2,0,0,1,1.11.85.57.57,0,0,1-.23.77A.61.61,0,0,1,393.44,189.2Z" transform="translate(-59.73 -141.84)"/><path class="cls-2" d="M390.92,191.33s.07,0,.06.1c-.2,1-.26,2.18.59,2.66v0C390.47,193.79,390.57,192.24,390.92,191.33Z" transform="translate(-59.73 -141.84)"/><path class="cls-2" d="M392,190.43c1.64.14,1.22,3.4-.3,3.27S390.63,190.3,392,190.43Z" transform="translate(-59.73 -141.84)"/><path class="cls-2" d="M392.66,190.68c.25.22.49.58.83.66a1.32,1.32,0,0,0,1-.51h.06c-.08.64-.4,1.24-1.08,1.25s-1-.6-1.07-1.25C392.39,190.75,392.51,190.59,392.66,190.68Z" transform="translate(-59.73 -141.84)"/><path class="cls-2" d="M385.35,190.11a.08.08,0,0,0-.08.09c-.09,1-.37,2.16-1.33,2.39v0C385.08,192.63,385.43,191.11,385.35,190.11Z" transform="translate(-59.73 -141.84)"/><path class="cls-2" d="M384.58,189c-1.62-.32-2.14,2.93-.65,3.22S385.93,189.2,384.58,189Z" transform="translate(-59.73 -141.84)"/><path class="cls-2" d="M383.86,189.08c-.28.13-.59.4-.92.37s-.56-.42-.73-.8h-.06c-.12.62,0,1.3.56,1.51s1-.27,1.26-.86C384,189.2,384,189,383.86,189.08Z" transform="translate(-59.73 -141.84)"/><path class="cls-2" d="M389.9,199.86c-.26.22-.53.53-.92.53a2.65,2.65,0,0,1-1.07-.35m-.05.06a1.36,1.36,0,0,0,1.24.65,1.11,1.11,0,0,0,.92-.84s-.12-.08-.12,0Z" transform="translate(-59.73 -141.84)"/><path class="cls-2" d="M386.14,195.63s-.42,1.48-.52,2.19c0,.06.16.13.4.17h0a3.42,3.42,0,0,0,3.47-.81c.05-.05,0-.14-.1-.11a5.09,5.09,0,0,1-3.21.46c0-.2.81-2.51.69-2.53a6.26,6.26,0,0,0-1.67.14c.78-3.1,2.06-6,2.81-9.19,0-.11-.14-.17-.19-.07a50.84,50.84,0,0,0-3.43,9.75C384.29,196,385.84,195.71,386.14,195.63Z" transform="translate(-59.73 -141.84)"/><path class="cls-2" d="M386.13,197.73a4.21,4.21,0,0,0,1.37,1.59,1.85,1.85,0,0,0,1.09.29c.85-.06,1-.78,1-1.44a4.44,4.44,0,0,0-.17-1A5.36,5.36,0,0,1,386.13,197.73Z" transform="translate(-59.73 -141.84)"/><path class="cls-13" d="M387.5,199.31a1.85,1.85,0,0,0,1.09.29c.85-.06,1-.78,1-1.44A1.92,1.92,0,0,0,387.5,199.31Z" transform="translate(-59.73 -141.84)"/><path class="cls-2" d="M392.86,175.86a6.59,6.59,0,0,0-.37,3.85c1.09,3.52,5.18,3.22,6.33,4.72s.29,3.87,1.26,5.26c1.35,1.92,3.6,1.57,3.68,2.76s.32,4.91,1.71,5.58S417,175.51,398,173.55c0,0-2.43-1.43-6.75,0-4.77,1.61-7.76,8.67-7.76,8.67l.83-.56c1-.68,1.49-1.38,2.24-1.84,1.17-.67,1.7-.27,2.91-.92A12.49,12.49,0,0,0,392.86,175.86Z" transform="translate(-59.73 -141.84)"/><path class="cls-2" d="M393.3,174.85a12.89,12.89,0,0,0-1,2.82,5.26,5.26,0,0,0,0,2.89,3.94,3.94,0,0,0,1.92,2c.85.46,1.84.7,2.75,1.23a3,3,0,0,1,1.14,1.13,4.11,4.11,0,0,1,.34,1.55,5.29,5.29,0,0,0,.67,2.75,3.26,3.26,0,0,0,2.38,1.44c.92.14,2.05,0,2.91.58a7,7,0,0,0-2.93-.35,3.58,3.58,0,0,1-2.66-1.46,5.46,5.46,0,0,1-.8-3,3.75,3.75,0,0,0-.31-1.36,2.52,2.52,0,0,0-1-.92c-.82-.5-1.84-.76-2.71-1.26a5.25,5.25,0,0,1-1.24-.92,3.11,3.11,0,0,1-.82-1.34,5.68,5.68,0,0,1,.12-3.06A13.27,13.27,0,0,1,393.3,174.85Z" transform="translate(-59.73 -141.84)"/><path class="cls-2" d="M392.81,175.66a10.7,10.7,0,0,1-1.29,2.49,5.06,5.06,0,0,1-2.2,1.84,7.27,7.27,0,0,1-1.38.32,2.26,2.26,0,0,0-1.12.54,6.62,6.62,0,0,1-1,1,3.15,3.15,0,0,1-1.31.54,3.76,3.76,0,0,0,1.16-.72,6.4,6.4,0,0,0,.86-1.07,2.38,2.38,0,0,1,1.29-.72,7.39,7.39,0,0,0,1.31-.33,5.22,5.22,0,0,0,2.07-1.62A19.68,19.68,0,0,0,392.81,175.66Z" transform="translate(-59.73 -141.84)"/><path class="cls-10" d="M402.68,194.89s3.84-4.22,5.79-2.81-1.33,7.83-3.92,8.44a2.54,2.54,0,0,1-3.18-1.69l0-.08Z" transform="translate(-59.73 -141.84)"/><path class="cls-2" d="M407.48,194c-1.84.48-2.94,2-3.79,3.55a1.39,1.39,0,0,1,1.95-.26l.17.14c.05,0,0,.1-.06.1a1.52,1.52,0,0,0-1.77.32,7.22,7.22,0,0,0-1,1.27c-.1.14-.37,0-.29-.14v0c.27-2.2,2.38-5.11,4.78-5Z" transform="translate(-59.73 -141.84)"/><path class="cls-3" d="M385.39,249.86l-2.18,13.5,50.48,1.31s-6.35-38.6-18.51-51.74c-6.56-7.08-14-5.52-20,2.14-2.13,2.76-14,16.7-13.54,24.3A18.24,18.24,0,0,0,385.39,249.86Z" transform="translate(-59.73 -141.84)"/><path class="cls-4" d="M398.28,228.29a8.76,8.76,0,0,0-.6,2.51,9.58,9.58,0,0,0,1.23-2.27,9,9,0,0,0,.6-2.5A9.35,9.35,0,0,0,398.28,228.29Zm-5.21,34.5c-.1.26-.19.53-.27.8h.64c.09-.2.17-.4.25-.59a8.68,8.68,0,0,0,.6-2.51,9.39,9.39,0,0,0-1.22,2.3Zm19.55-3.58a9.5,9.5,0,0,0-.61,2.51,8.89,8.89,0,0,0,1.24-2.26,9,9,0,0,0,.6-2.51,9.35,9.35,0,0,0-1.23,2.26Zm10.11-26a9,9,0,0,0-2.5-.61,8.89,8.89,0,0,0,2.26,1.24,9,9,0,0,0,2.51.6,8.69,8.69,0,0,0-2.31-1.23Zm-30.62,8.84a9.12,9.12,0,0,0-2.51-.61,9.15,9.15,0,0,0,2.28,1.24,9.32,9.32,0,0,0,2.5.6,8.85,8.85,0,0,0-2.31-1.23Zm6.79-30.8v0l-.54.43a9.24,9.24,0,0,0,1.3,2.09A9.37,9.37,0,0,0,398.9,211.25Zm12.32,27.35a9.06,9.06,0,0,0-1.34-2.21,9.89,9.89,0,0,0,2.08,4.68,9.06,9.06,0,0,0-.74-2.44Zm13.61,10.5a9.12,9.12,0,0,0-2.2,1.34,10.06,10.06,0,0,0,4.68-2.07A8.86,8.86,0,0,0,424.83,249.1Zm-22.93,2.34a8.74,8.74,0,0,0-2.2,1.35,10,10,0,0,0,4.68-2.09,8.71,8.71,0,0,0-2.49.74Zm8.61-33.17a9.06,9.06,0,0,0-2.21,1.34,9.93,9.93,0,0,0,4.68-2.08,9.33,9.33,0,0,0-2.48.74Z" transform="translate(-59.73 -141.84)"/><path class="cls-10" d="M405.52,221.47c-4.66,8.27-24.68,32.45-33.63,33.85-6.52,1-16.64-12.36-23.72-18.09-2.21-1.79,18-17.53,19.64-15.3,3.81,5.14,5.62,7.23,6,7,2.16-1.36,12.86-8.78,23.94-16.34C406.92,206.29,411.4,211,405.52,221.47Z" transform="translate(-59.73 -141.84)"/><path class="cls-10" d="M339.06,195.57c-1.91,2.33,4.26,6.55,4.26,6.55a5.57,5.57,0,0,0-3.68.92c-1.83,1.38-.47,4.86-.47,4.86a6.9,6.9,0,0,0-3.68,1.61c-1.63,1.5-.76,5.2-.76,5.2a6.3,6.3,0,0,0-2.38,3.47c-1.43,6.27,11.5,16.81,15.82,19l19.9-14.53s-5.17-15.79-10.27-20.22C355,200,342,192,339.06,195.57Z" transform="translate(-59.73 -141.84)"/><path class="cls-2" d="M343.42,202.06a50,50,0,0,1,10.45,6.53.08.08,0,0,1,0,.1.07.07,0,0,1-.06,0c-3.21-2.46-7.16-4.13-10.47-6.43a.12.12,0,0,1-.05-.16A.13.13,0,0,1,343.42,202.06Z" transform="translate(-59.73 -141.84)"/><path class="cls-2" d="M339.29,207.87a10.92,10.92,0,0,1,2.28,1.64c.77.63,1.52,1.28,2.26,1.94,1.48,1.32,2.95,2.67,4.36,4.07a.07.07,0,1,1-.09.11c-1.48-1.31-3-2.6-4.52-3.85-.77-.63-1.55-1.25-2.33-1.84a12.79,12.79,0,0,1-2.12-1.84C339.05,208,339.17,207.81,339.29,207.87Z" transform="translate(-59.73 -141.84)"/><path class="cls-2" d="M334.75,214.78a7.37,7.37,0,0,1,2,1.58l2,1.84c1.36,1.22,2.7,2.44,4.08,3.61a.06.06,0,0,1,0,.09.08.08,0,0,1-.1,0h0c-1.41-1.18-2.84-2.35-4.24-3.53l-2.05-1.78a6.73,6.73,0,0,1-1.73-1.76Z" transform="translate(-59.73 -141.84)"/><path class="cls-2" d="M373.44,228.76a22.74,22.74,0,0,1,4.45,6.87A81.38,81.38,0,0,1,373.44,228.76Z" transform="translate(-59.73 -141.84)"/><path class="cls-3" d="M374.73,227.43l11.43,22.23s13.65-16.6,20.22-27.77,1.84-15.94-8.92-10.26S374.73,227.43,374.73,227.43Z" transform="translate(-59.73 -141.84)"/><path class="cls-4" d="M382.55,229.91a9.38,9.38,0,0,0-2.21,1.34,8.79,8.79,0,0,0,2.47-.73,9.06,9.06,0,0,0,2.21-1.34A8.79,8.79,0,0,0,382.55,229.91Zm16.35-18.66c0-.1-.09-.2-.15-.3a6.4,6.4,0,0,0-.59.29l.12.28a9.1,9.1,0,0,0,1.35,2.21A9,9,0,0,0,398.9,211.25ZM392.07,242a8.71,8.71,0,0,0-2.51-.62,8.75,8.75,0,0,0,2.18,1.2h0l.41-.55Zm6.21-13.79a8.68,8.68,0,0,0-.6,2.51,9.78,9.78,0,0,0,1.23-2.27,9,9,0,0,0,.6-2.5,9.33,9.33,0,0,0-1.23,2.31Z" transform="translate(-59.73 -141.84)"/><path class="cls-2" d="M379.79,225.71c.37.76.86,1.48,1.3,2.21s.83,1.49,1.25,2.23c.78,1.45,1.58,2.9,2.38,4.34,1.61,2.92,3.3,5.81,4.77,8.83,0,.05,0,.1-.08.07a81.22,81.22,0,0,1-5.19-8.51q-1.22-2.22-2.36-4.45c-.4-.76-.77-1.53-1.13-2.31s-.66-1.61-1.05-2.35C379.62,225.7,379.73,225.65,379.79,225.71Z" transform="translate(-59.73 -141.84)"/><path class="cls-2" d="M404.22,225.33c-1.32,2.16-2.76,4.26-4.15,6.35s-2.92,4.13-4.38,6.19-3,4-4.6,6.06-3.15,3.95-4.88,5.81l-.12.13-.06-.15c-.35-.75-.69-1.49-1-2.24.41.7.82,1.41,1.22,2.13h-.18q2.31-3,4.59-6.05l4.49-6.09c1.53-2,3-4.07,4.52-6.08S402.68,227.34,404.22,225.33Z" transform="translate(-59.73 -141.84)"/><path class="cls-2" d="M403.82,227.39a4.53,4.53,0,0,1-1.1,1.43,7.61,7.61,0,0,1-.72.55,4.24,4.24,0,0,1-.78.44A29.68,29.68,0,0,0,403.82,227.39Z" transform="translate(-59.73 -141.84)"/></g><path class="cls-2" d="M97.91,209.76l-2.38-4.82h1.08l1,2.22c.25.58.49,1.13.76,1.72h0c.27-.59.54-1.14.79-1.72l1-2.22h1l-2.38,4.82v3.05h-1Z" transform="translate(-59.73 -141.84)"/><path class="cls-2" d="M101.34,209.9a2.73,2.73,0,1,1,2.71,3.06A2.79,2.79,0,0,1,101.34,209.9Zm4.4,0c0-1.33-.69-2.24-1.69-2.24s-1.69.91-1.69,2.24.68,2.23,1.69,2.23S105.74,211.24,105.74,209.9Z" transform="translate(-59.73 -141.84)"/><path class="cls-2" d="M108.22,210.68V207h1v3.57c0,1.08.33,1.55,1.1,1.55.6,0,1-.3,1.57-1V207h1v5.83h-.82l-.08-.91h0A2.5,2.5,0,0,1,110,213C108.77,213,108.22,212.16,108.22,210.68Z" transform="translate(-59.73 -141.84)"/><path class="cls-2" d="M114.85,207h.82l.08,1.06h0a2,2,0,0,1,1.67-1.2,1.3,1.3,0,0,1,.62.12l-.18.86a1.75,1.75,0,0,0-.57-.09c-.49,0-1.09.35-1.48,1.34v3.74h-1Z" transform="translate(-59.73 -141.84)"/><path class="cls-2" d="M123.17,205.79h-2.39v-.85h5.79v.85h-2.39v7h-1Z" transform="translate(-59.73 -141.84)"/><path class="cls-2" d="M126.66,209.9a2.81,2.81,0,0,1,2.63-3.06c1.49,0,2.34,1.07,2.34,2.73a2.9,2.9,0,0,1,0,.56h-3.94a1.94,1.94,0,0,0,1.94,2,2.54,2.54,0,0,0,1.46-.47l.35.65a3.38,3.38,0,0,1-1.93.61A2.8,2.8,0,0,1,126.66,209.9Zm4.09-.47c0-1.17-.53-1.81-1.44-1.81a1.8,1.8,0,0,0-1.68,1.81Z" transform="translate(-59.73 -141.84)"/><path class="cls-2" d="M132.54,211.3c0-1.27,1.1-1.91,3.59-2.18,0-.75-.25-1.47-1.21-1.47a3.21,3.21,0,0,0-1.74.63l-.39-.68a4.33,4.33,0,0,1,2.3-.76c1.43,0,2,.94,2,2.4v3.57h-.82l-.08-.69h0a3.13,3.13,0,0,1-1.94.84A1.59,1.59,0,0,1,132.54,211.3Zm3.59.09v-1.62c-2,.24-2.62.71-2.62,1.46s.45.93,1,.93A2.4,2.4,0,0,0,136.13,211.39Z" transform="translate(-59.73 -141.84)"/><path class="cls-2" d="M139,207h.82l.08.85h0a2.62,2.62,0,0,1,1.82-1,1.55,1.55,0,0,1,1.62,1.11,2.76,2.76,0,0,1,1.93-1.11c1.2,0,1.78.79,1.78,2.28v3.69h-1v-3.56c0-1.09-.35-1.56-1.09-1.56a2.16,2.16,0,0,0-1.47.9v4.22h-1v-3.56c0-1.09-.34-1.56-1.09-1.56a2.19,2.19,0,0,0-1.46.9v4.22h-1Z" transform="translate(-59.73 -141.84)"/><path class="cls-2" d="M148.3,212.15l.49-.65a2.68,2.68,0,0,0,1.73.69c.77,0,1.15-.41,1.15-.91s-.69-.86-1.34-1.1c-.82-.3-1.75-.7-1.75-1.69s.75-1.65,2-1.65a3,3,0,0,1,1.82.65l-.47.64a2.22,2.22,0,0,0-1.34-.52c-.73,0-1.07.39-1.07.83s.63.77,1.29,1c.85.32,1.79.66,1.79,1.77,0,.95-.75,1.74-2.14,1.74A3.56,3.56,0,0,1,148.3,212.15Z" transform="translate(-59.73 -141.84)"/></svg>