<svg id="Layer_1" data-name="Layer 1" xmlns="http://www.w3.org/2000/svg" viewBox="0 0 420.06 352.5"><defs><style>.cls-1{fill:#263238;}.cls-2{fill:#7c39eb;}.cls-3,.cls-7{opacity:0.2;}.cls-10,.cls-11,.cls-3{isolation:isolate;}.cls-4{fill:#fff;}.cls-5{fill:#dbdbdb;}.cls-6{fill:#ebebeb;}.cls-8{fill:#eb9481;}.cls-9{fill:#37474f;}.cls-10{fill:#030402;}.cls-10,.cls-11{opacity:0.1;}.cls-12{fill:#ff98b9;}</style></defs><title>3-Invite</title><g id="freepik--Floor--inject-2"><polygon class="cls-1" points="0 352 52.51 351.76 105.02 351.67 210.03 351.51 315.04 351.67 367.55 351.76 420.06 352 367.55 352.25 315.04 352.34 210.03 352.5 105.02 352.34 52.51 352.25 0 352"/></g><g id="freepik--Invitation--inject-2"><polygon class="cls-2" points="282.69 240.62 131.6 240.62 131.6 112.81 207.13 64.84 282.69 112.81 282.69 240.62"/><polygon class="cls-3" points="282.69 240.62 131.6 240.62 131.6 112.81 207.13 64.84 282.69 112.81 282.69 240.62"/><rect class="cls-4" x="140.12" y="58.76" width="134.05" height="172.08"/><path class="cls-5" d="M314.14,378.34l-134,.23h-.24v-.23l-.14-172.08v-.37h.38l134,.1h.26v.27Zm0,0-.27-172.08.27.26-134,.11.37-.37-.19,172.08-.23-.24Z" transform="translate(-39.97 -147.5)"/><path class="cls-2" d="M308.75,312.43q.19,7.54.29,15.08c0,5,.15,10.06.15,15.09l.06,15.08-.06,15.09v.44h-.44c-5.26,0-10.52-.08-15.78-.14s-10.52-.17-15.78-.3c5.26-.13,10.52-.25,15.78-.3s10.52-.14,15.78-.14l-.44.44-.06-15.09.06-15.08c0-5,.1-10.06.15-15.09S308.62,317.46,308.75,312.43Z" transform="translate(-39.97 -147.5)"/><path class="cls-2" d="M185.47,272.17q-.19-7.55-.29-15.09c-.05-5-.15-10-.15-15.08L185,226.91l.06-15.08v-.45h.44c5.26,0,10.52.08,15.78.14s10.52.17,15.78.3c-5.26.13-10.52.25-15.78.3s-10.52.14-15.78.14l.44-.44L186,226.9,185.91,242c0,5-.1,10.06-.15,15.08S185.6,267.14,185.47,272.17Z" transform="translate(-39.97 -147.5)"/><path class="cls-2" d="M247.19,211.83l15.39-.25,15.39-.14c5.13-.06,10.26,0,15.39-.07h15.89v.5L309.2,227,309.13,242c-.08,10.06-.17,20.11-.38,30.17-.21-10.06-.3-20.11-.38-30.17l-.05-15.12-.05-15.08.5.5-15.45-.05c-5.13,0-10.26,0-15.39-.07L262.58,212Z" transform="translate(-39.97 -147.5)"/><path class="cls-2" d="M247,372.77c-10.26.19-20.52.29-30.78.36s-20.52.08-30.78.13H185V355.18L185,337.6l.14-17.59.26-17.58L185.7,320l.14,17.59.06,17.58v17.59l-.49-.49c10.26.05,20.52,0,30.78.12S236.77,372.58,247,372.77Z" transform="translate(-39.97 -147.5)"/><path class="cls-2" d="M213.47,228.34v-.44h7.12v.44h-2.27v16.92h2.27v.43h-7.12v-.43h2V228.34Z" transform="translate(-39.97 -147.5)"/><path class="cls-2" d="M228.89,245.69h-6v-.41h1.81V233.51h-2v-.41h.62a18.49,18.49,0,0,0,3.86-.35v2.73h.14a4.3,4.3,0,0,1,4.05-2.93c3.4,0,4.14,2.22,4.14,5.62v7.11h1.81v.41h-6v-.41h1.81v-6.73c0-2.22,0-5.23-2.22-5.23-3.12,0-3.75,3.89-3.75,7v5h1.81Z" transform="translate(-39.97 -147.5)"/><path class="cls-2" d="M249.92,236.93c0-1.91-.47-3.88-2.16-3.88-.17,0-.28.08-.28.24s.09.22.25.25a1,1,0,0,1,.77,1,1.34,1.34,0,0,1-1.36,1.3h-.09a1.47,1.47,0,0,1-1.51-1.43v-.08a1.85,1.85,0,0,1,1.9-1.81h.1c2.27,0,2.9,2,2.9,4.27,0,4.52-2.46,9.42-5.34,9.42-3.12,0-5-4.52-5-11.2v-1.53h-1.94v-.41h.57a18.49,18.49,0,0,0,3.86-.35v1.67c0,4.54.85,10.59,3.48,10.59C247.87,245,249.92,240.71,249.92,236.93Z" transform="translate(-39.97 -147.5)"/><path class="cls-2" d="M257.07,245.28h1.81v.41h-6v-.41h1.8V233.51h-1.94v-.41h.57a18,18,0,0,0,3.81-.35Zm-1.31-17.93a1.6,1.6,0,0,1,1.61,1.59v0a1.58,1.58,0,0,1-1.57,1.59h0a1.56,1.56,0,0,1-1.59-1.53V229a1.58,1.58,0,0,1,1.54-1.62Z" transform="translate(-39.97 -147.5)"/><path class="cls-2" d="M265.12,242.82c0,1.86,0,2.68.74,2.68,1,0,2-1.56,2.39-2.52l.43.17c-.6,1.53-1.78,3.09-3.42,3.09-2.35,0-2.57-1.67-2.57-4v-8.71h-1.94v-.41h.19c2.21,0,3.42-1.42,3.83-3.61h.35v3.61h3.32v.41h-3.32Z" transform="translate(-39.97 -147.5)"/><path class="cls-2" d="M281.17,236c0,3.36-3.61,3.64-7,3.64h-1.29v.79c0,2.74,1,5,3.78,5,2.24,0,3.5-1.72,4-3.72l.49.06c-.58,2.57-2.33,4.43-5.12,4.43-3.94,0-5.8-2.9-5.8-6.84s2.11-6.85,6.1-6.85C278.84,232.55,281.17,233.57,281.17,236Zm-7.31,3.15c2.71,0,4.65-.44,4.65-3.15,0-1.73-.68-3-2.41-3-2.51,0-3.2,2.9-3.2,5.42v.77Z" transform="translate(-39.97 -147.5)"/><rect class="cls-6" x="159.41" y="111.71" width="95.89" height="0.89"/><rect class="cls-6" x="159.41" y="117.47" width="95.89" height="0.89"/><rect class="cls-6" x="159.41" y="123.24" width="95.89" height="0.89"/><rect class="cls-6" x="159.41" y="129" width="95.89" height="0.89"/><rect class="cls-6" x="159.41" y="134.76" width="95.89" height="0.89"/><rect class="cls-6" x="173.71" y="140.53" width="67.27" height="0.89"/><rect class="cls-6" x="159.41" y="152.06" width="95.89" height="0.89"/><rect class="cls-6" x="159.41" y="157.82" width="95.89" height="0.89"/><rect class="cls-6" x="159.41" y="163.59" width="95.89" height="0.89"/><rect class="cls-6" x="159.41" y="169.35" width="95.89" height="0.89"/><rect class="cls-6" x="159.41" y="175.12" width="95.89" height="0.89"/><path class="cls-2" d="M322.66,292.3v95.82H171.57V292.3c6.48,3.67,12.86,7.53,19.28,11.3s12.8,7.67,19.15,11.57q10.62,6.46,21.22,13.11l.22-.13c-.06,0-.11.11-.18.16q7.94,4.94,15.86,9.91c5.27-3.31,10.55-6.65,15.84-9.91-.07,0-.11-.12-.18-.16l.23.11q10.58-6.6,21.21-13.11,9.52-5.82,19.13-11.55C309.79,299.83,316.17,296,322.66,292.3Z" transform="translate(-39.97 -147.5)"/><g class="cls-7"><path d="M322.66,292.3c-6.11,4.29-12.32,8.39-18.47,12.61s-12.41,8.26-18.65,12.35q-9.78,6.39-19.59,12.68l-.59.41q-8.67,5.55-17.4,11.09l-.86.53-.84-.53q-8.72-5.54-17.38-11.11c-.2-.12-.41-.25-.61-.39q-9.84-6.3-19.61-12.71c-6.21-4.06-12.43-8.19-18.63-12.32s-12.36-8.32-18.46-12.61c6.48,3.67,12.86,7.53,19.28,11.3s12.8,7.67,19.15,11.57q10.62,6.46,21.22,13.11h0q7.93,4.94,15.86,9.91c5.27-3.31,10.55-6.65,15.84-9.91H263q10.57-6.6,21.21-13.11,9.52-5.82,19.13-11.55C309.79,299.83,316.17,296,322.66,292.3Z" transform="translate(-39.97 -147.5)"/><path d="M231.44,328.15c-.06,0-.11.11-.18.16-.79.68-1.59,1.36-2.38,2-3.79,3.2-7.67,6.26-11.62,9.23-4.81,3.68-9.73,7.19-14.68,10.69s-10,6.83-15.06,10.1-10.26,6.46-15.59,9.39c4.58-4,9.35-7.76,14.16-11.41s9.75-7.2,14.68-10.69,10-6.85,15.09-10.12c4.06-2.61,8.19-5.17,12.41-7.58,1-.57,2-1.11,3-1.66Z" transform="translate(-39.97 -147.5)"/><path d="M322.32,369.74c-5.33-2.93-10.5-6.13-15.58-9.39s-10.1-6.68-15.09-10.1-9.87-7-14.68-10.69c-3.93-3-7.81-6-11.58-9.21l-2.4-2c-.07,0-.11-.12-.18-.16l.23.11c1,.57,2,1.11,2.94,1.68,4.23,2.41,8.33,5,12.42,7.58,5.1,3.27,10.09,6.67,15.06,10.12s9.87,7,14.68,10.69S317.71,365.72,322.32,369.74Z" transform="translate(-39.97 -147.5)"/></g></g><g id="freepik--Sparkles--inject-2"><path class="cls-1" d="M314.06,200.38a5.49,5.49,0,0,1,0-4.58,4.91,4.91,0,0,1,.5,2.29A5.17,5.17,0,0,1,314.06,200.38Z" transform="translate(-39.97 -147.5)"/><path class="cls-1" d="M309.92,202.16a5.39,5.39,0,0,1-3.26-3.27,5.5,5.5,0,0,1,3.23,3.24Z" transform="translate(-39.97 -147.5)"/><path class="cls-1" d="M308.26,206.34a5.47,5.47,0,0,1-4.58,0,5.49,5.49,0,0,1,4.58,0Z" transform="translate(-39.97 -147.5)"/><path class="cls-1" d="M310,210.47a5.53,5.53,0,0,1-3.25,3.24A5.53,5.53,0,0,1,310,210.47Z" transform="translate(-39.97 -147.5)"/><path class="cls-1" d="M314.22,212.13a5.1,5.1,0,0,1,.49,2.3,4.91,4.91,0,0,1-.5,2.29,5.17,5.17,0,0,1-.5-2.29A5.09,5.09,0,0,1,314.22,212.13Z" transform="translate(-39.97 -147.5)"/><path class="cls-1" d="M318.32,210.36a5.5,5.5,0,0,1,3.23,3.24A5.5,5.5,0,0,1,318.32,210.36Z" transform="translate(-39.97 -147.5)"/><path class="cls-1" d="M320,206.18a5.47,5.47,0,0,1,4.58,0,4.91,4.91,0,0,1-2.29.5A5.17,5.17,0,0,1,320,206.18Z" transform="translate(-39.97 -147.5)"/><path class="cls-1" d="M318.23,202a5.44,5.44,0,0,1,3.27-3.27,5.53,5.53,0,0,1-3.25,3.24Z" transform="translate(-39.97 -147.5)"/><path class="cls-1" d="M191.85,298.76a5,5,0,0,1-.5-2.3,5.2,5.2,0,0,1,.5-2.29,5,5,0,0,1,.5,2.3A5.17,5.17,0,0,1,191.85,298.76Z" transform="translate(-39.97 -147.5)"/><path class="cls-1" d="M187.72,300.53a5.46,5.46,0,0,1-3.24-3.24A5.51,5.51,0,0,1,187.72,300.53Z" transform="translate(-39.97 -147.5)"/><path class="cls-1" d="M186.05,304.71a4.91,4.91,0,0,1-2.29.5,5.17,5.17,0,0,1-2.29-.5,4.91,4.91,0,0,1,2.29-.5A5.17,5.17,0,0,1,186.05,304.71Z" transform="translate(-39.97 -147.5)"/><path class="cls-1" d="M187.83,308.84a5.51,5.51,0,0,1-3.24,3.24A5.51,5.51,0,0,1,187.83,308.84Z" transform="translate(-39.97 -147.5)"/><path class="cls-1" d="M192,310.51a5.17,5.17,0,0,1,.5,2.29,5,5,0,0,1-.51,2.29,5,5,0,0,1-.49-2.29A4.91,4.91,0,0,1,192,310.51Z" transform="translate(-39.97 -147.5)"/><path class="cls-1" d="M196.14,308.73a5.51,5.51,0,0,1,3.24,3.24,5.34,5.34,0,0,1-3.24-3.24Z" transform="translate(-39.97 -147.5)"/><path class="cls-1" d="M197.8,304.55a5.24,5.24,0,0,1,2.3-.5,5,5,0,0,1,2.29.51,5.1,5.1,0,0,1-2.3.49A4.91,4.91,0,0,1,197.8,304.55Z" transform="translate(-39.97 -147.5)"/><path class="cls-1" d="M196,300.42a5.49,5.49,0,0,1,3.24-3.24,5.34,5.34,0,0,1-3.24,3.24Z" transform="translate(-39.97 -147.5)"/><path class="cls-1" d="M296.32,373.33a1.58,1.58,0,0,1-.5-1.19,1.56,1.56,0,0,1,.5-1.18,1.65,1.65,0,0,1,0,2.37Z" transform="translate(-39.97 -147.5)"/><path class="cls-1" d="M294.16,374.24a1.6,1.6,0,0,1-1.19-.48,1.65,1.65,0,0,1-.48-1.19,1.64,1.64,0,0,1,1.67,1.67Z" transform="translate(-39.97 -147.5)"/><path class="cls-1" d="M293.32,376.4a1.64,1.64,0,0,1-2.32,0l0,0a1.56,1.56,0,0,1,1.18-.5A1.65,1.65,0,0,1,293.32,376.4Z" transform="translate(-39.97 -147.5)"/><path class="cls-1" d="M294.22,378.53a1.65,1.65,0,0,1-.48,1.19.7.7,0,1,1,.48-1.19Z" transform="translate(-39.97 -147.5)"/><path class="cls-1" d="M296.38,379.39a1.65,1.65,0,0,1,0,2.37,1.59,1.59,0,0,1-.5-1.18A1.66,1.66,0,0,1,296.38,379.39Z" transform="translate(-39.97 -147.5)"/><path class="cls-1" d="M298.51,378.48a1.6,1.6,0,0,1,1.19.48,1.56,1.56,0,0,1,.48,1.19,1.67,1.67,0,0,1-1.19-.48A1.7,1.7,0,0,1,298.51,378.48Z" transform="translate(-39.97 -147.5)"/><path class="cls-1" d="M299.37,376.32a1.63,1.63,0,0,1,1.18-.5.7.7,0,1,1,0,1A1.65,1.65,0,0,1,299.37,376.32Z" transform="translate(-39.97 -147.5)"/><path class="cls-1" d="M298.45,374.19a1.67,1.67,0,1,1,1.19-.49A1.61,1.61,0,0,1,298.45,374.19Z" transform="translate(-39.97 -147.5)"/></g><g id="freepik--Character--inject-2"><path class="cls-8" d="M174.74,498.58c-2.25.72-66.26-.11-68.68-1.69-.93-.58-1.35-9.92-1.54-21.21v-.36c0-2.32-.07-4.72-.08-7.15v-1L107.55,434l42.82.43-4.23,32.9v1.3l-.26,6.81v.7s24.36,11.28,26.84,13.29S177,497.86,174.74,498.58Z" transform="translate(-39.97 -147.5)"/><path class="cls-6" d="M174.74,498.58c-2.25.72-66.26-.11-68.68-1.69-.93-.58-1.35-9.92-1.54-21.21v-.36c0-2.32-.07-4.72-.08-7.15v-1l41.7.12v1.3l-.26,6.81v.7s24.36,11.28,26.84,13.29S177,497.86,174.74,498.58Z" transform="translate(-39.97 -147.5)"/><path class="cls-2" d="M174.74,498.57c-1.15.38-18.54.34-35.54,0-3.42-.07-6.82-.14-10.06-.23C117,498,107,497.51,106.07,496.9s-1.34-9.66-1.53-20.74v-.83h0l41.26.07v.71s24.36,11.27,26.83,13.29S177,497.86,174.74,498.57Z" transform="translate(-39.97 -147.5)"/><path class="cls-1" d="M174.05,496.09c-10.79-.41-54.34-1-65-.6-.09,0-.09.06,0,.06,10.69.64,54.24.9,65,.71C174.32,496.26,174.32,496.09,174.05,496.09Z" transform="translate(-39.97 -147.5)"/><path class="cls-1" d="M150.42,475.58c-4.23-.85-9.44-.27-12.72,2.72-.13.11,0,.29.18.25a59.26,59.26,0,0,1,12.52-2.44.27.27,0,0,0,.23-.31A.28.28,0,0,0,150.42,475.58Z" transform="translate(-39.97 -147.5)"/><path class="cls-1" d="M153.46,477.46c-4.23-.85-9.43-.26-12.72,2.72-.13.12,0,.3.18.26A59.21,59.21,0,0,1,153.44,478a.29.29,0,0,0,.3-.27.3.3,0,0,0-.28-.3Z" transform="translate(-39.97 -147.5)"/><path class="cls-1" d="M156.5,479.35c-4.23-.85-9.43-.26-12.72,2.72-.12.12,0,.29.18.25a59.88,59.88,0,0,1,12.52-2.43.27.27,0,1,0,0-.54Z" transform="translate(-39.97 -147.5)"/><path class="cls-1" d="M139.2,498.56c-3.42-.07-6.82-.14-10.06-.23C117,498,107,497.5,106.07,496.89s-1.34-9.66-1.53-20.74v-.83h0C110.22,479.28,130.14,492.54,139.2,498.56Z" transform="translate(-39.97 -147.5)"/><path class="cls-9" d="M148.64,475.54H102.53s9.29-107.68,8.92-109.51c-.46-2.41-3.18-13.31-6.8-27.55-1.14-4.45-2.36-9.23-3.64-14.19-3.43-13.39-7.22-28-10.52-40.77-5-19.09-8.83-33.92-8.83-33.92h39.08S125.32,264,131,282.77c9.35,30.52,21.85,72.54,23.08,82.75C156.11,382,148.64,475.54,148.64,475.54Z" transform="translate(-39.97 -147.5)"/><path class="cls-1" d="M146.59,467.67c-7-.14-5-.2-12.06-.27-3.44,0-26.09-.23-29.31.31a.07.07,0,1,0,0,.14c3.22.53,25.87.33,29.31.3,7-.07,5-.12,12.06-.27a.11.11,0,0,0,.14-.07.12.12,0,0,0-.07-.14Z" transform="translate(-39.97 -147.5)"/><path class="cls-1" d="M120.13,359.4c-1.51-6.67-3.77-13.2-5.74-19.74q-6-19.94-12.06-39.85-3-10-6.08-19.92c-1-3.34-2.06-6.7-3.11-10S91,263.33,90,260c-.38-1.34-.58-.6-.1,1.1,1,3.44,1.93,6.88,2.94,10.31l6,20.37q6,20.26,12.1,40.49,3,10.15,6.1,20.29a83.05,83.05,0,0,1,2.49,9.82,45,45,0,0,1,.41,10.5c-.44,7-1.26,14.09-1.91,21.13s-1.31,14.11-2,21.16q-2,21-3.86,42.1c-.16,1.78-.32,3.56-.46,5.34,0,.6.38.67.44.1,1.52-13.88,3.17-27.92,4.47-41.82s2.59-27.66,3.88-41.49c.33-3.47.7-6.95.7-10.44A43.59,43.59,0,0,0,120.13,359.4Z" transform="translate(-39.97 -147.5)"/><path class="cls-1" d="M116.32,249.55c-2.71,21-7.88,60.34-11.65,88.88-8.82-34.59-23-88.88-23-88.88Z" transform="translate(-39.97 -147.5)"/><path class="cls-8" d="M125.9,499.19c-2.25.74-66.26.14-68.68-1.43-.93-.58-1.39-9.92-1.62-21.21v-.35c-.06-2.33-.09-4.73-.11-7.16v-1c-.15-16.3,1-33.21,1-33.21l41.85.27L97.18,468v1.3l-.24,6.81v.7S121.32,488,123.76,490,128.14,498.47,125.9,499.19Z" transform="translate(-39.97 -147.5)"/><path class="cls-6" d="M125.9,499.19c-2.25.74-66.26.14-68.68-1.43-.93-.58-1.39-9.92-1.62-21.21v-.35c-.06-2.33-.09-4.73-.11-7.16v-1h41.7v1.3L97,476.15v.7S121.32,488,123.76,490,128.14,498.47,125.9,499.19Z" transform="translate(-39.97 -147.5)"/><path class="cls-2" d="M125.9,499.19c-2.25.74-66.26.14-68.68-1.43-.93-.58-1.39-9.92-1.62-21.21v-.35l41.3-.08v.7S121.32,488,123.76,490,128.14,498.47,125.9,499.19Z" transform="translate(-39.97 -147.5)"/><path class="cls-1" d="M125.2,496.71c-10.79-.37-54.34-.83-65-.37-.08,0-.08.06,0,.07,10.69.6,54.24.7,65,.47C125.42,496.88,125.42,496.71,125.2,496.71Z" transform="translate(-39.97 -147.5)"/><path class="cls-1" d="M101.5,476.28c-4.24-.83-9.44-.23-12.71,2.77-.13.11,0,.29.17.25a60,60,0,0,1,12.52-2.48.27.27,0,1,0,0-.54Z" transform="translate(-39.97 -147.5)"/><path class="cls-1" d="M104.55,478.16c-4.24-.84-9.44-.23-12.72,2.76-.12.12,0,.3.18.26a59.26,59.26,0,0,1,12.51-2.49.26.26,0,0,0,.23-.3A.27.27,0,0,0,104.55,478.16Z" transform="translate(-39.97 -147.5)"/><path class="cls-1" d="M107.59,480c-4.23-.83-9.43-.23-12.71,2.77-.12.12,0,.29.18.25a59.88,59.88,0,0,1,12.51-2.48.27.27,0,0,0,0-.54Z" transform="translate(-39.97 -147.5)"/><path class="cls-9" d="M119.47,249.55s-.9,18.7-5.18,33.5c-.34,1.23-.71,2.43-1.11,3.59a69.21,69.21,0,0,0-11.26,5.79s-.46,15-.91,31.81c-.5,18.76-1,39.67-.91,44.11C100.5,385,98,476.22,98,476.22l-46.1.18s8.34-101.92,8.28-108c-.09-9.77,2.23-53,4-84.47,1.1-19.41,2-34.38,2-34.38Z" transform="translate(-39.97 -147.5)"/><path class="cls-1" d="M96.45,468c-7-.12-5-.19-12.06-.22-3.45,0-26.1-.12-29.31.42-.07,0-.07.14,0,.15,3.22.52,25.86.22,29.31.18,7-.1,5-.15,12.06-.33a.09.09,0,0,0,.1-.1A.1.1,0,0,0,96.45,468Z" transform="translate(-39.97 -147.5)"/><path class="cls-1" d="M70.1,256.23c-.84,25.72-1.74,51.44-2.89,77.14S60,451.49,58.45,465.84c0,.09.13.13.14,0,3.36-25.51,5.23-63.27,6.88-88.94s2.77-51.38,3.65-77.09c.49-14.54.87-29.08,1.3-43.62C70.43,256,70.11,256,70.1,256.23Z" transform="translate(-39.97 -147.5)"/><path class="cls-1" d="M115.09,285.52a86,86,0,0,0-13.17,6.91.15.15,0,0,0-.06.2.15.15,0,0,0,.19.07c4.45-2.16,9-4.24,13.31-6.64a.29.29,0,0,0,.13-.4A.3.3,0,0,0,115.09,285.52Z" transform="translate(-39.97 -147.5)"/><path class="cls-1" d="M115.32,269.66c-.3,1.64-.7,3.26-1,4.89s-.58,3.09-1,4.6a7.82,7.82,0,0,1-2.15,3.85c-.59.56-1.26,1.05-1.89,1.56-.35.28-.72.54-1.08.82q.08-.33.12-.66c.11-.62.22-1.24.32-1.86.23-1.38.46-2.76.67-4.15.41-2.72.79-5.46,1.36-8.15a.09.09,0,0,0-.08-.1.11.11,0,0,0-.09.05c-.67,2.67-1.42,5.31-2,8-.29,1.32-1.32,7.83-1.37,8.29s-.09.95-.1,1.43a5.1,5.1,0,0,0,0,1.46c0,.12.17.1.22,0h0a5.81,5.81,0,0,0,.42-1.42c.12-.46.22-.93.31-1.41a1.29,1.29,0,0,1,.07-.51c.65-.39,1.24-.91,1.84-1.34s1.31-.93,1.92-1.44a7.41,7.41,0,0,0,2.34-3.66,26.4,26.4,0,0,0,.76-4.68c.21-1.85.36-3.71.62-5.55C115.54,269.6,115.37,269.55,115.32,269.66Z" transform="translate(-39.97 -147.5)"/><path class="cls-8" d="M94.21,199.56c7.34,10,30.25,26.77,39.83,26.4,6.93-.26,28.46-22.42,34.25-29.68,5.58-7-17.16-20.38-20.57-16.36-5.5,6.5-14.44,21.1-17.06,21.81-1.83.5-13.32-3.12-30.75-9.87C89.26,187.75,89.82,193.62,94.21,199.56Z" transform="translate(-39.97 -147.5)"/><path class="cls-8" d="M177.61,186.5c-2.72,4.85-12.18,12.6-15.18,13.59s-16.7-14.65-16.08-17.83,11.06-18.81,16.33-20.94S180.44,181.47,177.61,186.5Z" transform="translate(-39.97 -147.5)"/><path class="cls-8" d="M147.66,179.29a45.73,45.73,0,0,0-.21-13.42c-1-5.26-3.2-13-.39-13.63,5.76-1.37,11.12,17.81,11.12,17.81s1,8.85-4.58,10.71A5.84,5.84,0,0,1,147.66,179.29Z" transform="translate(-39.97 -147.5)"/><path class="cls-8" d="M155.24,166.22c.09,3,3.51,1.15,3.51,1.15s-4.3,3.78-3,6.78,5.29.57,5.58.4c-.23.21-4.08,3.78-2.49,6.66s5.32,0,5.56-.22c-.16.25-2.13,3.69-.42,5.61,2.93,3.29,8.21-5.36,11.71-6.06,0,0,1.86,5.8,1.94,6,0,0,5.19-8.13,4-12.8a3.09,3.09,0,0,0-3-2.36s2-2.43.78-4.74c-.61-1.19-3-1.27-3-1.27a3.83,3.83,0,0,0,.31-4c-.94-1.59-3.24-1.42-3.24-1.42s.54-2.6-1-3.92C169.43,153.34,155,159.91,155.24,166.22Z" transform="translate(-39.97 -147.5)"/><path class="cls-1" d="M173,159.8a27.35,27.35,0,0,0-14.42,7.65c-.12.13,0,.38.19.26A56.42,56.42,0,0,1,173,159.88Z" transform="translate(-39.97 -147.5)"/><path class="cls-1" d="M176.32,165.27c.06,0,0-.11,0-.1a25.73,25.73,0,0,0-15.21,9.32c-.13.17-.07.46.09.27C163.91,171.61,171.53,167,176.32,165.27Z" transform="translate(-39.97 -147.5)"/><path class="cls-1" d="M164.24,181.43c3.75-4.68,8.63-7.69,14.08-10.06.07,0,0-.12,0-.12-3,.44-6.31,2.31-8.76,4a15.82,15.82,0,0,0-5.45,6.06C164,181.39,164.16,181.53,164.24,181.43Z" transform="translate(-39.97 -147.5)"/><path class="cls-1" d="M158.65,167.36c-.14.15.24.19.1.35-.59.67-3.79,5-2.65,6.56.91,1.24,3.21.87,4,.38l2.08-1.23-1.53,1.88a10,10,0,0,0-1.61,2.77,3.55,3.55,0,0,0,0,2.89,2,2,0,0,0,2.28,1.13,6.18,6.18,0,0,0,2.7-1.45l2.17-1.88-1.43,2.47a9.16,9.16,0,0,0-.92,2.19,3.78,3.78,0,0,0,0,2.21,1.84,1.84,0,0,0,1.47,1.23,3.94,3.94,0,0,0,2.16-.65,30.69,30.69,0,0,0,4-3c.66-.53,1.31-1.06,2-1.56a6,6,0,0,1,2.23-1.16,6.67,6.67,0,0,0-2.09,1.34c-.63.55-1.24,1.12-1.85,1.7a26.92,26.92,0,0,1-3.92,3.23,4.7,4.7,0,0,1-2.56.86,2.57,2.57,0,0,1-2.24-1.74,4.57,4.57,0,0,1,0-2.74,9.86,9.86,0,0,1,1-2.45l.73.59A7,7,0,0,1,161.6,183a2.94,2.94,0,0,1-2-.26,3.31,3.31,0,0,1-1.36-1.41,4.49,4.49,0,0,1,0-3.66,10.71,10.71,0,0,1,1.82-3l.56.65c-1.08.59-3.6,1.28-5.26-.47C153.51,172.32,157.81,168.08,158.65,167.36Z" transform="translate(-39.97 -147.5)"/><path class="cls-1" d="M158.75,167.37a6,6,0,0,1-1.79.25,1.39,1.39,0,0,1-1.2-.69,2.75,2.75,0,0,1-.14-1.58,18.49,18.49,0,0,1,.36-1.83,4.64,4.64,0,0,0-1,1.68,2.76,2.76,0,0,0,0,2.11,1.88,1.88,0,0,0,.85.8,2.11,2.11,0,0,0,1.11.15A3.12,3.12,0,0,0,158.75,167.37Z" transform="translate(-39.97 -147.5)"/><path class="cls-2" d="M124.92,200.12,119.48,224s-13.75-11.06-22.62-20.14-10.92-16.92,1.62-13.11S124.92,200.12,124.92,200.12Z" transform="translate(-39.97 -147.5)"/><path class="cls-10" d="M109.11,194.22l-4.19,17.3.79.71,4.28-17.7Zm4.44,1.58L108.89,215l.79.69,4.74-19.62Zm4.42,1.64-5.1,21,.79.67,5.18-21.38Zm4.41,1.68-5.5,22.72.79.66,5.58-23Z" transform="translate(-39.97 -147.5)"/><path class="cls-1" d="M119.93,199.76c-.53,1.68-.87,3.43-1.25,5.15s-.73,3.38-1.08,5.07c-.71,3.42-1.43,6.83-1.87,10.3,0,.1.11.12.14,0,1-3.36,1.63-6.78,2.33-10.21.34-1.69.68-3.38,1-5.08s.7-3.47.87-5.23a.07.07,0,0,0-.14,0Z" transform="translate(-39.97 -147.5)"/><path class="cls-11" d="M121.91,213.3,119.48,224s-13.75-11.05-22.62-20.13c-7.06-7.23-9.8-13.67-4.3-14.08Z" transform="translate(-39.97 -147.5)"/><path class="cls-2" d="M61.43,277.33c.16.16,67.71-4.46,68.27-5.2.79-1-20.58-69.67-25.94-79.75-2.29-4.3-13.21-4.92-17.52-.86-10.81,10.17-18.34,43-19.92,52.89C63.7,260.65,60.82,276.73,61.43,277.33Z" transform="translate(-39.97 -147.5)"/><path class="cls-10" d="M103.84,192.52l-19.78,1.4.83-1,18.35-1.3a3.86,3.86,0,0,1,.52.75A1.09,1.09,0,0,0,103.84,192.52Zm1.62,3.65-24.08,1.7c-.2.32-.39.65-.57,1l25-1.77C105.7,196.76,105.58,196.46,105.46,196.17Zm1.77,4.56-28.47,2-.45,1,29.26-2.07C107.46,201.34,107.32,201,107.23,200.73Zm1.67,4.58-32.29,2.28-.39,1,33-2.34C109.12,205.91,109,205.61,108.9,205.31Zm1.61,4.58-35.76,2.53c-.12.32-.23.64-.34,1l36.42-2.58C110.72,210.49,110.62,210.19,110.51,209.89Zm1.57,4.58-39,2.76c-.11.31-.21.63-.31,1l39.6-2.81A4.77,4.77,0,0,0,112.08,214.47Zm1.54,4.56-42,3c-.1.32-.19.63-.28.95l42.6-3Zm1.52,4.58-44.88,3.18c-.09.32-.18.64-.26,1l45.45-3.21c-.13-.33-.2-.63-.31-.94Zm1.5,4.59L69,231.6c-.08.32-.15.64-.23,1l48.15-3.41Zm1.49,4.59L67.9,236.34c-.07.32-.14.64-.2.95l50.72-3.59c-.1-.27-.2-.58-.29-.88Zm1.47,4.59-52.69,3.73c-.07.33-.13.64-.18.94l53.15-3.76c-.1-.26-.19-.58-.28-.88ZM121,242l-55,3.89-.15.93,55.4-3.92A7.36,7.36,0,0,0,121,242Zm1.44,4.59-57.16,4.08-.15.93,57.6-4.08c-.1-.31-.2-.61-.29-.9Zm1.41,4.59-59.37,4.2a5.13,5.13,0,0,1-.16.94l59.81-4.23c-.09-.27-.19-.57-.28-.88Zm1.39,4.6-61.55,4.35-.15.94,62-4.39a4.87,4.87,0,0,1-.26-.87Zm1.37,4.59L63,264.86l-.15.94,64.11-4.54ZM128,265l-65.77,4.66a5.63,5.63,0,0,1-.14.93l66.17-4.68c-.09-.26-.17-.56-.26-.83Zm1.24,4.61-67.67,4.79a8,8,0,0,1-.1.93l68-4.81c-.06-.24-.13-.54-.23-.88Z" transform="translate(-39.97 -147.5)"/><path class="cls-8" d="M84.46,209.11c1.45,12.51,11.61,50.73,21.76,54.14,9,3,32.5-1.87,43.2-3.87,3.9-.73-1-33.61-4.82-31.8-4.6,2.17-29.37,6.26-30.57,5.66s-9.91-14.37-20.49-31C83.56,186.5,83.56,201.27,84.46,209.11Z" transform="translate(-39.97 -147.5)"/><path class="cls-8" d="M140.85,229.82s10.33-6.23,17.28-10c3.87-2.09,10.84-5.09,14.39-5.33,5.31-.35,27.75,1.57,27.4,7-.31,4.93-19.38.84-19.38.84s19.6,2.43,18.13,8.3-22.35-1.6-22.35-1.6,20,3,17.57,8.78c-1.87,4.4-21.21-1.32-21.21-1.32s17.25,2.65,15.52,7.25c-1.91,5.09-20.09.93-20.09.93-6.36,11-13.56,14.09-19.44,14.8C147.32,259.63,140.85,229.82,140.85,229.82Z" transform="translate(-39.97 -147.5)"/><path class="cls-1" d="M174.73,221.24c14.58.68,21.52,5.49,21.31,5.4-5-2.14-13.13-3.72-15.42-4.13s-3.62-.78-5.91-1.19C174.66,221.31,174.68,221.23,174.73,221.24Z" transform="translate(-39.97 -147.5)"/><path class="cls-1" d="M172.19,229.33a49.68,49.68,0,0,1,17.31,3.14c.2.09.11.16-.11.11-2.9-.6-14.3-2.73-17.21-3.19C172.13,229.39,172.15,229.33,172.19,229.33Z" transform="translate(-39.97 -147.5)"/><path class="cls-1" d="M169.53,236.14A37,37,0,0,1,182.86,239c.21.08.07.18-.16.13-4.41-1-7.87-1.86-13.18-2.8C169.43,236.28,169.43,236.14,169.53,236.14Z" transform="translate(-39.97 -147.5)"/><path class="cls-2" d="M107.89,223.53l-19,15.38s-4-17.19-5.32-29.81S85.46,189,93,199.8,107.89,223.53,107.89,223.53Z" transform="translate(-39.97 -147.5)"/><path class="cls-10" d="M98.92,208.82l-13.78,11.4.18,1.06,14.1-11.67Zm2.52,4-15.35,12.7c.06.35.13.7.2,1l15.64-12.94Zm2.48,4-16.8,13.9c.06.35.13.69.2,1l17.08-14.13Zm2.43,4.05-18.15,15c.08.37.15.71.22,1l18.4-15.23Z" transform="translate(-39.97 -147.5)"/><path class="cls-1" d="M104.71,220.31c-1.48.94-2.87,2.06-4.26,3.14s-2.73,2.11-4.08,3.19c-2.75,2.17-5.5,4.31-8.06,6.69a.08.08,0,0,0,0,.1.07.07,0,0,0,.1,0c2.89-2,5.61-4.15,8.34-6.33,1.33-1.07,2.67-2.16,4-3.25s2.76-2.21,4-3.44a.08.08,0,0,0,0-.1Z" transform="translate(-39.97 -147.5)"/><path class="cls-1" d="M91.21,237c-.73.69-1.49,1.35-2.24,2l-.2.17-.07-.26c-.52-1.89-1-3.79-1.46-5.7s-.87-3.82-1.2-5.75-.7-3.86-1-5.8-.5-3.89-.66-5.85c.43,1.92.8,3.84,1.18,5.76l1.14,5.75L89,238.86l-.27-.09C89.57,238.19,90.38,237.58,91.21,237Z" transform="translate(-39.97 -147.5)"/><path class="cls-1" d="M83.74,219.4c.4.81.75,1.61,1.1,2.41s.69,1.6,1,2.47A8.1,8.1,0,0,1,84,220.76,5.21,5.21,0,0,1,83.74,219.4Z" transform="translate(-39.97 -147.5)"/><path class="cls-1" d="M97.66,206.86c1,1.28,2,2.61,2.9,3.95s1.82,2.71,2.69,4.09,1.71,2.78,2.51,4.21a48.6,48.6,0,0,1,2.18,4.4h0l-.52.39.44-.47v.07c-.85-1.4-1.72-2.77-2.61-4.14l-2.61-4.13c-.85-1.38-1.72-2.77-2.54-4.18S98.43,208.3,97.66,206.86Z" transform="translate(-39.97 -147.5)"/><path class="cls-1" d="M100.25,208.93a5.79,5.79,0,0,1,1.11,2,5.33,5.33,0,0,1,.28,2.24c-.16-.35-.27-.7-.4-1l-.36-1C100.66,210.36,100.42,209.68,100.25,208.93Z" transform="translate(-39.97 -147.5)"/><path class="cls-8" d="M101.63,201.43c-3.38.82-10-4.73-12.32-8.91a69.87,69.87,0,0,1,.59-7c.2-2.26.36-4.77.34-7.08,0-.47,1.61.39,1.61.39l3,.69,9.89,2.32a37,37,0,0,0-1.33,8.87,5.88,5.88,0,0,0,.11.94v.16C103.84,193.56,104.9,200.62,101.63,201.43Z" transform="translate(-39.97 -147.5)"/><path class="cls-1" d="M103.51,191.61v.16a9.19,9.19,0,0,1-1.48.09C92.29,191.72,91,179.35,91,179.35l3.85.13,9.89,2.32a37,37,0,0,0-1.33,8.87A5.91,5.91,0,0,0,103.51,191.61Z" transform="translate(-39.97 -147.5)"/><path class="cls-8" d="M87.7,163C86.44,168.25,90,182.87,93.88,186c5.56,4.46,14.23,4.4,17.91-2.19,3.57-6.39-1.46-25.37-5.7-28.12C99.83,151.62,89.55,155.36,87.7,163Z" transform="translate(-39.97 -147.5)"/><path class="cls-1" d="M101.81,172.46s-.07.06-.06.1c.27,1,.41,2.15-.4,2.69v.05C102.42,174.89,102.22,173.34,101.81,172.46Z" transform="translate(-39.97 -147.5)"/><path class="cls-1" d="M100.68,171.64c-1.62.26-1,3.47.52,3.23S102,171.42,100.68,171.64Z" transform="translate(-39.97 -147.5)"/><path class="cls-1" d="M107.78,171a.09.09,0,0,1,.09.08c.17,1,.53,2.12,1.49,2.27v.05C108.24,173.5,107.78,172,107.78,171Z" transform="translate(-39.97 -147.5)"/><path class="cls-1" d="M108.46,169.82c1.57-.44,2.34,2.74.88,3.15S107.14,170.19,108.46,169.82Z" transform="translate(-39.97 -147.5)"/><path class="cls-1" d="M99.12,170.42a13.35,13.35,0,0,0,1.15-.68,2.25,2.25,0,0,0,1-.93.7.7,0,0,0-.27-.8,1.75,1.75,0,0,0-1.74.17,2.47,2.47,0,0,0-1.21,1.35.75.75,0,0,0,.44.95A.77.77,0,0,0,99.12,170.42Z" transform="translate(-39.97 -147.5)"/><path class="cls-1" d="M109.38,168a11.9,11.9,0,0,1-1.34-.07,2.17,2.17,0,0,1-1.36-.34.7.7,0,0,1-.13-.84,1.74,1.74,0,0,1,1.62-.65,2.54,2.54,0,0,1,1.7.65.75.75,0,0,1,0,1.05A.77.77,0,0,1,109.38,168Z" transform="translate(-39.97 -147.5)"/><path class="cls-1" d="M102.64,181.46a1.51,1.51,0,0,0,1,.42,2.68,2.68,0,0,0,1-.46h0a1.37,1.37,0,0,1-1.15.79,1.08,1.08,0,0,1-1-.72S102.59,181.43,102.64,181.46Z" transform="translate(-39.97 -147.5)"/><path class="cls-1" d="M103.09,178.28a3.43,3.43,0,0,0,2.56,1.05,4.27,4.27,0,0,0,1.23-.19.88.88,0,0,0,.23-.07l.21,0a.25.25,0,0,0,.15-.26h0v-.1h0v-.09c-.13-.77-.44-1.92-.44-1.92.31.08,1.86.44,1.76,0a51.81,51.81,0,0,0-3.36-10,.11.11,0,0,0-.14,0,.09.09,0,0,0,0,.08c.71,3.18,2,6.21,2.72,9.39a6.1,6.1,0,0,0-1.7-.16c-.1,0,.63,2.21.66,2.56h0a4.81,4.81,0,0,1-3.73-.39C103.08,178.13,103,178.21,103.09,178.28Z" transform="translate(-39.97 -147.5)"/><path class="cls-1" d="M106.32,178.85a4,4,0,0,1-1.36,1.56,1.83,1.83,0,0,1-1.09.29c-.83,0-1-.77-1-1.43a4.87,4.87,0,0,1,.17-1A5.33,5.33,0,0,0,106.32,178.85Z" transform="translate(-39.97 -147.5)"/><path class="cls-12" d="M105,180.41a1.83,1.83,0,0,1-1.09.29c-.83,0-1-.77-1-1.43A1.92,1.92,0,0,1,105,180.41Z" transform="translate(-39.97 -147.5)"/><path class="cls-1" d="M89.09,175.81s-5.23-8.25-4.86-13.09c.17-2.19,3.09-3.69,3.09-3.69a4.92,4.92,0,0,1,1.46-5c2.53-2.48,8.79-2.07,8.79-2.07s3.93-5.94,9.71-3.74,2.19,8.78,2.19,8.78,2.16,2.94-2.93,5.39-15.23.35-15.23.35a35.53,35.53,0,0,1,.06,10.6A3.23,3.23,0,0,1,89.09,175.81Z" transform="translate(-39.97 -147.5)"/><path class="cls-1" d="M98.58,152a9.83,9.83,0,0,0-4-.65,10.66,10.66,0,0,0-3.62.64,6,6,0,0,0-4.15,4.62,4.21,4.21,0,0,0,.87,3.15h0c-1.36-1.61-.72-4.18.62-5.58a9.14,9.14,0,0,1,6-2.37,17.75,17.75,0,0,1,4.24.36.09.09,0,0,0,.13,0A.1.1,0,0,0,98.58,152Z" transform="translate(-39.97 -147.5)"/><path class="cls-1" d="M111.46,150.87a5,5,0,0,0-3.46-3.06,8.43,8.43,0,0,0-5.43.31,10.61,10.61,0,0,0-4.37,3.38s0,.08.06,0a9.27,9.27,0,0,1,8.8-3.49,4.54,4.54,0,0,1,4.22,4.84,4.49,4.49,0,0,1-.54,1.86,9.49,9.49,0,0,1-3.61,3.77h0a9.62,9.62,0,0,0,3.61-3.21A5.47,5.47,0,0,0,111.46,150.87Z" transform="translate(-39.97 -147.5)"/><path class="cls-1" d="M107.81,162.6a17.2,17.2,0,0,1-7.18,1.4,34.93,34.93,0,0,1-7.62-.88c-1.45-.32-2.9-.69-4.33-1.09,0,0-.07.06,0,.07a38.52,38.52,0,0,0,7.81,2.24,19.33,19.33,0,0,0,7.5-.23,16.15,16.15,0,0,0,3.87-1.46S107.84,162.59,107.81,162.6Z" transform="translate(-39.97 -147.5)"/><path class="cls-2" d="M101.23,178a4.37,4.37,0,1,1,3.74-5.8h0a4.39,4.39,0,0,1-2.7,5.58A4.7,4.7,0,0,1,101.23,178Zm-.72-8.13a3.69,3.69,0,0,0-.92.2,3.78,3.78,0,1,0,.92-.2Z" transform="translate(-39.97 -147.5)"/><path class="cls-2" d="M111,175.89c-1.66.15-3.33-1.42-3.79-3.66a5.1,5.1,0,0,1,.28-3.18,2.72,2.72,0,0,1,3.44-1.71,2.65,2.65,0,0,1,1.12.71,5.21,5.21,0,0,1,1.53,2.81c.49,2.36-.54,4.57-2.29,4.94Zm-1.16-8.06h-.22a2.34,2.34,0,0,0-1.6,1.43,4.7,4.7,0,0,0-.24,2.82c.43,2,1.94,3.47,3.39,3.17s2.26-2.21,1.84-4.25a4.64,4.64,0,0,0-1.35-2.49A2.4,2.4,0,0,0,109.88,167.83Z" transform="translate(-39.97 -147.5)"/><path class="cls-2" d="M104.93,172.71l-.46-.36c.54-.68,1.88-1.73,3.16-.83l-.31.51C106.15,171.19,105,172.65,104.93,172.71Z" transform="translate(-39.97 -147.5)"/><path class="cls-2" d="M86.09,177.78l-.56-.15c.07-.27.75-2.58,2-3.06s9-1.31,9.31-1.35l.06.58c-2.24.25-8.27,1-9.16,1.32S86.32,177.15,86.09,177.78Z" transform="translate(-39.97 -147.5)"/><path class="cls-8" d="M91.58,174.92s-3.72-4.5-5.79-3.14,1,8.09,3.62,8.83a2.58,2.58,0,0,0,3.31-1.56.49.49,0,0,0,0-.11Z" transform="translate(-39.97 -147.5)"/><path class="cls-1" d="M86.72,173.69s0,.05,0,.07c1.84.58,2.91,2.15,3.71,3.82a1.43,1.43,0,0,0-2-.37l-.18.15s0,.1.06.09a1.59,1.59,0,0,1,1.79.41,8.28,8.28,0,0,1,1,1.35c.1.15.38,0,.31-.13h0C91.2,176.76,89.18,173.72,86.72,173.69Z" transform="translate(-39.97 -147.5)"/></g><g id="freepik--paper-plane--inject-2"><path class="cls-1" d="M147.75,287.91l-.52-.54,1.46-1.38.51.55Z" transform="translate(-39.97 -147.5)"/><path class="cls-1" d="M154.32,367.17a37,37,0,0,1-4-.25l.08-.74c1.3.13,2.63.21,4,.24Zm5-.08v-.75c1.3-.08,2.64-.19,4-.35l.09.75c-1.36.15-2.71.29-4,.35Zm-14-.93c-1.34-.28-2.66-.63-3.92-1l.23-.71c1.23.38,2.52.72,3.84,1Zm23.07-.18-.13-.74c1.28-.24,2.6-.51,3.9-.82l.18.73c-1.33.31-2.66.59-4,.88Zm8.81-2.12-.21-.72c1.27-.37,2.55-.78,3.81-1.21l.24.71c-1.28.39-2.57.84-3.85,1.22Zm-40.52-.55a34,34,0,0,1-3.55-1.95l.4-.63a33.38,33.38,0,0,0,3.47,1.9Zm49.09-2.39-.27-.7c1.22-.48,2.47-1,3.7-1.52l.29.69c-1.24.53-2.5,1.05-3.73,1.53Zm-56.68-2.63a27.8,27.8,0,0,1-2.8-2.94l.58-.48a27.41,27.41,0,0,0,2.73,2.87Zm65-1-.32-.67c1.18-.57,2.38-1.17,3.58-1.79l.34.67q-1.84.94-3.63,1.8Zm8-4.18-.37-.65c1.17-.67,2.32-1.33,3.45-2l.39.64c-1.14.69-2.3,1.36-3.47,2Zm-78.63-2a27.37,27.37,0,0,1-1.65-3.71l.71-.25a27.71,27.71,0,0,0,1.6,3.61Zm86.36-2.68-.41-.63q1.69-1.1,3.33-2.22l.42.62c-1.1.77-2.21,1.51-3.34,2.24Zm7.43-5.14-.44-.6c1.08-.8,2.14-1.6,3.19-2.42l.46.59c-1.06.83-2.14,1.64-3.21,2.44Zm-96.72-.8a29.81,29.81,0,0,1-.42-4h.74a32.49,32.49,0,0,0,.42,3.94Zm103.85-4.76-.48-.58c1-.85,2.06-1.71,3.07-2.58l.49.57c-1,.89-2,1.75-3.08,2.6ZM121,333.47l-.75-.07c.13-1.31.32-2.65.59-4l.73.14c-.24,1.34-.45,2.66-.57,3.94Zm110.24-1.65-.5-.55c1-.9,2-1.8,2.94-2.71l.51.55c-1,.92-2,1.83-3,2.72Zm6.58-6.16-.52-.54,2.86-2.8.53.53Zm-115-1-.72-.22c.39-1.25.83-2.53,1.33-3.81l.69.27c-.52,1.27-1,2.54-1.34,3.77Zm121.45-5.42-.54-.52c.94-.95,1.87-1.91,2.8-2.87l.54.52ZM126.1,316.38l-.67-.33c.57-1.18,1.19-2.39,1.85-3.58l.66.36c-.7,1.2-1.31,2.39-1.88,3.56Zm124.44-3.57-.54-.52,2.77-2.9.54.52Zm-120-4.27-.63-.4c.7-1.11,1.46-2.23,2.24-3.35l.61.44c-.86,1.11-1.61,2.22-2.31,3.32Zm126.28-2.27-.55-.51,2.77-2.91.54.52Zm-121.08-5.06-.59-.46c.8-1,1.65-2.08,2.53-3.13l.57.48c-.93,1-1.81,2.1-2.6,3.12Zm127.31-1.46-.54-.52q1.38-1.44,2.79-2.88l.54.52c-1,1-2,1.93-2.88,2.89Zm-121.5-5.41-.55-.5c.89-1,1.81-1.95,2.76-2.93l.53.52c-1,1-2,2-2.83,2.92Zm127.79-1-.53-.52c.94-.95,1.88-1.9,2.84-2.85l.52.54Zm6.41-6.34-.52-.54c.95-.93,1.92-1.86,2.89-2.78l.52.54c-1.07.89-2,1.81-3,2.74Zm6.54-6.2-.5-.55,3-2.71.51.56Zm6.72-6-.5-.57,3-2.61.49.57c-1.07.84-2.08,1.69-3.08,2.56ZM295.9,269l-.47-.58c1-.84,2.07-1.68,3.13-2.51l.46.58Zm7.08-5.57-.46-.6c1.06-.8,2.13-1.61,3.22-2.41l.44.61c-1.17.75-2.24,1.55-3.29,2.35Zm7.26-5.33-.43-.62c1.08-.76,2.18-1.53,3.29-2.29l.42.61c-1.2.72-2.29,1.48-3.37,2.24Zm7.44-5.09-.41-.62c1.1-.73,2.23-1.46,3.37-2.19l.4.63c-1.23.68-2.35,1.4-3.45,2.13Zm7.61-4.83-.4-.64c1.13-.69,2.28-1.38,3.44-2.07l.38.65c-1.24.63-2.39,1.32-3.51,2Zm7.75-4.58-.37-.65c1.16-.66,2.32-1.31,3.51-2l.36.65c-1.22.64-2.44,1.3-3.59,1.95Zm7.91-4.33-.36-.67c1.18-.62,2.36-1.24,3.57-1.85l.34.67c-1.29.56-2.48,1.18-3.64,1.8Zm8-4.1-.33-.67c1.19-.59,2.39-1.17,3.61-1.75l.33.67c-1.24.53-2.49,1.12-3.68,1.7Zm8.14-3.87-.31-.68,3.66-1.65.31.68Zm8.25-3.65L365,227c1.23-.52,2.46-1,3.71-1.55l.28.69Z" transform="translate(-39.97 -147.5)"/><path class="cls-1" d="M373.85,224l-.28-.7,1.86-.73.28.69Z" transform="translate(-39.97 -147.5)"/><polygon class="cls-2" points="331.5 64.03 324.89 82.18 338.77 71.35 391.81 52.11 331.5 64.03"/><polygon class="cls-11" points="331.5 64.03 324.89 82.18 338.77 71.35 391.81 52.11 331.5 64.03"/><polygon class="cls-1" points="340.54 75.58 324.89 82.18 338.77 71.35 340.54 75.58"/><polygon class="cls-2" points="338.77 71.35 391.81 52.11 348.3 94.57 338.77 71.35"/><polygon class="cls-2" points="331.5 64.03 309.46 49.8 391.81 52.11 331.5 64.03"/></g></svg>