<svg id="Layer_1" data-name="Layer 1" xmlns="http://www.w3.org/2000/svg" viewBox="0 0 458.46 395.5"><defs><style>.cls-1{fill:#fff;}.cls-2{fill:#f5f5f5;}.cls-3{fill:#ebebeb;}.cls-4{fill:#7c39eb;}.cls-5{fill:#263238;}.cls-6{fill:#e0e0e0;}.cls-7{fill:#616a6d;}.cls-8{fill:#ffbe9d;}.cls-9{opacity:0.3;}.cls-10{fill:#eb996e;}.cls-11{fill:#455a64;}</style></defs><title>4-Assign Task</title><g id="freepik--Window--inject-2"><rect class="cls-1" x="14.05" y="0.63" width="411.75" height="264.22"/><rect class="cls-2" x="125.9" y="77.15" width="299.89" height="29.22"/><rect class="cls-2" x="125.9" y="161.5" width="299.89" height="44.64"/><rect class="cls-3" x="14.05" y="42.38" width="111.86" height="221.71"/><rect class="cls-4" x="14.05" y="48.32" width="111.86" height="21.7"/><path class="cls-5" d="M125.05,141.83c0,.14-15.74.26-35.16.26s-35.16-.12-35.16-.26,15.74-.26,35.16-.26S125.05,141.68,125.05,141.83Z" transform="translate(-20.77 -52.25)"/><path class="cls-5" d="M125.05,169.09c0,.14-15.74.26-35.16.26s-35.16-.12-35.16-.26,15.74-.26,35.16-.26S125.05,169,125.05,169.09Z" transform="translate(-20.77 -52.25)"/><path class="cls-5" d="M125.05,196.35c0,.15-15.74.26-35.16.26s-35.16-.11-35.16-.26,15.74-.26,35.16-.26S125.05,196.25,125.05,196.35Z" transform="translate(-20.77 -52.25)"/><path class="cls-5" d="M168.88,119.1v-4.39l-2.15,3.62H166l-2.15-3.53v4.3h-1.58v-7.32h1.4l2.73,4.55,2.7-4.55h1.38v7.32Z" transform="translate(-20.77 -52.25)"/><path class="cls-5" d="M177,117.53h-3.4L173,119.1h-1.73l3.26-7.32h1.67l3.27,7.32h-1.77Zm-.58-1.28-1.16-2.81-1.12,2.81Z" transform="translate(-20.77 -52.25)"/><path class="cls-5" d="M186.93,111.78v7.32h-1.39l-3.65-4.44v4.44h-1.67v-7.32h1.4l3.64,4.44v-4.44Z" transform="translate(-20.77 -52.25)"/><path class="cls-5" d="M193.45,117.53h-3.39l-.65,1.57h-1.74l3.26-7.32h1.68l3.27,7.32H194.1Zm-.5-1.28-1.16-2.81-1.16,2.81Z" transform="translate(-20.77 -52.25)"/><path class="cls-5" d="M201.51,115.33h1.55v3a5,5,0,0,1-3,.93,3.79,3.79,0,0,1-.55-7.56,5,5,0,0,1,.55,0,4,4,0,0,1,3.07,1.26L202,114a2.48,2.48,0,0,0-1.89-.83,2.34,2.34,0,0,0,0,4.68h0a2.59,2.59,0,0,0,1.31-.31Z" transform="translate(-20.77 -52.25)"/><path class="cls-5" d="M210.29,117.74v1.36h-5.66v-7.32h5.53v1.36h-3.85v1.59h3.4v1.32h-3.4v1.69Z" transform="translate(-20.77 -52.25)"/><path class="cls-5" d="M216.12,113.16h-2.34v-1.38h6.37v1.38h-2.34v5.94h-1.69Z" transform="translate(-20.77 -52.25)"/><path class="cls-5" d="M225.52,117.53h-3.4l-.65,1.57h-1.73l3.26-7.32h1.67l3.27,7.32h-1.78Zm-.54-1.28-1.16-2.81-1.16,2.81Z" transform="translate(-20.77 -52.25)"/><path class="cls-5" d="M228.13,118.38l.58-1.28a4.26,4.26,0,0,0,2.41.77c1,0,1.41-.34,1.41-.79,0-1.37-4.25-.43-4.25-3.14,0-1.25,1-2.28,3.08-2.28a4.91,4.91,0,0,1,2.54.65l-.52,1.28a4.17,4.17,0,0,0-2-.57c-1,0-1.39.37-1.39.83,0,1.35,4.25.42,4.25,3.11,0,1.22-1,2.26-3.1,2.26A5.24,5.24,0,0,1,228.13,118.38Z" transform="translate(-20.77 -52.25)"/><path class="cls-5" d="M238,116.25l-1,1v1.85h-1.68v-7.32H237v3.47l3.24-3.42h1.88l-3,3.26,3.21,4.06h-2Z" transform="translate(-20.77 -52.25)"/><path class="cls-5" d="M242.38,118.38l.58-1.28a4.26,4.26,0,0,0,2.41.77c1,0,1.41-.34,1.41-.79,0-1.37-4.25-.43-4.25-3.14,0-1.25,1-2.28,3.08-2.28a4.91,4.91,0,0,1,2.54.65l-.52,1.28a4.17,4.17,0,0,0-2-.57c-1,0-1.39.37-1.39.83,0,1.35,4.25.42,4.25,3.11,0,1.22-1,2.26-3.1,2.26A5.24,5.24,0,0,1,242.38,118.38Z" transform="translate(-20.77 -52.25)"/><path class="cls-5" d="M327.75,178.58c0,.15-35.37.26-79,.26s-79-.11-79-.26,35.36-.26,79-.26S327.75,178.44,327.75,178.58Z" transform="translate(-20.77 -52.25)"/><path class="cls-5" d="M236.45,192.8c0,.14-15,.26-33.56.26s-33.57-.12-33.57-.26,15-.26,33.57-.26S236.45,192.65,236.45,192.8Z" transform="translate(-20.77 -52.25)"/><rect class="cls-4" x="325.2" y="116.38" width="81.97" height="28.33" rx="8.03"/><path class="cls-5" d="M327.75,229c0,.15-35.37.26-79,.26s-79-.11-79-.26,35.36-.26,79-.26S327.75,228.82,327.75,229Z" transform="translate(-20.77 -52.25)"/><path class="cls-5" d="M236.45,243.18c0,.14-15,.26-33.56.26s-33.57-.12-33.57-.26,15-.26,33.57-.26S236.45,243,236.45,243.18Z" transform="translate(-20.77 -52.25)"/><rect class="cls-4" x="325.2" y="169.65" width="81.97" height="28.33" rx="8.03"/><path class="cls-5" d="M327.75,279.34c0,.15-35.37.27-79,.27s-79-.12-79-.27,35.36-.26,79-.26S327.75,279.25,327.75,279.34Z" transform="translate(-20.77 -52.25)"/><path class="cls-5" d="M236.45,293.56c0,.14-15,.26-33.56.26s-33.57-.12-33.57-.26,15-.26,33.57-.26S236.45,293.42,236.45,293.56Z" transform="translate(-20.77 -52.25)"/><rect class="cls-4" x="325.2" y="222.93" width="81.97" height="28.33" rx="8.03"/><rect class="cls-6" x="14.05" y="0.29" width="411.75" height="25.21"/><rect class="cls-2" x="14.05" y="23.12" width="411.75" height="25.21"/><path class="cls-1" d="M121.7,112.66c0,.15-14.67.26-32.76.26s-32.76-.11-32.76-.26,14.67-.26,32.76-.26S121.7,112.52,121.7,112.66Z" transform="translate(-20.77 -52.25)"/><path class="cls-5" d="M51.52,64.36a3.17,3.17,0,1,1-3.17-3.17h0a3.16,3.16,0,0,1,3.16,3.16Z" transform="translate(-20.77 -52.25)"/><path class="cls-5" d="M63.14,64.36A3.17,3.17,0,1,1,60,61.19h0A3.17,3.17,0,0,1,63.14,64.36Z" transform="translate(-20.77 -52.25)"/><path class="cls-5" d="M74.75,64.36a3.17,3.17,0,1,1-3.17-3.17h0A3.17,3.17,0,0,1,74.75,64.36Z" transform="translate(-20.77 -52.25)"/><polygon class="cls-5" points="399.69 135.81 404.92 163.56 409.22 155.82 418.45 169.65 423.07 166.54 413.83 152.71 422.31 151.41 399.69 135.81"/><path class="cls-5" d="M418.75,189a14.89,14.89,0,0,1-3.94.31,15.38,15.38,0,0,1-3.95-.21,30.2,30.2,0,0,1,7.89-.1Z" transform="translate(-20.77 -52.25)"/><path class="cls-5" d="M419.51,185.39a37.41,37.41,0,0,1-4.26-4.37,36.61,36.61,0,0,1-3.88-4.72,34.57,34.57,0,0,1,4.27,4.37A35.72,35.72,0,0,1,419.51,185.39Z" transform="translate(-20.77 -52.25)"/><path class="cls-5" d="M424,178.52a13.69,13.69,0,0,1-1.84,6.58,17.38,17.38,0,0,1,.84-3.32A17,17,0,0,1,424,178.52Z" transform="translate(-20.77 -52.25)"/><path class="cls-6" d="M425.06,109.07a2,2,0,1,1-2-2A2,2,0,0,1,425.06,109.07Z" transform="translate(-20.77 -52.25)"/><path class="cls-6" d="M425.06,114.63a2,2,0,1,1-2-2A2,2,0,0,1,425.06,114.63Z" transform="translate(-20.77 -52.25)"/><path class="cls-6" d="M425.06,120.18a2,2,0,1,1-2-2A2,2,0,0,1,425.06,120.18Z" transform="translate(-20.77 -52.25)"/><path class="cls-5" d="M446.57,317.11c0-1.68-.08-103-.21-264.57l.21.21H34.85l.26-.26V317.06l-.24-.24,411.75.24-411.75.24h-.24v-265h.29l411.72.06h.2v.2C446.65,214.13,446.57,315.43,446.57,317.11Z" transform="translate(-20.77 -52.25)"/></g><g id="freepik--speech-bubble--inject-2"><path class="cls-1" d="M105.22,247.38l-8.66-15.27A40.86,40.86,0,1,0,86.77,243h0Z" transform="translate(-20.77 -52.25)"/><path class="cls-7" d="M105.22,247.38l-18.5-4.22-.19,0,.12-.16h0l.19.18a41.27,41.27,0,0,1-8.4,5.07,40.46,40.46,0,0,1-11.2,3.2,36.84,36.84,0,0,1-6.47.33c-1.11-.07-2.25-.09-3.39-.19L53.93,251a41.18,41.18,0,0,1-25.48-16.41,40.68,40.68,0,0,1-6.9-15.78A41.58,41.58,0,0,1,22,200.66a40.14,40.14,0,0,1,8.76-16.8L32.45,182c.55-.62,1.21-1.13,1.8-1.69a17.88,17.88,0,0,1,1.85-1.62l2-1.46a19.45,19.45,0,0,1,2-1.35l2.08-1.25,2.17-1.06a19.64,19.64,0,0,1,2.19-1,41.62,41.62,0,0,1,18.31-2.81,40.2,40.2,0,0,1,16.8,5A41.51,41.51,0,0,1,101,198.64a44.62,44.62,0,0,1,1.78,13.29,40.69,40.69,0,0,1-2,11.47,41.87,41.87,0,0,1-4.1,8.79v-.13l8.55,15.33-8.82-15.21v-.13a40.63,40.63,0,0,0,6-20.14,44.07,44.07,0,0,0-1.8-13.16,41.12,41.12,0,0,0-19.24-23.56,39.89,39.89,0,0,0-16.61-4.88,41.19,41.19,0,0,0-18.08,2.79,19.2,19.2,0,0,0-2.16,1l-2.15,1-2,1.24a17.8,17.8,0,0,0-2,1.33l-1.93,1.45c-.66.47-1.22,1.07-1.83,1.59a17.52,17.52,0,0,0-1.77,1.68l-1.74,1.86a39.76,39.76,0,0,0-8.69,16.53A41.2,41.2,0,0,0,22,218.73a40.24,40.24,0,0,0,6.8,15.6A40.85,40.85,0,0,0,54,250.6l3.41.52c1.13.1,2.26.13,3.36.2a37.11,37.11,0,0,0,6.41-.3,40.45,40.45,0,0,0,19.49-8.13l.78-.6-.6.78h0l-.08-.21Z" transform="translate(-20.77 -52.25)"/><polygon class="cls-4" points="25.61 159.11 29.98 154.74 38.41 162.23 54.96 146.31 59.02 150.68 37.79 170.66 25.61 159.11"/></g><g id="freepik--Character--inject-2"><polygon class="cls-8" points="157.45 259.7 147.31 255.95 108.49 254.8 99.48 257.25 100.66 279.21 121.03 292.2 140.79 291.81 153.21 280.49 155.98 269.27 157.45 259.7"/><path class="cls-4" d="M63.08,345.58a133.9,133.9,0,0,1,8.12-14.52,33.59,33.59,0,0,1,20.92-14.72l32.57-8.82s2.22,22,24.62,22,22.85-20.3,22.85-20.3l41,15c1.3.5,10,3.53,20.21,25.34,9.69,20.73,13.93,31.33,13.93,31.33L208.62,391.2,206,426.94l.87,19.94L89,446.62l.66-22.8-.53-37.63-2.47,4.66L49.9,376.08S53.54,365.22,63.08,345.58Z" transform="translate(-20.77 -52.25)"/><path class="cls-5" d="M88.58,366.69c-.17,0-.06,12.63.25,28.2s.68,28.19.86,28.19.07-12.63-.23-28.2S88.76,366.68,88.58,366.69Z" transform="translate(-20.77 -52.25)"/><g class="cls-9"><path d="M203.4,370.37c-1.83-2-4.67-2.69-7.34-3.23-30.32-6.23-61.59-3.6-92.31.25-3.82.47-8,1.27-10.32,4.31-1.67,2.23-.6,5.18-.76,8-.8,14.23,1,29.4,3.88,43.38l104.64-1.62c3.58-10.85,4.45-29.24,4.51-41.74C205.73,376.39,205.61,372.78,203.4,370.37Z" transform="translate(-20.77 -52.25)"/></g><path class="cls-1" d="M230.53,344.81l-.34.3-1,.86a15.69,15.69,0,0,1-1.72,1.32l-1.17.77-.64.42-.72.39a28.12,28.12,0,0,1-3.35,1.65,35.84,35.84,0,0,1-14.88,3,38,38,0,0,1-12.89-2.27c-.28-.11-.57-.19-.86-.3l-.82-.37-1.66-.75c-.55-.25-1.08-.59-1.62-.86a12.79,12.79,0,0,1-1.63-.95c-1-.74-2.11-1.41-3.11-2.25s-2-1.67-3-2.53a29.87,29.87,0,0,0-6.58-4.64,16.61,16.61,0,0,0-3.94-1.26,18,18,0,0,0-4.21-.17,26.19,26.19,0,0,0-8.38,2.22,51,51,0,0,0-7.88,4.32c-5.08,3.35-9.94,7-15.44,8.95a21.78,21.78,0,0,1-12.5.94,26.11,26.11,0,0,1-3.88-1.13,53.67,53.67,0,0,1-13-7.49c-3.81-2.79-7.28-5.47-10.71-7.52a33.06,33.06,0,0,0-9.85-4.21,23,23,0,0,0-8.06-.56,16.53,16.53,0,0,0-4.94,1.34,13.25,13.25,0,0,0-1.2.58l-.42.21.39-.24a9,9,0,0,1,1.19-.63,16,16,0,0,1,5-1.43,23.17,23.17,0,0,1,8.13.48,33.8,33.8,0,0,1,10,4.19c3.45,2.06,6.9,4.72,10.76,7.5a53.83,53.83,0,0,0,13,7.4,25.42,25.42,0,0,0,3.83,1.11,21.13,21.13,0,0,0,4,.48,22,22,0,0,0,8.23-1.42c5.4-2,10.25-5.55,15.34-8.91a51.24,51.24,0,0,1,7.94-4.4,26.59,26.59,0,0,1,8.53-2.25,18.28,18.28,0,0,1,4.31.19,16.7,16.7,0,0,1,4,1.29,30.62,30.62,0,0,1,6.67,4.72c1,.86,2,1.73,3,2.54s2.06,1.49,3.07,2.22c.51.37,1.07.63,1.6.95a15.48,15.48,0,0,0,1.6.86l1.65.73.81.37a7.82,7.82,0,0,0,.86.3,37.44,37.44,0,0,0,12.74,2.32,39.37,39.37,0,0,0,10.64-1.41,37.34,37.34,0,0,0,4.16-1.48,29.31,29.31,0,0,0,3.34-1.61l.73-.38.65-.41,1.14-.75A16.72,16.72,0,0,0,229,345.9l1.06-.82Z" transform="translate(-20.77 -52.25)"/><path class="cls-1" d="M212,369.49a2.64,2.64,0,0,1-.38.18l-1.15.47a18.54,18.54,0,0,1-4.66.94,25.53,25.53,0,0,1-7.49-.72A48,48,0,0,1,189,366.9c-3.35-1.58-6.87-3.57-10.81-5.36s-8.35-3.45-13.21-3.5a21.81,21.81,0,0,0-7.3,1.13,44,44,0,0,0-7.11,3.11c-2.34,1.24-4.68,2.59-7.13,3.86a38.78,38.78,0,0,1-7.77,3.14,25.14,25.14,0,0,1-8.33.77,35.07,35.07,0,0,1-8-1.59,61.06,61.06,0,0,1-13.73-6.7c-4.14-2.59-8-5.25-11.65-7.51a59.72,59.72,0,0,0-10.73-5.36c-6.91-2.52-13.13-2.54-17.11-1.59a23.59,23.59,0,0,0-4.47,1.53l-1.1.57-.38.18.37-.22,1.08-.61a21.9,21.9,0,0,1,4.47-1.62c4-1,10.25-1,17.27,1.47A58.9,58.9,0,0,1,94.15,354c3.72,2.25,7.54,4.89,11.67,7.47a61.17,61.17,0,0,0,13.67,6.67,33.87,33.87,0,0,0,7.84,1.51,24.89,24.89,0,0,0,8.2-.76,38.9,38.9,0,0,0,7.66-3.1c2.43-1.26,4.77-2.59,7.13-3.85a45.8,45.8,0,0,1,7.18-3.14,22.61,22.61,0,0,1,7.43-1.13c5,.1,9.43,1.79,13.36,3.58s7.47,3.82,10.79,5.42a48.69,48.69,0,0,0,9.29,3.45,25.7,25.7,0,0,0,7.41.8,20.41,20.41,0,0,0,4.65-.87l1.15-.43Z" transform="translate(-20.77 -52.25)"/><path class="cls-1" d="M239.59,362.91a7,7,0,0,1-.86.86c-.29.28-.66.6-1.12,1s-.94.78-1.53,1.2a38.7,38.7,0,0,1-4.32,2.72,39.53,39.53,0,0,1-11.7,4.18,38.72,38.72,0,0,1-5,.6c-.73.05-1.38,0-2,0a7.72,7.72,0,0,1-1.48,0,8.67,8.67,0,0,1-1.25-.12,5.79,5.79,0,0,1,1.25-.05h1.47a11,11,0,0,0,1.93-.12,41.59,41.59,0,0,0,5-.69,45.15,45.15,0,0,0,6-1.64,46.38,46.38,0,0,0,5.64-2.48,44.86,44.86,0,0,0,4.32-2.59c.59-.4,1.1-.81,1.56-1.14l1.16-.87A7.81,7.81,0,0,1,239.59,362.91Z" transform="translate(-20.77 -52.25)"/><path class="cls-5" d="M110.26,265.33s-2.46,3.37-2.42,9.44c0,3.26,2.23,9.85,8,10.18-1.53,9.31,4.42,16.18,14.33,16.2s21.27-17,30.45-20.72l26.67-7.05c2.34-.54,3.3-3.4,3.26-5.8s-.66-4.91.19-7.16c1.17-3.08,4.74-4.73,6-7.77,1.39-3.45-.76-7.35-3.24-10.16s-5.49-5.49-6.28-9.15c-.72-3.38.57-7.18-1.11-10.18-2.07-3.71-7.5-4.16-10-7.57-1.21-1.66-1.59-3.81-2.8-5.48-2.06-2.83-6-3.57-9.5-3.18s-6.82,1.63-10.31,1.89c-4.79.34-9.74-1.2-14.33.18-5.07,1.53-8.16,6-11.45,10.36l-4.32,5a19.39,19.39,0,0,1-2.85,2.34c-1.82,1.17-3.88,2-5.43,3.45a8.49,8.49,0,0,0,.34,12l.24.22a9.05,9.05,0,0,0-6,8.9s-.48,4.42,2.32,6.39C111.93,257.73,107.92,260.75,110.26,265.33Z" transform="translate(-20.77 -52.25)"/><path class="cls-5" d="M128.12,274.37c-2.2-6.77-4.37-13.59-5.37-20.63s-.8-14.38,1.73-21c.38-1,3.58-7.77,4.65-7.7.77.08-1.21,6.41-.82,7.08,3.7,6.35,4.7,14,4.12,21.32a96.75,96.75,0,0,1-4.27,21" transform="translate(-20.77 -52.25)"/><path class="cls-8" d="M147.16,327.46c-11-.24-19-18.32-19-18.32l-.71-61.91c-.59-17.83,9.3-33,27.14-33.11l1.65.08a31.9,31.9,0,0,1,30.18,31c.41,15.46.68,32.54.13,40.79-1.13,17.09-18.36,18.82-18.36,18.82s-.1,4-.16,9c-.11,11.28-16.4,14.06-20.85,13.68Z" transform="translate(-20.77 -52.25)"/><path class="cls-10" d="M168.16,304.79a41.29,41.29,0,0,1-21.9-7.77s4.76,12.72,21.9,12.09Z" transform="translate(-20.77 -52.25)"/><path class="cls-5" d="M177.7,259.83a2.44,2.44,0,0,1-2.48,2.34,2.33,2.33,0,0,1-2.39-2.27v-.07a2.42,2.42,0,0,1,2.47-2.34,2.32,2.32,0,0,1,2.4,2.27Z" transform="translate(-20.77 -52.25)"/><path class="cls-5" d="M182.36,252.08c-.32.3-2.1-1.16-4.72-1.29s-4.62,1.07-4.89.73c-.14-.15.21-.71,1.08-1.27a6.64,6.64,0,0,1,3.93-1,6.35,6.35,0,0,1,3.73,1.42C182.27,251.33,182.51,252,182.36,252.08Z" transform="translate(-20.77 -52.25)"/><path class="cls-5" d="M154.22,259.2a2.45,2.45,0,0,1-2.49,2.34,2.35,2.35,0,0,1-2.4-2.28v-.06a2.45,2.45,0,0,1,2.49-2.34,2.35,2.35,0,0,1,2.4,2.3Z" transform="translate(-20.77 -52.25)"/><path class="cls-5" d="M156.58,251.76c-.32.3-2.1-1.16-4.73-1.29s-4.62,1.08-4.89.74c-.13-.16.21-.71,1.08-1.28a6.72,6.72,0,0,1,3.94-1,6.39,6.39,0,0,1,3.73,1.43C156.52,251,156.73,251.63,156.58,251.76Z" transform="translate(-20.77 -52.25)"/><path class="cls-5" d="M164.92,272.45c0-.15,1.64-.34,4.31-.54.69,0,1.33-.14,1.46-.58a3.52,3.52,0,0,0-.34-2l-1.73-5.18c-2.36-7.41-4-13.5-3.74-13.59s2.46,5.84,4.83,13.27c.57,1.83,1.11,3.56,1.62,5.24a3.85,3.85,0,0,1,.21,2.65,1.63,1.63,0,0,1-1.16.91,4.88,4.88,0,0,1-1.15.11C166.57,272.68,164.92,272.6,164.92,272.45Z" transform="translate(-20.77 -52.25)"/><path class="cls-5" d="M157.09,273.86c.43,0,.28,2.84,2.59,5s5.38,2,5.38,2.41c0,.18-.71.52-2,.49a7.14,7.14,0,0,1-4.51-1.85,6.3,6.3,0,0,1-2-4.19C156.52,274.52,156.9,273.83,157.09,273.86Z" transform="translate(-20.77 -52.25)"/><path class="cls-5" d="M157,241.1c-.29.7-2.9.22-6,.43s-5.64.86-6,.25c-.17-.32.31-1,1.34-1.61a10.51,10.51,0,0,1,9.15-.51C156.59,240.17,157.13,240.77,157,241.1Z" transform="translate(-20.77 -52.25)"/><path class="cls-5" d="M181.74,243.29c-.5.57-2.27-.15-4.44-.28s-4,.18-4.43-.47c-.17-.31.15-.86,1-1.42a6.46,6.46,0,0,1,7.15.61C181.74,242.39,182,243,181.74,243.29Z" transform="translate(-20.77 -52.25)"/><path class="cls-8" d="M128.14,260c-.29-.13-11.56-4.1-11.81,7.61s11.54,9.54,11.57,9.2S128.14,260,128.14,260Z" transform="translate(-20.77 -52.25)"/><path class="cls-10" d="M124.42,272.26s-.2.14-.56.28a2,2,0,0,1-1.52,0c-1.22-.48-2.22-2.47-2.23-4.57a6.63,6.63,0,0,1,.63-2.91,2.34,2.34,0,0,1,1.57-1.53,1,1,0,0,1,1.19.59c.15.32.07.56.13.58s.26-.19.17-.68a1.21,1.21,0,0,0-.45-.74,1.53,1.53,0,0,0-1.11-.33,2.92,2.92,0,0,0-2.18,1.73,6.88,6.88,0,0,0-.77,3.24c0,2.37,1.18,4.6,2.86,5.12a2.22,2.22,0,0,0,1.88-.26C124.4,272.53,124.46,272.28,124.42,272.26Z" transform="translate(-20.77 -52.25)"/><path class="cls-5" d="M179.07,225.7c1.91-1-3.71-7.24-8.33-9.41-7-3.28-17.72-5.38-24.23-3.62-7.84,2.1-14.38,5.91-18.39,13s-5.6,15.31-5.47,23.44a13.56,13.56,0,0,0,1.56,7.17c1.6,2.59,4.71,4.28,4.53,7.85a4.85,4.85,0,0,0,1.18,3.59c2.1,2.3,4.75.19,6-1.93,2.63-4.56,3-10,3.28-15.27.21-3.74.4-7.55-.6-11.15-.55-2-1.45-3.82-1.88-5.8a7.21,7.21,0,0,1,.86-5.83,7.91,7.91,0,0,1,1-.95,12.2,12.2,0,0,1,12.14-2.15c6.56,2.41,17.78,6,20.72,3.84,4.27-3.17,5.31-5.25,5.31-5.25Z" transform="translate(-20.77 -52.25)"/><path class="cls-5" d="M147.14,211.08c6.47-2.07,13.81-1.86,19.76,1.34,3.18,1.72,6,4.38,7,7.86s-.6,7.77-4,9l-.24.15c-5,1.61-8.25.86-13.21-.86-4.17-1.52-7.86-4.15-12-5.63a23.77,23.77,0,0,0-13.92-.58A38.76,38.76,0,0,1,147.14,211.08Z" transform="translate(-20.77 -52.25)"/><path class="cls-11" d="M124.88,222.66c.11.08,1.05-1,3-2.35a16.11,16.11,0,0,1,3.54-1.9,10.82,10.82,0,0,1,4.77-.8A16,16,0,0,1,144.3,221c1.81,1.44,2.65,2.64,2.76,2.59s-.13-.35-.51-.86a12.49,12.49,0,0,0-1.9-2.08,15.05,15.05,0,0,0-8.45-3.72,11,11,0,0,0-5.09.9,15.6,15.6,0,0,0-3.61,2.13A8.2,8.2,0,0,0,124.88,222.66Z" transform="translate(-20.77 -52.25)"/><path class="cls-11" d="M160.55,210a31.22,31.22,0,0,0,3.1,1.16,25.39,25.39,0,0,1,12,9.93c.53,1,1.1,1.91,1.72,2.82a9.42,9.42,0,0,0-1.26-3.1,22.16,22.16,0,0,0-12.3-10.13A9,9,0,0,0,160.55,210Z" transform="translate(-20.77 -52.25)"/><path class="cls-11" d="M109.72,251.49a9.64,9.64,0,0,0,1.24.41,9.1,9.1,0,0,0,3.45.22,14.24,14.24,0,0,0,5-1.6c1.77-.87,3.58-2.11,5.59-3.25a17.17,17.17,0,0,1,6.11-2.27,8.18,8.18,0,0,1,5.24.95,6.21,6.21,0,0,1,2.51,2.59,4.23,4.23,0,0,1,.34.92c0,.22.06.33,0,.34a8.54,8.54,0,0,0-.54-1.18,6.23,6.23,0,0,0-2.51-2.37,7.94,7.94,0,0,0-5-.81,17.07,17.07,0,0,0-6,2.25c-2,1.13-3.82,2.34-5.62,3.23a14.3,14.3,0,0,1-5.11,1.55,8.48,8.48,0,0,1-3.57-.38,4.45,4.45,0,0,1-.86-.39A2.68,2.68,0,0,1,109.72,251.49Z" transform="translate(-20.77 -52.25)"/><path class="cls-11" d="M110.51,257a14,14,0,0,0,4.24.26,20.4,20.4,0,0,0,4.48-1c1.65-.55,3.45-1.3,5.34-2a18.65,18.65,0,0,1,5.61-1.21,10.76,10.76,0,0,1,4.62.86,7.09,7.09,0,0,1,2.59,1.87,4.27,4.27,0,0,1,.49.71c.11.17.15.26.13.27s-.25-.33-.75-.86a7.46,7.46,0,0,0-2.59-1.73,10.66,10.66,0,0,0-4.47-.74,18.77,18.77,0,0,0-5.48,1.22c-1.9.66-3.68,1.4-5.36,2a20.06,20.06,0,0,1-4.59,1,10.76,10.76,0,0,1-3.15-.19,4.4,4.4,0,0,1-.86-.24C110.6,257.08,110.51,257,110.51,257Z" transform="translate(-20.77 -52.25)"/><path class="cls-11" d="M192.87,244.42a2.21,2.21,0,0,1-.42,1.08,6.39,6.39,0,0,1-4.58,3,2.28,2.28,0,0,1-1.16-.06,11,11,0,0,0,3.54-1.31A11.29,11.29,0,0,0,192.87,244.42Z" transform="translate(-20.77 -52.25)"/><path class="cls-11" d="M196.15,250.23a3.84,3.84,0,0,1-.6,1.61,8.79,8.79,0,0,1-6.81,4.35,3.89,3.89,0,0,1-1.73-.12c0-.08.66,0,1.68-.19a9.92,9.92,0,0,0,3.73-1.42,9.77,9.77,0,0,0,2.84-2.78C195.84,250.82,196.08,250.21,196.15,250.23Z" transform="translate(-20.77 -52.25)"/><path class="cls-8" d="M244,381.84l15.79,31.7a23.08,23.08,0,0,1,2.4,11.43h0a23.11,23.11,0,0,1-23.07,22l-45.29-2.59-2-20.66,34.46-8.33L212.9,390.14Z" transform="translate(-20.77 -52.25)"/><path class="cls-10" d="M226.26,415.37c0,.14,1.56-.12,4.07-.1a31.7,31.7,0,0,1,9.55,1.68,29.33,29.33,0,0,1,8.55,4.55c2,1.54,2.88,2.82,3,2.73s-.15-.37-.57-1a16.47,16.47,0,0,0-2.06-2.2,25.88,25.88,0,0,0-8.64-4.85,27.45,27.45,0,0,0-9.8-1.5,17.8,17.8,0,0,0-3,.35A3.4,3.4,0,0,0,226.26,415.37Z" transform="translate(-20.77 -52.25)"/><path class="cls-8" d="M50.5,376.39S42,400.16,31.32,426.6a10.47,10.47,0,0,0-.5,1.65C29.2,435.4,34.65,447.43,42,447.43l61.3-.6V426.78L67.92,419l13.64-30.22Z" transform="translate(-20.77 -52.25)"/><path class="cls-10" d="M40.42,424.52c.09.1,1.3-.87,3.46-2.08a32.1,32.1,0,0,1,18.43-4.17c2.45.19,4,.52,4,.39a3.36,3.36,0,0,0-1-.38,20.23,20.23,0,0,0-2.91-.57A28.39,28.39,0,0,0,43.59,422a20.39,20.39,0,0,0-2.38,1.77C40.67,424.2,40.39,424.47,40.42,424.52Z" transform="translate(-20.77 -52.25)"/><path class="cls-8" d="M200.66,422.46H191.8s-20-7.22-24.12-6.53c-3.7.62-17.27,9.63-19.93,11.41a1.73,1.73,0,0,0-.64.82h0a2.92,2.92,0,0,0,1.62,3.7l.28.12-.12.4a4.69,4.69,0,0,0-.2,1.62,2,2,0,0,0,3.63.86l-.51.91a2.16,2.16,0,0,0-.28,1.22l0,.82a2.22,2.22,0,0,0,1.54,2h0a2.22,2.22,0,0,0,2.32-.61c1.73-1.89,5.44-5.68,7.95-6.1a57.75,57.75,0,0,1,8.21-.41,2.76,2.76,0,0,1,2.59,1.78h0c-1.49.1-11.89,5.52-15.54,7.46a4,4,0,0,0-2.13,3c-.14,1.14.44,2.35,2.72,1.82,4.88-1.14,13.68-5.18,13.68-5.18s4.54-1.31,7.48.77c4.13,2.91,6,4,9.57,2.81a29.92,29.92,0,0,0,6.18-2.87l7-.7S209.71,425,200.66,422.46Z" transform="translate(-20.77 -52.25)"/><path class="cls-10" d="M174.25,425.84c0,.08-1.42-.37-3.76-.52a19.36,19.36,0,0,0-16.17,6.91,36.7,36.7,0,0,0-2.22,3.07,4.57,4.57,0,0,1,.44-.92,16.64,16.64,0,0,1,1.58-2.32,18.81,18.81,0,0,1,16.4-7,16.1,16.1,0,0,1,2.76.48A4.55,4.55,0,0,1,174.25,425.84Z" transform="translate(-20.77 -52.25)"/><path class="cls-10" d="M172.13,421a16.29,16.29,0,0,0-3.91-.69,17.17,17.17,0,0,0-9.1,2.59,36.34,36.34,0,0,0-7.33,6.21l-2,2.13a5.46,5.46,0,0,1-.76.76,5,5,0,0,1,.66-.86c.44-.53,1.09-1.3,1.93-2.22a32.68,32.68,0,0,1,7.33-6.34,16.51,16.51,0,0,1,9.3-2.52,11.4,11.4,0,0,1,2.9.52,6.17,6.17,0,0,1,.75.3C172.06,420.93,172.14,421,172.13,421Z" transform="translate(-20.77 -52.25)"/><path class="cls-8" d="M90.29,423.09h8.86s20-7.22,24.13-6.54c3.7.63,17.26,9.63,19.92,11.42a1.67,1.67,0,0,1,.64.86h0a2.92,2.92,0,0,1-1.61,3.7l-.29.11.12.41a4.89,4.89,0,0,1,.21,1.61,2,2,0,0,1-3.63.87l.51.9a2.36,2.36,0,0,1,.28,1.22l0,.86a2.25,2.25,0,0,1-1.54,2h0a2.2,2.2,0,0,1-2.32-.62c-1.73-1.89-5.44-5.68-8-6.1a57.89,57.89,0,0,0-8.22-.41,2.8,2.8,0,0,0-2.59,1.77h0c1.5.12,11.89,5.53,15.55,7.47a4,4,0,0,1,2.13,3c.14,1.15-.44,2.36-2.72,1.83-4.89-1.14-13.69-5.18-13.69-5.18s-4.53-1.29-7.47.78c-4.14,2.92-6,4-9.58,2.81A29.84,29.84,0,0,1,94.82,443l-7-.69S81.25,425.62,90.29,423.09Z" transform="translate(-20.77 -52.25)"/><path class="cls-10" d="M116.71,426.47c0,.08,1.42-.37,3.75-.52a19.35,19.35,0,0,1,16.17,6.91c1.51,1.79,2.16,3.11,2.23,3.07a5.22,5.22,0,0,0-.45-.92,16,16,0,0,0-1.57-2.32,18.83,18.83,0,0,0-16.4-7,16.2,16.2,0,0,0-2.77.47A4,4,0,0,0,116.71,426.47Z" transform="translate(-20.77 -52.25)"/><path class="cls-10" d="M118.83,421.61a16.19,16.19,0,0,1,3.91-.68,16.93,16.93,0,0,1,9.1,2.59,36.52,36.52,0,0,1,7.33,6.2l2,2.13a7.88,7.88,0,0,0,.77.76,6.16,6.16,0,0,0-.65-.87c-.44-.53-1.09-1.29-1.93-2.21a33.67,33.67,0,0,0-7.33-6.35,16.62,16.62,0,0,0-9.31-2.52,11.49,11.49,0,0,0-2.9.53c-.33.1-.58.23-.75.29S118.82,421.6,118.83,421.61Z" transform="translate(-20.77 -52.25)"/><path class="cls-6" d="M102.28,447.52h93.09a4.93,4.93,0,0,0,4.93-4.72l2.8-64.05a5,5,0,0,0-4.69-5.18H99.73a4.94,4.94,0,0,0-4.94,4.93v.21l2.59,64A4.94,4.94,0,0,0,102.28,447.52Z" transform="translate(-20.77 -52.25)"/><path class="cls-5" d="M102.28,447.52h-.23a5.23,5.23,0,0,1-.68-.07A4.84,4.84,0,0,1,99,446.32a5.11,5.11,0,0,1-1.73-3.87c-.08-1.73-.16-3.68-.26-5.89-.38-8.87-.92-21.7-1.59-37.55q-.27-5.94-.53-12.44c-.09-2.17-.18-4.37-.28-6.62,0-.56-.06-1.11,0-1.73A4.87,4.87,0,0,1,95,376.5a5.17,5.17,0,0,1,4.14-3.09c.62-.05,1.2,0,1.8,0h96.77a6,6,0,0,1,2.3.36,5.16,5.16,0,0,1,3.08,3.33,5.9,5.9,0,0,1,.19,2.29l-.09,2.23c-.07,1.48-.13,3-.2,4.43q-.39,8.83-.76,17.4c-.5,11.41-1,22.41-1.45,32.89-.05,1.31-.11,2.59-.17,3.9,0,.65-.06,1.3-.09,1.93a7.22,7.22,0,0,1-.25,2,5.16,5.16,0,0,1-4.3,3.59,17,17,0,0,1-1.89,0H153.64l-37.58-.07-10.22,0h10.22l37.58-.07h40.41c.62,0,1.26,0,1.85,0a4.4,4.4,0,0,0,1.72-.55,4.72,4.72,0,0,0,2.25-2.76,6.8,6.8,0,0,0,.23-1.85c0-.64.06-1.29.09-1.93.05-1.3.11-2.59.16-3.91.46-10.48.93-21.49,1.43-32.89q.36-8.55.75-17.4c.07-1.47.13-2.94.2-4.43l.09-2.23a5.71,5.71,0,0,0-.17-2.14,4.69,4.69,0,0,0-2.82-3,5.31,5.31,0,0,0-2.13-.32H99.18a4.75,4.75,0,0,0-3.85,2.85,4.68,4.68,0,0,0-.38,1.59v1.69c.08,2.24.17,4.45.26,6.61q.26,6.48.49,12.44c.62,15.85,1.11,28.68,1.46,37.56.08,2.22.15,4.19.22,5.89a4.93,4.93,0,0,0,4,5A3.39,3.39,0,0,1,102.28,447.52Z" transform="translate(-20.77 -52.25)"/><path class="cls-1" d="M143.81,411.69a5.1,5.1,0,1,0,5.09-5.1,5.09,5.09,0,0,0-5.09,5.1Z" transform="translate(-20.77 -52.25)"/><path class="cls-5" d="M210.21,353.94a2.35,2.35,0,0,1,0,.53V356c0,1.33,0,3.25-.09,5.64-.12,4.75-.38,11.33-.78,18.58s-.86,13.82-1.25,18.58c-.2,2.33-.37,4.23-.48,5.62-.07.62-.12,1.12-.16,1.52a1.9,1.9,0,0,1-.09.53,2.35,2.35,0,0,1,0-.53,13.16,13.16,0,0,1,.07-1.54c.09-1.38.2-3.29.35-5.63.28-4.8.68-11.34,1.11-18.57s.71-13.82.91-18.57c.09-2.34.18-4.25.24-5.64l.08-1.53A2.35,2.35,0,0,1,210.21,353.94Z" transform="translate(-20.77 -52.25)"/></g><g id="freepik--Desk--inject-2"><path class="cls-5" d="M479.23,447.48c0,.14-102.29.26-228.45.26s-228.47-.12-228.47-.26,102.27-.23,228.47-.23S479.23,447.33,479.23,447.48Z" transform="translate(-20.77 -52.25)"/></g><path class="cls-1" d="M374,177.52h1.13l2.66,7.87h-1.06L375.36,181c-.28-.88-.54-1.75-.79-2.66h-.05c-.24.92-.49,1.78-.78,2.66l-1.38,4.39h-1Zm-1.26,4.67h3.62v.8h-3.62Z" transform="translate(-20.77 -52.25)"/><path class="cls-1" d="M378.45,184.73l.48-.65a2.67,2.67,0,0,0,1.72.69c.77,0,1.15-.41,1.15-.91s-.69-.86-1.33-1.1c-.82-.3-1.74-.7-1.74-1.69s.75-1.65,2-1.65a3,3,0,0,1,1.81.65l-.47.64a2.16,2.16,0,0,0-1.33-.52c-.73,0-1.07.39-1.07.83s.63.77,1.29,1c.84.32,1.78.66,1.78,1.77,0,.95-.75,1.74-2.13,1.74A3.45,3.45,0,0,1,378.45,184.73Z" transform="translate(-20.77 -52.25)"/><path class="cls-1" d="M383.47,184.73l.49-.65a2.67,2.67,0,0,0,1.72.69c.77,0,1.15-.41,1.15-.91s-.69-.86-1.33-1.1c-.82-.3-1.74-.7-1.74-1.69s.74-1.65,2-1.65a3,3,0,0,1,1.81.65l-.47.64a2.19,2.19,0,0,0-1.33-.52c-.74,0-1.07.39-1.07.83s.63.77,1.29,1c.84.32,1.78.66,1.78,1.77,0,.95-.75,1.74-2.13,1.74A3.51,3.51,0,0,1,383.47,184.73Z" transform="translate(-20.77 -52.25)"/><path class="cls-1" d="M389,177.73a.68.68,0,1,1,.68.63A.64.64,0,0,1,389,177.73Zm.18,1.83h1v5.83h-1Z" transform="translate(-20.77 -52.25)"/><path class="cls-1" d="M391.66,186.51a1.65,1.65,0,0,1,.85-1.32v0a1.1,1.1,0,0,1-.52-1,1.4,1.4,0,0,1,.64-1.08v-.05a2,2,0,0,1-.75-1.56,2.07,2.07,0,0,1,2.19-2.08,2.37,2.37,0,0,1,.82.14h2v.76h-1.19a1.71,1.71,0,0,1,.47,1.2,2,2,0,0,1-2.13,2,2,2,0,0,1-.87-.2.86.86,0,0,0-.37.69c0,.37.24.64,1,.64H395c1.36,0,2,.42,2,1.39s-1.15,2-2.95,2C392.64,188.08,391.66,187.52,391.66,186.51Zm4.39-.3c0-.54-.41-.73-1.17-.73h-1a3.51,3.51,0,0,1-.76-.08,1.21,1.21,0,0,0-.59,1c0,.63.63,1,1.69,1S396.05,186.81,396.05,186.21Zm-.75-4.71a1.24,1.24,0,1,0-2.47,0,1.24,1.24,0,1,0,2.47,0Z" transform="translate(-20.77 -52.25)"/><path class="cls-1" d="M398.15,179.56H399l.09.84h0a2.82,2.82,0,0,1,2-1c1.22,0,1.78.79,1.78,2.28v3.69h-1v-3.56c0-1.09-.33-1.56-1.1-1.56-.6,0-1,.31-1.6.9v4.22h-1Z" transform="translate(-20.77 -52.25)"/><path class="cls-5" d="M328.88,137.88c0,.15-35.37.26-79,.26s-79-.11-79-.26,35.36-.26,79-.26S328.88,137.74,328.88,137.88Z" transform="translate(-20.77 -52.25)"/><path class="cls-5" d="M237.58,152.1c0,.14-15,.26-33.56.26s-33.57-.12-33.57-.26,15-.26,33.57-.26S237.58,152,237.58,152.1Z" transform="translate(-20.77 -52.25)"/><path class="cls-1" d="M374,231h1.13l2.66,7.87h-1.06l-1.37-4.39c-.28-.88-.54-1.75-.79-2.65h-.05c-.24.91-.49,1.77-.78,2.65l-1.38,4.39h-1Zm-1.26,4.68h3.62v.8h-3.62Z" transform="translate(-20.77 -52.25)"/><path class="cls-1" d="M378.45,238.2l.48-.65a2.62,2.62,0,0,0,1.72.69c.77,0,1.15-.41,1.15-.91s-.69-.86-1.33-1.1c-.82-.3-1.74-.7-1.74-1.68s.75-1.66,2-1.66a3,3,0,0,1,1.81.66l-.47.63a2.16,2.16,0,0,0-1.33-.52c-.73,0-1.07.39-1.07.83s.63.77,1.29,1c.84.31,1.78.66,1.78,1.76,0,.95-.75,1.74-2.13,1.74A3.45,3.45,0,0,1,378.45,238.2Z" transform="translate(-20.77 -52.25)"/><path class="cls-1" d="M383.47,238.2l.49-.65a2.62,2.62,0,0,0,1.72.69c.77,0,1.15-.41,1.15-.91s-.69-.86-1.33-1.1c-.82-.3-1.74-.7-1.74-1.68s.74-1.66,2-1.66a3,3,0,0,1,1.81.66l-.47.63a2.19,2.19,0,0,0-1.33-.52c-.74,0-1.07.39-1.07.83s.63.77,1.29,1c.84.31,1.78.66,1.78,1.76,0,.95-.75,1.74-2.13,1.74A3.51,3.51,0,0,1,383.47,238.2Z" transform="translate(-20.77 -52.25)"/><path class="cls-1" d="M389,231.2a.68.68,0,0,1,1.36,0,.68.68,0,0,1-1.36,0Zm.18,1.83h1v5.83h-1Z" transform="translate(-20.77 -52.25)"/><path class="cls-1" d="M391.66,240a1.62,1.62,0,0,1,.85-1.31v0a1.1,1.1,0,0,1-.52-1,1.4,1.4,0,0,1,.64-1.08v-.05a2,2,0,0,1-.75-1.56,2.07,2.07,0,0,1,2.19-2.08,2.37,2.37,0,0,1,.82.14h2v.76h-1.19a1.73,1.73,0,0,1,.47,1.2,2.12,2.12,0,0,1-3,1.83.85.85,0,0,0-.37.69c0,.37.24.63,1,.63H395c1.36,0,2,.42,2,1.39s-1.15,2-2.95,2C392.64,241.55,391.66,241,391.66,240Zm4.39-.3c0-.54-.41-.72-1.17-.72h-1a3.56,3.56,0,0,1-.76-.09,1.22,1.22,0,0,0-.59,1c0,.62.63,1,1.69,1S396.05,240.29,396.05,239.68ZM395.3,235a1.24,1.24,0,1,0-2.47,0,1.24,1.24,0,1,0,2.47,0Z" transform="translate(-20.77 -52.25)"/><path class="cls-1" d="M398.15,233H399l.09.85h0a2.79,2.79,0,0,1,2-1c1.22,0,1.78.79,1.78,2.28v3.69h-1V235.3c0-1.09-.33-1.55-1.1-1.55a2.22,2.22,0,0,0-1.6.89v4.22h-1Z" transform="translate(-20.77 -52.25)"/><path class="cls-1" d="M373.72,284.59h1.13l2.66,7.87h-1.06l-1.37-4.4c-.29-.88-.54-1.74-.79-2.65h-.05c-.24.91-.49,1.77-.78,2.65l-1.39,4.4h-1Zm-1.26,4.67h3.62v.8h-3.62Z" transform="translate(-20.77 -52.25)"/><path class="cls-1" d="M378.16,291.79l.49-.65a2.62,2.62,0,0,0,1.72.69c.77,0,1.15-.4,1.15-.9s-.69-.87-1.34-1.11c-.81-.3-1.73-.7-1.73-1.68s.74-1.66,2-1.66a3,3,0,0,1,1.81.66l-.47.63a2.19,2.19,0,0,0-1.33-.52c-.74,0-1.08.39-1.08.84s.64.76,1.3,1c.84.32,1.78.66,1.78,1.77,0,.94-.76,1.73-2.13,1.73A3.51,3.51,0,0,1,378.16,291.79Z" transform="translate(-20.77 -52.25)"/><path class="cls-1" d="M383.19,291.79l.49-.65a2.62,2.62,0,0,0,1.72.69c.77,0,1.15-.4,1.15-.9s-.69-.87-1.34-1.11c-.81-.3-1.74-.7-1.74-1.68s.75-1.66,2-1.66a3,3,0,0,1,1.81.66l-.47.63a2.21,2.21,0,0,0-1.33-.52c-.74,0-1.08.39-1.08.84s.64.76,1.3,1c.84.32,1.78.66,1.78,1.77,0,.94-.76,1.73-2.13,1.73A3.51,3.51,0,0,1,383.19,291.79Z" transform="translate(-20.77 -52.25)"/><path class="cls-1" d="M388.69,284.79a.68.68,0,0,1,1.36,0,.68.68,0,0,1-1.36,0Zm.18,1.84h1v5.83h-1Z" transform="translate(-20.77 -52.25)"/><path class="cls-1" d="M391.38,293.58a1.65,1.65,0,0,1,.85-1.32v-.05a1.07,1.07,0,0,1-.52-.95,1.42,1.42,0,0,1,.64-1.09v0a2,2,0,0,1-.75-1.57,2.07,2.07,0,0,1,2.18-2.08,2.46,2.46,0,0,1,.83.15h2v.76h-1.2a1.65,1.65,0,0,1,.48,1.2,2.11,2.11,0,0,1-3,1.82.84.84,0,0,0-.38.69c0,.37.24.63,1,.63h1.13c1.35,0,2,.43,2,1.4s-1.15,2-2.95,2C392.36,295.14,391.38,294.58,391.38,293.58Zm4.39-.31c0-.54-.41-.72-1.17-.72h-1a3.56,3.56,0,0,1-.76-.09,1.23,1.23,0,0,0-.59,1c0,.63.63,1,1.69,1S395.77,293.88,395.77,293.27Zm-.75-4.71a1.25,1.25,0,1,0-2.48,0,1.25,1.25,0,1,0,2.48,0Z" transform="translate(-20.77 -52.25)"/><path class="cls-1" d="M397.87,286.63h.81l.08.84h0a2.75,2.75,0,0,1,1.95-1c1.23,0,1.78.8,1.78,2.28v3.7h-1v-3.57c0-1.08-.33-1.55-1.1-1.55a2.2,2.2,0,0,0-1.6.9v4.22h-1Z" transform="translate(-20.77 -52.25)"/></svg>