<svg width="209" height="54" viewBox="0 0 209 54" fill="none" xmlns="http://www.w3.org/2000/svg">
<path d="M62.8638 14.98V18.328H56.2038V40H52.0998V18.328H45.4038V14.98H62.8638ZM65.6521 29.992C65.6521 28 66.0601 26.236 66.8761 24.7C67.7161 23.164 68.8441 21.976 70.2601 21.136C71.7001 20.272 73.2841 19.84 75.0121 19.84C76.5721 19.84 77.9281 20.152 79.0801 20.776C80.2561 21.376 81.1921 22.132 81.8881 23.044V20.164H86.0281V40H81.8881V37.048C81.1921 37.984 80.2441 38.764 79.0441 39.388C77.8441 40.012 76.4761 40.324 74.9401 40.324C73.2361 40.324 71.6761 39.892 70.2601 39.028C68.8441 38.14 67.7161 36.916 66.8761 35.356C66.0601 33.772 65.6521 31.984 65.6521 29.992ZM81.8881 30.064C81.8881 28.696 81.6001 27.508 81.0241 26.5C80.4721 25.492 79.7401 24.724 78.8281 24.196C77.9161 23.668 76.9321 23.404 75.8761 23.404C74.8201 23.404 73.8361 23.668 72.9241 24.196C72.0121 24.7 71.2681 25.456 70.6921 26.464C70.1401 27.448 69.8641 28.624 69.8641 29.992C69.8641 31.36 70.1401 32.56 70.6921 33.592C71.2681 34.624 72.0121 35.416 72.9241 35.968C73.8601 36.496 74.8441 36.76 75.8761 36.76C76.9321 36.76 77.9161 36.496 78.8281 35.968C79.7401 35.44 80.4721 34.672 81.0241 33.664C81.6001 32.632 81.8881 31.432 81.8881 30.064ZM98.6186 40.324C97.0586 40.324 95.6546 40.048 94.4066 39.496C93.1826 38.92 92.2106 38.152 91.4906 37.192C90.7706 36.208 90.3866 35.116 90.3386 33.916H94.5866C94.6586 34.756 95.0546 35.464 95.7746 36.04C96.5186 36.592 97.4426 36.868 98.5466 36.868C99.6986 36.868 100.587 36.652 101.211 36.22C101.859 35.764 102.183 35.188 102.183 34.492C102.183 33.748 101.823 33.196 101.103 32.836C100.407 32.476 99.2906 32.08 97.7546 31.648C96.2666 31.24 95.0546 30.844 94.1186 30.46C93.1826 30.076 92.3666 29.488 91.6706 28.696C90.9986 27.904 90.6626 26.86 90.6626 25.564C90.6626 24.508 90.9746 23.548 91.5986 22.684C92.2226 21.796 93.1106 21.1 94.2626 20.596C95.4386 20.092 96.7826 19.84 98.2946 19.84C100.551 19.84 102.363 20.416 103.731 21.568C105.123 22.696 105.867 24.244 105.963 26.212H101.859C101.787 25.324 101.427 24.616 100.779 24.088C100.131 23.56 99.2546 23.296 98.1506 23.296C97.0706 23.296 96.2426 23.5 95.6666 23.908C95.0906 24.316 94.8026 24.856 94.8026 25.528C94.8026 26.056 94.9946 26.5 95.3786 26.86C95.7626 27.22 96.2306 27.508 96.7826 27.724C97.3346 27.916 98.1506 28.168 99.2306 28.48C100.671 28.864 101.847 29.26 102.759 29.668C103.695 30.052 104.499 30.628 105.171 31.396C105.843 32.164 106.191 33.184 106.215 34.456C106.215 35.584 105.903 36.592 105.279 37.48C104.655 38.368 103.767 39.064 102.615 39.568C101.487 40.072 100.155 40.324 98.6186 40.324ZM118.497 30.1L127.641 40H122.097L114.753 31.468V40H110.649V13.36H114.753V28.84L121.953 20.164H127.641L118.497 30.1Z" fill="#7C38E9"/>
<path d="M145.307 14.98V18.328H134.687V25.708H142.967V29.056H134.687V40H130.583V14.98H145.307ZM153.214 13.36V40H149.11V13.36H153.214ZM167.206 40.324C165.334 40.324 163.642 39.904 162.13 39.064C160.618 38.2 159.43 37 158.566 35.464C157.702 33.904 157.27 32.104 157.27 30.064C157.27 28.048 157.714 26.26 158.602 24.7C159.49 23.14 160.702 21.94 162.238 21.1C163.774 20.26 165.49 19.84 167.386 19.84C169.282 19.84 170.998 20.26 172.534 21.1C174.07 21.94 175.282 23.14 176.17 24.7C177.058 26.26 177.502 28.048 177.502 30.064C177.502 32.08 177.046 33.868 176.134 35.428C175.222 36.988 173.974 38.2 172.39 39.064C170.83 39.904 169.102 40.324 167.206 40.324ZM167.206 36.76C168.262 36.76 169.246 36.508 170.158 36.004C171.094 35.5 171.85 34.744 172.426 33.736C173.002 32.728 173.29 31.504 173.29 30.064C173.29 28.624 173.014 27.412 172.462 26.428C171.91 25.42 171.178 24.664 170.266 24.16C169.354 23.656 168.37 23.404 167.314 23.404C166.258 23.404 165.274 23.656 164.362 24.16C163.474 24.664 162.766 25.42 162.238 26.428C161.71 27.412 161.446 28.624 161.446 30.064C161.446 32.2 161.986 33.856 163.066 35.032C164.17 36.184 165.55 36.76 167.206 36.76ZM208.199 20.164L202.043 40H197.723L193.727 25.348L189.731 40H185.411L179.219 20.164H183.395L187.535 36.112L191.747 20.164H196.031L200.063 36.04L204.167 20.164H208.199Z" fill="#29BEAC"/>
<path d="M38 15.5L30 9L26.5 9.5L6.5 15.5L2.5 22.5L5.5 32.5L17.5 37L38 15.5Z" fill="#29BEAC"/>
<mask id="mask0_8_396" style="mask-type:luminance" maskUnits="userSpaceOnUse" x="0" y="8" width="38" height="38">
<path d="M38 8H0V46H38V8Z" fill="white"/>
</mask>
<g mask="url(#mask0_8_396)">
<path d="M16.8469 34.1537L5.18841 24.3824L10.3633 18.6418L16.7129 24.6285L30 8.99995C28.7707 8.27784 27.3353 7.86145 25.8047 7.86145L8.18447 7.9999C3.68325 7.9999 0 11.5966 0 15.9919V33.2659C0 37.6613 3.68325 41.2579 8.18447 41.2579H15.7063L26.5975 46V41.2246C30.7635 40.8639 34.0592 37.4237 34.0592 33.2659V22.5729L38.0008 15.5523L16.8469 34.1537Z" fill="url(#paint0_linear_8_396)"/>
</g>
<defs>
<linearGradient id="paint0_linear_8_396" x1="19.0004" y1="7.99995" x2="19.0004" y2="46" gradientUnits="userSpaceOnUse">
<stop stop-color="#7C39EC"/>
<stop offset="1" stop-color="#6F16B1"/>
</linearGradient>
</defs>
</svg>
